G04 #@! TF.GenerationSoftware,KiCad,Pcbnew,(6.0.1)*
G04 #@! TF.CreationDate,2022-04-27T15:55:03+02:00*
G04 #@! TF.ProjectId,PompController_brian,506f6d70-436f-46e7-9472-6f6c6c65725f,rev?*
G04 #@! TF.SameCoordinates,Original*
G04 #@! TF.FileFunction,Soldermask,Top*
G04 #@! TF.FilePolarity,Negative*
%FSLAX46Y46*%
G04 Gerber Fmt 4.6, Leading zero omitted, Abs format (unit mm)*
G04 Created by KiCad (PCBNEW (6.0.1)) date 2022-04-27 15:55:03*
%MOMM*%
%LPD*%
G01*
G04 APERTURE LIST*
G04 Aperture macros list*
%AMRoundRect*
0 Rectangle with rounded corners*
0 $1 Rounding radius*
0 $2 $3 $4 $5 $6 $7 $8 $9 X,Y pos of 4 corners*
0 Add a 4 corners polygon primitive as box body*
4,1,4,$2,$3,$4,$5,$6,$7,$8,$9,$2,$3,0*
0 Add four circle primitives for the rounded corners*
1,1,$1+$1,$2,$3*
1,1,$1+$1,$4,$5*
1,1,$1+$1,$6,$7*
1,1,$1+$1,$8,$9*
0 Add four rect primitives between the rounded corners*
20,1,$1+$1,$2,$3,$4,$5,0*
20,1,$1+$1,$4,$5,$6,$7,0*
20,1,$1+$1,$6,$7,$8,$9,0*
20,1,$1+$1,$8,$9,$2,$3,0*%
G04 Aperture macros list end*
%ADD10R,2.150000X0.950000*%
%ADD11R,2.150000X3.250000*%
%ADD12R,3.000000X3.000000*%
%ADD13C,3.000000*%
%ADD14RoundRect,0.250000X0.262500X0.450000X-0.262500X0.450000X-0.262500X-0.450000X0.262500X-0.450000X0*%
%ADD15R,1.000000X0.900000*%
%ADD16C,0.800000*%
%ADD17C,6.000000*%
%ADD18RoundRect,0.250000X-0.250000X-0.475000X0.250000X-0.475000X0.250000X0.475000X-0.250000X0.475000X0*%
%ADD19RoundRect,0.250000X0.250000X0.475000X-0.250000X0.475000X-0.250000X-0.475000X0.250000X-0.475000X0*%
%ADD20O,3.000000X0.900000*%
%ADD21R,5.000000X5.000000*%
%ADD22R,0.559000X0.724000*%
G04 APERTURE END LIST*
D10*
X69194000Y-48274000D03*
X69194000Y-45974000D03*
X69194000Y-43674000D03*
D11*
X63394000Y-45974000D03*
D12*
X89710000Y-110650000D03*
D13*
X94790000Y-110650000D03*
D14*
X65512500Y-67600000D03*
X63687500Y-67600000D03*
D15*
X56650000Y-56550000D03*
X56650000Y-60650000D03*
X58250000Y-56550000D03*
X58250000Y-60650000D03*
D14*
X107742500Y-64888000D03*
X105917500Y-64888000D03*
D16*
X56150000Y-43400000D03*
X54559010Y-47240990D03*
X54559010Y-44059010D03*
X53900000Y-45650000D03*
X57740990Y-44059010D03*
D17*
X56150000Y-45650000D03*
D16*
X58400000Y-45650000D03*
X56150000Y-47900000D03*
X57740990Y-47240990D03*
D14*
X65512500Y-77100000D03*
X63687500Y-77100000D03*
D12*
X78660000Y-110650000D03*
D13*
X83740000Y-110650000D03*
D12*
X59154000Y-34290000D03*
D13*
X54074000Y-34290000D03*
D14*
X102292500Y-64938000D03*
X100467500Y-64938000D03*
D18*
X63700000Y-72300000D03*
X65600000Y-72300000D03*
X63750000Y-58450000D03*
X65650000Y-58450000D03*
D19*
X65500000Y-63100000D03*
X63600000Y-63100000D03*
D12*
X70104000Y-34290000D03*
D13*
X65024000Y-34290000D03*
D20*
X77345000Y-31644000D03*
X77345000Y-32914000D03*
X77345000Y-34184000D03*
X77345000Y-35454000D03*
X77345000Y-36724000D03*
X77345000Y-37994000D03*
X77345000Y-39264000D03*
X77345000Y-40534000D03*
X77345000Y-41804000D03*
X77345000Y-43074000D03*
X77345000Y-44344000D03*
X77345000Y-45614000D03*
X77345000Y-46884000D03*
X77345000Y-48154000D03*
X77345000Y-49454000D03*
X77345000Y-50724000D03*
X77345000Y-51994000D03*
X77345000Y-53264000D03*
X77345000Y-54534000D03*
X95345000Y-54534000D03*
X95345000Y-53264000D03*
X95345000Y-51994000D03*
X95345000Y-50724000D03*
X95345000Y-49454000D03*
X95375000Y-48154000D03*
X95375000Y-46884000D03*
X95375000Y-45614000D03*
X95375000Y-44344000D03*
X95375000Y-43074000D03*
X95375000Y-41804000D03*
X95375000Y-40534000D03*
X95375000Y-39264000D03*
X95375000Y-37994000D03*
X95375000Y-36724000D03*
X95375000Y-35454000D03*
X95375000Y-34184000D03*
X95375000Y-32914000D03*
X95375000Y-31644000D03*
D16*
X85945000Y-40554000D03*
X83945000Y-40554000D03*
X83945000Y-36554000D03*
X84945000Y-38554000D03*
X84945000Y-37554000D03*
X86945000Y-36554000D03*
X83945000Y-37554000D03*
X86945000Y-38554000D03*
X84945000Y-39554000D03*
D21*
X85945000Y-38564000D03*
D16*
X86945000Y-40554000D03*
X87945000Y-39554000D03*
X85945000Y-39554000D03*
X87945000Y-37554000D03*
X83945000Y-39554000D03*
X86945000Y-37554000D03*
X84945000Y-40554000D03*
X87945000Y-36554000D03*
X87945000Y-38554000D03*
X86945000Y-39554000D03*
X84945000Y-36554000D03*
X85945000Y-37554000D03*
X85945000Y-38554000D03*
X83945000Y-38554000D03*
X87945000Y-40554000D03*
X85945000Y-36554000D03*
X110350000Y-99600000D03*
D17*
X108100000Y-99600000D03*
D16*
X109690990Y-98009010D03*
X108100000Y-97350000D03*
X109690990Y-101190990D03*
X108100000Y-101850000D03*
X106509010Y-101190990D03*
X106509010Y-98009010D03*
X105850000Y-99600000D03*
D19*
X65450000Y-81550000D03*
X63550000Y-81550000D03*
D12*
X56980000Y-110650000D03*
D13*
X62060000Y-110650000D03*
X67140000Y-110650000D03*
X72220000Y-110650000D03*
D16*
X110350000Y-45650000D03*
X109690990Y-47240990D03*
X106509010Y-47240990D03*
X106509010Y-44059010D03*
X109690990Y-44059010D03*
X108100000Y-47900000D03*
X105850000Y-45650000D03*
D17*
X108100000Y-45650000D03*
D16*
X108100000Y-43400000D03*
D22*
X107630000Y-68103500D03*
X105730000Y-68103500D03*
X106680000Y-70072500D03*
D12*
X100570000Y-110650000D03*
D13*
X105650000Y-110650000D03*
D12*
X109982000Y-34290000D03*
D13*
X104902000Y-34290000D03*
D22*
X102296000Y-68103500D03*
X100396000Y-68103500D03*
X101346000Y-70072500D03*
D16*
X56150000Y-97350000D03*
X56150000Y-101850000D03*
X57740990Y-101190990D03*
D17*
X56150000Y-99600000D03*
D16*
X54559010Y-98009010D03*
X54559010Y-101190990D03*
X53900000Y-99600000D03*
X58400000Y-99600000D03*
X57740990Y-98009010D03*
M02*
