%FSLAX45Y45*%
G04 Gerber Fmt 4.5, Leading zero omitted, Abs format (unit mm)*
G04 Created by KiCad (PCBNEW (6.0.1)) date 2022-04-27 15:55:12*
%MOMM*%
%LPD*%
G01*
G04 APERTURE LIST*
%TA.AperFunction,Profile*%
%ADD10C,0.100000*%
%TD*%
%ADD11C,0.200000*%
G04 APERTURE END LIST*
D10*
X5080000Y-11520000D02*
X5080000Y-3000000D01*
X5080000Y-3000000D02*
X11320000Y-3000000D01*
X11320000Y-11520000D02*
X11320000Y-3000000D01*
X5080000Y-11520000D02*
X11320000Y-11520000D01*
D11*
X5332619Y-11835476D02*
X5332619Y-11635476D01*
X5380238Y-11635476D01*
X5408810Y-11645000D01*
X5427857Y-11664048D01*
X5437381Y-11683095D01*
X5446905Y-11721190D01*
X5446905Y-11749762D01*
X5437381Y-11787857D01*
X5427857Y-11806905D01*
X5408810Y-11825952D01*
X5380238Y-11835476D01*
X5332619Y-11835476D01*
X5532619Y-11835476D02*
X5532619Y-11702143D01*
X5532619Y-11740238D02*
X5542143Y-11721190D01*
X5551667Y-11711667D01*
X5570714Y-11702143D01*
X5589762Y-11702143D01*
X5656428Y-11835476D02*
X5656428Y-11702143D01*
X5656428Y-11635476D02*
X5646905Y-11645000D01*
X5656428Y-11654524D01*
X5665952Y-11645000D01*
X5656428Y-11635476D01*
X5656428Y-11654524D01*
X5780238Y-11835476D02*
X5761190Y-11825952D01*
X5751667Y-11806905D01*
X5751667Y-11635476D01*
X5885000Y-11835476D02*
X5865952Y-11825952D01*
X5856428Y-11806905D01*
X5856428Y-11635476D01*
X6113571Y-11835476D02*
X6113571Y-11635476D01*
X6180238Y-11778333D01*
X6246905Y-11635476D01*
X6246905Y-11835476D01*
X6427857Y-11835476D02*
X6427857Y-11730714D01*
X6418333Y-11711667D01*
X6399286Y-11702143D01*
X6361190Y-11702143D01*
X6342143Y-11711667D01*
X6427857Y-11825952D02*
X6408809Y-11835476D01*
X6361190Y-11835476D01*
X6342143Y-11825952D01*
X6332619Y-11806905D01*
X6332619Y-11787857D01*
X6342143Y-11768809D01*
X6361190Y-11759286D01*
X6408809Y-11759286D01*
X6427857Y-11749762D01*
X6523095Y-11702143D02*
X6523095Y-11902143D01*
X6523095Y-11711667D02*
X6542143Y-11702143D01*
X6580238Y-11702143D01*
X6599286Y-11711667D01*
X6608809Y-11721190D01*
X6618333Y-11740238D01*
X6618333Y-11797381D01*
X6608809Y-11816428D01*
X6599286Y-11825952D01*
X6580238Y-11835476D01*
X6542143Y-11835476D01*
X6523095Y-11825952D01*
X6704048Y-11816428D02*
X6713571Y-11825952D01*
X6704048Y-11835476D01*
X6694524Y-11825952D01*
X6704048Y-11816428D01*
X6704048Y-11835476D01*
X6704048Y-11711667D02*
X6713571Y-11721190D01*
X6704048Y-11730714D01*
X6694524Y-11721190D01*
X6704048Y-11711667D01*
X6704048Y-11730714D01*
M02*
