G04 #@! TF.GenerationSoftware,KiCad,Pcbnew,(6.0.1)*
G04 #@! TF.CreationDate,2022-04-27T15:55:03+02:00*
G04 #@! TF.ProjectId,PompController_brian,506f6d70-436f-46e7-9472-6f6c6c65725f,rev?*
G04 #@! TF.SameCoordinates,Original*
G04 #@! TF.FileFunction,Copper,L2,Bot*
G04 #@! TF.FilePolarity,Positive*
%FSLAX46Y46*%
G04 Gerber Fmt 4.6, Leading zero omitted, Abs format (unit mm)*
G04 Created by KiCad (PCBNEW (6.0.1)) date 2022-04-27 15:55:03*
%MOMM*%
%LPD*%
G01*
G04 APERTURE LIST*
G04 #@! TA.AperFunction,ComponentPad*
%ADD10R,3.000000X3.000000*%
G04 #@! TD*
G04 #@! TA.AperFunction,ComponentPad*
%ADD11C,3.000000*%
G04 #@! TD*
G04 #@! TA.AperFunction,ComponentPad*
%ADD12C,0.800000*%
G04 #@! TD*
G04 #@! TA.AperFunction,ComponentPad*
%ADD13C,6.000000*%
G04 #@! TD*
G04 #@! TA.AperFunction,Conductor*
%ADD14C,0.250000*%
G04 #@! TD*
G04 APERTURE END LIST*
D10*
X89710000Y-110650000D03*
D11*
X94790000Y-110650000D03*
D12*
X56150000Y-43400000D03*
X54559010Y-47240990D03*
X54559010Y-44059010D03*
X53900000Y-45650000D03*
X57740990Y-44059010D03*
D13*
X56150000Y-45650000D03*
D12*
X58400000Y-45650000D03*
X56150000Y-47900000D03*
X57740990Y-47240990D03*
D10*
X78660000Y-110650000D03*
D11*
X83740000Y-110650000D03*
D10*
X59154000Y-34290000D03*
D11*
X54074000Y-34290000D03*
D10*
X70104000Y-34290000D03*
D11*
X65024000Y-34290000D03*
D12*
X85945000Y-40554000D03*
X83945000Y-40554000D03*
X83945000Y-36554000D03*
X84945000Y-38554000D03*
X84945000Y-37554000D03*
X86945000Y-36554000D03*
X83945000Y-37554000D03*
X86945000Y-38554000D03*
X84945000Y-39554000D03*
X86945000Y-40554000D03*
X87945000Y-39554000D03*
X85945000Y-39554000D03*
X87945000Y-37554000D03*
X83945000Y-39554000D03*
X86945000Y-37554000D03*
X84945000Y-40554000D03*
X87945000Y-36554000D03*
X87945000Y-38554000D03*
X86945000Y-39554000D03*
X84945000Y-36554000D03*
X85945000Y-37554000D03*
X85945000Y-38554000D03*
X83945000Y-38554000D03*
X87945000Y-40554000D03*
X85945000Y-36554000D03*
X110350000Y-99600000D03*
D13*
X108100000Y-99600000D03*
D12*
X109690990Y-98009010D03*
X108100000Y-97350000D03*
X109690990Y-101190990D03*
X108100000Y-101850000D03*
X106509010Y-101190990D03*
X106509010Y-98009010D03*
X105850000Y-99600000D03*
D10*
X56980000Y-110650000D03*
D11*
X62060000Y-110650000D03*
X67140000Y-110650000D03*
X72220000Y-110650000D03*
D12*
X110350000Y-45650000D03*
X109690990Y-47240990D03*
X106509010Y-47240990D03*
X106509010Y-44059010D03*
X109690990Y-44059010D03*
X108100000Y-47900000D03*
X105850000Y-45650000D03*
D13*
X108100000Y-45650000D03*
D12*
X108100000Y-43400000D03*
D10*
X100570000Y-110650000D03*
D11*
X105650000Y-110650000D03*
D10*
X109982000Y-34290000D03*
D11*
X104902000Y-34290000D03*
D12*
X56150000Y-97350000D03*
X56150000Y-101850000D03*
X57740990Y-101190990D03*
D13*
X56150000Y-99600000D03*
D12*
X54559010Y-98009010D03*
X54559010Y-101190990D03*
X53900000Y-99600000D03*
X58400000Y-99600000D03*
X57740990Y-98009010D03*
D14*
X70104000Y-91044000D02*
X89710000Y-110650000D01*
X89710000Y-110650000D02*
X92090000Y-113030000D01*
X92090000Y-113030000D02*
X98806000Y-113030000D01*
X100570000Y-111266000D02*
X100570000Y-110650000D01*
X70104000Y-34290000D02*
X70104000Y-91044000D01*
X98806000Y-113030000D02*
X100570000Y-111266000D01*
G04 #@! TA.AperFunction,Conductor*
G36*
X112634121Y-30528002D02*
G01*
X112680614Y-30581658D01*
X112692000Y-30634000D01*
X112692000Y-114566000D01*
X112671998Y-114634121D01*
X112618342Y-114680614D01*
X112566000Y-114692000D01*
X51434000Y-114692000D01*
X51365879Y-114671998D01*
X51319386Y-114618342D01*
X51308000Y-114566000D01*
X51308000Y-112198134D01*
X54971500Y-112198134D01*
X54978255Y-112260316D01*
X55029385Y-112396705D01*
X55116739Y-112513261D01*
X55233295Y-112600615D01*
X55369684Y-112651745D01*
X55431866Y-112658500D01*
X58528134Y-112658500D01*
X58590316Y-112651745D01*
X58726705Y-112600615D01*
X58843261Y-112513261D01*
X58930615Y-112396705D01*
X58981745Y-112260316D01*
X58988500Y-112198134D01*
X58988500Y-110628918D01*
X60046917Y-110628918D01*
X60062682Y-110902320D01*
X60063507Y-110906525D01*
X60063508Y-110906533D01*
X60084698Y-111014539D01*
X60115405Y-111171053D01*
X60116792Y-111175103D01*
X60116793Y-111175108D01*
X60137605Y-111235895D01*
X60204112Y-111430144D01*
X60327160Y-111674799D01*
X60329586Y-111678328D01*
X60329589Y-111678334D01*
X60458741Y-111866250D01*
X60482274Y-111900490D01*
X60666582Y-112103043D01*
X60876675Y-112278707D01*
X60880316Y-112280991D01*
X61105024Y-112421951D01*
X61105028Y-112421953D01*
X61108664Y-112424234D01*
X61176544Y-112454883D01*
X61354345Y-112535164D01*
X61354349Y-112535166D01*
X61358257Y-112536930D01*
X61362377Y-112538150D01*
X61362376Y-112538150D01*
X61616723Y-112613491D01*
X61616727Y-112613492D01*
X61620836Y-112614709D01*
X61625070Y-112615357D01*
X61625075Y-112615358D01*
X61887298Y-112655483D01*
X61887300Y-112655483D01*
X61891540Y-112656132D01*
X62030912Y-112658322D01*
X62161071Y-112660367D01*
X62161077Y-112660367D01*
X62165362Y-112660434D01*
X62437235Y-112627534D01*
X62702127Y-112558041D01*
X62706087Y-112556401D01*
X62706092Y-112556399D01*
X62828632Y-112505641D01*
X62955136Y-112453241D01*
X63086466Y-112376498D01*
X63187879Y-112317237D01*
X63187880Y-112317236D01*
X63191582Y-112315073D01*
X63407089Y-112146094D01*
X63448809Y-112103043D01*
X63594686Y-111952509D01*
X63597669Y-111949431D01*
X63600202Y-111945983D01*
X63600206Y-111945978D01*
X63757257Y-111732178D01*
X63759795Y-111728723D01*
X63761841Y-111724955D01*
X63888418Y-111491830D01*
X63888419Y-111491828D01*
X63890468Y-111488054D01*
X63987269Y-111231877D01*
X64048407Y-110964933D01*
X64054384Y-110897969D01*
X64072531Y-110694627D01*
X64072532Y-110694616D01*
X64072751Y-110692161D01*
X64073193Y-110650000D01*
X64071756Y-110628918D01*
X65126917Y-110628918D01*
X65142682Y-110902320D01*
X65143507Y-110906525D01*
X65143508Y-110906533D01*
X65164698Y-111014539D01*
X65195405Y-111171053D01*
X65196792Y-111175103D01*
X65196793Y-111175108D01*
X65217605Y-111235895D01*
X65284112Y-111430144D01*
X65407160Y-111674799D01*
X65409586Y-111678328D01*
X65409589Y-111678334D01*
X65538741Y-111866250D01*
X65562274Y-111900490D01*
X65746582Y-112103043D01*
X65956675Y-112278707D01*
X65960316Y-112280991D01*
X66185024Y-112421951D01*
X66185028Y-112421953D01*
X66188664Y-112424234D01*
X66256544Y-112454883D01*
X66434345Y-112535164D01*
X66434349Y-112535166D01*
X66438257Y-112536930D01*
X66442377Y-112538150D01*
X66442376Y-112538150D01*
X66696723Y-112613491D01*
X66696727Y-112613492D01*
X66700836Y-112614709D01*
X66705070Y-112615357D01*
X66705075Y-112615358D01*
X66967298Y-112655483D01*
X66967300Y-112655483D01*
X66971540Y-112656132D01*
X67110912Y-112658322D01*
X67241071Y-112660367D01*
X67241077Y-112660367D01*
X67245362Y-112660434D01*
X67517235Y-112627534D01*
X67782127Y-112558041D01*
X67786087Y-112556401D01*
X67786092Y-112556399D01*
X67908632Y-112505641D01*
X68035136Y-112453241D01*
X68166466Y-112376498D01*
X68267879Y-112317237D01*
X68267880Y-112317236D01*
X68271582Y-112315073D01*
X68487089Y-112146094D01*
X68528809Y-112103043D01*
X68674686Y-111952509D01*
X68677669Y-111949431D01*
X68680202Y-111945983D01*
X68680206Y-111945978D01*
X68837257Y-111732178D01*
X68839795Y-111728723D01*
X68841841Y-111724955D01*
X68968418Y-111491830D01*
X68968419Y-111491828D01*
X68970468Y-111488054D01*
X69067269Y-111231877D01*
X69128407Y-110964933D01*
X69134384Y-110897969D01*
X69152531Y-110694627D01*
X69152532Y-110694616D01*
X69152751Y-110692161D01*
X69153193Y-110650000D01*
X69151756Y-110628918D01*
X70206917Y-110628918D01*
X70222682Y-110902320D01*
X70223507Y-110906525D01*
X70223508Y-110906533D01*
X70244698Y-111014539D01*
X70275405Y-111171053D01*
X70276792Y-111175103D01*
X70276793Y-111175108D01*
X70297605Y-111235895D01*
X70364112Y-111430144D01*
X70487160Y-111674799D01*
X70489586Y-111678328D01*
X70489589Y-111678334D01*
X70618741Y-111866250D01*
X70642274Y-111900490D01*
X70826582Y-112103043D01*
X71036675Y-112278707D01*
X71040316Y-112280991D01*
X71265024Y-112421951D01*
X71265028Y-112421953D01*
X71268664Y-112424234D01*
X71336544Y-112454883D01*
X71514345Y-112535164D01*
X71514349Y-112535166D01*
X71518257Y-112536930D01*
X71522377Y-112538150D01*
X71522376Y-112538150D01*
X71776723Y-112613491D01*
X71776727Y-112613492D01*
X71780836Y-112614709D01*
X71785070Y-112615357D01*
X71785075Y-112615358D01*
X72047298Y-112655483D01*
X72047300Y-112655483D01*
X72051540Y-112656132D01*
X72190912Y-112658322D01*
X72321071Y-112660367D01*
X72321077Y-112660367D01*
X72325362Y-112660434D01*
X72597235Y-112627534D01*
X72862127Y-112558041D01*
X72866087Y-112556401D01*
X72866092Y-112556399D01*
X72988632Y-112505641D01*
X73115136Y-112453241D01*
X73246466Y-112376498D01*
X73347879Y-112317237D01*
X73347880Y-112317236D01*
X73351582Y-112315073D01*
X73500720Y-112198134D01*
X76651500Y-112198134D01*
X76658255Y-112260316D01*
X76709385Y-112396705D01*
X76796739Y-112513261D01*
X76913295Y-112600615D01*
X77049684Y-112651745D01*
X77111866Y-112658500D01*
X80208134Y-112658500D01*
X80270316Y-112651745D01*
X80406705Y-112600615D01*
X80523261Y-112513261D01*
X80610615Y-112396705D01*
X80661745Y-112260316D01*
X80663990Y-112239654D01*
X82515618Y-112239654D01*
X82522673Y-112249627D01*
X82553679Y-112275551D01*
X82560598Y-112280579D01*
X82785272Y-112421515D01*
X82792807Y-112425556D01*
X83034520Y-112534694D01*
X83042551Y-112537680D01*
X83296832Y-112613002D01*
X83305184Y-112614869D01*
X83567340Y-112654984D01*
X83575874Y-112655700D01*
X83841045Y-112659867D01*
X83849596Y-112659418D01*
X84112883Y-112627557D01*
X84121284Y-112625955D01*
X84377824Y-112558653D01*
X84385926Y-112555926D01*
X84630949Y-112454434D01*
X84638617Y-112450628D01*
X84867598Y-112316822D01*
X84874679Y-112312009D01*
X84954655Y-112249301D01*
X84963125Y-112237442D01*
X84956608Y-112225818D01*
X83752812Y-111022022D01*
X83738868Y-111014408D01*
X83737035Y-111014539D01*
X83730420Y-111018790D01*
X82522910Y-112226300D01*
X82515618Y-112239654D01*
X80663990Y-112239654D01*
X80668500Y-112198134D01*
X80668500Y-110633204D01*
X81727665Y-110633204D01*
X81742932Y-110897969D01*
X81744005Y-110906470D01*
X81795065Y-111166722D01*
X81797276Y-111174974D01*
X81883184Y-111425894D01*
X81886499Y-111433779D01*
X82005664Y-111670713D01*
X82010020Y-111678079D01*
X82139347Y-111866250D01*
X82149601Y-111874594D01*
X82163342Y-111867448D01*
X83367978Y-110662812D01*
X83374356Y-110651132D01*
X84104408Y-110651132D01*
X84104539Y-110652965D01*
X84108790Y-110659580D01*
X85315730Y-111866520D01*
X85327939Y-111873187D01*
X85339439Y-111864497D01*
X85436831Y-111731913D01*
X85441418Y-111724685D01*
X85567962Y-111491621D01*
X85571530Y-111483827D01*
X85665271Y-111235750D01*
X85667748Y-111227544D01*
X85726954Y-110969038D01*
X85728294Y-110960577D01*
X85752031Y-110694616D01*
X85752277Y-110689677D01*
X85752666Y-110652485D01*
X85752523Y-110647519D01*
X85734362Y-110381123D01*
X85733201Y-110372649D01*
X85679419Y-110112944D01*
X85677120Y-110104709D01*
X85588588Y-109854705D01*
X85585191Y-109846854D01*
X85463550Y-109611178D01*
X85459122Y-109603866D01*
X85340031Y-109434417D01*
X85329509Y-109426037D01*
X85316121Y-109433089D01*
X84112022Y-110637188D01*
X84104408Y-110651132D01*
X83374356Y-110651132D01*
X83375592Y-110648868D01*
X83375461Y-110647035D01*
X83371210Y-110640420D01*
X82163814Y-109433024D01*
X82151804Y-109426466D01*
X82140064Y-109435434D01*
X82031935Y-109585911D01*
X82027418Y-109593196D01*
X81903325Y-109827567D01*
X81899839Y-109835395D01*
X81808700Y-110084446D01*
X81806311Y-110092670D01*
X81749812Y-110351795D01*
X81748563Y-110360250D01*
X81727754Y-110624653D01*
X81727665Y-110633204D01*
X80668500Y-110633204D01*
X80668500Y-109101866D01*
X80664224Y-109062500D01*
X82516584Y-109062500D01*
X82522980Y-109073770D01*
X83727188Y-110277978D01*
X83741132Y-110285592D01*
X83742965Y-110285461D01*
X83749580Y-110281210D01*
X84956604Y-109074186D01*
X84963795Y-109061017D01*
X84956473Y-109050780D01*
X84909233Y-109012115D01*
X84902261Y-109007160D01*
X84676122Y-108868582D01*
X84668552Y-108864624D01*
X84425704Y-108758022D01*
X84417644Y-108755120D01*
X84162592Y-108682467D01*
X84154214Y-108680685D01*
X83891656Y-108643318D01*
X83883111Y-108642691D01*
X83617908Y-108641302D01*
X83609374Y-108641839D01*
X83346433Y-108676456D01*
X83338035Y-108678149D01*
X83082238Y-108748127D01*
X83074143Y-108750946D01*
X82830199Y-108854997D01*
X82822577Y-108858881D01*
X82595013Y-108995075D01*
X82587981Y-108999962D01*
X82525053Y-109050377D01*
X82516584Y-109062500D01*
X80664224Y-109062500D01*
X80661745Y-109039684D01*
X80610615Y-108903295D01*
X80523261Y-108786739D01*
X80406705Y-108699385D01*
X80270316Y-108648255D01*
X80208134Y-108641500D01*
X77111866Y-108641500D01*
X77049684Y-108648255D01*
X76913295Y-108699385D01*
X76796739Y-108786739D01*
X76709385Y-108903295D01*
X76658255Y-109039684D01*
X76651500Y-109101866D01*
X76651500Y-112198134D01*
X73500720Y-112198134D01*
X73567089Y-112146094D01*
X73608809Y-112103043D01*
X73754686Y-111952509D01*
X73757669Y-111949431D01*
X73760202Y-111945983D01*
X73760206Y-111945978D01*
X73917257Y-111732178D01*
X73919795Y-111728723D01*
X73921841Y-111724955D01*
X74048418Y-111491830D01*
X74048419Y-111491828D01*
X74050468Y-111488054D01*
X74147269Y-111231877D01*
X74208407Y-110964933D01*
X74214384Y-110897969D01*
X74232531Y-110694627D01*
X74232532Y-110694616D01*
X74232751Y-110692161D01*
X74233193Y-110650000D01*
X74231465Y-110624648D01*
X74214859Y-110381055D01*
X74214858Y-110381049D01*
X74214567Y-110376778D01*
X74159032Y-110108612D01*
X74067617Y-109850465D01*
X73942013Y-109607112D01*
X73932040Y-109592921D01*
X73787008Y-109386562D01*
X73784545Y-109383057D01*
X73598125Y-109182445D01*
X73594810Y-109179731D01*
X73594806Y-109179728D01*
X73433304Y-109047540D01*
X73386205Y-109008990D01*
X73152704Y-108865901D01*
X73148768Y-108864173D01*
X72905873Y-108757549D01*
X72905869Y-108757548D01*
X72901945Y-108755825D01*
X72638566Y-108680800D01*
X72634324Y-108680196D01*
X72634318Y-108680195D01*
X72429387Y-108651029D01*
X72367443Y-108642213D01*
X72223589Y-108641460D01*
X72097877Y-108640802D01*
X72097871Y-108640802D01*
X72093591Y-108640780D01*
X72089347Y-108641339D01*
X72089343Y-108641339D01*
X72015741Y-108651029D01*
X71822078Y-108676525D01*
X71817938Y-108677658D01*
X71817936Y-108677658D01*
X71750037Y-108696233D01*
X71557928Y-108748788D01*
X71553980Y-108750472D01*
X71309982Y-108854546D01*
X71309978Y-108854548D01*
X71306030Y-108856232D01*
X71286125Y-108868145D01*
X71074725Y-108994664D01*
X71074721Y-108994667D01*
X71071043Y-108996868D01*
X70857318Y-109168094D01*
X70668808Y-109366742D01*
X70509002Y-109589136D01*
X70380857Y-109831161D01*
X70379385Y-109835184D01*
X70379383Y-109835188D01*
X70372314Y-109854506D01*
X70286743Y-110088337D01*
X70228404Y-110355907D01*
X70206917Y-110628918D01*
X69151756Y-110628918D01*
X69151465Y-110624648D01*
X69134859Y-110381055D01*
X69134858Y-110381049D01*
X69134567Y-110376778D01*
X69079032Y-110108612D01*
X68987617Y-109850465D01*
X68862013Y-109607112D01*
X68852040Y-109592921D01*
X68707008Y-109386562D01*
X68704545Y-109383057D01*
X68518125Y-109182445D01*
X68514810Y-109179731D01*
X68514806Y-109179728D01*
X68353304Y-109047540D01*
X68306205Y-109008990D01*
X68072704Y-108865901D01*
X68068768Y-108864173D01*
X67825873Y-108757549D01*
X67825869Y-108757548D01*
X67821945Y-108755825D01*
X67558566Y-108680800D01*
X67554324Y-108680196D01*
X67554318Y-108680195D01*
X67349387Y-108651029D01*
X67287443Y-108642213D01*
X67143589Y-108641460D01*
X67017877Y-108640802D01*
X67017871Y-108640802D01*
X67013591Y-108640780D01*
X67009347Y-108641339D01*
X67009343Y-108641339D01*
X66935741Y-108651029D01*
X66742078Y-108676525D01*
X66737938Y-108677658D01*
X66737936Y-108677658D01*
X66670037Y-108696233D01*
X66477928Y-108748788D01*
X66473980Y-108750472D01*
X66229982Y-108854546D01*
X66229978Y-108854548D01*
X66226030Y-108856232D01*
X66206125Y-108868145D01*
X65994725Y-108994664D01*
X65994721Y-108994667D01*
X65991043Y-108996868D01*
X65777318Y-109168094D01*
X65588808Y-109366742D01*
X65429002Y-109589136D01*
X65300857Y-109831161D01*
X65299385Y-109835184D01*
X65299383Y-109835188D01*
X65292314Y-109854506D01*
X65206743Y-110088337D01*
X65148404Y-110355907D01*
X65126917Y-110628918D01*
X64071756Y-110628918D01*
X64071465Y-110624648D01*
X64054859Y-110381055D01*
X64054858Y-110381049D01*
X64054567Y-110376778D01*
X63999032Y-110108612D01*
X63907617Y-109850465D01*
X63782013Y-109607112D01*
X63772040Y-109592921D01*
X63627008Y-109386562D01*
X63624545Y-109383057D01*
X63438125Y-109182445D01*
X63434810Y-109179731D01*
X63434806Y-109179728D01*
X63273304Y-109047540D01*
X63226205Y-109008990D01*
X62992704Y-108865901D01*
X62988768Y-108864173D01*
X62745873Y-108757549D01*
X62745869Y-108757548D01*
X62741945Y-108755825D01*
X62478566Y-108680800D01*
X62474324Y-108680196D01*
X62474318Y-108680195D01*
X62269387Y-108651029D01*
X62207443Y-108642213D01*
X62063589Y-108641460D01*
X61937877Y-108640802D01*
X61937871Y-108640802D01*
X61933591Y-108640780D01*
X61929347Y-108641339D01*
X61929343Y-108641339D01*
X61855741Y-108651029D01*
X61662078Y-108676525D01*
X61657938Y-108677658D01*
X61657936Y-108677658D01*
X61590037Y-108696233D01*
X61397928Y-108748788D01*
X61393980Y-108750472D01*
X61149982Y-108854546D01*
X61149978Y-108854548D01*
X61146030Y-108856232D01*
X61126125Y-108868145D01*
X60914725Y-108994664D01*
X60914721Y-108994667D01*
X60911043Y-108996868D01*
X60697318Y-109168094D01*
X60508808Y-109366742D01*
X60349002Y-109589136D01*
X60220857Y-109831161D01*
X60219385Y-109835184D01*
X60219383Y-109835188D01*
X60212314Y-109854506D01*
X60126743Y-110088337D01*
X60068404Y-110355907D01*
X60046917Y-110628918D01*
X58988500Y-110628918D01*
X58988500Y-109101866D01*
X58981745Y-109039684D01*
X58930615Y-108903295D01*
X58843261Y-108786739D01*
X58726705Y-108699385D01*
X58590316Y-108648255D01*
X58528134Y-108641500D01*
X55431866Y-108641500D01*
X55369684Y-108648255D01*
X55233295Y-108699385D01*
X55116739Y-108786739D01*
X55029385Y-108903295D01*
X54978255Y-109039684D01*
X54971500Y-109101866D01*
X54971500Y-112198134D01*
X51308000Y-112198134D01*
X51308000Y-102255186D01*
X53859960Y-102255186D01*
X53867418Y-102265554D01*
X54082662Y-102439854D01*
X54087984Y-102443721D01*
X54390823Y-102640387D01*
X54396532Y-102643683D01*
X54718275Y-102807620D01*
X54724286Y-102810296D01*
X55061395Y-102939700D01*
X55067672Y-102941740D01*
X55416463Y-103035198D01*
X55422901Y-103036567D01*
X55779560Y-103093055D01*
X55786104Y-103093743D01*
X56146699Y-103112641D01*
X56153301Y-103112641D01*
X56513896Y-103093743D01*
X56520440Y-103093055D01*
X56877099Y-103036567D01*
X56883537Y-103035198D01*
X57232328Y-102941740D01*
X57238605Y-102939700D01*
X57575714Y-102810296D01*
X57581725Y-102807620D01*
X57903468Y-102643683D01*
X57909177Y-102640387D01*
X58212016Y-102443721D01*
X58217338Y-102439854D01*
X58431634Y-102266322D01*
X58440100Y-102254067D01*
X58433766Y-102242976D01*
X56162812Y-99972022D01*
X56148868Y-99964408D01*
X56147035Y-99964539D01*
X56140420Y-99968790D01*
X53867100Y-102242110D01*
X53859960Y-102255186D01*
X51308000Y-102255186D01*
X51308000Y-99603301D01*
X52637359Y-99603301D01*
X52656257Y-99963896D01*
X52656945Y-99970440D01*
X52713433Y-100327099D01*
X52714802Y-100333537D01*
X52808260Y-100682328D01*
X52810300Y-100688605D01*
X52939704Y-101025714D01*
X52942380Y-101031725D01*
X53106317Y-101353468D01*
X53109613Y-101359177D01*
X53306279Y-101662016D01*
X53310146Y-101667338D01*
X53483678Y-101881634D01*
X53495933Y-101890100D01*
X53507024Y-101883766D01*
X55777978Y-99612812D01*
X55784356Y-99601132D01*
X56514408Y-99601132D01*
X56514539Y-99602965D01*
X56518790Y-99609580D01*
X58792110Y-101882900D01*
X58805186Y-101890040D01*
X58815554Y-101882582D01*
X58989854Y-101667338D01*
X58993721Y-101662016D01*
X59190387Y-101359177D01*
X59193683Y-101353468D01*
X59357620Y-101031725D01*
X59360296Y-101025714D01*
X59489700Y-100688605D01*
X59491740Y-100682328D01*
X59585198Y-100333537D01*
X59586567Y-100327099D01*
X59643055Y-99970440D01*
X59643743Y-99963896D01*
X59662641Y-99603301D01*
X59662641Y-99596699D01*
X59643743Y-99236104D01*
X59643055Y-99229560D01*
X59586567Y-98872901D01*
X59585198Y-98866463D01*
X59491740Y-98517672D01*
X59489700Y-98511395D01*
X59360296Y-98174286D01*
X59357620Y-98168275D01*
X59193683Y-97846532D01*
X59190387Y-97840823D01*
X58993721Y-97537984D01*
X58989854Y-97532662D01*
X58816322Y-97318366D01*
X58804067Y-97309900D01*
X58792976Y-97316234D01*
X56522022Y-99587188D01*
X56514408Y-99601132D01*
X55784356Y-99601132D01*
X55785592Y-99598868D01*
X55785461Y-99597035D01*
X55781210Y-99590420D01*
X53507890Y-97317100D01*
X53494814Y-97309960D01*
X53484446Y-97317418D01*
X53310146Y-97532662D01*
X53306279Y-97537984D01*
X53109613Y-97840823D01*
X53106317Y-97846532D01*
X52942380Y-98168275D01*
X52939704Y-98174286D01*
X52810300Y-98511395D01*
X52808260Y-98517672D01*
X52714802Y-98866463D01*
X52713433Y-98872901D01*
X52656945Y-99229560D01*
X52656257Y-99236104D01*
X52637359Y-99596699D01*
X52637359Y-99603301D01*
X51308000Y-99603301D01*
X51308000Y-96945933D01*
X53859900Y-96945933D01*
X53866234Y-96957024D01*
X56137188Y-99227978D01*
X56151132Y-99235592D01*
X56152965Y-99235461D01*
X56159580Y-99231210D01*
X58432900Y-96957890D01*
X58440040Y-96944814D01*
X58432582Y-96934446D01*
X58217338Y-96760146D01*
X58212016Y-96756279D01*
X57909177Y-96559613D01*
X57903468Y-96556317D01*
X57581725Y-96392380D01*
X57575714Y-96389704D01*
X57238605Y-96260300D01*
X57232328Y-96258260D01*
X56883537Y-96164802D01*
X56877099Y-96163433D01*
X56520440Y-96106945D01*
X56513896Y-96106257D01*
X56153301Y-96087359D01*
X56146699Y-96087359D01*
X55786104Y-96106257D01*
X55779560Y-96106945D01*
X55422901Y-96163433D01*
X55416463Y-96164802D01*
X55067672Y-96258260D01*
X55061395Y-96260300D01*
X54724286Y-96389704D01*
X54718275Y-96392380D01*
X54396532Y-96556317D01*
X54390823Y-96559613D01*
X54087984Y-96756279D01*
X54082662Y-96760146D01*
X53868366Y-96933678D01*
X53859900Y-96945933D01*
X51308000Y-96945933D01*
X51308000Y-48305186D01*
X53859960Y-48305186D01*
X53867418Y-48315554D01*
X54082662Y-48489854D01*
X54087984Y-48493721D01*
X54390823Y-48690387D01*
X54396532Y-48693683D01*
X54718275Y-48857620D01*
X54724286Y-48860296D01*
X55061395Y-48989700D01*
X55067672Y-48991740D01*
X55416463Y-49085198D01*
X55422901Y-49086567D01*
X55779560Y-49143055D01*
X55786104Y-49143743D01*
X56146699Y-49162641D01*
X56153301Y-49162641D01*
X56513896Y-49143743D01*
X56520440Y-49143055D01*
X56877099Y-49086567D01*
X56883537Y-49085198D01*
X57232328Y-48991740D01*
X57238605Y-48989700D01*
X57575714Y-48860296D01*
X57581725Y-48857620D01*
X57903468Y-48693683D01*
X57909177Y-48690387D01*
X58212016Y-48493721D01*
X58217338Y-48489854D01*
X58431634Y-48316322D01*
X58440100Y-48304067D01*
X58433766Y-48292976D01*
X56162812Y-46022022D01*
X56148868Y-46014408D01*
X56147035Y-46014539D01*
X56140420Y-46018790D01*
X53867100Y-48292110D01*
X53859960Y-48305186D01*
X51308000Y-48305186D01*
X51308000Y-45653301D01*
X52637359Y-45653301D01*
X52656257Y-46013896D01*
X52656945Y-46020440D01*
X52713433Y-46377099D01*
X52714802Y-46383537D01*
X52808260Y-46732328D01*
X52810300Y-46738605D01*
X52939704Y-47075714D01*
X52942380Y-47081725D01*
X53106317Y-47403468D01*
X53109613Y-47409177D01*
X53306279Y-47712016D01*
X53310146Y-47717338D01*
X53483678Y-47931634D01*
X53495933Y-47940100D01*
X53507024Y-47933766D01*
X55777978Y-45662812D01*
X55784356Y-45651132D01*
X56514408Y-45651132D01*
X56514539Y-45652965D01*
X56518790Y-45659580D01*
X58792110Y-47932900D01*
X58805186Y-47940040D01*
X58815554Y-47932582D01*
X58989854Y-47717338D01*
X58993721Y-47712016D01*
X59190387Y-47409177D01*
X59193683Y-47403468D01*
X59357620Y-47081725D01*
X59360296Y-47075714D01*
X59489700Y-46738605D01*
X59491740Y-46732328D01*
X59585198Y-46383537D01*
X59586567Y-46377099D01*
X59643055Y-46020440D01*
X59643743Y-46013896D01*
X59662641Y-45653301D01*
X59662641Y-45646699D01*
X59643743Y-45286104D01*
X59643055Y-45279560D01*
X59586567Y-44922901D01*
X59585198Y-44916463D01*
X59491740Y-44567672D01*
X59489700Y-44561395D01*
X59360296Y-44224286D01*
X59357620Y-44218275D01*
X59193683Y-43896532D01*
X59190387Y-43890823D01*
X58993721Y-43587984D01*
X58989854Y-43582662D01*
X58816322Y-43368366D01*
X58804067Y-43359900D01*
X58792976Y-43366234D01*
X56522022Y-45637188D01*
X56514408Y-45651132D01*
X55784356Y-45651132D01*
X55785592Y-45648868D01*
X55785461Y-45647035D01*
X55781210Y-45640420D01*
X53507890Y-43367100D01*
X53494814Y-43359960D01*
X53484446Y-43367418D01*
X53310146Y-43582662D01*
X53306279Y-43587984D01*
X53109613Y-43890823D01*
X53106317Y-43896532D01*
X52942380Y-44218275D01*
X52939704Y-44224286D01*
X52810300Y-44561395D01*
X52808260Y-44567672D01*
X52714802Y-44916463D01*
X52713433Y-44922901D01*
X52656945Y-45279560D01*
X52656257Y-45286104D01*
X52637359Y-45646699D01*
X52637359Y-45653301D01*
X51308000Y-45653301D01*
X51308000Y-42995933D01*
X53859900Y-42995933D01*
X53866234Y-43007024D01*
X56137188Y-45277978D01*
X56151132Y-45285592D01*
X56152965Y-45285461D01*
X56159580Y-45281210D01*
X58432900Y-43007890D01*
X58440040Y-42994814D01*
X58432582Y-42984446D01*
X58217338Y-42810146D01*
X58212016Y-42806279D01*
X57909177Y-42609613D01*
X57903468Y-42606317D01*
X57581725Y-42442380D01*
X57575714Y-42439704D01*
X57238605Y-42310300D01*
X57232328Y-42308260D01*
X56883537Y-42214802D01*
X56877099Y-42213433D01*
X56520440Y-42156945D01*
X56513896Y-42156257D01*
X56153301Y-42137359D01*
X56146699Y-42137359D01*
X55786104Y-42156257D01*
X55779560Y-42156945D01*
X55422901Y-42213433D01*
X55416463Y-42214802D01*
X55067672Y-42308260D01*
X55061395Y-42310300D01*
X54724286Y-42439704D01*
X54718275Y-42442380D01*
X54396532Y-42606317D01*
X54390823Y-42609613D01*
X54087984Y-42806279D01*
X54082662Y-42810146D01*
X53868366Y-42983678D01*
X53859900Y-42995933D01*
X51308000Y-42995933D01*
X51308000Y-35879654D01*
X52849618Y-35879654D01*
X52856673Y-35889627D01*
X52887679Y-35915551D01*
X52894598Y-35920579D01*
X53119272Y-36061515D01*
X53126807Y-36065556D01*
X53368520Y-36174694D01*
X53376551Y-36177680D01*
X53630832Y-36253002D01*
X53639184Y-36254869D01*
X53901340Y-36294984D01*
X53909874Y-36295700D01*
X54175045Y-36299867D01*
X54183596Y-36299418D01*
X54446883Y-36267557D01*
X54455284Y-36265955D01*
X54711824Y-36198653D01*
X54719926Y-36195926D01*
X54964949Y-36094434D01*
X54972617Y-36090628D01*
X55201598Y-35956822D01*
X55208679Y-35952009D01*
X55288655Y-35889301D01*
X55297125Y-35877442D01*
X55290608Y-35865818D01*
X55262924Y-35838134D01*
X57145500Y-35838134D01*
X57152255Y-35900316D01*
X57203385Y-36036705D01*
X57290739Y-36153261D01*
X57407295Y-36240615D01*
X57543684Y-36291745D01*
X57605866Y-36298500D01*
X60702134Y-36298500D01*
X60764316Y-36291745D01*
X60900705Y-36240615D01*
X61017261Y-36153261D01*
X61104615Y-36036705D01*
X61155745Y-35900316D01*
X61157990Y-35879654D01*
X63799618Y-35879654D01*
X63806673Y-35889627D01*
X63837679Y-35915551D01*
X63844598Y-35920579D01*
X64069272Y-36061515D01*
X64076807Y-36065556D01*
X64318520Y-36174694D01*
X64326551Y-36177680D01*
X64580832Y-36253002D01*
X64589184Y-36254869D01*
X64851340Y-36294984D01*
X64859874Y-36295700D01*
X65125045Y-36299867D01*
X65133596Y-36299418D01*
X65396883Y-36267557D01*
X65405284Y-36265955D01*
X65661824Y-36198653D01*
X65669926Y-36195926D01*
X65914949Y-36094434D01*
X65922617Y-36090628D01*
X66151598Y-35956822D01*
X66158679Y-35952009D01*
X66238655Y-35889301D01*
X66247125Y-35877442D01*
X66240608Y-35865818D01*
X66212924Y-35838134D01*
X68095500Y-35838134D01*
X68102255Y-35900316D01*
X68153385Y-36036705D01*
X68240739Y-36153261D01*
X68357295Y-36240615D01*
X68493684Y-36291745D01*
X68555866Y-36298500D01*
X69344500Y-36298500D01*
X69412621Y-36318502D01*
X69459114Y-36372158D01*
X69470500Y-36424500D01*
X69470500Y-90965233D01*
X69469973Y-90976416D01*
X69468298Y-90983909D01*
X69468547Y-90991835D01*
X69468547Y-90991836D01*
X69470438Y-91051986D01*
X69470500Y-91055945D01*
X69470500Y-91083856D01*
X69470997Y-91087790D01*
X69470997Y-91087791D01*
X69471005Y-91087856D01*
X69471938Y-91099693D01*
X69473327Y-91143889D01*
X69478978Y-91163339D01*
X69482987Y-91182700D01*
X69485526Y-91202797D01*
X69488445Y-91210168D01*
X69488445Y-91210170D01*
X69501804Y-91243912D01*
X69505649Y-91255142D01*
X69517982Y-91297593D01*
X69522015Y-91304412D01*
X69522017Y-91304417D01*
X69528293Y-91315028D01*
X69536988Y-91332776D01*
X69544448Y-91351617D01*
X69549110Y-91358033D01*
X69549110Y-91358034D01*
X69570436Y-91387387D01*
X69576952Y-91397307D01*
X69599458Y-91435362D01*
X69613779Y-91449683D01*
X69626619Y-91464716D01*
X69638528Y-91481107D01*
X69644634Y-91486158D01*
X69672605Y-91509298D01*
X69681384Y-91517288D01*
X87664595Y-109500500D01*
X87698621Y-109562812D01*
X87701500Y-109589595D01*
X87701500Y-112198134D01*
X87708255Y-112260316D01*
X87759385Y-112396705D01*
X87846739Y-112513261D01*
X87963295Y-112600615D01*
X88099684Y-112651745D01*
X88161866Y-112658500D01*
X90770406Y-112658500D01*
X90838527Y-112678502D01*
X90859501Y-112695405D01*
X91586343Y-113422247D01*
X91593887Y-113430537D01*
X91598000Y-113437018D01*
X91603777Y-113442443D01*
X91647667Y-113483658D01*
X91650509Y-113486413D01*
X91670230Y-113506134D01*
X91673425Y-113508612D01*
X91682447Y-113516318D01*
X91714679Y-113546586D01*
X91721628Y-113550406D01*
X91732432Y-113556346D01*
X91748956Y-113567199D01*
X91764959Y-113579613D01*
X91805543Y-113597176D01*
X91816173Y-113602383D01*
X91854940Y-113623695D01*
X91862617Y-113625666D01*
X91862622Y-113625668D01*
X91874558Y-113628732D01*
X91893266Y-113635137D01*
X91911855Y-113643181D01*
X91919683Y-113644421D01*
X91919690Y-113644423D01*
X91955524Y-113650099D01*
X91967144Y-113652505D01*
X91998959Y-113660673D01*
X92009970Y-113663500D01*
X92030224Y-113663500D01*
X92049934Y-113665051D01*
X92069943Y-113668220D01*
X92077835Y-113667474D01*
X92096580Y-113665702D01*
X92113962Y-113664059D01*
X92125819Y-113663500D01*
X98727233Y-113663500D01*
X98738416Y-113664027D01*
X98745909Y-113665702D01*
X98753835Y-113665453D01*
X98753836Y-113665453D01*
X98813986Y-113663562D01*
X98817945Y-113663500D01*
X98845856Y-113663500D01*
X98849791Y-113663003D01*
X98849856Y-113662995D01*
X98861693Y-113662062D01*
X98893951Y-113661048D01*
X98897970Y-113660922D01*
X98905889Y-113660673D01*
X98925343Y-113655021D01*
X98944700Y-113651013D01*
X98956930Y-113649468D01*
X98956931Y-113649468D01*
X98964797Y-113648474D01*
X98972168Y-113645555D01*
X98972170Y-113645555D01*
X99005912Y-113632196D01*
X99017142Y-113628351D01*
X99051983Y-113618229D01*
X99051984Y-113618229D01*
X99059593Y-113616018D01*
X99066412Y-113611985D01*
X99066417Y-113611983D01*
X99077028Y-113605707D01*
X99094776Y-113597012D01*
X99113617Y-113589552D01*
X99133987Y-113574753D01*
X99149387Y-113563564D01*
X99159307Y-113557048D01*
X99190535Y-113538580D01*
X99190538Y-113538578D01*
X99197362Y-113534542D01*
X99211683Y-113520221D01*
X99226717Y-113507380D01*
X99228432Y-113506134D01*
X99243107Y-113495472D01*
X99271298Y-113461395D01*
X99279288Y-113452616D01*
X100036499Y-112695405D01*
X100098811Y-112661379D01*
X100125594Y-112658500D01*
X102118134Y-112658500D01*
X102180316Y-112651745D01*
X102316705Y-112600615D01*
X102433261Y-112513261D01*
X102520615Y-112396705D01*
X102571745Y-112260316D01*
X102578500Y-112198134D01*
X102578500Y-110628918D01*
X103636917Y-110628918D01*
X103652682Y-110902320D01*
X103653507Y-110906525D01*
X103653508Y-110906533D01*
X103674698Y-111014539D01*
X103705405Y-111171053D01*
X103706792Y-111175103D01*
X103706793Y-111175108D01*
X103727605Y-111235895D01*
X103794112Y-111430144D01*
X103917160Y-111674799D01*
X103919586Y-111678328D01*
X103919589Y-111678334D01*
X104048741Y-111866250D01*
X104072274Y-111900490D01*
X104256582Y-112103043D01*
X104466675Y-112278707D01*
X104470316Y-112280991D01*
X104695024Y-112421951D01*
X104695028Y-112421953D01*
X104698664Y-112424234D01*
X104766544Y-112454883D01*
X104944345Y-112535164D01*
X104944349Y-112535166D01*
X104948257Y-112536930D01*
X104952377Y-112538150D01*
X104952376Y-112538150D01*
X105206723Y-112613491D01*
X105206727Y-112613492D01*
X105210836Y-112614709D01*
X105215070Y-112615357D01*
X105215075Y-112615358D01*
X105477298Y-112655483D01*
X105477300Y-112655483D01*
X105481540Y-112656132D01*
X105620912Y-112658322D01*
X105751071Y-112660367D01*
X105751077Y-112660367D01*
X105755362Y-112660434D01*
X106027235Y-112627534D01*
X106292127Y-112558041D01*
X106296087Y-112556401D01*
X106296092Y-112556399D01*
X106418632Y-112505641D01*
X106545136Y-112453241D01*
X106676466Y-112376498D01*
X106777879Y-112317237D01*
X106777880Y-112317236D01*
X106781582Y-112315073D01*
X106997089Y-112146094D01*
X107038809Y-112103043D01*
X107184686Y-111952509D01*
X107187669Y-111949431D01*
X107190202Y-111945983D01*
X107190206Y-111945978D01*
X107347257Y-111732178D01*
X107349795Y-111728723D01*
X107351841Y-111724955D01*
X107478418Y-111491830D01*
X107478419Y-111491828D01*
X107480468Y-111488054D01*
X107577269Y-111231877D01*
X107638407Y-110964933D01*
X107644384Y-110897969D01*
X107662531Y-110694627D01*
X107662532Y-110694616D01*
X107662751Y-110692161D01*
X107663193Y-110650000D01*
X107661465Y-110624648D01*
X107644859Y-110381055D01*
X107644858Y-110381049D01*
X107644567Y-110376778D01*
X107589032Y-110108612D01*
X107497617Y-109850465D01*
X107372013Y-109607112D01*
X107362040Y-109592921D01*
X107217008Y-109386562D01*
X107214545Y-109383057D01*
X107028125Y-109182445D01*
X107024810Y-109179731D01*
X107024806Y-109179728D01*
X106863304Y-109047540D01*
X106816205Y-109008990D01*
X106582704Y-108865901D01*
X106578768Y-108864173D01*
X106335873Y-108757549D01*
X106335869Y-108757548D01*
X106331945Y-108755825D01*
X106068566Y-108680800D01*
X106064324Y-108680196D01*
X106064318Y-108680195D01*
X105859387Y-108651029D01*
X105797443Y-108642213D01*
X105653589Y-108641460D01*
X105527877Y-108640802D01*
X105527871Y-108640802D01*
X105523591Y-108640780D01*
X105519347Y-108641339D01*
X105519343Y-108641339D01*
X105445741Y-108651029D01*
X105252078Y-108676525D01*
X105247938Y-108677658D01*
X105247936Y-108677658D01*
X105180037Y-108696233D01*
X104987928Y-108748788D01*
X104983980Y-108750472D01*
X104739982Y-108854546D01*
X104739978Y-108854548D01*
X104736030Y-108856232D01*
X104716125Y-108868145D01*
X104504725Y-108994664D01*
X104504721Y-108994667D01*
X104501043Y-108996868D01*
X104287318Y-109168094D01*
X104098808Y-109366742D01*
X103939002Y-109589136D01*
X103810857Y-109831161D01*
X103809385Y-109835184D01*
X103809383Y-109835188D01*
X103802314Y-109854506D01*
X103716743Y-110088337D01*
X103658404Y-110355907D01*
X103636917Y-110628918D01*
X102578500Y-110628918D01*
X102578500Y-109101866D01*
X102571745Y-109039684D01*
X102520615Y-108903295D01*
X102433261Y-108786739D01*
X102316705Y-108699385D01*
X102180316Y-108648255D01*
X102118134Y-108641500D01*
X99021866Y-108641500D01*
X98959684Y-108648255D01*
X98823295Y-108699385D01*
X98706739Y-108786739D01*
X98619385Y-108903295D01*
X98568255Y-109039684D01*
X98561500Y-109101866D01*
X98561500Y-112198134D01*
X98561869Y-112201531D01*
X98567883Y-112256892D01*
X98555355Y-112326775D01*
X98507034Y-112378790D01*
X98442620Y-112396500D01*
X96182630Y-112396500D01*
X96114509Y-112376498D01*
X96068016Y-112322842D01*
X96057912Y-112252568D01*
X96087406Y-112187988D01*
X96104879Y-112171350D01*
X96137089Y-112146094D01*
X96178809Y-112103043D01*
X96324686Y-111952509D01*
X96327669Y-111949431D01*
X96330202Y-111945983D01*
X96330206Y-111945978D01*
X96487257Y-111732178D01*
X96489795Y-111728723D01*
X96491841Y-111724955D01*
X96618418Y-111491830D01*
X96618419Y-111491828D01*
X96620468Y-111488054D01*
X96717269Y-111231877D01*
X96778407Y-110964933D01*
X96784384Y-110897969D01*
X96802531Y-110694627D01*
X96802532Y-110694616D01*
X96802751Y-110692161D01*
X96803193Y-110650000D01*
X96801465Y-110624648D01*
X96784859Y-110381055D01*
X96784858Y-110381049D01*
X96784567Y-110376778D01*
X96729032Y-110108612D01*
X96637617Y-109850465D01*
X96512013Y-109607112D01*
X96502040Y-109592921D01*
X96357008Y-109386562D01*
X96354545Y-109383057D01*
X96168125Y-109182445D01*
X96164810Y-109179731D01*
X96164806Y-109179728D01*
X96003304Y-109047540D01*
X95956205Y-109008990D01*
X95722704Y-108865901D01*
X95718768Y-108864173D01*
X95475873Y-108757549D01*
X95475869Y-108757548D01*
X95471945Y-108755825D01*
X95208566Y-108680800D01*
X95204324Y-108680196D01*
X95204318Y-108680195D01*
X94999387Y-108651029D01*
X94937443Y-108642213D01*
X94793589Y-108641460D01*
X94667877Y-108640802D01*
X94667871Y-108640802D01*
X94663591Y-108640780D01*
X94659347Y-108641339D01*
X94659343Y-108641339D01*
X94585741Y-108651029D01*
X94392078Y-108676525D01*
X94387938Y-108677658D01*
X94387936Y-108677658D01*
X94320037Y-108696233D01*
X94127928Y-108748788D01*
X94123980Y-108750472D01*
X93879982Y-108854546D01*
X93879978Y-108854548D01*
X93876030Y-108856232D01*
X93856125Y-108868145D01*
X93644725Y-108994664D01*
X93644721Y-108994667D01*
X93641043Y-108996868D01*
X93427318Y-109168094D01*
X93238808Y-109366742D01*
X93079002Y-109589136D01*
X92950857Y-109831161D01*
X92949385Y-109835184D01*
X92949383Y-109835188D01*
X92942314Y-109854506D01*
X92856743Y-110088337D01*
X92798404Y-110355907D01*
X92776917Y-110628918D01*
X92792682Y-110902320D01*
X92793507Y-110906525D01*
X92793508Y-110906533D01*
X92814698Y-111014539D01*
X92845405Y-111171053D01*
X92846792Y-111175103D01*
X92846793Y-111175108D01*
X92867605Y-111235895D01*
X92934112Y-111430144D01*
X93057160Y-111674799D01*
X93059586Y-111678328D01*
X93059589Y-111678334D01*
X93188741Y-111866250D01*
X93212274Y-111900490D01*
X93396582Y-112103043D01*
X93399877Y-112105798D01*
X93399878Y-112105799D01*
X93481251Y-112173837D01*
X93520681Y-112232878D01*
X93521932Y-112303863D01*
X93484606Y-112364256D01*
X93420555Y-112394882D01*
X93400429Y-112396500D01*
X92404595Y-112396500D01*
X92336474Y-112376498D01*
X92315500Y-112359595D01*
X91755405Y-111799500D01*
X91721379Y-111737188D01*
X91718500Y-111710405D01*
X91718500Y-109101866D01*
X91711745Y-109039684D01*
X91660615Y-108903295D01*
X91573261Y-108786739D01*
X91456705Y-108699385D01*
X91320316Y-108648255D01*
X91258134Y-108641500D01*
X88649594Y-108641500D01*
X88581473Y-108621498D01*
X88560499Y-108604595D01*
X82211091Y-102255186D01*
X105809960Y-102255186D01*
X105817418Y-102265554D01*
X106032662Y-102439854D01*
X106037984Y-102443721D01*
X106340823Y-102640387D01*
X106346532Y-102643683D01*
X106668275Y-102807620D01*
X106674286Y-102810296D01*
X107011395Y-102939700D01*
X107017672Y-102941740D01*
X107366463Y-103035198D01*
X107372901Y-103036567D01*
X107729560Y-103093055D01*
X107736104Y-103093743D01*
X108096699Y-103112641D01*
X108103301Y-103112641D01*
X108463896Y-103093743D01*
X108470440Y-103093055D01*
X108827099Y-103036567D01*
X108833537Y-103035198D01*
X109182328Y-102941740D01*
X109188605Y-102939700D01*
X109525714Y-102810296D01*
X109531725Y-102807620D01*
X109853468Y-102643683D01*
X109859177Y-102640387D01*
X110162016Y-102443721D01*
X110167338Y-102439854D01*
X110381634Y-102266322D01*
X110390100Y-102254067D01*
X110383766Y-102242976D01*
X108112812Y-99972022D01*
X108098868Y-99964408D01*
X108097035Y-99964539D01*
X108090420Y-99968790D01*
X105817100Y-102242110D01*
X105809960Y-102255186D01*
X82211091Y-102255186D01*
X79559206Y-99603301D01*
X104587359Y-99603301D01*
X104606257Y-99963896D01*
X104606945Y-99970440D01*
X104663433Y-100327099D01*
X104664802Y-100333537D01*
X104758260Y-100682328D01*
X104760300Y-100688605D01*
X104889704Y-101025714D01*
X104892380Y-101031725D01*
X105056317Y-101353468D01*
X105059613Y-101359177D01*
X105256279Y-101662016D01*
X105260146Y-101667338D01*
X105433678Y-101881634D01*
X105445933Y-101890100D01*
X105457024Y-101883766D01*
X107727978Y-99612812D01*
X107734356Y-99601132D01*
X108464408Y-99601132D01*
X108464539Y-99602965D01*
X108468790Y-99609580D01*
X110742110Y-101882900D01*
X110755186Y-101890040D01*
X110765554Y-101882582D01*
X110939854Y-101667338D01*
X110943721Y-101662016D01*
X111140387Y-101359177D01*
X111143683Y-101353468D01*
X111307620Y-101031725D01*
X111310296Y-101025714D01*
X111439700Y-100688605D01*
X111441740Y-100682328D01*
X111535198Y-100333537D01*
X111536567Y-100327099D01*
X111593055Y-99970440D01*
X111593743Y-99963896D01*
X111612641Y-99603301D01*
X111612641Y-99596699D01*
X111593743Y-99236104D01*
X111593055Y-99229560D01*
X111536567Y-98872901D01*
X111535198Y-98866463D01*
X111441740Y-98517672D01*
X111439700Y-98511395D01*
X111310296Y-98174286D01*
X111307620Y-98168275D01*
X111143683Y-97846532D01*
X111140387Y-97840823D01*
X110943721Y-97537984D01*
X110939854Y-97532662D01*
X110766322Y-97318366D01*
X110754067Y-97309900D01*
X110742976Y-97316234D01*
X108472022Y-99587188D01*
X108464408Y-99601132D01*
X107734356Y-99601132D01*
X107735592Y-99598868D01*
X107735461Y-99597035D01*
X107731210Y-99590420D01*
X105457890Y-97317100D01*
X105444814Y-97309960D01*
X105434446Y-97317418D01*
X105260146Y-97532662D01*
X105256279Y-97537984D01*
X105059613Y-97840823D01*
X105056317Y-97846532D01*
X104892380Y-98168275D01*
X104889704Y-98174286D01*
X104760300Y-98511395D01*
X104758260Y-98517672D01*
X104664802Y-98866463D01*
X104663433Y-98872901D01*
X104606945Y-99229560D01*
X104606257Y-99236104D01*
X104587359Y-99596699D01*
X104587359Y-99603301D01*
X79559206Y-99603301D01*
X76901838Y-96945933D01*
X105809900Y-96945933D01*
X105816234Y-96957024D01*
X108087188Y-99227978D01*
X108101132Y-99235592D01*
X108102965Y-99235461D01*
X108109580Y-99231210D01*
X110382900Y-96957890D01*
X110390040Y-96944814D01*
X110382582Y-96934446D01*
X110167338Y-96760146D01*
X110162016Y-96756279D01*
X109859177Y-96559613D01*
X109853468Y-96556317D01*
X109531725Y-96392380D01*
X109525714Y-96389704D01*
X109188605Y-96260300D01*
X109182328Y-96258260D01*
X108833537Y-96164802D01*
X108827099Y-96163433D01*
X108470440Y-96106945D01*
X108463896Y-96106257D01*
X108103301Y-96087359D01*
X108096699Y-96087359D01*
X107736104Y-96106257D01*
X107729560Y-96106945D01*
X107372901Y-96163433D01*
X107366463Y-96164802D01*
X107017672Y-96258260D01*
X107011395Y-96260300D01*
X106674286Y-96389704D01*
X106668275Y-96392380D01*
X106346532Y-96556317D01*
X106340823Y-96559613D01*
X106037984Y-96756279D01*
X106032662Y-96760146D01*
X105818366Y-96933678D01*
X105809900Y-96945933D01*
X76901838Y-96945933D01*
X70774405Y-90818500D01*
X70740379Y-90756188D01*
X70737500Y-90729405D01*
X70737500Y-48305186D01*
X105809960Y-48305186D01*
X105817418Y-48315554D01*
X106032662Y-48489854D01*
X106037984Y-48493721D01*
X106340823Y-48690387D01*
X106346532Y-48693683D01*
X106668275Y-48857620D01*
X106674286Y-48860296D01*
X107011395Y-48989700D01*
X107017672Y-48991740D01*
X107366463Y-49085198D01*
X107372901Y-49086567D01*
X107729560Y-49143055D01*
X107736104Y-49143743D01*
X108096699Y-49162641D01*
X108103301Y-49162641D01*
X108463896Y-49143743D01*
X108470440Y-49143055D01*
X108827099Y-49086567D01*
X108833537Y-49085198D01*
X109182328Y-48991740D01*
X109188605Y-48989700D01*
X109525714Y-48860296D01*
X109531725Y-48857620D01*
X109853468Y-48693683D01*
X109859177Y-48690387D01*
X110162016Y-48493721D01*
X110167338Y-48489854D01*
X110381634Y-48316322D01*
X110390100Y-48304067D01*
X110383766Y-48292976D01*
X108112812Y-46022022D01*
X108098868Y-46014408D01*
X108097035Y-46014539D01*
X108090420Y-46018790D01*
X105817100Y-48292110D01*
X105809960Y-48305186D01*
X70737500Y-48305186D01*
X70737500Y-45653301D01*
X104587359Y-45653301D01*
X104606257Y-46013896D01*
X104606945Y-46020440D01*
X104663433Y-46377099D01*
X104664802Y-46383537D01*
X104758260Y-46732328D01*
X104760300Y-46738605D01*
X104889704Y-47075714D01*
X104892380Y-47081725D01*
X105056317Y-47403468D01*
X105059613Y-47409177D01*
X105256279Y-47712016D01*
X105260146Y-47717338D01*
X105433678Y-47931634D01*
X105445933Y-47940100D01*
X105457024Y-47933766D01*
X107727978Y-45662812D01*
X107734356Y-45651132D01*
X108464408Y-45651132D01*
X108464539Y-45652965D01*
X108468790Y-45659580D01*
X110742110Y-47932900D01*
X110755186Y-47940040D01*
X110765554Y-47932582D01*
X110939854Y-47717338D01*
X110943721Y-47712016D01*
X111140387Y-47409177D01*
X111143683Y-47403468D01*
X111307620Y-47081725D01*
X111310296Y-47075714D01*
X111439700Y-46738605D01*
X111441740Y-46732328D01*
X111535198Y-46383537D01*
X111536567Y-46377099D01*
X111593055Y-46020440D01*
X111593743Y-46013896D01*
X111612641Y-45653301D01*
X111612641Y-45646699D01*
X111593743Y-45286104D01*
X111593055Y-45279560D01*
X111536567Y-44922901D01*
X111535198Y-44916463D01*
X111441740Y-44567672D01*
X111439700Y-44561395D01*
X111310296Y-44224286D01*
X111307620Y-44218275D01*
X111143683Y-43896532D01*
X111140387Y-43890823D01*
X110943721Y-43587984D01*
X110939854Y-43582662D01*
X110766322Y-43368366D01*
X110754067Y-43359900D01*
X110742976Y-43366234D01*
X108472022Y-45637188D01*
X108464408Y-45651132D01*
X107734356Y-45651132D01*
X107735592Y-45648868D01*
X107735461Y-45647035D01*
X107731210Y-45640420D01*
X105457890Y-43367100D01*
X105444814Y-43359960D01*
X105434446Y-43367418D01*
X105260146Y-43582662D01*
X105256279Y-43587984D01*
X105059613Y-43890823D01*
X105056317Y-43896532D01*
X104892380Y-44218275D01*
X104889704Y-44224286D01*
X104760300Y-44561395D01*
X104758260Y-44567672D01*
X104664802Y-44916463D01*
X104663433Y-44922901D01*
X104606945Y-45279560D01*
X104606257Y-45286104D01*
X104587359Y-45646699D01*
X104587359Y-45653301D01*
X70737500Y-45653301D01*
X70737500Y-42995933D01*
X105809900Y-42995933D01*
X105816234Y-43007024D01*
X108087188Y-45277978D01*
X108101132Y-45285592D01*
X108102965Y-45285461D01*
X108109580Y-45281210D01*
X110382900Y-43007890D01*
X110390040Y-42994814D01*
X110382582Y-42984446D01*
X110167338Y-42810146D01*
X110162016Y-42806279D01*
X109859177Y-42609613D01*
X109853468Y-42606317D01*
X109531725Y-42442380D01*
X109525714Y-42439704D01*
X109188605Y-42310300D01*
X109182328Y-42308260D01*
X108833537Y-42214802D01*
X108827099Y-42213433D01*
X108470440Y-42156945D01*
X108463896Y-42156257D01*
X108103301Y-42137359D01*
X108096699Y-42137359D01*
X107736104Y-42156257D01*
X107729560Y-42156945D01*
X107372901Y-42213433D01*
X107366463Y-42214802D01*
X107017672Y-42308260D01*
X107011395Y-42310300D01*
X106674286Y-42439704D01*
X106668275Y-42442380D01*
X106346532Y-42606317D01*
X106340823Y-42609613D01*
X106037984Y-42806279D01*
X106032662Y-42810146D01*
X105818366Y-42983678D01*
X105809900Y-42995933D01*
X70737500Y-42995933D01*
X70737500Y-41351961D01*
X83511869Y-41351961D01*
X83515380Y-41356651D01*
X83656841Y-41419634D01*
X83669320Y-41423689D01*
X83843107Y-41460627D01*
X83856168Y-41462000D01*
X84033832Y-41462000D01*
X84046893Y-41460627D01*
X84220680Y-41423689D01*
X84233159Y-41419634D01*
X84384183Y-41352393D01*
X84385083Y-41354416D01*
X84395698Y-41349689D01*
X84390366Y-41346262D01*
X84493538Y-41346262D01*
X84496674Y-41346743D01*
X84507027Y-41352190D01*
X84512262Y-41355262D01*
X84656841Y-41419634D01*
X84669320Y-41423689D01*
X84843107Y-41460627D01*
X84856168Y-41462000D01*
X85033832Y-41462000D01*
X85046893Y-41460627D01*
X85220680Y-41423689D01*
X85233159Y-41419634D01*
X85384183Y-41352393D01*
X85385083Y-41354416D01*
X85395698Y-41349689D01*
X85390366Y-41346262D01*
X85493538Y-41346262D01*
X85496674Y-41346743D01*
X85507027Y-41352190D01*
X85512262Y-41355262D01*
X85656841Y-41419634D01*
X85669320Y-41423689D01*
X85843107Y-41460627D01*
X85856168Y-41462000D01*
X86033832Y-41462000D01*
X86046893Y-41460627D01*
X86220680Y-41423689D01*
X86233159Y-41419634D01*
X86384183Y-41352393D01*
X86385083Y-41354416D01*
X86395698Y-41349689D01*
X86390366Y-41346262D01*
X86493538Y-41346262D01*
X86496674Y-41346743D01*
X86507027Y-41352190D01*
X86512262Y-41355262D01*
X86656841Y-41419634D01*
X86669320Y-41423689D01*
X86843107Y-41460627D01*
X86856168Y-41462000D01*
X87033832Y-41462000D01*
X87046893Y-41460627D01*
X87220680Y-41423689D01*
X87233159Y-41419634D01*
X87384183Y-41352393D01*
X87385083Y-41354416D01*
X87395698Y-41349689D01*
X87390366Y-41346262D01*
X87493538Y-41346262D01*
X87496674Y-41346743D01*
X87507027Y-41352190D01*
X87512262Y-41355262D01*
X87656841Y-41419634D01*
X87669320Y-41423689D01*
X87843107Y-41460627D01*
X87856168Y-41462000D01*
X88033832Y-41462000D01*
X88046893Y-41460627D01*
X88220680Y-41423689D01*
X88233159Y-41419634D01*
X88367633Y-41359761D01*
X88378378Y-41350628D01*
X88376781Y-41344991D01*
X87957812Y-40926022D01*
X87943868Y-40918408D01*
X87942035Y-40918539D01*
X87935420Y-40922790D01*
X87534095Y-41324115D01*
X87493538Y-41346262D01*
X87390366Y-41346262D01*
X87355905Y-41324115D01*
X86957812Y-40926022D01*
X86943868Y-40918408D01*
X86942035Y-40918539D01*
X86935420Y-40922790D01*
X86534095Y-41324115D01*
X86493538Y-41346262D01*
X86390366Y-41346262D01*
X86355905Y-41324115D01*
X85957812Y-40926022D01*
X85943868Y-40918408D01*
X85942035Y-40918539D01*
X85935420Y-40922790D01*
X85534095Y-41324115D01*
X85493538Y-41346262D01*
X85390366Y-41346262D01*
X85355905Y-41324115D01*
X84957812Y-40926022D01*
X84943868Y-40918408D01*
X84942035Y-40918539D01*
X84935420Y-40922790D01*
X84534095Y-41324115D01*
X84493538Y-41346262D01*
X84390366Y-41346262D01*
X84355905Y-41324115D01*
X83957812Y-40926022D01*
X83943868Y-40918408D01*
X83942035Y-40918539D01*
X83935420Y-40922790D01*
X83518629Y-41339581D01*
X83511869Y-41351961D01*
X70737500Y-41351961D01*
X70737500Y-40560565D01*
X83032688Y-40560565D01*
X83051259Y-40737261D01*
X83053989Y-40750102D01*
X83108892Y-40919075D01*
X83114230Y-40931064D01*
X83139761Y-40975285D01*
X83149965Y-40985015D01*
X83157986Y-40981804D01*
X83572978Y-40566812D01*
X83579356Y-40555132D01*
X84309408Y-40555132D01*
X84309539Y-40556965D01*
X84313790Y-40563580D01*
X84432188Y-40681978D01*
X84446132Y-40689592D01*
X84447965Y-40689461D01*
X84454580Y-40685210D01*
X84572978Y-40566812D01*
X84579356Y-40555132D01*
X85309408Y-40555132D01*
X85309539Y-40556965D01*
X85313790Y-40563580D01*
X85432188Y-40681978D01*
X85446132Y-40689592D01*
X85447965Y-40689461D01*
X85454580Y-40685210D01*
X85572978Y-40566812D01*
X85579356Y-40555132D01*
X86309408Y-40555132D01*
X86309539Y-40556965D01*
X86313790Y-40563580D01*
X86432188Y-40681978D01*
X86446132Y-40689592D01*
X86447965Y-40689461D01*
X86454580Y-40685210D01*
X86572978Y-40566812D01*
X86579356Y-40555132D01*
X87309408Y-40555132D01*
X87309539Y-40556965D01*
X87313790Y-40563580D01*
X87432188Y-40681978D01*
X87446132Y-40689592D01*
X87447965Y-40689461D01*
X87454580Y-40685210D01*
X87572978Y-40566812D01*
X87579356Y-40555132D01*
X88309408Y-40555132D01*
X88309539Y-40556965D01*
X88313790Y-40563580D01*
X88728370Y-40978160D01*
X88740750Y-40984920D01*
X88747665Y-40979744D01*
X88775770Y-40931064D01*
X88781108Y-40919075D01*
X88836011Y-40750102D01*
X88838741Y-40737261D01*
X88857312Y-40560565D01*
X88857312Y-40547435D01*
X88838741Y-40370739D01*
X88836011Y-40357898D01*
X88781108Y-40188925D01*
X88775770Y-40176936D01*
X88741182Y-40117028D01*
X88745595Y-40114480D01*
X88739877Y-40104565D01*
X88715115Y-40143095D01*
X88317022Y-40541188D01*
X88309408Y-40555132D01*
X87579356Y-40555132D01*
X87580592Y-40552868D01*
X87580461Y-40551035D01*
X87576210Y-40544420D01*
X87457812Y-40426022D01*
X87443868Y-40418408D01*
X87442035Y-40418539D01*
X87435420Y-40422790D01*
X87317022Y-40541188D01*
X87309408Y-40555132D01*
X86579356Y-40555132D01*
X86580592Y-40552868D01*
X86580461Y-40551035D01*
X86576210Y-40544420D01*
X86457812Y-40426022D01*
X86443868Y-40418408D01*
X86442035Y-40418539D01*
X86435420Y-40422790D01*
X86317022Y-40541188D01*
X86309408Y-40555132D01*
X85579356Y-40555132D01*
X85580592Y-40552868D01*
X85580461Y-40551035D01*
X85576210Y-40544420D01*
X85457812Y-40426022D01*
X85443868Y-40418408D01*
X85442035Y-40418539D01*
X85435420Y-40422790D01*
X85317022Y-40541188D01*
X85309408Y-40555132D01*
X84579356Y-40555132D01*
X84580592Y-40552868D01*
X84580461Y-40551035D01*
X84576210Y-40544420D01*
X84457812Y-40426022D01*
X84443868Y-40418408D01*
X84442035Y-40418539D01*
X84435420Y-40422790D01*
X84317022Y-40541188D01*
X84309408Y-40555132D01*
X83579356Y-40555132D01*
X83580592Y-40552868D01*
X83580461Y-40551035D01*
X83576210Y-40544420D01*
X83174885Y-40143095D01*
X83154006Y-40104860D01*
X83148154Y-40116645D01*
X83148818Y-40117028D01*
X83114230Y-40176936D01*
X83108892Y-40188925D01*
X83053989Y-40357898D01*
X83051259Y-40370739D01*
X83032688Y-40547435D01*
X83032688Y-40560565D01*
X70737500Y-40560565D01*
X70737500Y-40055132D01*
X83809408Y-40055132D01*
X83809539Y-40056965D01*
X83813790Y-40063580D01*
X83932188Y-40181978D01*
X83946132Y-40189592D01*
X83947965Y-40189461D01*
X83954580Y-40185210D01*
X84072978Y-40066812D01*
X84079356Y-40055132D01*
X84809408Y-40055132D01*
X84809539Y-40056965D01*
X84813790Y-40063580D01*
X84932188Y-40181978D01*
X84946132Y-40189592D01*
X84947965Y-40189461D01*
X84954580Y-40185210D01*
X85072978Y-40066812D01*
X85079356Y-40055132D01*
X85809408Y-40055132D01*
X85809539Y-40056965D01*
X85813790Y-40063580D01*
X85932188Y-40181978D01*
X85946132Y-40189592D01*
X85947965Y-40189461D01*
X85954580Y-40185210D01*
X86072978Y-40066812D01*
X86079356Y-40055132D01*
X86809408Y-40055132D01*
X86809539Y-40056965D01*
X86813790Y-40063580D01*
X86932188Y-40181978D01*
X86946132Y-40189592D01*
X86947965Y-40189461D01*
X86954580Y-40185210D01*
X87072978Y-40066812D01*
X87079356Y-40055132D01*
X87809408Y-40055132D01*
X87809539Y-40056965D01*
X87813790Y-40063580D01*
X87932188Y-40181978D01*
X87946132Y-40189592D01*
X87947965Y-40189461D01*
X87954580Y-40185210D01*
X88072978Y-40066812D01*
X88080592Y-40052868D01*
X88080461Y-40051035D01*
X88076210Y-40044420D01*
X87957812Y-39926022D01*
X87943868Y-39918408D01*
X87942035Y-39918539D01*
X87935420Y-39922790D01*
X87817022Y-40041188D01*
X87809408Y-40055132D01*
X87079356Y-40055132D01*
X87080592Y-40052868D01*
X87080461Y-40051035D01*
X87076210Y-40044420D01*
X86957812Y-39926022D01*
X86943868Y-39918408D01*
X86942035Y-39918539D01*
X86935420Y-39922790D01*
X86817022Y-40041188D01*
X86809408Y-40055132D01*
X86079356Y-40055132D01*
X86080592Y-40052868D01*
X86080461Y-40051035D01*
X86076210Y-40044420D01*
X85957812Y-39926022D01*
X85943868Y-39918408D01*
X85942035Y-39918539D01*
X85935420Y-39922790D01*
X85817022Y-40041188D01*
X85809408Y-40055132D01*
X85079356Y-40055132D01*
X85080592Y-40052868D01*
X85080461Y-40051035D01*
X85076210Y-40044420D01*
X84957812Y-39926022D01*
X84943868Y-39918408D01*
X84942035Y-39918539D01*
X84935420Y-39922790D01*
X84817022Y-40041188D01*
X84809408Y-40055132D01*
X84079356Y-40055132D01*
X84080592Y-40052868D01*
X84080461Y-40051035D01*
X84076210Y-40044420D01*
X83957812Y-39926022D01*
X83943868Y-39918408D01*
X83942035Y-39918539D01*
X83935420Y-39922790D01*
X83817022Y-40041188D01*
X83809408Y-40055132D01*
X70737500Y-40055132D01*
X70737500Y-39560565D01*
X83032688Y-39560565D01*
X83051259Y-39737261D01*
X83053989Y-39750102D01*
X83108892Y-39919075D01*
X83114230Y-39931064D01*
X83148818Y-39990972D01*
X83144405Y-39993520D01*
X83150123Y-40003435D01*
X83174885Y-39964905D01*
X83572978Y-39566812D01*
X83579356Y-39555132D01*
X84309408Y-39555132D01*
X84309539Y-39556965D01*
X84313790Y-39563580D01*
X84432188Y-39681978D01*
X84446132Y-39689592D01*
X84447965Y-39689461D01*
X84454580Y-39685210D01*
X84572978Y-39566812D01*
X84579356Y-39555132D01*
X85309408Y-39555132D01*
X85309539Y-39556965D01*
X85313790Y-39563580D01*
X85432188Y-39681978D01*
X85446132Y-39689592D01*
X85447965Y-39689461D01*
X85454580Y-39685210D01*
X85572978Y-39566812D01*
X85579356Y-39555132D01*
X86309408Y-39555132D01*
X86309539Y-39556965D01*
X86313790Y-39563580D01*
X86432188Y-39681978D01*
X86446132Y-39689592D01*
X86447965Y-39689461D01*
X86454580Y-39685210D01*
X86572978Y-39566812D01*
X86579356Y-39555132D01*
X87309408Y-39555132D01*
X87309539Y-39556965D01*
X87313790Y-39563580D01*
X87432188Y-39681978D01*
X87446132Y-39689592D01*
X87447965Y-39689461D01*
X87454580Y-39685210D01*
X87572978Y-39566812D01*
X87579356Y-39555132D01*
X88309408Y-39555132D01*
X88309539Y-39556965D01*
X88313790Y-39563580D01*
X88715115Y-39964905D01*
X88735994Y-40003140D01*
X88741846Y-39991355D01*
X88741182Y-39990972D01*
X88775770Y-39931064D01*
X88781108Y-39919075D01*
X88836011Y-39750102D01*
X88838741Y-39737261D01*
X88857312Y-39560565D01*
X88857312Y-39547435D01*
X88838741Y-39370739D01*
X88836011Y-39357898D01*
X88781108Y-39188925D01*
X88775770Y-39176936D01*
X88741182Y-39117028D01*
X88745595Y-39114480D01*
X88739877Y-39104565D01*
X88715115Y-39143095D01*
X88317022Y-39541188D01*
X88309408Y-39555132D01*
X87579356Y-39555132D01*
X87580592Y-39552868D01*
X87580461Y-39551035D01*
X87576210Y-39544420D01*
X87457812Y-39426022D01*
X87443868Y-39418408D01*
X87442035Y-39418539D01*
X87435420Y-39422790D01*
X87317022Y-39541188D01*
X87309408Y-39555132D01*
X86579356Y-39555132D01*
X86580592Y-39552868D01*
X86580461Y-39551035D01*
X86576210Y-39544420D01*
X86457812Y-39426022D01*
X86443868Y-39418408D01*
X86442035Y-39418539D01*
X86435420Y-39422790D01*
X86317022Y-39541188D01*
X86309408Y-39555132D01*
X85579356Y-39555132D01*
X85580592Y-39552868D01*
X85580461Y-39551035D01*
X85576210Y-39544420D01*
X85457812Y-39426022D01*
X85443868Y-39418408D01*
X85442035Y-39418539D01*
X85435420Y-39422790D01*
X85317022Y-39541188D01*
X85309408Y-39555132D01*
X84579356Y-39555132D01*
X84580592Y-39552868D01*
X84580461Y-39551035D01*
X84576210Y-39544420D01*
X84457812Y-39426022D01*
X84443868Y-39418408D01*
X84442035Y-39418539D01*
X84435420Y-39422790D01*
X84317022Y-39541188D01*
X84309408Y-39555132D01*
X83579356Y-39555132D01*
X83580592Y-39552868D01*
X83580461Y-39551035D01*
X83576210Y-39544420D01*
X83174885Y-39143095D01*
X83154006Y-39104860D01*
X83148154Y-39116645D01*
X83148818Y-39117028D01*
X83114230Y-39176936D01*
X83108892Y-39188925D01*
X83053989Y-39357898D01*
X83051259Y-39370739D01*
X83032688Y-39547435D01*
X83032688Y-39560565D01*
X70737500Y-39560565D01*
X70737500Y-39055132D01*
X83809408Y-39055132D01*
X83809539Y-39056965D01*
X83813790Y-39063580D01*
X83932188Y-39181978D01*
X83946132Y-39189592D01*
X83947965Y-39189461D01*
X83954580Y-39185210D01*
X84072978Y-39066812D01*
X84079356Y-39055132D01*
X84809408Y-39055132D01*
X84809539Y-39056965D01*
X84813790Y-39063580D01*
X84932188Y-39181978D01*
X84946132Y-39189592D01*
X84947965Y-39189461D01*
X84954580Y-39185210D01*
X85072978Y-39066812D01*
X85079356Y-39055132D01*
X85809408Y-39055132D01*
X85809539Y-39056965D01*
X85813790Y-39063580D01*
X85932188Y-39181978D01*
X85946132Y-39189592D01*
X85947965Y-39189461D01*
X85954580Y-39185210D01*
X86072978Y-39066812D01*
X86079356Y-39055132D01*
X86809408Y-39055132D01*
X86809539Y-39056965D01*
X86813790Y-39063580D01*
X86932188Y-39181978D01*
X86946132Y-39189592D01*
X86947965Y-39189461D01*
X86954580Y-39185210D01*
X87072978Y-39066812D01*
X87079356Y-39055132D01*
X87809408Y-39055132D01*
X87809539Y-39056965D01*
X87813790Y-39063580D01*
X87932188Y-39181978D01*
X87946132Y-39189592D01*
X87947965Y-39189461D01*
X87954580Y-39185210D01*
X88072978Y-39066812D01*
X88080592Y-39052868D01*
X88080461Y-39051035D01*
X88076210Y-39044420D01*
X87957812Y-38926022D01*
X87943868Y-38918408D01*
X87942035Y-38918539D01*
X87935420Y-38922790D01*
X87817022Y-39041188D01*
X87809408Y-39055132D01*
X87079356Y-39055132D01*
X87080592Y-39052868D01*
X87080461Y-39051035D01*
X87076210Y-39044420D01*
X86957812Y-38926022D01*
X86943868Y-38918408D01*
X86942035Y-38918539D01*
X86935420Y-38922790D01*
X86817022Y-39041188D01*
X86809408Y-39055132D01*
X86079356Y-39055132D01*
X86080592Y-39052868D01*
X86080461Y-39051035D01*
X86076210Y-39044420D01*
X85957812Y-38926022D01*
X85943868Y-38918408D01*
X85942035Y-38918539D01*
X85935420Y-38922790D01*
X85817022Y-39041188D01*
X85809408Y-39055132D01*
X85079356Y-39055132D01*
X85080592Y-39052868D01*
X85080461Y-39051035D01*
X85076210Y-39044420D01*
X84957812Y-38926022D01*
X84943868Y-38918408D01*
X84942035Y-38918539D01*
X84935420Y-38922790D01*
X84817022Y-39041188D01*
X84809408Y-39055132D01*
X84079356Y-39055132D01*
X84080592Y-39052868D01*
X84080461Y-39051035D01*
X84076210Y-39044420D01*
X83957812Y-38926022D01*
X83943868Y-38918408D01*
X83942035Y-38918539D01*
X83935420Y-38922790D01*
X83817022Y-39041188D01*
X83809408Y-39055132D01*
X70737500Y-39055132D01*
X70737500Y-38560565D01*
X83032688Y-38560565D01*
X83051259Y-38737261D01*
X83053989Y-38750102D01*
X83108892Y-38919075D01*
X83114230Y-38931064D01*
X83148818Y-38990972D01*
X83144405Y-38993520D01*
X83150123Y-39003435D01*
X83174885Y-38964905D01*
X83572978Y-38566812D01*
X83579356Y-38555132D01*
X84309408Y-38555132D01*
X84309539Y-38556965D01*
X84313790Y-38563580D01*
X84432188Y-38681978D01*
X84446132Y-38689592D01*
X84447965Y-38689461D01*
X84454580Y-38685210D01*
X84572978Y-38566812D01*
X84579356Y-38555132D01*
X85309408Y-38555132D01*
X85309539Y-38556965D01*
X85313790Y-38563580D01*
X85432188Y-38681978D01*
X85446132Y-38689592D01*
X85447965Y-38689461D01*
X85454580Y-38685210D01*
X85572978Y-38566812D01*
X85579356Y-38555132D01*
X86309408Y-38555132D01*
X86309539Y-38556965D01*
X86313790Y-38563580D01*
X86432188Y-38681978D01*
X86446132Y-38689592D01*
X86447965Y-38689461D01*
X86454580Y-38685210D01*
X86572978Y-38566812D01*
X86579356Y-38555132D01*
X87309408Y-38555132D01*
X87309539Y-38556965D01*
X87313790Y-38563580D01*
X87432188Y-38681978D01*
X87446132Y-38689592D01*
X87447965Y-38689461D01*
X87454580Y-38685210D01*
X87572978Y-38566812D01*
X87579356Y-38555132D01*
X88309408Y-38555132D01*
X88309539Y-38556965D01*
X88313790Y-38563580D01*
X88715115Y-38964905D01*
X88735994Y-39003140D01*
X88741846Y-38991355D01*
X88741182Y-38990972D01*
X88775770Y-38931064D01*
X88781108Y-38919075D01*
X88836011Y-38750102D01*
X88838741Y-38737261D01*
X88857312Y-38560565D01*
X88857312Y-38547435D01*
X88838741Y-38370739D01*
X88836011Y-38357898D01*
X88781108Y-38188925D01*
X88775770Y-38176936D01*
X88741182Y-38117028D01*
X88745595Y-38114480D01*
X88739877Y-38104565D01*
X88715115Y-38143095D01*
X88317022Y-38541188D01*
X88309408Y-38555132D01*
X87579356Y-38555132D01*
X87580592Y-38552868D01*
X87580461Y-38551035D01*
X87576210Y-38544420D01*
X87457812Y-38426022D01*
X87443868Y-38418408D01*
X87442035Y-38418539D01*
X87435420Y-38422790D01*
X87317022Y-38541188D01*
X87309408Y-38555132D01*
X86579356Y-38555132D01*
X86580592Y-38552868D01*
X86580461Y-38551035D01*
X86576210Y-38544420D01*
X86457812Y-38426022D01*
X86443868Y-38418408D01*
X86442035Y-38418539D01*
X86435420Y-38422790D01*
X86317022Y-38541188D01*
X86309408Y-38555132D01*
X85579356Y-38555132D01*
X85580592Y-38552868D01*
X85580461Y-38551035D01*
X85576210Y-38544420D01*
X85457812Y-38426022D01*
X85443868Y-38418408D01*
X85442035Y-38418539D01*
X85435420Y-38422790D01*
X85317022Y-38541188D01*
X85309408Y-38555132D01*
X84579356Y-38555132D01*
X84580592Y-38552868D01*
X84580461Y-38551035D01*
X84576210Y-38544420D01*
X84457812Y-38426022D01*
X84443868Y-38418408D01*
X84442035Y-38418539D01*
X84435420Y-38422790D01*
X84317022Y-38541188D01*
X84309408Y-38555132D01*
X83579356Y-38555132D01*
X83580592Y-38552868D01*
X83580461Y-38551035D01*
X83576210Y-38544420D01*
X83174885Y-38143095D01*
X83154006Y-38104860D01*
X83148154Y-38116645D01*
X83148818Y-38117028D01*
X83114230Y-38176936D01*
X83108892Y-38188925D01*
X83053989Y-38357898D01*
X83051259Y-38370739D01*
X83032688Y-38547435D01*
X83032688Y-38560565D01*
X70737500Y-38560565D01*
X70737500Y-38055132D01*
X83809408Y-38055132D01*
X83809539Y-38056965D01*
X83813790Y-38063580D01*
X83932188Y-38181978D01*
X83946132Y-38189592D01*
X83947965Y-38189461D01*
X83954580Y-38185210D01*
X84072978Y-38066812D01*
X84079356Y-38055132D01*
X84809408Y-38055132D01*
X84809539Y-38056965D01*
X84813790Y-38063580D01*
X84932188Y-38181978D01*
X84946132Y-38189592D01*
X84947965Y-38189461D01*
X84954580Y-38185210D01*
X85072978Y-38066812D01*
X85079356Y-38055132D01*
X85809408Y-38055132D01*
X85809539Y-38056965D01*
X85813790Y-38063580D01*
X85932188Y-38181978D01*
X85946132Y-38189592D01*
X85947965Y-38189461D01*
X85954580Y-38185210D01*
X86072978Y-38066812D01*
X86079356Y-38055132D01*
X86809408Y-38055132D01*
X86809539Y-38056965D01*
X86813790Y-38063580D01*
X86932188Y-38181978D01*
X86946132Y-38189592D01*
X86947965Y-38189461D01*
X86954580Y-38185210D01*
X87072978Y-38066812D01*
X87079356Y-38055132D01*
X87809408Y-38055132D01*
X87809539Y-38056965D01*
X87813790Y-38063580D01*
X87932188Y-38181978D01*
X87946132Y-38189592D01*
X87947965Y-38189461D01*
X87954580Y-38185210D01*
X88072978Y-38066812D01*
X88080592Y-38052868D01*
X88080461Y-38051035D01*
X88076210Y-38044420D01*
X87957812Y-37926022D01*
X87943868Y-37918408D01*
X87942035Y-37918539D01*
X87935420Y-37922790D01*
X87817022Y-38041188D01*
X87809408Y-38055132D01*
X87079356Y-38055132D01*
X87080592Y-38052868D01*
X87080461Y-38051035D01*
X87076210Y-38044420D01*
X86957812Y-37926022D01*
X86943868Y-37918408D01*
X86942035Y-37918539D01*
X86935420Y-37922790D01*
X86817022Y-38041188D01*
X86809408Y-38055132D01*
X86079356Y-38055132D01*
X86080592Y-38052868D01*
X86080461Y-38051035D01*
X86076210Y-38044420D01*
X85957812Y-37926022D01*
X85943868Y-37918408D01*
X85942035Y-37918539D01*
X85935420Y-37922790D01*
X85817022Y-38041188D01*
X85809408Y-38055132D01*
X85079356Y-38055132D01*
X85080592Y-38052868D01*
X85080461Y-38051035D01*
X85076210Y-38044420D01*
X84957812Y-37926022D01*
X84943868Y-37918408D01*
X84942035Y-37918539D01*
X84935420Y-37922790D01*
X84817022Y-38041188D01*
X84809408Y-38055132D01*
X84079356Y-38055132D01*
X84080592Y-38052868D01*
X84080461Y-38051035D01*
X84076210Y-38044420D01*
X83957812Y-37926022D01*
X83943868Y-37918408D01*
X83942035Y-37918539D01*
X83935420Y-37922790D01*
X83817022Y-38041188D01*
X83809408Y-38055132D01*
X70737500Y-38055132D01*
X70737500Y-37560565D01*
X83032688Y-37560565D01*
X83051259Y-37737261D01*
X83053989Y-37750102D01*
X83108892Y-37919075D01*
X83114230Y-37931064D01*
X83148818Y-37990972D01*
X83144405Y-37993520D01*
X83150123Y-38003435D01*
X83174885Y-37964905D01*
X83572978Y-37566812D01*
X83579356Y-37555132D01*
X84309408Y-37555132D01*
X84309539Y-37556965D01*
X84313790Y-37563580D01*
X84432188Y-37681978D01*
X84446132Y-37689592D01*
X84447965Y-37689461D01*
X84454580Y-37685210D01*
X84572978Y-37566812D01*
X84579356Y-37555132D01*
X85309408Y-37555132D01*
X85309539Y-37556965D01*
X85313790Y-37563580D01*
X85432188Y-37681978D01*
X85446132Y-37689592D01*
X85447965Y-37689461D01*
X85454580Y-37685210D01*
X85572978Y-37566812D01*
X85579356Y-37555132D01*
X86309408Y-37555132D01*
X86309539Y-37556965D01*
X86313790Y-37563580D01*
X86432188Y-37681978D01*
X86446132Y-37689592D01*
X86447965Y-37689461D01*
X86454580Y-37685210D01*
X86572978Y-37566812D01*
X86579356Y-37555132D01*
X87309408Y-37555132D01*
X87309539Y-37556965D01*
X87313790Y-37563580D01*
X87432188Y-37681978D01*
X87446132Y-37689592D01*
X87447965Y-37689461D01*
X87454580Y-37685210D01*
X87572978Y-37566812D01*
X87579356Y-37555132D01*
X88309408Y-37555132D01*
X88309539Y-37556965D01*
X88313790Y-37563580D01*
X88715115Y-37964905D01*
X88735994Y-38003140D01*
X88741846Y-37991355D01*
X88741182Y-37990972D01*
X88775770Y-37931064D01*
X88781108Y-37919075D01*
X88836011Y-37750102D01*
X88838741Y-37737261D01*
X88857312Y-37560565D01*
X88857312Y-37547435D01*
X88838741Y-37370739D01*
X88836011Y-37357898D01*
X88781108Y-37188925D01*
X88775770Y-37176936D01*
X88741182Y-37117028D01*
X88745595Y-37114480D01*
X88739877Y-37104565D01*
X88715115Y-37143095D01*
X88317022Y-37541188D01*
X88309408Y-37555132D01*
X87579356Y-37555132D01*
X87580592Y-37552868D01*
X87580461Y-37551035D01*
X87576210Y-37544420D01*
X87457812Y-37426022D01*
X87443868Y-37418408D01*
X87442035Y-37418539D01*
X87435420Y-37422790D01*
X87317022Y-37541188D01*
X87309408Y-37555132D01*
X86579356Y-37555132D01*
X86580592Y-37552868D01*
X86580461Y-37551035D01*
X86576210Y-37544420D01*
X86457812Y-37426022D01*
X86443868Y-37418408D01*
X86442035Y-37418539D01*
X86435420Y-37422790D01*
X86317022Y-37541188D01*
X86309408Y-37555132D01*
X85579356Y-37555132D01*
X85580592Y-37552868D01*
X85580461Y-37551035D01*
X85576210Y-37544420D01*
X85457812Y-37426022D01*
X85443868Y-37418408D01*
X85442035Y-37418539D01*
X85435420Y-37422790D01*
X85317022Y-37541188D01*
X85309408Y-37555132D01*
X84579356Y-37555132D01*
X84580592Y-37552868D01*
X84580461Y-37551035D01*
X84576210Y-37544420D01*
X84457812Y-37426022D01*
X84443868Y-37418408D01*
X84442035Y-37418539D01*
X84435420Y-37422790D01*
X84317022Y-37541188D01*
X84309408Y-37555132D01*
X83579356Y-37555132D01*
X83580592Y-37552868D01*
X83580461Y-37551035D01*
X83576210Y-37544420D01*
X83174885Y-37143095D01*
X83154006Y-37104860D01*
X83148154Y-37116645D01*
X83148818Y-37117028D01*
X83114230Y-37176936D01*
X83108892Y-37188925D01*
X83053989Y-37357898D01*
X83051259Y-37370739D01*
X83032688Y-37547435D01*
X83032688Y-37560565D01*
X70737500Y-37560565D01*
X70737500Y-37055132D01*
X83809408Y-37055132D01*
X83809539Y-37056965D01*
X83813790Y-37063580D01*
X83932188Y-37181978D01*
X83946132Y-37189592D01*
X83947965Y-37189461D01*
X83954580Y-37185210D01*
X84072978Y-37066812D01*
X84079356Y-37055132D01*
X84809408Y-37055132D01*
X84809539Y-37056965D01*
X84813790Y-37063580D01*
X84932188Y-37181978D01*
X84946132Y-37189592D01*
X84947965Y-37189461D01*
X84954580Y-37185210D01*
X85072978Y-37066812D01*
X85079356Y-37055132D01*
X85809408Y-37055132D01*
X85809539Y-37056965D01*
X85813790Y-37063580D01*
X85932188Y-37181978D01*
X85946132Y-37189592D01*
X85947965Y-37189461D01*
X85954580Y-37185210D01*
X86072978Y-37066812D01*
X86079356Y-37055132D01*
X86809408Y-37055132D01*
X86809539Y-37056965D01*
X86813790Y-37063580D01*
X86932188Y-37181978D01*
X86946132Y-37189592D01*
X86947965Y-37189461D01*
X86954580Y-37185210D01*
X87072978Y-37066812D01*
X87079356Y-37055132D01*
X87809408Y-37055132D01*
X87809539Y-37056965D01*
X87813790Y-37063580D01*
X87932188Y-37181978D01*
X87946132Y-37189592D01*
X87947965Y-37189461D01*
X87954580Y-37185210D01*
X88072978Y-37066812D01*
X88080592Y-37052868D01*
X88080461Y-37051035D01*
X88076210Y-37044420D01*
X87957812Y-36926022D01*
X87943868Y-36918408D01*
X87942035Y-36918539D01*
X87935420Y-36922790D01*
X87817022Y-37041188D01*
X87809408Y-37055132D01*
X87079356Y-37055132D01*
X87080592Y-37052868D01*
X87080461Y-37051035D01*
X87076210Y-37044420D01*
X86957812Y-36926022D01*
X86943868Y-36918408D01*
X86942035Y-36918539D01*
X86935420Y-36922790D01*
X86817022Y-37041188D01*
X86809408Y-37055132D01*
X86079356Y-37055132D01*
X86080592Y-37052868D01*
X86080461Y-37051035D01*
X86076210Y-37044420D01*
X85957812Y-36926022D01*
X85943868Y-36918408D01*
X85942035Y-36918539D01*
X85935420Y-36922790D01*
X85817022Y-37041188D01*
X85809408Y-37055132D01*
X85079356Y-37055132D01*
X85080592Y-37052868D01*
X85080461Y-37051035D01*
X85076210Y-37044420D01*
X84957812Y-36926022D01*
X84943868Y-36918408D01*
X84942035Y-36918539D01*
X84935420Y-36922790D01*
X84817022Y-37041188D01*
X84809408Y-37055132D01*
X84079356Y-37055132D01*
X84080592Y-37052868D01*
X84080461Y-37051035D01*
X84076210Y-37044420D01*
X83957812Y-36926022D01*
X83943868Y-36918408D01*
X83942035Y-36918539D01*
X83935420Y-36922790D01*
X83817022Y-37041188D01*
X83809408Y-37055132D01*
X70737500Y-37055132D01*
X70737500Y-36560565D01*
X83032688Y-36560565D01*
X83051259Y-36737261D01*
X83053989Y-36750102D01*
X83108892Y-36919075D01*
X83114230Y-36931064D01*
X83148818Y-36990972D01*
X83144405Y-36993520D01*
X83150123Y-37003435D01*
X83174885Y-36964905D01*
X83572978Y-36566812D01*
X83579356Y-36555132D01*
X84309408Y-36555132D01*
X84309539Y-36556965D01*
X84313790Y-36563580D01*
X84432188Y-36681978D01*
X84446132Y-36689592D01*
X84447965Y-36689461D01*
X84454580Y-36685210D01*
X84572978Y-36566812D01*
X84579356Y-36555132D01*
X85309408Y-36555132D01*
X85309539Y-36556965D01*
X85313790Y-36563580D01*
X85432188Y-36681978D01*
X85446132Y-36689592D01*
X85447965Y-36689461D01*
X85454580Y-36685210D01*
X85572978Y-36566812D01*
X85579356Y-36555132D01*
X86309408Y-36555132D01*
X86309539Y-36556965D01*
X86313790Y-36563580D01*
X86432188Y-36681978D01*
X86446132Y-36689592D01*
X86447965Y-36689461D01*
X86454580Y-36685210D01*
X86572978Y-36566812D01*
X86579356Y-36555132D01*
X87309408Y-36555132D01*
X87309539Y-36556965D01*
X87313790Y-36563580D01*
X87432188Y-36681978D01*
X87446132Y-36689592D01*
X87447965Y-36689461D01*
X87454580Y-36685210D01*
X87572978Y-36566812D01*
X87579356Y-36555132D01*
X88309408Y-36555132D01*
X88309539Y-36556965D01*
X88313790Y-36563580D01*
X88715115Y-36964905D01*
X88735994Y-37003140D01*
X88741846Y-36991355D01*
X88741182Y-36990972D01*
X88775770Y-36931064D01*
X88781108Y-36919075D01*
X88836011Y-36750102D01*
X88838741Y-36737261D01*
X88857312Y-36560565D01*
X88857312Y-36547435D01*
X88838741Y-36370739D01*
X88836011Y-36357898D01*
X88781108Y-36188925D01*
X88775770Y-36176936D01*
X88750239Y-36132715D01*
X88740035Y-36122985D01*
X88732014Y-36126196D01*
X88317022Y-36541188D01*
X88309408Y-36555132D01*
X87579356Y-36555132D01*
X87580592Y-36552868D01*
X87580461Y-36551035D01*
X87576210Y-36544420D01*
X87457812Y-36426022D01*
X87443868Y-36418408D01*
X87442035Y-36418539D01*
X87435420Y-36422790D01*
X87317022Y-36541188D01*
X87309408Y-36555132D01*
X86579356Y-36555132D01*
X86580592Y-36552868D01*
X86580461Y-36551035D01*
X86576210Y-36544420D01*
X86457812Y-36426022D01*
X86443868Y-36418408D01*
X86442035Y-36418539D01*
X86435420Y-36422790D01*
X86317022Y-36541188D01*
X86309408Y-36555132D01*
X85579356Y-36555132D01*
X85580592Y-36552868D01*
X85580461Y-36551035D01*
X85576210Y-36544420D01*
X85457812Y-36426022D01*
X85443868Y-36418408D01*
X85442035Y-36418539D01*
X85435420Y-36422790D01*
X85317022Y-36541188D01*
X85309408Y-36555132D01*
X84579356Y-36555132D01*
X84580592Y-36552868D01*
X84580461Y-36551035D01*
X84576210Y-36544420D01*
X84457812Y-36426022D01*
X84443868Y-36418408D01*
X84442035Y-36418539D01*
X84435420Y-36422790D01*
X84317022Y-36541188D01*
X84309408Y-36555132D01*
X83579356Y-36555132D01*
X83580592Y-36552868D01*
X83580461Y-36551035D01*
X83576210Y-36544420D01*
X83161630Y-36129840D01*
X83149250Y-36123080D01*
X83142335Y-36128256D01*
X83114230Y-36176936D01*
X83108892Y-36188925D01*
X83053989Y-36357898D01*
X83051259Y-36370739D01*
X83032688Y-36547435D01*
X83032688Y-36560565D01*
X70737500Y-36560565D01*
X70737500Y-36424500D01*
X70757502Y-36356379D01*
X70811158Y-36309886D01*
X70863500Y-36298500D01*
X71652134Y-36298500D01*
X71714316Y-36291745D01*
X71850705Y-36240615D01*
X71967261Y-36153261D01*
X72054615Y-36036705D01*
X72105745Y-35900316D01*
X72112500Y-35838134D01*
X72112500Y-35757372D01*
X83511622Y-35757372D01*
X83513219Y-35763009D01*
X83932188Y-36181978D01*
X83946132Y-36189592D01*
X83947965Y-36189461D01*
X83954580Y-36185210D01*
X84355905Y-35783885D01*
X84396462Y-35761738D01*
X84393326Y-35761257D01*
X84387727Y-35758311D01*
X84494302Y-35758311D01*
X84534095Y-35783885D01*
X84932188Y-36181978D01*
X84946132Y-36189592D01*
X84947965Y-36189461D01*
X84954580Y-36185210D01*
X85355905Y-35783885D01*
X85396462Y-35761738D01*
X85393326Y-35761257D01*
X85387727Y-35758311D01*
X85494302Y-35758311D01*
X85534095Y-35783885D01*
X85932188Y-36181978D01*
X85946132Y-36189592D01*
X85947965Y-36189461D01*
X85954580Y-36185210D01*
X86355905Y-35783885D01*
X86396462Y-35761738D01*
X86393326Y-35761257D01*
X86387727Y-35758311D01*
X86494302Y-35758311D01*
X86534095Y-35783885D01*
X86932188Y-36181978D01*
X86946132Y-36189592D01*
X86947965Y-36189461D01*
X86954580Y-36185210D01*
X87355905Y-35783885D01*
X87396462Y-35761738D01*
X87393326Y-35761257D01*
X87387727Y-35758311D01*
X87494302Y-35758311D01*
X87534095Y-35783885D01*
X87932188Y-36181978D01*
X87946132Y-36189592D01*
X87947965Y-36189461D01*
X87954580Y-36185210D01*
X88371371Y-35768419D01*
X88378131Y-35756039D01*
X88374620Y-35751349D01*
X88233159Y-35688366D01*
X88220680Y-35684311D01*
X88046893Y-35647373D01*
X88033832Y-35646000D01*
X87856168Y-35646000D01*
X87843107Y-35647373D01*
X87669320Y-35684311D01*
X87656841Y-35688366D01*
X87505817Y-35755607D01*
X87504917Y-35753584D01*
X87494302Y-35758311D01*
X87387727Y-35758311D01*
X87382973Y-35755810D01*
X87377738Y-35752738D01*
X87233159Y-35688366D01*
X87220680Y-35684311D01*
X87046893Y-35647373D01*
X87033832Y-35646000D01*
X86856168Y-35646000D01*
X86843107Y-35647373D01*
X86669320Y-35684311D01*
X86656841Y-35688366D01*
X86505817Y-35755607D01*
X86504917Y-35753584D01*
X86494302Y-35758311D01*
X86387727Y-35758311D01*
X86382973Y-35755810D01*
X86377738Y-35752738D01*
X86233159Y-35688366D01*
X86220680Y-35684311D01*
X86046893Y-35647373D01*
X86033832Y-35646000D01*
X85856168Y-35646000D01*
X85843107Y-35647373D01*
X85669320Y-35684311D01*
X85656841Y-35688366D01*
X85505817Y-35755607D01*
X85504917Y-35753584D01*
X85494302Y-35758311D01*
X85387727Y-35758311D01*
X85382973Y-35755810D01*
X85377738Y-35752738D01*
X85233159Y-35688366D01*
X85220680Y-35684311D01*
X85046893Y-35647373D01*
X85033832Y-35646000D01*
X84856168Y-35646000D01*
X84843107Y-35647373D01*
X84669320Y-35684311D01*
X84656841Y-35688366D01*
X84505817Y-35755607D01*
X84504917Y-35753584D01*
X84494302Y-35758311D01*
X84387727Y-35758311D01*
X84382973Y-35755810D01*
X84377738Y-35752738D01*
X84233159Y-35688366D01*
X84220680Y-35684311D01*
X84046893Y-35647373D01*
X84033832Y-35646000D01*
X83856168Y-35646000D01*
X83843107Y-35647373D01*
X83669320Y-35684311D01*
X83656841Y-35688366D01*
X83522367Y-35748239D01*
X83511622Y-35757372D01*
X72112500Y-35757372D01*
X72112500Y-34268918D01*
X102888917Y-34268918D01*
X102904682Y-34542320D01*
X102905507Y-34546525D01*
X102905508Y-34546533D01*
X102926698Y-34654539D01*
X102957405Y-34811053D01*
X102958792Y-34815103D01*
X102958793Y-34815108D01*
X102979605Y-34875895D01*
X103046112Y-35070144D01*
X103169160Y-35314799D01*
X103171586Y-35318328D01*
X103171589Y-35318334D01*
X103300741Y-35506250D01*
X103324274Y-35540490D01*
X103508582Y-35743043D01*
X103511877Y-35745798D01*
X103511878Y-35745799D01*
X103556382Y-35783010D01*
X103718675Y-35918707D01*
X103722316Y-35920991D01*
X103947024Y-36061951D01*
X103947028Y-36061953D01*
X103950664Y-36064234D01*
X104018544Y-36094883D01*
X104196345Y-36175164D01*
X104196349Y-36175166D01*
X104200257Y-36176930D01*
X104263393Y-36195632D01*
X104458723Y-36253491D01*
X104458727Y-36253492D01*
X104462836Y-36254709D01*
X104467070Y-36255357D01*
X104467075Y-36255358D01*
X104729298Y-36295483D01*
X104729300Y-36295483D01*
X104733540Y-36296132D01*
X104872912Y-36298322D01*
X105003071Y-36300367D01*
X105003077Y-36300367D01*
X105007362Y-36300434D01*
X105279235Y-36267534D01*
X105544127Y-36198041D01*
X105548087Y-36196401D01*
X105548092Y-36196399D01*
X105670632Y-36145641D01*
X105797136Y-36093241D01*
X106033582Y-35955073D01*
X106182720Y-35838134D01*
X107973500Y-35838134D01*
X107980255Y-35900316D01*
X108031385Y-36036705D01*
X108118739Y-36153261D01*
X108235295Y-36240615D01*
X108371684Y-36291745D01*
X108433866Y-36298500D01*
X111530134Y-36298500D01*
X111592316Y-36291745D01*
X111728705Y-36240615D01*
X111845261Y-36153261D01*
X111932615Y-36036705D01*
X111983745Y-35900316D01*
X111990500Y-35838134D01*
X111990500Y-32741866D01*
X111983745Y-32679684D01*
X111932615Y-32543295D01*
X111845261Y-32426739D01*
X111728705Y-32339385D01*
X111592316Y-32288255D01*
X111530134Y-32281500D01*
X108433866Y-32281500D01*
X108371684Y-32288255D01*
X108235295Y-32339385D01*
X108118739Y-32426739D01*
X108031385Y-32543295D01*
X107980255Y-32679684D01*
X107973500Y-32741866D01*
X107973500Y-35838134D01*
X106182720Y-35838134D01*
X106249089Y-35786094D01*
X106266218Y-35768419D01*
X106436686Y-35592509D01*
X106439669Y-35589431D01*
X106442202Y-35585983D01*
X106442206Y-35585978D01*
X106599257Y-35372178D01*
X106601795Y-35368723D01*
X106603841Y-35364955D01*
X106730418Y-35131830D01*
X106730419Y-35131828D01*
X106732468Y-35128054D01*
X106829269Y-34871877D01*
X106890407Y-34604933D01*
X106896384Y-34537969D01*
X106914531Y-34334627D01*
X106914532Y-34334616D01*
X106914751Y-34332161D01*
X106915193Y-34290000D01*
X106913465Y-34264648D01*
X106896859Y-34021055D01*
X106896858Y-34021049D01*
X106896567Y-34016778D01*
X106841032Y-33748612D01*
X106749617Y-33490465D01*
X106624013Y-33247112D01*
X106614040Y-33232921D01*
X106469008Y-33026562D01*
X106466545Y-33023057D01*
X106280125Y-32822445D01*
X106276810Y-32819731D01*
X106276806Y-32819728D01*
X106115304Y-32687540D01*
X106068205Y-32648990D01*
X105834704Y-32505901D01*
X105830768Y-32504173D01*
X105587873Y-32397549D01*
X105587869Y-32397548D01*
X105583945Y-32395825D01*
X105320566Y-32320800D01*
X105316324Y-32320196D01*
X105316318Y-32320195D01*
X105111387Y-32291029D01*
X105049443Y-32282213D01*
X104905589Y-32281460D01*
X104779877Y-32280802D01*
X104779871Y-32280802D01*
X104775591Y-32280780D01*
X104771347Y-32281339D01*
X104771343Y-32281339D01*
X104697741Y-32291029D01*
X104504078Y-32316525D01*
X104499938Y-32317658D01*
X104499936Y-32317658D01*
X104432037Y-32336233D01*
X104239928Y-32388788D01*
X104235980Y-32390472D01*
X103991982Y-32494546D01*
X103991978Y-32494548D01*
X103988030Y-32496232D01*
X103968125Y-32508145D01*
X103756725Y-32634664D01*
X103756721Y-32634667D01*
X103753043Y-32636868D01*
X103539318Y-32808094D01*
X103350808Y-33006742D01*
X103191002Y-33229136D01*
X103062857Y-33471161D01*
X103061385Y-33475184D01*
X103061383Y-33475188D01*
X103054314Y-33494506D01*
X102968743Y-33728337D01*
X102910404Y-33995907D01*
X102888917Y-34268918D01*
X72112500Y-34268918D01*
X72112500Y-32741866D01*
X72105745Y-32679684D01*
X72054615Y-32543295D01*
X71967261Y-32426739D01*
X71850705Y-32339385D01*
X71714316Y-32288255D01*
X71652134Y-32281500D01*
X68555866Y-32281500D01*
X68493684Y-32288255D01*
X68357295Y-32339385D01*
X68240739Y-32426739D01*
X68153385Y-32543295D01*
X68102255Y-32679684D01*
X68095500Y-32741866D01*
X68095500Y-35838134D01*
X66212924Y-35838134D01*
X65036812Y-34662022D01*
X65022868Y-34654408D01*
X65021035Y-34654539D01*
X65014420Y-34658790D01*
X63806910Y-35866300D01*
X63799618Y-35879654D01*
X61157990Y-35879654D01*
X61162500Y-35838134D01*
X61162500Y-34273204D01*
X63011665Y-34273204D01*
X63026932Y-34537969D01*
X63028005Y-34546470D01*
X63079065Y-34806722D01*
X63081276Y-34814974D01*
X63167184Y-35065894D01*
X63170499Y-35073779D01*
X63289664Y-35310713D01*
X63294020Y-35318079D01*
X63423347Y-35506250D01*
X63433601Y-35514594D01*
X63447342Y-35507448D01*
X64651978Y-34302812D01*
X64658356Y-34291132D01*
X65388408Y-34291132D01*
X65388539Y-34292965D01*
X65392790Y-34299580D01*
X66599730Y-35506520D01*
X66611939Y-35513187D01*
X66623439Y-35504497D01*
X66720831Y-35371913D01*
X66725418Y-35364685D01*
X66851962Y-35131621D01*
X66855530Y-35123827D01*
X66949271Y-34875750D01*
X66951748Y-34867544D01*
X67010954Y-34609038D01*
X67012294Y-34600577D01*
X67036031Y-34334616D01*
X67036277Y-34329677D01*
X67036666Y-34292485D01*
X67036523Y-34287519D01*
X67018362Y-34021123D01*
X67017201Y-34012649D01*
X66963419Y-33752944D01*
X66961120Y-33744709D01*
X66872588Y-33494705D01*
X66869191Y-33486854D01*
X66747550Y-33251178D01*
X66743122Y-33243866D01*
X66624031Y-33074417D01*
X66613509Y-33066037D01*
X66600121Y-33073089D01*
X65396022Y-34277188D01*
X65388408Y-34291132D01*
X64658356Y-34291132D01*
X64659592Y-34288868D01*
X64659461Y-34287035D01*
X64655210Y-34280420D01*
X63447814Y-33073024D01*
X63435804Y-33066466D01*
X63424064Y-33075434D01*
X63315935Y-33225911D01*
X63311418Y-33233196D01*
X63187325Y-33467567D01*
X63183839Y-33475395D01*
X63092700Y-33724446D01*
X63090311Y-33732670D01*
X63033812Y-33991795D01*
X63032563Y-34000250D01*
X63011754Y-34264653D01*
X63011665Y-34273204D01*
X61162500Y-34273204D01*
X61162500Y-32741866D01*
X61158224Y-32702500D01*
X63800584Y-32702500D01*
X63806980Y-32713770D01*
X65011188Y-33917978D01*
X65025132Y-33925592D01*
X65026965Y-33925461D01*
X65033580Y-33921210D01*
X66240604Y-32714186D01*
X66247795Y-32701017D01*
X66240473Y-32690780D01*
X66193233Y-32652115D01*
X66186261Y-32647160D01*
X65960122Y-32508582D01*
X65952552Y-32504624D01*
X65709704Y-32398022D01*
X65701644Y-32395120D01*
X65446592Y-32322467D01*
X65438214Y-32320685D01*
X65175656Y-32283318D01*
X65167111Y-32282691D01*
X64901908Y-32281302D01*
X64893374Y-32281839D01*
X64630433Y-32316456D01*
X64622035Y-32318149D01*
X64366238Y-32388127D01*
X64358143Y-32390946D01*
X64114199Y-32494997D01*
X64106577Y-32498881D01*
X63879013Y-32635075D01*
X63871981Y-32639962D01*
X63809053Y-32690377D01*
X63800584Y-32702500D01*
X61158224Y-32702500D01*
X61155745Y-32679684D01*
X61104615Y-32543295D01*
X61017261Y-32426739D01*
X60900705Y-32339385D01*
X60764316Y-32288255D01*
X60702134Y-32281500D01*
X57605866Y-32281500D01*
X57543684Y-32288255D01*
X57407295Y-32339385D01*
X57290739Y-32426739D01*
X57203385Y-32543295D01*
X57152255Y-32679684D01*
X57145500Y-32741866D01*
X57145500Y-35838134D01*
X55262924Y-35838134D01*
X54086812Y-34662022D01*
X54072868Y-34654408D01*
X54071035Y-34654539D01*
X54064420Y-34658790D01*
X52856910Y-35866300D01*
X52849618Y-35879654D01*
X51308000Y-35879654D01*
X51308000Y-34273204D01*
X52061665Y-34273204D01*
X52076932Y-34537969D01*
X52078005Y-34546470D01*
X52129065Y-34806722D01*
X52131276Y-34814974D01*
X52217184Y-35065894D01*
X52220499Y-35073779D01*
X52339664Y-35310713D01*
X52344020Y-35318079D01*
X52473347Y-35506250D01*
X52483601Y-35514594D01*
X52497342Y-35507448D01*
X53701978Y-34302812D01*
X53708356Y-34291132D01*
X54438408Y-34291132D01*
X54438539Y-34292965D01*
X54442790Y-34299580D01*
X55649730Y-35506520D01*
X55661939Y-35513187D01*
X55673439Y-35504497D01*
X55770831Y-35371913D01*
X55775418Y-35364685D01*
X55901962Y-35131621D01*
X55905530Y-35123827D01*
X55999271Y-34875750D01*
X56001748Y-34867544D01*
X56060954Y-34609038D01*
X56062294Y-34600577D01*
X56086031Y-34334616D01*
X56086277Y-34329677D01*
X56086666Y-34292485D01*
X56086523Y-34287519D01*
X56068362Y-34021123D01*
X56067201Y-34012649D01*
X56013419Y-33752944D01*
X56011120Y-33744709D01*
X55922588Y-33494705D01*
X55919191Y-33486854D01*
X55797550Y-33251178D01*
X55793122Y-33243866D01*
X55674031Y-33074417D01*
X55663509Y-33066037D01*
X55650121Y-33073089D01*
X54446022Y-34277188D01*
X54438408Y-34291132D01*
X53708356Y-34291132D01*
X53709592Y-34288868D01*
X53709461Y-34287035D01*
X53705210Y-34280420D01*
X52497814Y-33073024D01*
X52485804Y-33066466D01*
X52474064Y-33075434D01*
X52365935Y-33225911D01*
X52361418Y-33233196D01*
X52237325Y-33467567D01*
X52233839Y-33475395D01*
X52142700Y-33724446D01*
X52140311Y-33732670D01*
X52083812Y-33991795D01*
X52082563Y-34000250D01*
X52061754Y-34264653D01*
X52061665Y-34273204D01*
X51308000Y-34273204D01*
X51308000Y-32702500D01*
X52850584Y-32702500D01*
X52856980Y-32713770D01*
X54061188Y-33917978D01*
X54075132Y-33925592D01*
X54076965Y-33925461D01*
X54083580Y-33921210D01*
X55290604Y-32714186D01*
X55297795Y-32701017D01*
X55290473Y-32690780D01*
X55243233Y-32652115D01*
X55236261Y-32647160D01*
X55010122Y-32508582D01*
X55002552Y-32504624D01*
X54759704Y-32398022D01*
X54751644Y-32395120D01*
X54496592Y-32322467D01*
X54488214Y-32320685D01*
X54225656Y-32283318D01*
X54217111Y-32282691D01*
X53951908Y-32281302D01*
X53943374Y-32281839D01*
X53680433Y-32316456D01*
X53672035Y-32318149D01*
X53416238Y-32388127D01*
X53408143Y-32390946D01*
X53164199Y-32494997D01*
X53156577Y-32498881D01*
X52929013Y-32635075D01*
X52921981Y-32639962D01*
X52859053Y-32690377D01*
X52850584Y-32702500D01*
X51308000Y-32702500D01*
X51308000Y-30634000D01*
X51328002Y-30565879D01*
X51381658Y-30519386D01*
X51434000Y-30508000D01*
X112566000Y-30508000D01*
X112634121Y-30528002D01*
G37*
G04 #@! TD.AperFunction*
M02*
