M48
; DRILL file {KiCad (6.0.1)} date Wed Apr 27 15:55:11 2022
; FORMAT={-:-/ absolute / metric / decimal}
; #@! TF.CreationDate,2022-04-27T15:55:11+02:00
; #@! TF.GenerationSoftware,Kicad,Pcbnew,(6.0.1)
; #@! TF.FileFunction,Plated,1,2,PTH
FMAT,2
METRIC
; #@! TA.AperFunction,Plated,PTH,ComponentDrill
T1C0.300
; #@! TA.AperFunction,Plated,PTH,ComponentDrill
T2C0.500
; #@! TA.AperFunction,Plated,PTH,ComponentDrill
T3C1.520
; #@! TA.AperFunction,Plated,PTH,ComponentDrill
T4C3.500
%
G90
G05
T1
X83.945Y-36.554
X83.945Y-37.554
X83.945Y-38.554
X83.945Y-39.554
X83.945Y-40.554
X84.945Y-36.554
X84.945Y-37.554
X84.945Y-38.554
X84.945Y-39.554
X84.945Y-40.554
X85.945Y-36.554
X85.945Y-37.554
X85.945Y-38.554
X85.945Y-39.554
X85.945Y-40.554
X86.945Y-36.554
X86.945Y-37.554
X86.945Y-38.554
X86.945Y-39.554
X86.945Y-40.554
X87.945Y-36.554
X87.945Y-37.554
X87.945Y-38.554
X87.945Y-39.554
X87.945Y-40.554
T2
X53.9Y-45.65
X53.9Y-99.6
X54.559Y-44.059
X54.559Y-47.241
X54.559Y-98.009
X54.559Y-101.191
X56.15Y-43.4
X56.15Y-47.9
X56.15Y-97.35
X56.15Y-101.85
X57.741Y-44.059
X57.741Y-47.241
X57.741Y-98.009
X57.741Y-101.191
X58.4Y-45.65
X58.4Y-99.6
X105.85Y-45.65
X105.85Y-99.6
X106.509Y-44.059
X106.509Y-47.241
X106.509Y-98.009
X106.509Y-101.191
X108.1Y-43.4
X108.1Y-47.9
X108.1Y-97.35
X108.1Y-101.85
X109.691Y-44.059
X109.691Y-47.241
X109.691Y-98.009
X109.691Y-101.191
X110.35Y-45.65
X110.35Y-99.6
T3
X54.074Y-34.29
X56.98Y-110.65
X59.154Y-34.29
X62.06Y-110.65
X65.024Y-34.29
X67.14Y-110.65
X70.104Y-34.29
X72.22Y-110.65
X78.66Y-110.65
X83.74Y-110.65
X89.71Y-110.65
X94.79Y-110.65
X100.57Y-110.65
X104.902Y-34.29
X105.65Y-110.65
X109.982Y-34.29
T4
X56.15Y-45.65
X56.15Y-99.6
X108.1Y-45.65
X108.1Y-99.6
T0
M30
