G04 #@! TF.GenerationSoftware,KiCad,Pcbnew,(6.0.1)*
G04 #@! TF.CreationDate,2022-04-27T15:55:03+02:00*
G04 #@! TF.ProjectId,PompController_brian,506f6d70-436f-46e7-9472-6f6c6c65725f,rev?*
G04 #@! TF.SameCoordinates,Original*
G04 #@! TF.FileFunction,Copper,L1,Top*
G04 #@! TF.FilePolarity,Positive*
%FSLAX46Y46*%
G04 Gerber Fmt 4.6, Leading zero omitted, Abs format (unit mm)*
G04 Created by KiCad (PCBNEW (6.0.1)) date 2022-04-27 15:55:03*
%MOMM*%
%LPD*%
G01*
G04 APERTURE LIST*
G04 Aperture macros list*
%AMRoundRect*
0 Rectangle with rounded corners*
0 $1 Rounding radius*
0 $2 $3 $4 $5 $6 $7 $8 $9 X,Y pos of 4 corners*
0 Add a 4 corners polygon primitive as box body*
4,1,4,$2,$3,$4,$5,$6,$7,$8,$9,$2,$3,0*
0 Add four circle primitives for the rounded corners*
1,1,$1+$1,$2,$3*
1,1,$1+$1,$4,$5*
1,1,$1+$1,$6,$7*
1,1,$1+$1,$8,$9*
0 Add four rect primitives between the rounded corners*
20,1,$1+$1,$2,$3,$4,$5,0*
20,1,$1+$1,$4,$5,$6,$7,0*
20,1,$1+$1,$6,$7,$8,$9,0*
20,1,$1+$1,$8,$9,$2,$3,0*%
G04 Aperture macros list end*
G04 #@! TA.AperFunction,SMDPad,CuDef*
%ADD10R,2.150000X0.950000*%
G04 #@! TD*
G04 #@! TA.AperFunction,SMDPad,CuDef*
%ADD11R,2.150000X3.250000*%
G04 #@! TD*
G04 #@! TA.AperFunction,ComponentPad*
%ADD12R,3.000000X3.000000*%
G04 #@! TD*
G04 #@! TA.AperFunction,ComponentPad*
%ADD13C,3.000000*%
G04 #@! TD*
G04 #@! TA.AperFunction,SMDPad,CuDef*
%ADD14RoundRect,0.250000X0.262500X0.450000X-0.262500X0.450000X-0.262500X-0.450000X0.262500X-0.450000X0*%
G04 #@! TD*
G04 #@! TA.AperFunction,SMDPad,CuDef*
%ADD15R,1.000000X0.900000*%
G04 #@! TD*
G04 #@! TA.AperFunction,ComponentPad*
%ADD16C,0.800000*%
G04 #@! TD*
G04 #@! TA.AperFunction,ComponentPad*
%ADD17C,6.000000*%
G04 #@! TD*
G04 #@! TA.AperFunction,SMDPad,CuDef*
%ADD18RoundRect,0.250000X-0.250000X-0.475000X0.250000X-0.475000X0.250000X0.475000X-0.250000X0.475000X0*%
G04 #@! TD*
G04 #@! TA.AperFunction,SMDPad,CuDef*
%ADD19RoundRect,0.250000X0.250000X0.475000X-0.250000X0.475000X-0.250000X-0.475000X0.250000X-0.475000X0*%
G04 #@! TD*
G04 #@! TA.AperFunction,SMDPad,CuDef*
%ADD20O,3.000000X0.900000*%
G04 #@! TD*
G04 #@! TA.AperFunction,SMDPad,CuDef*
%ADD21R,5.000000X5.000000*%
G04 #@! TD*
G04 #@! TA.AperFunction,SMDPad,CuDef*
%ADD22R,0.559000X0.724000*%
G04 #@! TD*
G04 #@! TA.AperFunction,Conductor*
%ADD23C,0.250000*%
G04 #@! TD*
G04 APERTURE END LIST*
D10*
X69194000Y-48274000D03*
X69194000Y-45974000D03*
X69194000Y-43674000D03*
D11*
X63394000Y-45974000D03*
D12*
X89710000Y-110650000D03*
D13*
X94790000Y-110650000D03*
D14*
X65512500Y-67600000D03*
X63687500Y-67600000D03*
D15*
X56650000Y-56550000D03*
X56650000Y-60650000D03*
X58250000Y-56550000D03*
X58250000Y-60650000D03*
D14*
X107742500Y-64888000D03*
X105917500Y-64888000D03*
D16*
X56150000Y-43400000D03*
X54559010Y-47240990D03*
X54559010Y-44059010D03*
X53900000Y-45650000D03*
X57740990Y-44059010D03*
D17*
X56150000Y-45650000D03*
D16*
X58400000Y-45650000D03*
X56150000Y-47900000D03*
X57740990Y-47240990D03*
D14*
X65512500Y-77100000D03*
X63687500Y-77100000D03*
D12*
X78660000Y-110650000D03*
D13*
X83740000Y-110650000D03*
D12*
X59154000Y-34290000D03*
D13*
X54074000Y-34290000D03*
D14*
X102292500Y-64938000D03*
X100467500Y-64938000D03*
D18*
X63700000Y-72300000D03*
X65600000Y-72300000D03*
X63750000Y-58450000D03*
X65650000Y-58450000D03*
D19*
X65500000Y-63100000D03*
X63600000Y-63100000D03*
D12*
X70104000Y-34290000D03*
D13*
X65024000Y-34290000D03*
D20*
X77345000Y-31644000D03*
X77345000Y-32914000D03*
X77345000Y-34184000D03*
X77345000Y-35454000D03*
X77345000Y-36724000D03*
X77345000Y-37994000D03*
X77345000Y-39264000D03*
X77345000Y-40534000D03*
X77345000Y-41804000D03*
X77345000Y-43074000D03*
X77345000Y-44344000D03*
X77345000Y-45614000D03*
X77345000Y-46884000D03*
X77345000Y-48154000D03*
X77345000Y-49454000D03*
X77345000Y-50724000D03*
X77345000Y-51994000D03*
X77345000Y-53264000D03*
X77345000Y-54534000D03*
X95345000Y-54534000D03*
X95345000Y-53264000D03*
X95345000Y-51994000D03*
X95345000Y-50724000D03*
X95345000Y-49454000D03*
X95375000Y-48154000D03*
X95375000Y-46884000D03*
X95375000Y-45614000D03*
X95375000Y-44344000D03*
X95375000Y-43074000D03*
X95375000Y-41804000D03*
X95375000Y-40534000D03*
X95375000Y-39264000D03*
X95375000Y-37994000D03*
X95375000Y-36724000D03*
X95375000Y-35454000D03*
X95375000Y-34184000D03*
X95375000Y-32914000D03*
X95375000Y-31644000D03*
D16*
X85945000Y-40554000D03*
X83945000Y-40554000D03*
X83945000Y-36554000D03*
X84945000Y-38554000D03*
X84945000Y-37554000D03*
X86945000Y-36554000D03*
X83945000Y-37554000D03*
X86945000Y-38554000D03*
X84945000Y-39554000D03*
D21*
X85945000Y-38564000D03*
D16*
X86945000Y-40554000D03*
X87945000Y-39554000D03*
X85945000Y-39554000D03*
X87945000Y-37554000D03*
X83945000Y-39554000D03*
X86945000Y-37554000D03*
X84945000Y-40554000D03*
X87945000Y-36554000D03*
X87945000Y-38554000D03*
X86945000Y-39554000D03*
X84945000Y-36554000D03*
X85945000Y-37554000D03*
X85945000Y-38554000D03*
X83945000Y-38554000D03*
X87945000Y-40554000D03*
X85945000Y-36554000D03*
X110350000Y-99600000D03*
D17*
X108100000Y-99600000D03*
D16*
X109690990Y-98009010D03*
X108100000Y-97350000D03*
X109690990Y-101190990D03*
X108100000Y-101850000D03*
X106509010Y-101190990D03*
X106509010Y-98009010D03*
X105850000Y-99600000D03*
D19*
X65450000Y-81550000D03*
X63550000Y-81550000D03*
D12*
X56980000Y-110650000D03*
D13*
X62060000Y-110650000D03*
X67140000Y-110650000D03*
X72220000Y-110650000D03*
D16*
X110350000Y-45650000D03*
X109690990Y-47240990D03*
X106509010Y-47240990D03*
X106509010Y-44059010D03*
X109690990Y-44059010D03*
X108100000Y-47900000D03*
X105850000Y-45650000D03*
D17*
X108100000Y-45650000D03*
D16*
X108100000Y-43400000D03*
D22*
X107630000Y-68103500D03*
X105730000Y-68103500D03*
X106680000Y-70072500D03*
D12*
X100570000Y-110650000D03*
D13*
X105650000Y-110650000D03*
D12*
X109982000Y-34290000D03*
D13*
X104902000Y-34290000D03*
D22*
X102296000Y-68103500D03*
X100396000Y-68103500D03*
X101346000Y-70072500D03*
D16*
X56150000Y-97350000D03*
X56150000Y-101850000D03*
X57740990Y-101190990D03*
D17*
X56150000Y-99600000D03*
D16*
X54559010Y-98009010D03*
X54559010Y-101190990D03*
X53900000Y-99600000D03*
X58400000Y-99600000D03*
X57740990Y-98009010D03*
D23*
X76295000Y-48154000D02*
X77345000Y-48154000D01*
X73601520Y-99108480D02*
X73601520Y-50847480D01*
X62060000Y-110650000D02*
X73601520Y-99108480D01*
X73601520Y-50847480D02*
X76295000Y-48154000D01*
X76295000Y-46884000D02*
X77345000Y-46884000D01*
X71120000Y-52059000D02*
X76295000Y-46884000D01*
X71120000Y-96510000D02*
X71120000Y-52059000D01*
X56980000Y-110650000D02*
X71120000Y-96510000D01*
X76469664Y-34184000D02*
X77345000Y-34184000D01*
X73093520Y-37560144D02*
X76469664Y-34184000D01*
X67564000Y-67818000D02*
X67564000Y-53371718D01*
X67564000Y-53371718D02*
X73093520Y-47842198D01*
X65852500Y-69529500D02*
X67564000Y-67818000D01*
X63687500Y-69529500D02*
X65852500Y-69529500D01*
X73093520Y-47842198D02*
X73093520Y-37560144D01*
X72644000Y-36565000D02*
X76295000Y-32914000D01*
X76295000Y-32914000D02*
X77345000Y-32914000D01*
X72644000Y-44824000D02*
X72644000Y-36565000D01*
X69194000Y-48274000D02*
X72644000Y-44824000D01*
X78395000Y-50724000D02*
X77345000Y-50724000D01*
X80264000Y-97526000D02*
X80264000Y-52593000D01*
X80264000Y-52593000D02*
X78395000Y-50724000D01*
X67140000Y-110650000D02*
X80264000Y-97526000D01*
X96425000Y-40534000D02*
X95375000Y-40534000D01*
X107742500Y-51851500D02*
X96425000Y-40534000D01*
X107742500Y-64888000D02*
X107742500Y-51851500D01*
X102292500Y-64938000D02*
X102292500Y-47671500D01*
X102292500Y-47671500D02*
X96425000Y-41804000D01*
X96425000Y-41804000D02*
X95375000Y-41804000D01*
X72220000Y-108120000D02*
X72220000Y-110650000D01*
X89408000Y-90932000D02*
X72220000Y-108120000D01*
X89408000Y-55611000D02*
X89408000Y-90932000D01*
X94295000Y-50724000D02*
X89408000Y-55611000D01*
X95345000Y-50724000D02*
X94295000Y-50724000D01*
X99314000Y-51043000D02*
X96425000Y-48154000D01*
X99314000Y-61468000D02*
X99314000Y-51043000D01*
X97169520Y-63612480D02*
X99314000Y-61468000D01*
X97169520Y-92140480D02*
X97169520Y-63612480D01*
X96425000Y-48154000D02*
X95375000Y-48154000D01*
X78660000Y-110650000D02*
X97169520Y-92140480D01*
X107548000Y-36724000D02*
X95375000Y-36724000D01*
X109982000Y-34290000D02*
X107548000Y-36724000D01*
X104902000Y-34290000D02*
X103738000Y-35454000D01*
X103738000Y-35454000D02*
X95375000Y-35454000D01*
X96425000Y-54364000D02*
X95375000Y-54364000D01*
X59820000Y-34300000D02*
X69194000Y-43674000D01*
X59154000Y-34300000D02*
X59820000Y-34300000D01*
X95375000Y-46744000D02*
X96425000Y-46744000D01*
X107742500Y-64888000D02*
X107630000Y-65000500D01*
X107630000Y-65000500D02*
X107630000Y-68103500D01*
X95375000Y-48014000D02*
X96250336Y-48014000D01*
X102292500Y-64938000D02*
X102296000Y-64941500D01*
X102296000Y-64941500D02*
X102296000Y-68103500D01*
X69194000Y-51106000D02*
X65650000Y-54650000D01*
X65500000Y-63100000D02*
X65512500Y-63112500D01*
X65512500Y-63112500D02*
X65512500Y-67600000D01*
X69194000Y-48274000D02*
X69194000Y-51106000D01*
X65650000Y-54650000D02*
X65650000Y-58450000D01*
X65650000Y-58450000D02*
X65650000Y-62950000D01*
X65650000Y-62950000D02*
X65500000Y-63100000D01*
X77345000Y-40394000D02*
X76295000Y-40394000D01*
X63687500Y-69712500D02*
X63687500Y-72287500D01*
X63700000Y-72300000D02*
X63700000Y-75287500D01*
X63687500Y-67600000D02*
X63687500Y-69529500D01*
X63687500Y-72287500D02*
X63700000Y-72300000D01*
X63687500Y-69529500D02*
X63687500Y-69712500D01*
X63700000Y-75287500D02*
X65512500Y-77100000D01*
X63687500Y-77100000D02*
X63687500Y-81412500D01*
X58250000Y-56550000D02*
X58250000Y-60650000D01*
X63687500Y-77100000D02*
X58250000Y-71662500D01*
X63687500Y-81412500D02*
X63550000Y-81550000D01*
X58250000Y-71662500D02*
X58250000Y-60650000D01*
X75938000Y-54364000D02*
X77345000Y-54364000D01*
X105650000Y-108190000D02*
X105650000Y-110650000D01*
X106680000Y-70072500D02*
X106680000Y-94234000D01*
X104394000Y-106934000D02*
X105650000Y-108190000D01*
X104394000Y-96520000D02*
X104394000Y-106934000D01*
X106680000Y-94234000D02*
X104394000Y-96520000D01*
X101346000Y-98044000D02*
X94790000Y-104600000D01*
X101346000Y-70072500D02*
X101346000Y-98044000D01*
X94790000Y-104600000D02*
X94790000Y-110650000D01*
G04 #@! TA.AperFunction,Conductor*
G36*
X75961074Y-30528002D02*
G01*
X76007567Y-30581658D01*
X76017671Y-30651932D01*
X75988177Y-30716512D01*
X75930633Y-30754234D01*
X75921754Y-30757017D01*
X75910068Y-30762025D01*
X75751021Y-30850187D01*
X75740588Y-30857438D01*
X75602509Y-30975785D01*
X75593756Y-30984976D01*
X75482289Y-31128680D01*
X75475565Y-31139440D01*
X75395268Y-31302625D01*
X75390845Y-31314519D01*
X75375749Y-31372470D01*
X75376183Y-31386564D01*
X75384364Y-31390000D01*
X79304229Y-31390000D01*
X79317760Y-31386027D01*
X79318637Y-31379925D01*
X79262690Y-31227864D01*
X79257123Y-31216451D01*
X79161292Y-31061892D01*
X79153540Y-31051826D01*
X79028592Y-30919697D01*
X79018974Y-30911395D01*
X78870013Y-30807092D01*
X78858919Y-30800892D01*
X78740476Y-30749637D01*
X78685902Y-30704226D01*
X78664542Y-30636519D01*
X78683178Y-30568012D01*
X78735894Y-30520456D01*
X78790517Y-30508000D01*
X93922953Y-30508000D01*
X93991074Y-30528002D01*
X94037567Y-30581658D01*
X94047671Y-30651932D01*
X94018177Y-30716512D01*
X93960633Y-30754234D01*
X93951754Y-30757017D01*
X93940068Y-30762025D01*
X93781021Y-30850187D01*
X93770588Y-30857438D01*
X93632509Y-30975785D01*
X93623756Y-30984976D01*
X93512289Y-31128680D01*
X93505565Y-31139440D01*
X93425268Y-31302625D01*
X93420845Y-31314519D01*
X93405749Y-31372470D01*
X93406183Y-31386564D01*
X93414364Y-31390000D01*
X97334229Y-31390000D01*
X97347760Y-31386027D01*
X97348637Y-31379925D01*
X97292690Y-31227864D01*
X97287123Y-31216451D01*
X97191292Y-31061892D01*
X97183540Y-31051826D01*
X97058592Y-30919697D01*
X97048974Y-30911395D01*
X96900013Y-30807092D01*
X96888919Y-30800892D01*
X96770476Y-30749637D01*
X96715902Y-30704226D01*
X96694542Y-30636519D01*
X96713178Y-30568012D01*
X96765894Y-30520456D01*
X96820517Y-30508000D01*
X112566000Y-30508000D01*
X112634121Y-30528002D01*
X112680614Y-30581658D01*
X112692000Y-30634000D01*
X112692000Y-114566000D01*
X112671998Y-114634121D01*
X112618342Y-114680614D01*
X112566000Y-114692000D01*
X51434000Y-114692000D01*
X51365879Y-114671998D01*
X51319386Y-114618342D01*
X51308000Y-114566000D01*
X51308000Y-112198134D01*
X54971500Y-112198134D01*
X54978255Y-112260316D01*
X55029385Y-112396705D01*
X55116739Y-112513261D01*
X55233295Y-112600615D01*
X55369684Y-112651745D01*
X55431866Y-112658500D01*
X58528134Y-112658500D01*
X58590316Y-112651745D01*
X58726705Y-112600615D01*
X58843261Y-112513261D01*
X58930615Y-112396705D01*
X58981745Y-112260316D01*
X58988500Y-112198134D01*
X58988500Y-109589594D01*
X59008502Y-109521473D01*
X59025405Y-109500499D01*
X71512253Y-97013652D01*
X71520539Y-97006112D01*
X71527018Y-97002000D01*
X71573644Y-96952348D01*
X71576398Y-96949507D01*
X71596135Y-96929770D01*
X71598615Y-96926573D01*
X71606320Y-96917551D01*
X71631159Y-96891100D01*
X71636586Y-96885321D01*
X71640405Y-96878375D01*
X71640407Y-96878372D01*
X71646348Y-96867566D01*
X71657199Y-96851047D01*
X71664758Y-96841301D01*
X71669614Y-96835041D01*
X71672759Y-96827772D01*
X71672762Y-96827768D01*
X71687174Y-96794463D01*
X71692391Y-96783813D01*
X71713695Y-96745060D01*
X71718733Y-96725437D01*
X71725137Y-96706734D01*
X71730033Y-96695420D01*
X71730033Y-96695419D01*
X71733181Y-96688145D01*
X71734420Y-96680322D01*
X71734423Y-96680312D01*
X71740099Y-96644476D01*
X71742505Y-96632856D01*
X71751528Y-96597711D01*
X71751528Y-96597710D01*
X71753500Y-96590030D01*
X71753500Y-96569776D01*
X71755051Y-96550065D01*
X71756980Y-96537886D01*
X71758220Y-96530057D01*
X71754059Y-96486038D01*
X71753500Y-96474181D01*
X71753500Y-52373594D01*
X71773502Y-52305473D01*
X71790405Y-52284499D01*
X72752925Y-51321979D01*
X72815237Y-51287953D01*
X72886052Y-51293018D01*
X72942888Y-51335565D01*
X72967699Y-51402085D01*
X72968020Y-51411074D01*
X72968020Y-98793886D01*
X72948018Y-98862007D01*
X72931115Y-98882981D01*
X63022663Y-108791432D01*
X62960351Y-108825458D01*
X62882922Y-108817710D01*
X62745873Y-108757549D01*
X62745869Y-108757548D01*
X62741945Y-108755825D01*
X62478566Y-108680800D01*
X62474324Y-108680196D01*
X62474318Y-108680195D01*
X62269387Y-108651029D01*
X62207443Y-108642213D01*
X62063589Y-108641460D01*
X61937877Y-108640802D01*
X61937871Y-108640802D01*
X61933591Y-108640780D01*
X61929347Y-108641339D01*
X61929343Y-108641339D01*
X61855741Y-108651029D01*
X61662078Y-108676525D01*
X61657938Y-108677658D01*
X61657936Y-108677658D01*
X61590037Y-108696233D01*
X61397928Y-108748788D01*
X61393980Y-108750472D01*
X61149982Y-108854546D01*
X61149978Y-108854548D01*
X61146030Y-108856232D01*
X61126125Y-108868145D01*
X60914725Y-108994664D01*
X60914721Y-108994667D01*
X60911043Y-108996868D01*
X60697318Y-109168094D01*
X60508808Y-109366742D01*
X60349002Y-109589136D01*
X60220857Y-109831161D01*
X60219385Y-109835184D01*
X60219383Y-109835188D01*
X60212314Y-109854506D01*
X60126743Y-110088337D01*
X60068404Y-110355907D01*
X60046917Y-110628918D01*
X60062682Y-110902320D01*
X60063507Y-110906525D01*
X60063508Y-110906533D01*
X60084698Y-111014539D01*
X60115405Y-111171053D01*
X60116792Y-111175103D01*
X60116793Y-111175108D01*
X60137605Y-111235895D01*
X60204112Y-111430144D01*
X60327160Y-111674799D01*
X60329586Y-111678328D01*
X60329589Y-111678334D01*
X60458741Y-111866250D01*
X60482274Y-111900490D01*
X60666582Y-112103043D01*
X60876675Y-112278707D01*
X60880316Y-112280991D01*
X61105024Y-112421951D01*
X61105028Y-112421953D01*
X61108664Y-112424234D01*
X61176544Y-112454883D01*
X61354345Y-112535164D01*
X61354349Y-112535166D01*
X61358257Y-112536930D01*
X61362377Y-112538150D01*
X61362376Y-112538150D01*
X61616723Y-112613491D01*
X61616727Y-112613492D01*
X61620836Y-112614709D01*
X61625070Y-112615357D01*
X61625075Y-112615358D01*
X61887298Y-112655483D01*
X61887300Y-112655483D01*
X61891540Y-112656132D01*
X62030912Y-112658322D01*
X62161071Y-112660367D01*
X62161077Y-112660367D01*
X62165362Y-112660434D01*
X62437235Y-112627534D01*
X62702127Y-112558041D01*
X62706087Y-112556401D01*
X62706092Y-112556399D01*
X62828632Y-112505641D01*
X62955136Y-112453241D01*
X63191582Y-112315073D01*
X63407089Y-112146094D01*
X63448809Y-112103043D01*
X63594686Y-111952509D01*
X63597669Y-111949431D01*
X63600202Y-111945983D01*
X63600206Y-111945978D01*
X63757257Y-111732178D01*
X63759795Y-111728723D01*
X63761841Y-111724955D01*
X63888418Y-111491830D01*
X63888419Y-111491828D01*
X63890468Y-111488054D01*
X63987269Y-111231877D01*
X64048407Y-110964933D01*
X64054384Y-110897969D01*
X64072531Y-110694627D01*
X64072532Y-110694616D01*
X64072751Y-110692161D01*
X64073193Y-110650000D01*
X64071465Y-110624648D01*
X64054859Y-110381055D01*
X64054858Y-110381049D01*
X64054567Y-110376778D01*
X63999032Y-110108612D01*
X63907617Y-109850465D01*
X63905655Y-109846663D01*
X63905649Y-109846650D01*
X63898030Y-109831890D01*
X63884560Y-109762183D01*
X63910915Y-109696259D01*
X63920900Y-109685004D01*
X73993773Y-99612132D01*
X74002059Y-99604592D01*
X74008538Y-99600480D01*
X74055164Y-99550828D01*
X74057918Y-99547987D01*
X74077655Y-99528250D01*
X74080135Y-99525053D01*
X74087840Y-99516031D01*
X74112679Y-99489580D01*
X74118106Y-99483801D01*
X74121925Y-99476855D01*
X74121927Y-99476852D01*
X74127868Y-99466046D01*
X74138719Y-99449527D01*
X74146278Y-99439781D01*
X74151134Y-99433521D01*
X74154279Y-99426252D01*
X74154282Y-99426248D01*
X74168694Y-99392943D01*
X74173911Y-99382293D01*
X74195215Y-99343540D01*
X74200253Y-99323917D01*
X74206657Y-99305214D01*
X74211553Y-99293900D01*
X74211553Y-99293899D01*
X74214701Y-99286625D01*
X74215940Y-99278802D01*
X74215943Y-99278792D01*
X74221619Y-99242956D01*
X74224025Y-99231336D01*
X74233048Y-99196191D01*
X74233048Y-99196190D01*
X74235020Y-99188510D01*
X74235020Y-99168256D01*
X74236571Y-99148545D01*
X74238500Y-99136366D01*
X74239740Y-99128537D01*
X74235579Y-99084518D01*
X74235020Y-99072661D01*
X74235020Y-51162074D01*
X74255022Y-51093953D01*
X74271925Y-51072979D01*
X75275443Y-50069462D01*
X75337755Y-50035436D01*
X75408571Y-50040501D01*
X75465406Y-50083048D01*
X75490217Y-50149568D01*
X75477592Y-50214187D01*
X75394803Y-50382436D01*
X75394800Y-50382444D01*
X75391982Y-50388171D01*
X75390373Y-50394349D01*
X75390372Y-50394351D01*
X75368477Y-50478409D01*
X75342898Y-50576607D01*
X75342564Y-50582986D01*
X75333107Y-50763437D01*
X75332707Y-50771064D01*
X75352856Y-50904295D01*
X75358727Y-50943111D01*
X75361825Y-50963599D01*
X75364028Y-50969585D01*
X75364029Y-50969591D01*
X75426860Y-51140360D01*
X75426862Y-51140365D01*
X75429063Y-51146346D01*
X75520798Y-51294300D01*
X75539696Y-51362734D01*
X75518594Y-51430522D01*
X75513272Y-51437921D01*
X75477954Y-51483453D01*
X75391982Y-51658171D01*
X75390373Y-51664349D01*
X75390372Y-51664351D01*
X75350973Y-51815608D01*
X75342898Y-51846607D01*
X75341103Y-51880855D01*
X75333867Y-52018935D01*
X75332707Y-52041064D01*
X75361825Y-52233599D01*
X75364028Y-52239585D01*
X75364029Y-52239591D01*
X75426860Y-52410360D01*
X75426862Y-52410365D01*
X75429063Y-52416346D01*
X75520798Y-52564300D01*
X75539696Y-52632734D01*
X75518594Y-52700522D01*
X75513272Y-52707921D01*
X75477954Y-52753453D01*
X75391982Y-52928171D01*
X75390373Y-52934349D01*
X75390372Y-52934351D01*
X75368477Y-53018409D01*
X75342898Y-53116607D01*
X75332707Y-53311064D01*
X75361825Y-53503599D01*
X75364028Y-53509585D01*
X75364029Y-53509591D01*
X75426860Y-53680360D01*
X75426862Y-53680365D01*
X75429063Y-53686346D01*
X75432425Y-53691768D01*
X75487322Y-53780308D01*
X75506220Y-53848744D01*
X75485118Y-53916532D01*
X75477321Y-53927020D01*
X75403919Y-54015748D01*
X75403916Y-54015753D01*
X75398867Y-54021856D01*
X75395494Y-54029023D01*
X75395492Y-54029027D01*
X75395423Y-54029174D01*
X75330717Y-54166682D01*
X75300725Y-54323906D01*
X75310775Y-54483650D01*
X75326841Y-54533097D01*
X75331485Y-54568376D01*
X75332730Y-54568315D01*
X75333042Y-54574681D01*
X75332707Y-54581064D01*
X75361825Y-54773599D01*
X75364028Y-54779585D01*
X75364029Y-54779591D01*
X75426860Y-54950360D01*
X75426862Y-54950365D01*
X75429063Y-54956346D01*
X75432425Y-54961768D01*
X75526561Y-55113593D01*
X75531674Y-55121840D01*
X75536055Y-55126473D01*
X75536056Y-55126474D01*
X75600308Y-55194419D01*
X75665466Y-55263322D01*
X75824975Y-55375011D01*
X75830838Y-55377548D01*
X75997825Y-55449810D01*
X75997829Y-55449811D01*
X76003684Y-55452345D01*
X76009931Y-55453650D01*
X76009934Y-55453651D01*
X76189557Y-55491176D01*
X76189562Y-55491177D01*
X76194293Y-55492165D01*
X76200685Y-55492500D01*
X78443663Y-55492500D01*
X78512951Y-55485462D01*
X78582378Y-55478410D01*
X78582379Y-55478410D01*
X78588727Y-55477765D01*
X78669843Y-55452345D01*
X78768451Y-55421444D01*
X78768456Y-55421442D01*
X78774541Y-55419535D01*
X78865709Y-55368999D01*
X78939271Y-55328223D01*
X78939274Y-55328221D01*
X78944850Y-55325130D01*
X78949691Y-55320981D01*
X78949695Y-55320978D01*
X79087855Y-55202560D01*
X79092698Y-55198409D01*
X79212046Y-55044547D01*
X79252779Y-54961768D01*
X79295200Y-54875556D01*
X79298018Y-54869829D01*
X79299628Y-54863649D01*
X79345492Y-54687575D01*
X79345492Y-54687572D01*
X79347102Y-54681393D01*
X79352694Y-54574683D01*
X79356959Y-54493317D01*
X79356959Y-54493313D01*
X79357293Y-54486936D01*
X79328175Y-54294401D01*
X79325972Y-54288415D01*
X79325971Y-54288409D01*
X79263140Y-54117640D01*
X79263138Y-54117635D01*
X79260937Y-54111654D01*
X79169202Y-53963700D01*
X79150304Y-53895266D01*
X79171406Y-53827478D01*
X79176728Y-53820079D01*
X79208137Y-53779586D01*
X79212046Y-53774547D01*
X79298018Y-53599829D01*
X79299628Y-53593649D01*
X79345492Y-53417575D01*
X79345492Y-53417572D01*
X79347102Y-53411393D01*
X79357293Y-53216936D01*
X79328175Y-53024401D01*
X79325972Y-53018415D01*
X79325971Y-53018409D01*
X79263140Y-52847640D01*
X79263138Y-52847635D01*
X79260937Y-52841654D01*
X79254180Y-52830757D01*
X79235283Y-52762324D01*
X79256384Y-52694535D01*
X79310785Y-52648916D01*
X79381213Y-52639950D01*
X79450362Y-52675266D01*
X79593595Y-52818499D01*
X79627621Y-52880811D01*
X79630500Y-52907594D01*
X79630500Y-97211406D01*
X79610498Y-97279527D01*
X79593595Y-97300501D01*
X68102663Y-108791432D01*
X68040351Y-108825458D01*
X67962922Y-108817710D01*
X67825873Y-108757549D01*
X67825869Y-108757548D01*
X67821945Y-108755825D01*
X67558566Y-108680800D01*
X67554324Y-108680196D01*
X67554318Y-108680195D01*
X67349387Y-108651029D01*
X67287443Y-108642213D01*
X67143589Y-108641460D01*
X67017877Y-108640802D01*
X67017871Y-108640802D01*
X67013591Y-108640780D01*
X67009347Y-108641339D01*
X67009343Y-108641339D01*
X66935741Y-108651029D01*
X66742078Y-108676525D01*
X66737938Y-108677658D01*
X66737936Y-108677658D01*
X66670037Y-108696233D01*
X66477928Y-108748788D01*
X66473980Y-108750472D01*
X66229982Y-108854546D01*
X66229978Y-108854548D01*
X66226030Y-108856232D01*
X66206125Y-108868145D01*
X65994725Y-108994664D01*
X65994721Y-108994667D01*
X65991043Y-108996868D01*
X65777318Y-109168094D01*
X65588808Y-109366742D01*
X65429002Y-109589136D01*
X65300857Y-109831161D01*
X65299385Y-109835184D01*
X65299383Y-109835188D01*
X65292314Y-109854506D01*
X65206743Y-110088337D01*
X65148404Y-110355907D01*
X65126917Y-110628918D01*
X65142682Y-110902320D01*
X65143507Y-110906525D01*
X65143508Y-110906533D01*
X65164698Y-111014539D01*
X65195405Y-111171053D01*
X65196792Y-111175103D01*
X65196793Y-111175108D01*
X65217605Y-111235895D01*
X65284112Y-111430144D01*
X65407160Y-111674799D01*
X65409586Y-111678328D01*
X65409589Y-111678334D01*
X65538741Y-111866250D01*
X65562274Y-111900490D01*
X65746582Y-112103043D01*
X65956675Y-112278707D01*
X65960316Y-112280991D01*
X66185024Y-112421951D01*
X66185028Y-112421953D01*
X66188664Y-112424234D01*
X66256544Y-112454883D01*
X66434345Y-112535164D01*
X66434349Y-112535166D01*
X66438257Y-112536930D01*
X66442377Y-112538150D01*
X66442376Y-112538150D01*
X66696723Y-112613491D01*
X66696727Y-112613492D01*
X66700836Y-112614709D01*
X66705070Y-112615357D01*
X66705075Y-112615358D01*
X66967298Y-112655483D01*
X66967300Y-112655483D01*
X66971540Y-112656132D01*
X67110912Y-112658322D01*
X67241071Y-112660367D01*
X67241077Y-112660367D01*
X67245362Y-112660434D01*
X67517235Y-112627534D01*
X67782127Y-112558041D01*
X67786087Y-112556401D01*
X67786092Y-112556399D01*
X67908632Y-112505641D01*
X68035136Y-112453241D01*
X68271582Y-112315073D01*
X68487089Y-112146094D01*
X68528809Y-112103043D01*
X68674686Y-111952509D01*
X68677669Y-111949431D01*
X68680202Y-111945983D01*
X68680206Y-111945978D01*
X68837257Y-111732178D01*
X68839795Y-111728723D01*
X68841841Y-111724955D01*
X68968418Y-111491830D01*
X68968419Y-111491828D01*
X68970468Y-111488054D01*
X69067269Y-111231877D01*
X69128407Y-110964933D01*
X69134384Y-110897969D01*
X69152531Y-110694627D01*
X69152532Y-110694616D01*
X69152751Y-110692161D01*
X69153193Y-110650000D01*
X69151756Y-110628918D01*
X70206917Y-110628918D01*
X70222682Y-110902320D01*
X70223507Y-110906525D01*
X70223508Y-110906533D01*
X70244698Y-111014539D01*
X70275405Y-111171053D01*
X70276792Y-111175103D01*
X70276793Y-111175108D01*
X70297605Y-111235895D01*
X70364112Y-111430144D01*
X70487160Y-111674799D01*
X70489586Y-111678328D01*
X70489589Y-111678334D01*
X70618741Y-111866250D01*
X70642274Y-111900490D01*
X70826582Y-112103043D01*
X71036675Y-112278707D01*
X71040316Y-112280991D01*
X71265024Y-112421951D01*
X71265028Y-112421953D01*
X71268664Y-112424234D01*
X71336544Y-112454883D01*
X71514345Y-112535164D01*
X71514349Y-112535166D01*
X71518257Y-112536930D01*
X71522377Y-112538150D01*
X71522376Y-112538150D01*
X71776723Y-112613491D01*
X71776727Y-112613492D01*
X71780836Y-112614709D01*
X71785070Y-112615357D01*
X71785075Y-112615358D01*
X72047298Y-112655483D01*
X72047300Y-112655483D01*
X72051540Y-112656132D01*
X72190912Y-112658322D01*
X72321071Y-112660367D01*
X72321077Y-112660367D01*
X72325362Y-112660434D01*
X72597235Y-112627534D01*
X72862127Y-112558041D01*
X72866087Y-112556401D01*
X72866092Y-112556399D01*
X72988632Y-112505641D01*
X73115136Y-112453241D01*
X73351582Y-112315073D01*
X73567089Y-112146094D01*
X73608809Y-112103043D01*
X73754686Y-111952509D01*
X73757669Y-111949431D01*
X73760202Y-111945983D01*
X73760206Y-111945978D01*
X73917257Y-111732178D01*
X73919795Y-111728723D01*
X73921841Y-111724955D01*
X74048418Y-111491830D01*
X74048419Y-111491828D01*
X74050468Y-111488054D01*
X74147269Y-111231877D01*
X74208407Y-110964933D01*
X74214384Y-110897969D01*
X74232531Y-110694627D01*
X74232532Y-110694616D01*
X74232751Y-110692161D01*
X74233193Y-110650000D01*
X74231465Y-110624648D01*
X74214859Y-110381055D01*
X74214858Y-110381049D01*
X74214567Y-110376778D01*
X74159032Y-110108612D01*
X74067617Y-109850465D01*
X73942013Y-109607112D01*
X73932040Y-109592921D01*
X73787008Y-109386562D01*
X73784545Y-109383057D01*
X73598125Y-109182445D01*
X73594810Y-109179731D01*
X73594806Y-109179728D01*
X73433304Y-109047540D01*
X73386205Y-109008990D01*
X73152704Y-108865901D01*
X73148768Y-108864173D01*
X72928854Y-108767637D01*
X72874519Y-108721941D01*
X72853500Y-108652264D01*
X72853500Y-108434594D01*
X72873502Y-108366473D01*
X72890405Y-108345499D01*
X89800247Y-91435657D01*
X89808537Y-91428113D01*
X89815018Y-91424000D01*
X89861659Y-91374332D01*
X89864413Y-91371491D01*
X89884135Y-91351769D01*
X89886619Y-91348567D01*
X89894317Y-91339555D01*
X89919161Y-91313098D01*
X89924586Y-91307321D01*
X89934347Y-91289566D01*
X89945198Y-91273047D01*
X89957614Y-91257041D01*
X89975174Y-91216463D01*
X89980391Y-91205813D01*
X90001695Y-91167060D01*
X90006733Y-91147437D01*
X90013137Y-91128734D01*
X90018033Y-91117420D01*
X90018033Y-91117419D01*
X90021181Y-91110145D01*
X90022420Y-91102322D01*
X90022423Y-91102312D01*
X90028099Y-91066476D01*
X90030505Y-91054856D01*
X90039528Y-91019711D01*
X90039528Y-91019710D01*
X90041500Y-91012030D01*
X90041500Y-90991776D01*
X90043051Y-90972065D01*
X90044980Y-90959886D01*
X90046220Y-90952057D01*
X90042059Y-90908038D01*
X90041500Y-90896181D01*
X90041500Y-55925594D01*
X90061502Y-55857473D01*
X90078405Y-55836499D01*
X93246381Y-52668523D01*
X93308693Y-52634497D01*
X93379508Y-52639562D01*
X93436344Y-52682109D01*
X93461155Y-52748629D01*
X93448531Y-52813248D01*
X93437219Y-52836237D01*
X93391982Y-52928171D01*
X93390373Y-52934349D01*
X93390372Y-52934351D01*
X93368477Y-53018409D01*
X93342898Y-53116607D01*
X93332707Y-53311064D01*
X93361825Y-53503599D01*
X93364028Y-53509585D01*
X93364029Y-53509591D01*
X93426860Y-53680360D01*
X93426862Y-53680365D01*
X93429063Y-53686346D01*
X93520798Y-53834300D01*
X93539696Y-53902734D01*
X93518594Y-53970522D01*
X93513272Y-53977921D01*
X93477954Y-54023453D01*
X93391982Y-54198171D01*
X93390373Y-54204349D01*
X93390372Y-54204351D01*
X93357062Y-54332232D01*
X93342898Y-54386607D01*
X93332707Y-54581064D01*
X93361825Y-54773599D01*
X93364028Y-54779585D01*
X93364029Y-54779591D01*
X93426860Y-54950360D01*
X93426862Y-54950365D01*
X93429063Y-54956346D01*
X93432425Y-54961768D01*
X93526561Y-55113593D01*
X93531674Y-55121840D01*
X93536055Y-55126473D01*
X93536056Y-55126474D01*
X93600308Y-55194419D01*
X93665466Y-55263322D01*
X93824975Y-55375011D01*
X93830838Y-55377548D01*
X93997825Y-55449810D01*
X93997829Y-55449811D01*
X94003684Y-55452345D01*
X94009931Y-55453650D01*
X94009934Y-55453651D01*
X94189557Y-55491176D01*
X94189562Y-55491177D01*
X94194293Y-55492165D01*
X94200685Y-55492500D01*
X96443663Y-55492500D01*
X96512951Y-55485462D01*
X96582378Y-55478410D01*
X96582379Y-55478410D01*
X96588727Y-55477765D01*
X96669843Y-55452345D01*
X96768451Y-55421444D01*
X96768456Y-55421442D01*
X96774541Y-55419535D01*
X96865709Y-55368999D01*
X96939271Y-55328223D01*
X96939274Y-55328221D01*
X96944850Y-55325130D01*
X96949691Y-55320981D01*
X96949695Y-55320978D01*
X97087855Y-55202560D01*
X97092698Y-55198409D01*
X97212046Y-55044547D01*
X97252779Y-54961768D01*
X97295200Y-54875556D01*
X97298018Y-54869829D01*
X97299628Y-54863649D01*
X97345492Y-54687575D01*
X97345492Y-54687572D01*
X97347102Y-54681393D01*
X97352694Y-54574683D01*
X97356959Y-54493317D01*
X97356959Y-54493313D01*
X97357293Y-54486936D01*
X97328175Y-54294401D01*
X97325972Y-54288415D01*
X97325971Y-54288409D01*
X97263140Y-54117640D01*
X97263138Y-54117635D01*
X97260937Y-54111654D01*
X97169202Y-53963700D01*
X97150304Y-53895266D01*
X97171406Y-53827478D01*
X97176728Y-53820079D01*
X97208137Y-53779586D01*
X97212046Y-53774547D01*
X97298018Y-53599829D01*
X97299628Y-53593649D01*
X97345492Y-53417575D01*
X97345492Y-53417572D01*
X97347102Y-53411393D01*
X97357293Y-53216936D01*
X97328175Y-53024401D01*
X97325972Y-53018415D01*
X97325971Y-53018409D01*
X97263140Y-52847640D01*
X97263138Y-52847635D01*
X97260937Y-52841654D01*
X97169202Y-52693700D01*
X97150304Y-52625266D01*
X97171406Y-52557478D01*
X97176728Y-52550079D01*
X97182033Y-52543240D01*
X97212046Y-52504547D01*
X97298018Y-52329829D01*
X97302288Y-52313437D01*
X97345492Y-52147575D01*
X97345492Y-52147572D01*
X97347102Y-52141393D01*
X97352694Y-52034683D01*
X97356959Y-51953317D01*
X97356959Y-51953313D01*
X97357293Y-51946936D01*
X97328175Y-51754401D01*
X97325972Y-51748415D01*
X97325971Y-51748409D01*
X97263140Y-51577640D01*
X97263138Y-51577635D01*
X97260937Y-51571654D01*
X97169202Y-51423700D01*
X97150304Y-51355266D01*
X97171406Y-51287478D01*
X97176728Y-51280079D01*
X97208137Y-51239586D01*
X97212046Y-51234547D01*
X97298018Y-51059829D01*
X97311751Y-51007107D01*
X97345492Y-50877575D01*
X97345492Y-50877572D01*
X97347102Y-50871393D01*
X97354566Y-50728966D01*
X97356959Y-50683317D01*
X97356959Y-50683313D01*
X97357293Y-50676936D01*
X97328175Y-50484401D01*
X97325972Y-50478415D01*
X97325971Y-50478409D01*
X97263140Y-50307640D01*
X97263138Y-50307635D01*
X97260937Y-50301654D01*
X97169202Y-50153700D01*
X97150304Y-50085266D01*
X97171406Y-50017478D01*
X97176728Y-50010080D01*
X97180189Y-50005618D01*
X97237745Y-49964051D01*
X97308637Y-49960199D01*
X97368844Y-49993748D01*
X98012412Y-50637317D01*
X98643595Y-51268500D01*
X98677621Y-51330812D01*
X98680500Y-51357595D01*
X98680500Y-61153406D01*
X98660498Y-61221527D01*
X98643595Y-61242501D01*
X97689271Y-62196824D01*
X96777267Y-63108828D01*
X96768981Y-63116368D01*
X96762502Y-63120480D01*
X96757077Y-63126257D01*
X96715877Y-63170131D01*
X96713122Y-63172973D01*
X96693385Y-63192710D01*
X96690905Y-63195907D01*
X96683202Y-63204927D01*
X96652934Y-63237159D01*
X96649115Y-63244105D01*
X96649113Y-63244108D01*
X96643172Y-63254914D01*
X96632321Y-63271433D01*
X96619906Y-63287439D01*
X96616761Y-63294708D01*
X96616758Y-63294712D01*
X96602346Y-63328017D01*
X96597129Y-63338667D01*
X96575825Y-63377420D01*
X96573854Y-63385095D01*
X96573854Y-63385096D01*
X96570787Y-63397042D01*
X96564383Y-63415746D01*
X96556339Y-63434335D01*
X96555100Y-63442158D01*
X96555097Y-63442168D01*
X96549421Y-63478004D01*
X96547015Y-63489624D01*
X96536020Y-63532450D01*
X96536020Y-63552704D01*
X96534469Y-63572414D01*
X96531300Y-63592423D01*
X96532046Y-63600315D01*
X96535461Y-63636441D01*
X96536020Y-63648299D01*
X96536020Y-91825885D01*
X96516018Y-91894006D01*
X96499115Y-91914980D01*
X79809500Y-108604595D01*
X79747188Y-108638621D01*
X79720405Y-108641500D01*
X77111866Y-108641500D01*
X77049684Y-108648255D01*
X76913295Y-108699385D01*
X76796739Y-108786739D01*
X76709385Y-108903295D01*
X76658255Y-109039684D01*
X76651500Y-109101866D01*
X76651500Y-112198134D01*
X76658255Y-112260316D01*
X76709385Y-112396705D01*
X76796739Y-112513261D01*
X76913295Y-112600615D01*
X77049684Y-112651745D01*
X77111866Y-112658500D01*
X80208134Y-112658500D01*
X80270316Y-112651745D01*
X80406705Y-112600615D01*
X80523261Y-112513261D01*
X80610615Y-112396705D01*
X80661745Y-112260316D01*
X80663990Y-112239654D01*
X82515618Y-112239654D01*
X82522673Y-112249627D01*
X82553679Y-112275551D01*
X82560598Y-112280579D01*
X82785272Y-112421515D01*
X82792807Y-112425556D01*
X83034520Y-112534694D01*
X83042551Y-112537680D01*
X83296832Y-112613002D01*
X83305184Y-112614869D01*
X83567340Y-112654984D01*
X83575874Y-112655700D01*
X83841045Y-112659867D01*
X83849596Y-112659418D01*
X84112883Y-112627557D01*
X84121284Y-112625955D01*
X84377824Y-112558653D01*
X84385926Y-112555926D01*
X84630949Y-112454434D01*
X84638617Y-112450628D01*
X84867598Y-112316822D01*
X84874679Y-112312009D01*
X84954655Y-112249301D01*
X84963125Y-112237442D01*
X84956608Y-112225818D01*
X84928924Y-112198134D01*
X87701500Y-112198134D01*
X87708255Y-112260316D01*
X87759385Y-112396705D01*
X87846739Y-112513261D01*
X87963295Y-112600615D01*
X88099684Y-112651745D01*
X88161866Y-112658500D01*
X91258134Y-112658500D01*
X91320316Y-112651745D01*
X91456705Y-112600615D01*
X91573261Y-112513261D01*
X91660615Y-112396705D01*
X91711745Y-112260316D01*
X91718500Y-112198134D01*
X91718500Y-110628918D01*
X92776917Y-110628918D01*
X92792682Y-110902320D01*
X92793507Y-110906525D01*
X92793508Y-110906533D01*
X92814698Y-111014539D01*
X92845405Y-111171053D01*
X92846792Y-111175103D01*
X92846793Y-111175108D01*
X92867605Y-111235895D01*
X92934112Y-111430144D01*
X93057160Y-111674799D01*
X93059586Y-111678328D01*
X93059589Y-111678334D01*
X93188741Y-111866250D01*
X93212274Y-111900490D01*
X93396582Y-112103043D01*
X93606675Y-112278707D01*
X93610316Y-112280991D01*
X93835024Y-112421951D01*
X93835028Y-112421953D01*
X93838664Y-112424234D01*
X93906544Y-112454883D01*
X94084345Y-112535164D01*
X94084349Y-112535166D01*
X94088257Y-112536930D01*
X94092377Y-112538150D01*
X94092376Y-112538150D01*
X94346723Y-112613491D01*
X94346727Y-112613492D01*
X94350836Y-112614709D01*
X94355070Y-112615357D01*
X94355075Y-112615358D01*
X94617298Y-112655483D01*
X94617300Y-112655483D01*
X94621540Y-112656132D01*
X94760912Y-112658322D01*
X94891071Y-112660367D01*
X94891077Y-112660367D01*
X94895362Y-112660434D01*
X95167235Y-112627534D01*
X95432127Y-112558041D01*
X95436087Y-112556401D01*
X95436092Y-112556399D01*
X95558632Y-112505641D01*
X95685136Y-112453241D01*
X95921582Y-112315073D01*
X96070720Y-112198134D01*
X98561500Y-112198134D01*
X98568255Y-112260316D01*
X98619385Y-112396705D01*
X98706739Y-112513261D01*
X98823295Y-112600615D01*
X98959684Y-112651745D01*
X99021866Y-112658500D01*
X102118134Y-112658500D01*
X102180316Y-112651745D01*
X102316705Y-112600615D01*
X102433261Y-112513261D01*
X102520615Y-112396705D01*
X102571745Y-112260316D01*
X102578500Y-112198134D01*
X102578500Y-110628918D01*
X103636917Y-110628918D01*
X103652682Y-110902320D01*
X103653507Y-110906525D01*
X103653508Y-110906533D01*
X103674698Y-111014539D01*
X103705405Y-111171053D01*
X103706792Y-111175103D01*
X103706793Y-111175108D01*
X103727605Y-111235895D01*
X103794112Y-111430144D01*
X103917160Y-111674799D01*
X103919586Y-111678328D01*
X103919589Y-111678334D01*
X104048741Y-111866250D01*
X104072274Y-111900490D01*
X104256582Y-112103043D01*
X104466675Y-112278707D01*
X104470316Y-112280991D01*
X104695024Y-112421951D01*
X104695028Y-112421953D01*
X104698664Y-112424234D01*
X104766544Y-112454883D01*
X104944345Y-112535164D01*
X104944349Y-112535166D01*
X104948257Y-112536930D01*
X104952377Y-112538150D01*
X104952376Y-112538150D01*
X105206723Y-112613491D01*
X105206727Y-112613492D01*
X105210836Y-112614709D01*
X105215070Y-112615357D01*
X105215075Y-112615358D01*
X105477298Y-112655483D01*
X105477300Y-112655483D01*
X105481540Y-112656132D01*
X105620912Y-112658322D01*
X105751071Y-112660367D01*
X105751077Y-112660367D01*
X105755362Y-112660434D01*
X106027235Y-112627534D01*
X106292127Y-112558041D01*
X106296087Y-112556401D01*
X106296092Y-112556399D01*
X106418632Y-112505641D01*
X106545136Y-112453241D01*
X106781582Y-112315073D01*
X106997089Y-112146094D01*
X107038809Y-112103043D01*
X107184686Y-111952509D01*
X107187669Y-111949431D01*
X107190202Y-111945983D01*
X107190206Y-111945978D01*
X107347257Y-111732178D01*
X107349795Y-111728723D01*
X107351841Y-111724955D01*
X107478418Y-111491830D01*
X107478419Y-111491828D01*
X107480468Y-111488054D01*
X107577269Y-111231877D01*
X107638407Y-110964933D01*
X107644384Y-110897969D01*
X107662531Y-110694627D01*
X107662532Y-110694616D01*
X107662751Y-110692161D01*
X107663193Y-110650000D01*
X107661465Y-110624648D01*
X107644859Y-110381055D01*
X107644858Y-110381049D01*
X107644567Y-110376778D01*
X107589032Y-110108612D01*
X107497617Y-109850465D01*
X107372013Y-109607112D01*
X107362040Y-109592921D01*
X107217008Y-109386562D01*
X107214545Y-109383057D01*
X107028125Y-109182445D01*
X107024810Y-109179731D01*
X107024806Y-109179728D01*
X106863304Y-109047540D01*
X106816205Y-109008990D01*
X106582704Y-108865901D01*
X106578768Y-108864173D01*
X106358854Y-108767637D01*
X106304519Y-108721941D01*
X106283500Y-108652264D01*
X106283500Y-108268767D01*
X106284027Y-108257584D01*
X106285702Y-108250091D01*
X106283562Y-108182014D01*
X106283500Y-108178055D01*
X106283500Y-108150144D01*
X106282995Y-108146144D01*
X106282062Y-108134301D01*
X106280922Y-108098029D01*
X106280673Y-108090110D01*
X106275022Y-108070658D01*
X106271014Y-108051306D01*
X106269467Y-108039063D01*
X106268474Y-108031203D01*
X106265556Y-108023832D01*
X106252200Y-107990097D01*
X106248355Y-107978870D01*
X106247721Y-107976687D01*
X106236018Y-107936407D01*
X106231984Y-107929585D01*
X106231981Y-107929579D01*
X106225706Y-107918968D01*
X106217010Y-107901218D01*
X106212472Y-107889756D01*
X106212469Y-107889751D01*
X106209552Y-107882383D01*
X106183573Y-107846625D01*
X106177057Y-107836707D01*
X106158575Y-107805457D01*
X106154542Y-107798637D01*
X106140218Y-107784313D01*
X106127376Y-107769278D01*
X106115472Y-107752893D01*
X106081406Y-107724711D01*
X106072627Y-107716722D01*
X105064405Y-106708500D01*
X105030379Y-106646188D01*
X105027500Y-106619405D01*
X105027500Y-102255186D01*
X105809960Y-102255186D01*
X105817418Y-102265554D01*
X106032662Y-102439854D01*
X106037984Y-102443721D01*
X106340823Y-102640387D01*
X106346532Y-102643683D01*
X106668275Y-102807620D01*
X106674286Y-102810296D01*
X107011395Y-102939700D01*
X107017672Y-102941740D01*
X107366463Y-103035198D01*
X107372901Y-103036567D01*
X107729560Y-103093055D01*
X107736104Y-103093743D01*
X108096699Y-103112641D01*
X108103301Y-103112641D01*
X108463896Y-103093743D01*
X108470440Y-103093055D01*
X108827099Y-103036567D01*
X108833537Y-103035198D01*
X109182328Y-102941740D01*
X109188605Y-102939700D01*
X109525714Y-102810296D01*
X109531725Y-102807620D01*
X109853468Y-102643683D01*
X109859177Y-102640387D01*
X110162016Y-102443721D01*
X110167338Y-102439854D01*
X110381634Y-102266322D01*
X110390100Y-102254067D01*
X110383766Y-102242976D01*
X108112812Y-99972022D01*
X108098868Y-99964408D01*
X108097035Y-99964539D01*
X108090420Y-99968790D01*
X105817100Y-102242110D01*
X105809960Y-102255186D01*
X105027500Y-102255186D01*
X105027500Y-101734916D01*
X105047502Y-101666795D01*
X105101158Y-101620302D01*
X105171432Y-101610198D01*
X105236012Y-101639692D01*
X105255440Y-101660860D01*
X105260152Y-101667346D01*
X105433678Y-101881634D01*
X105445933Y-101890100D01*
X105457024Y-101883766D01*
X107727978Y-99612812D01*
X107734356Y-99601132D01*
X108464408Y-99601132D01*
X108464539Y-99602965D01*
X108468790Y-99609580D01*
X110742110Y-101882900D01*
X110755186Y-101890040D01*
X110765554Y-101882582D01*
X110939854Y-101667338D01*
X110943721Y-101662016D01*
X111140387Y-101359177D01*
X111143683Y-101353468D01*
X111307620Y-101031725D01*
X111310296Y-101025714D01*
X111439700Y-100688605D01*
X111441740Y-100682328D01*
X111535198Y-100333537D01*
X111536567Y-100327099D01*
X111593055Y-99970440D01*
X111593743Y-99963896D01*
X111612641Y-99603301D01*
X111612641Y-99596699D01*
X111593743Y-99236104D01*
X111593055Y-99229560D01*
X111536567Y-98872901D01*
X111535198Y-98866463D01*
X111441740Y-98517672D01*
X111439700Y-98511395D01*
X111310296Y-98174286D01*
X111307620Y-98168275D01*
X111143683Y-97846532D01*
X111140387Y-97840823D01*
X110943721Y-97537984D01*
X110939854Y-97532662D01*
X110766322Y-97318366D01*
X110754067Y-97309900D01*
X110742976Y-97316234D01*
X108472022Y-99587188D01*
X108464408Y-99601132D01*
X107734356Y-99601132D01*
X107735592Y-99598868D01*
X107735461Y-99597035D01*
X107731210Y-99590420D01*
X105457890Y-97317100D01*
X105444814Y-97309960D01*
X105434446Y-97317418D01*
X105260152Y-97532654D01*
X105255440Y-97539140D01*
X105199219Y-97582497D01*
X105128484Y-97588576D01*
X105065690Y-97555447D01*
X105030776Y-97493629D01*
X105027500Y-97465084D01*
X105027500Y-96945933D01*
X105809900Y-96945933D01*
X105816234Y-96957024D01*
X108087188Y-99227978D01*
X108101132Y-99235592D01*
X108102965Y-99235461D01*
X108109580Y-99231210D01*
X110382900Y-96957890D01*
X110390040Y-96944814D01*
X110382582Y-96934446D01*
X110167338Y-96760146D01*
X110162016Y-96756279D01*
X109859177Y-96559613D01*
X109853468Y-96556317D01*
X109531725Y-96392380D01*
X109525714Y-96389704D01*
X109188605Y-96260300D01*
X109182328Y-96258260D01*
X108833537Y-96164802D01*
X108827099Y-96163433D01*
X108470440Y-96106945D01*
X108463896Y-96106257D01*
X108103301Y-96087359D01*
X108096699Y-96087359D01*
X107736104Y-96106257D01*
X107729560Y-96106945D01*
X107372901Y-96163433D01*
X107366463Y-96164802D01*
X107017672Y-96258260D01*
X107011395Y-96260300D01*
X106674286Y-96389704D01*
X106668275Y-96392380D01*
X106346532Y-96556317D01*
X106340823Y-96559613D01*
X106037984Y-96756279D01*
X106032662Y-96760146D01*
X105818366Y-96933678D01*
X105809900Y-96945933D01*
X105027500Y-96945933D01*
X105027500Y-96834594D01*
X105047502Y-96766473D01*
X105064405Y-96745499D01*
X107072247Y-94737657D01*
X107080537Y-94730113D01*
X107087018Y-94726000D01*
X107133659Y-94676332D01*
X107136413Y-94673491D01*
X107156134Y-94653770D01*
X107158612Y-94650575D01*
X107166318Y-94641553D01*
X107191158Y-94615101D01*
X107196586Y-94609321D01*
X107206346Y-94591568D01*
X107217199Y-94575045D01*
X107224753Y-94565306D01*
X107229613Y-94559041D01*
X107247176Y-94518457D01*
X107252383Y-94507827D01*
X107273695Y-94469060D01*
X107275666Y-94461383D01*
X107275668Y-94461378D01*
X107278732Y-94449442D01*
X107285138Y-94430730D01*
X107290033Y-94419419D01*
X107293181Y-94412145D01*
X107294421Y-94404317D01*
X107294423Y-94404310D01*
X107300099Y-94368476D01*
X107302505Y-94356856D01*
X107311528Y-94321711D01*
X107311528Y-94321710D01*
X107313500Y-94314030D01*
X107313500Y-94293776D01*
X107315051Y-94274065D01*
X107316980Y-94261886D01*
X107318220Y-94254057D01*
X107314059Y-94210038D01*
X107313500Y-94198181D01*
X107313500Y-70852093D01*
X107333502Y-70783972D01*
X107338674Y-70776528D01*
X107404729Y-70688391D01*
X107410115Y-70681205D01*
X107461245Y-70544816D01*
X107468000Y-70482634D01*
X107468000Y-69662366D01*
X107461245Y-69600184D01*
X107410115Y-69463795D01*
X107322761Y-69347239D01*
X107206205Y-69259885D01*
X107069816Y-69208755D01*
X107007634Y-69202000D01*
X106352366Y-69202000D01*
X106290184Y-69208755D01*
X106153795Y-69259885D01*
X106037239Y-69347239D01*
X105949885Y-69463795D01*
X105898755Y-69600184D01*
X105892000Y-69662366D01*
X105892000Y-70482634D01*
X105898755Y-70544816D01*
X105949885Y-70681205D01*
X105955271Y-70688391D01*
X106021326Y-70776528D01*
X106046174Y-70843034D01*
X106046500Y-70852093D01*
X106046500Y-93919405D01*
X106026498Y-93987526D01*
X106009595Y-94008500D01*
X104001747Y-96016348D01*
X103993461Y-96023888D01*
X103986982Y-96028000D01*
X103981557Y-96033777D01*
X103940357Y-96077651D01*
X103937602Y-96080493D01*
X103917865Y-96100230D01*
X103915385Y-96103427D01*
X103907682Y-96112447D01*
X103877414Y-96144679D01*
X103873595Y-96151625D01*
X103873593Y-96151628D01*
X103867652Y-96162434D01*
X103856801Y-96178953D01*
X103844386Y-96194959D01*
X103841241Y-96202228D01*
X103841238Y-96202232D01*
X103826826Y-96235537D01*
X103821609Y-96246187D01*
X103800305Y-96284940D01*
X103798334Y-96292615D01*
X103798334Y-96292616D01*
X103795267Y-96304562D01*
X103788863Y-96323266D01*
X103780819Y-96341855D01*
X103779580Y-96349678D01*
X103779577Y-96349688D01*
X103773901Y-96385524D01*
X103771495Y-96397144D01*
X103760500Y-96439970D01*
X103760500Y-96460224D01*
X103758949Y-96479934D01*
X103755780Y-96499943D01*
X103756526Y-96507835D01*
X103759941Y-96543961D01*
X103760500Y-96555819D01*
X103760500Y-106855233D01*
X103759973Y-106866416D01*
X103758298Y-106873909D01*
X103758547Y-106881835D01*
X103758547Y-106881836D01*
X103760438Y-106941986D01*
X103760500Y-106945945D01*
X103760500Y-106973856D01*
X103760997Y-106977790D01*
X103760997Y-106977791D01*
X103761005Y-106977856D01*
X103761938Y-106989693D01*
X103763327Y-107033889D01*
X103768978Y-107053339D01*
X103772987Y-107072700D01*
X103775526Y-107092797D01*
X103778445Y-107100168D01*
X103778445Y-107100170D01*
X103791804Y-107133912D01*
X103795649Y-107145142D01*
X103807982Y-107187593D01*
X103812015Y-107194412D01*
X103812017Y-107194417D01*
X103818293Y-107205028D01*
X103826988Y-107222776D01*
X103834448Y-107241617D01*
X103839110Y-107248033D01*
X103839110Y-107248034D01*
X103860436Y-107277387D01*
X103866952Y-107287307D01*
X103889458Y-107325362D01*
X103903779Y-107339683D01*
X103916619Y-107354716D01*
X103928528Y-107371107D01*
X103934634Y-107376158D01*
X103962605Y-107399298D01*
X103971384Y-107407288D01*
X104979595Y-108415499D01*
X105013621Y-108477811D01*
X105016500Y-108504594D01*
X105016500Y-108653362D01*
X104996498Y-108721483D01*
X104939935Y-108769259D01*
X104887951Y-108791432D01*
X104739982Y-108854546D01*
X104739978Y-108854548D01*
X104736030Y-108856232D01*
X104716125Y-108868145D01*
X104504725Y-108994664D01*
X104504721Y-108994667D01*
X104501043Y-108996868D01*
X104287318Y-109168094D01*
X104098808Y-109366742D01*
X103939002Y-109589136D01*
X103810857Y-109831161D01*
X103809385Y-109835184D01*
X103809383Y-109835188D01*
X103802314Y-109854506D01*
X103716743Y-110088337D01*
X103658404Y-110355907D01*
X103636917Y-110628918D01*
X102578500Y-110628918D01*
X102578500Y-109101866D01*
X102571745Y-109039684D01*
X102520615Y-108903295D01*
X102433261Y-108786739D01*
X102316705Y-108699385D01*
X102180316Y-108648255D01*
X102118134Y-108641500D01*
X99021866Y-108641500D01*
X98959684Y-108648255D01*
X98823295Y-108699385D01*
X98706739Y-108786739D01*
X98619385Y-108903295D01*
X98568255Y-109039684D01*
X98561500Y-109101866D01*
X98561500Y-112198134D01*
X96070720Y-112198134D01*
X96137089Y-112146094D01*
X96178809Y-112103043D01*
X96324686Y-111952509D01*
X96327669Y-111949431D01*
X96330202Y-111945983D01*
X96330206Y-111945978D01*
X96487257Y-111732178D01*
X96489795Y-111728723D01*
X96491841Y-111724955D01*
X96618418Y-111491830D01*
X96618419Y-111491828D01*
X96620468Y-111488054D01*
X96717269Y-111231877D01*
X96778407Y-110964933D01*
X96784384Y-110897969D01*
X96802531Y-110694627D01*
X96802532Y-110694616D01*
X96802751Y-110692161D01*
X96803193Y-110650000D01*
X96801465Y-110624648D01*
X96784859Y-110381055D01*
X96784858Y-110381049D01*
X96784567Y-110376778D01*
X96729032Y-110108612D01*
X96637617Y-109850465D01*
X96512013Y-109607112D01*
X96502040Y-109592921D01*
X96357008Y-109386562D01*
X96354545Y-109383057D01*
X96168125Y-109182445D01*
X96164810Y-109179731D01*
X96164806Y-109179728D01*
X96003304Y-109047540D01*
X95956205Y-109008990D01*
X95722704Y-108865901D01*
X95718768Y-108864173D01*
X95498854Y-108767637D01*
X95444519Y-108721941D01*
X95423500Y-108652264D01*
X95423500Y-104914594D01*
X95443502Y-104846473D01*
X95460405Y-104825499D01*
X101738253Y-98547652D01*
X101746539Y-98540112D01*
X101753018Y-98536000D01*
X101799644Y-98486348D01*
X101802398Y-98483507D01*
X101822135Y-98463770D01*
X101824615Y-98460573D01*
X101832320Y-98451551D01*
X101857159Y-98425100D01*
X101862586Y-98419321D01*
X101866405Y-98412375D01*
X101866407Y-98412372D01*
X101872348Y-98401566D01*
X101883199Y-98385047D01*
X101890758Y-98375301D01*
X101895614Y-98369041D01*
X101898759Y-98361772D01*
X101898762Y-98361768D01*
X101913174Y-98328463D01*
X101918391Y-98317813D01*
X101939695Y-98279060D01*
X101944733Y-98259437D01*
X101951137Y-98240734D01*
X101956033Y-98229420D01*
X101956033Y-98229419D01*
X101959181Y-98222145D01*
X101960420Y-98214322D01*
X101960423Y-98214312D01*
X101966099Y-98178476D01*
X101968505Y-98166856D01*
X101977528Y-98131711D01*
X101977528Y-98131710D01*
X101979500Y-98124030D01*
X101979500Y-98103776D01*
X101981051Y-98084065D01*
X101982980Y-98071886D01*
X101984220Y-98064057D01*
X101980059Y-98020038D01*
X101979500Y-98008181D01*
X101979500Y-70852093D01*
X101999502Y-70783972D01*
X102004674Y-70776528D01*
X102070729Y-70688391D01*
X102076115Y-70681205D01*
X102127245Y-70544816D01*
X102134000Y-70482634D01*
X102134000Y-69662366D01*
X102127245Y-69600184D01*
X102076115Y-69463795D01*
X101988761Y-69347239D01*
X101872205Y-69259885D01*
X101735816Y-69208755D01*
X101673634Y-69202000D01*
X101018366Y-69202000D01*
X100956184Y-69208755D01*
X100819795Y-69259885D01*
X100703239Y-69347239D01*
X100615885Y-69463795D01*
X100564755Y-69600184D01*
X100558000Y-69662366D01*
X100558000Y-70482634D01*
X100564755Y-70544816D01*
X100615885Y-70681205D01*
X100621271Y-70688391D01*
X100687326Y-70776528D01*
X100712174Y-70843034D01*
X100712500Y-70852093D01*
X100712500Y-97729406D01*
X100692498Y-97797527D01*
X100675595Y-97818501D01*
X94397747Y-104096348D01*
X94389461Y-104103888D01*
X94382982Y-104108000D01*
X94377557Y-104113777D01*
X94336357Y-104157651D01*
X94333602Y-104160493D01*
X94313865Y-104180230D01*
X94311385Y-104183427D01*
X94303682Y-104192447D01*
X94273414Y-104224679D01*
X94269595Y-104231625D01*
X94269593Y-104231628D01*
X94263652Y-104242434D01*
X94252801Y-104258953D01*
X94240386Y-104274959D01*
X94237241Y-104282228D01*
X94237238Y-104282232D01*
X94222826Y-104315537D01*
X94217609Y-104326187D01*
X94196305Y-104364940D01*
X94194334Y-104372615D01*
X94194334Y-104372616D01*
X94191267Y-104384562D01*
X94184863Y-104403266D01*
X94176819Y-104421855D01*
X94175580Y-104429678D01*
X94175577Y-104429688D01*
X94169901Y-104465524D01*
X94167495Y-104477144D01*
X94156500Y-104519970D01*
X94156500Y-104540224D01*
X94154949Y-104559934D01*
X94151780Y-104579943D01*
X94152526Y-104587835D01*
X94155941Y-104623961D01*
X94156500Y-104635819D01*
X94156500Y-108653362D01*
X94136498Y-108721483D01*
X94079935Y-108769259D01*
X94027951Y-108791432D01*
X93879982Y-108854546D01*
X93879978Y-108854548D01*
X93876030Y-108856232D01*
X93856125Y-108868145D01*
X93644725Y-108994664D01*
X93644721Y-108994667D01*
X93641043Y-108996868D01*
X93427318Y-109168094D01*
X93238808Y-109366742D01*
X93079002Y-109589136D01*
X92950857Y-109831161D01*
X92949385Y-109835184D01*
X92949383Y-109835188D01*
X92942314Y-109854506D01*
X92856743Y-110088337D01*
X92798404Y-110355907D01*
X92776917Y-110628918D01*
X91718500Y-110628918D01*
X91718500Y-109101866D01*
X91711745Y-109039684D01*
X91660615Y-108903295D01*
X91573261Y-108786739D01*
X91456705Y-108699385D01*
X91320316Y-108648255D01*
X91258134Y-108641500D01*
X88161866Y-108641500D01*
X88099684Y-108648255D01*
X87963295Y-108699385D01*
X87846739Y-108786739D01*
X87759385Y-108903295D01*
X87708255Y-109039684D01*
X87701500Y-109101866D01*
X87701500Y-112198134D01*
X84928924Y-112198134D01*
X83752812Y-111022022D01*
X83738868Y-111014408D01*
X83737035Y-111014539D01*
X83730420Y-111018790D01*
X82522910Y-112226300D01*
X82515618Y-112239654D01*
X80663990Y-112239654D01*
X80668500Y-112198134D01*
X80668500Y-110633204D01*
X81727665Y-110633204D01*
X81742932Y-110897969D01*
X81744005Y-110906470D01*
X81795065Y-111166722D01*
X81797276Y-111174974D01*
X81883184Y-111425894D01*
X81886499Y-111433779D01*
X82005664Y-111670713D01*
X82010020Y-111678079D01*
X82139347Y-111866250D01*
X82149601Y-111874594D01*
X82163342Y-111867448D01*
X83367978Y-110662812D01*
X83374356Y-110651132D01*
X84104408Y-110651132D01*
X84104539Y-110652965D01*
X84108790Y-110659580D01*
X85315730Y-111866520D01*
X85327939Y-111873187D01*
X85339439Y-111864497D01*
X85436831Y-111731913D01*
X85441418Y-111724685D01*
X85567962Y-111491621D01*
X85571530Y-111483827D01*
X85665271Y-111235750D01*
X85667748Y-111227544D01*
X85726954Y-110969038D01*
X85728294Y-110960577D01*
X85752031Y-110694616D01*
X85752277Y-110689677D01*
X85752666Y-110652485D01*
X85752523Y-110647519D01*
X85734362Y-110381123D01*
X85733201Y-110372649D01*
X85679419Y-110112944D01*
X85677120Y-110104709D01*
X85588588Y-109854705D01*
X85585191Y-109846854D01*
X85463550Y-109611178D01*
X85459122Y-109603866D01*
X85340031Y-109434417D01*
X85329509Y-109426037D01*
X85316121Y-109433089D01*
X84112022Y-110637188D01*
X84104408Y-110651132D01*
X83374356Y-110651132D01*
X83375592Y-110648868D01*
X83375461Y-110647035D01*
X83371210Y-110640420D01*
X82163814Y-109433024D01*
X82151804Y-109426466D01*
X82140064Y-109435434D01*
X82031935Y-109585911D01*
X82027418Y-109593196D01*
X81903325Y-109827567D01*
X81899839Y-109835395D01*
X81808700Y-110084446D01*
X81806311Y-110092670D01*
X81749812Y-110351795D01*
X81748563Y-110360250D01*
X81727754Y-110624653D01*
X81727665Y-110633204D01*
X80668500Y-110633204D01*
X80668500Y-109589594D01*
X80688502Y-109521473D01*
X80705405Y-109500499D01*
X81143404Y-109062500D01*
X82516584Y-109062500D01*
X82522980Y-109073770D01*
X83727188Y-110277978D01*
X83741132Y-110285592D01*
X83742965Y-110285461D01*
X83749580Y-110281210D01*
X84956604Y-109074186D01*
X84963795Y-109061017D01*
X84956473Y-109050780D01*
X84909233Y-109012115D01*
X84902261Y-109007160D01*
X84676122Y-108868582D01*
X84668552Y-108864624D01*
X84425704Y-108758022D01*
X84417644Y-108755120D01*
X84162592Y-108682467D01*
X84154214Y-108680685D01*
X83891656Y-108643318D01*
X83883111Y-108642691D01*
X83617908Y-108641302D01*
X83609374Y-108641839D01*
X83346433Y-108676456D01*
X83338035Y-108678149D01*
X83082238Y-108748127D01*
X83074143Y-108750946D01*
X82830199Y-108854997D01*
X82822577Y-108858881D01*
X82595013Y-108995075D01*
X82587981Y-108999962D01*
X82525053Y-109050377D01*
X82516584Y-109062500D01*
X81143404Y-109062500D01*
X97561767Y-92644137D01*
X97570057Y-92636593D01*
X97576538Y-92632480D01*
X97623179Y-92582812D01*
X97625933Y-92579971D01*
X97645654Y-92560250D01*
X97648132Y-92557055D01*
X97655838Y-92548033D01*
X97680678Y-92521581D01*
X97686106Y-92515801D01*
X97695866Y-92498048D01*
X97706719Y-92481525D01*
X97714273Y-92471786D01*
X97719133Y-92465521D01*
X97736696Y-92424937D01*
X97741903Y-92414307D01*
X97763215Y-92375540D01*
X97765186Y-92367863D01*
X97765188Y-92367858D01*
X97768252Y-92355922D01*
X97774658Y-92337210D01*
X97779553Y-92325899D01*
X97782701Y-92318625D01*
X97783941Y-92310797D01*
X97783943Y-92310790D01*
X97789619Y-92274956D01*
X97792025Y-92263336D01*
X97801048Y-92228191D01*
X97801048Y-92228190D01*
X97803020Y-92220510D01*
X97803020Y-92200256D01*
X97804571Y-92180545D01*
X97806500Y-92168366D01*
X97807740Y-92160537D01*
X97803579Y-92116518D01*
X97803020Y-92104661D01*
X97803020Y-68510169D01*
X99608501Y-68510169D01*
X99608871Y-68516990D01*
X99614395Y-68567852D01*
X99618021Y-68583104D01*
X99663176Y-68703554D01*
X99671714Y-68719149D01*
X99748215Y-68821224D01*
X99760776Y-68833785D01*
X99862851Y-68910286D01*
X99878446Y-68918824D01*
X99998894Y-68963978D01*
X100014149Y-68967605D01*
X100065014Y-68973131D01*
X100071828Y-68973500D01*
X100123885Y-68973500D01*
X100139124Y-68969025D01*
X100140329Y-68967635D01*
X100142000Y-68959952D01*
X100142000Y-68955384D01*
X100650000Y-68955384D01*
X100654475Y-68970623D01*
X100655865Y-68971828D01*
X100663548Y-68973499D01*
X100720169Y-68973499D01*
X100726990Y-68973129D01*
X100777852Y-68967605D01*
X100793104Y-68963979D01*
X100913554Y-68918824D01*
X100929149Y-68910286D01*
X101031224Y-68833785D01*
X101043785Y-68821224D01*
X101120286Y-68719149D01*
X101128824Y-68703554D01*
X101173978Y-68583106D01*
X101177605Y-68567851D01*
X101183131Y-68516986D01*
X101183500Y-68510172D01*
X101183500Y-68375615D01*
X101179025Y-68360376D01*
X101177635Y-68359171D01*
X101169952Y-68357500D01*
X100668115Y-68357500D01*
X100652876Y-68361975D01*
X100651671Y-68363365D01*
X100650000Y-68371048D01*
X100650000Y-68955384D01*
X100142000Y-68955384D01*
X100142000Y-68375615D01*
X100137525Y-68360376D01*
X100136135Y-68359171D01*
X100128452Y-68357500D01*
X99626616Y-68357500D01*
X99611377Y-68361975D01*
X99610172Y-68363365D01*
X99608501Y-68371048D01*
X99608501Y-68510169D01*
X97803020Y-68510169D01*
X97803020Y-67831385D01*
X99608500Y-67831385D01*
X99612975Y-67846624D01*
X99614365Y-67847829D01*
X99622048Y-67849500D01*
X100123885Y-67849500D01*
X100139124Y-67845025D01*
X100140329Y-67843635D01*
X100142000Y-67835952D01*
X100142000Y-67831385D01*
X100650000Y-67831385D01*
X100654475Y-67846624D01*
X100655865Y-67847829D01*
X100663548Y-67849500D01*
X101165384Y-67849500D01*
X101180623Y-67845025D01*
X101181828Y-67843635D01*
X101183499Y-67835952D01*
X101183499Y-67696831D01*
X101183129Y-67690010D01*
X101177605Y-67639148D01*
X101173979Y-67623896D01*
X101128824Y-67503446D01*
X101120286Y-67487851D01*
X101043785Y-67385776D01*
X101031224Y-67373215D01*
X100929149Y-67296714D01*
X100913554Y-67288176D01*
X100793106Y-67243022D01*
X100777851Y-67239395D01*
X100726986Y-67233869D01*
X100720172Y-67233500D01*
X100668115Y-67233500D01*
X100652876Y-67237975D01*
X100651671Y-67239365D01*
X100650000Y-67247048D01*
X100650000Y-67831385D01*
X100142000Y-67831385D01*
X100142000Y-67251616D01*
X100137525Y-67236377D01*
X100136135Y-67235172D01*
X100128452Y-67233501D01*
X100071831Y-67233501D01*
X100065010Y-67233871D01*
X100014148Y-67239395D01*
X99998896Y-67243021D01*
X99878446Y-67288176D01*
X99862851Y-67296714D01*
X99760776Y-67373215D01*
X99748215Y-67385776D01*
X99671714Y-67487851D01*
X99663176Y-67503446D01*
X99618022Y-67623894D01*
X99614395Y-67639149D01*
X99608869Y-67690014D01*
X99608500Y-67696828D01*
X99608500Y-67831385D01*
X97803020Y-67831385D01*
X97803020Y-65435095D01*
X99447001Y-65435095D01*
X99447338Y-65441614D01*
X99457257Y-65537206D01*
X99460149Y-65550600D01*
X99511588Y-65704784D01*
X99517761Y-65717962D01*
X99603063Y-65855807D01*
X99612099Y-65867208D01*
X99726829Y-65981739D01*
X99738240Y-65990751D01*
X99876243Y-66075816D01*
X99889424Y-66081963D01*
X100043710Y-66133138D01*
X100057086Y-66136005D01*
X100151438Y-66145672D01*
X100157854Y-66146000D01*
X100195385Y-66146000D01*
X100210624Y-66141525D01*
X100211829Y-66140135D01*
X100213500Y-66132452D01*
X100213500Y-65210115D01*
X100209025Y-65194876D01*
X100207635Y-65193671D01*
X100199952Y-65192000D01*
X99465116Y-65192000D01*
X99449877Y-65196475D01*
X99448672Y-65197865D01*
X99447001Y-65205548D01*
X99447001Y-65435095D01*
X97803020Y-65435095D01*
X97803020Y-64665885D01*
X99447000Y-64665885D01*
X99451475Y-64681124D01*
X99452865Y-64682329D01*
X99460548Y-64684000D01*
X100195385Y-64684000D01*
X100210624Y-64679525D01*
X100211829Y-64678135D01*
X100213500Y-64670452D01*
X100213500Y-63748116D01*
X100209025Y-63732877D01*
X100207635Y-63731672D01*
X100199952Y-63730001D01*
X100157905Y-63730001D01*
X100151386Y-63730338D01*
X100055794Y-63740257D01*
X100042400Y-63743149D01*
X99888216Y-63794588D01*
X99875038Y-63800761D01*
X99737193Y-63886063D01*
X99725792Y-63895099D01*
X99611261Y-64009829D01*
X99602249Y-64021240D01*
X99517184Y-64159243D01*
X99511037Y-64172424D01*
X99459862Y-64326710D01*
X99456995Y-64340086D01*
X99447328Y-64434438D01*
X99447000Y-64440855D01*
X99447000Y-64665885D01*
X97803020Y-64665885D01*
X97803020Y-63927074D01*
X97823022Y-63858953D01*
X97839925Y-63837979D01*
X99706247Y-61971657D01*
X99714537Y-61964113D01*
X99721018Y-61960000D01*
X99742444Y-61937184D01*
X99767658Y-61910333D01*
X99770413Y-61907491D01*
X99790135Y-61887769D01*
X99792619Y-61884567D01*
X99800317Y-61875555D01*
X99825161Y-61849098D01*
X99830586Y-61843321D01*
X99840347Y-61825566D01*
X99851198Y-61809047D01*
X99863614Y-61793041D01*
X99881174Y-61752463D01*
X99886391Y-61741813D01*
X99907695Y-61703060D01*
X99912733Y-61683437D01*
X99919137Y-61664734D01*
X99924033Y-61653420D01*
X99924033Y-61653419D01*
X99927181Y-61646145D01*
X99928420Y-61638322D01*
X99928423Y-61638312D01*
X99934099Y-61602476D01*
X99936505Y-61590856D01*
X99945528Y-61555711D01*
X99945528Y-61555710D01*
X99947500Y-61548030D01*
X99947500Y-61527776D01*
X99949051Y-61508065D01*
X99950980Y-61495886D01*
X99952220Y-61488057D01*
X99948059Y-61444038D01*
X99947500Y-61432181D01*
X99947500Y-51121767D01*
X99948027Y-51110584D01*
X99949702Y-51103091D01*
X99947562Y-51035000D01*
X99947500Y-51031043D01*
X99947500Y-51003144D01*
X99946996Y-50999153D01*
X99946063Y-50987311D01*
X99945120Y-50957285D01*
X99944674Y-50943111D01*
X99942462Y-50935497D01*
X99942461Y-50935492D01*
X99939023Y-50923659D01*
X99935012Y-50904295D01*
X99933467Y-50892064D01*
X99932474Y-50884203D01*
X99929557Y-50876836D01*
X99929556Y-50876831D01*
X99916198Y-50843092D01*
X99912354Y-50831865D01*
X99902230Y-50797022D01*
X99900018Y-50789407D01*
X99889707Y-50771972D01*
X99881012Y-50754224D01*
X99873552Y-50735383D01*
X99847564Y-50699613D01*
X99841048Y-50689693D01*
X99822580Y-50658465D01*
X99822578Y-50658462D01*
X99818542Y-50651638D01*
X99804221Y-50637317D01*
X99791380Y-50622283D01*
X99784131Y-50612306D01*
X99779472Y-50605893D01*
X99745395Y-50577702D01*
X99736616Y-50569712D01*
X97421311Y-48254407D01*
X97387285Y-48192095D01*
X97384579Y-48158717D01*
X97386959Y-48113317D01*
X97386959Y-48113313D01*
X97387293Y-48106936D01*
X97358175Y-47914401D01*
X97355972Y-47908415D01*
X97355971Y-47908409D01*
X97293140Y-47737640D01*
X97293138Y-47737635D01*
X97290937Y-47731654D01*
X97199202Y-47583700D01*
X97180304Y-47515266D01*
X97201406Y-47447478D01*
X97206728Y-47440079D01*
X97238137Y-47399586D01*
X97242046Y-47394547D01*
X97328018Y-47219829D01*
X97329628Y-47213649D01*
X97375492Y-47037575D01*
X97375492Y-47037572D01*
X97377102Y-47031393D01*
X97387293Y-46836936D01*
X97358175Y-46644401D01*
X97355972Y-46638415D01*
X97355971Y-46638409D01*
X97293140Y-46467640D01*
X97293138Y-46467635D01*
X97290937Y-46461654D01*
X97199202Y-46313700D01*
X97180304Y-46245266D01*
X97201406Y-46177478D01*
X97206728Y-46170079D01*
X97238137Y-46129586D01*
X97242046Y-46124547D01*
X97328018Y-45949829D01*
X97339986Y-45903885D01*
X97375492Y-45767575D01*
X97375492Y-45767572D01*
X97377102Y-45761393D01*
X97382767Y-45653301D01*
X97386959Y-45573317D01*
X97386959Y-45573313D01*
X97387293Y-45566936D01*
X97358175Y-45374401D01*
X97355972Y-45368415D01*
X97355971Y-45368409D01*
X97293140Y-45197640D01*
X97293138Y-45197635D01*
X97290937Y-45191654D01*
X97199202Y-45043700D01*
X97180304Y-44975266D01*
X97201406Y-44907478D01*
X97206728Y-44900079D01*
X97238137Y-44859586D01*
X97242046Y-44854547D01*
X97328018Y-44679829D01*
X97329628Y-44673649D01*
X97375492Y-44497575D01*
X97375492Y-44497572D01*
X97377102Y-44491393D01*
X97382694Y-44384683D01*
X97386959Y-44303317D01*
X97386959Y-44303313D01*
X97387293Y-44296936D01*
X97358175Y-44104401D01*
X97355972Y-44098415D01*
X97355971Y-44098409D01*
X97293140Y-43927640D01*
X97293138Y-43927635D01*
X97290937Y-43921654D01*
X97284183Y-43910761D01*
X97265285Y-43842325D01*
X97286387Y-43774537D01*
X97340788Y-43728918D01*
X97411216Y-43719953D01*
X97480364Y-43755269D01*
X101622095Y-47897000D01*
X101656121Y-47959312D01*
X101659000Y-47986095D01*
X101659000Y-63755366D01*
X101638998Y-63823487D01*
X101599304Y-63862509D01*
X101555652Y-63889522D01*
X101550479Y-63894704D01*
X101468862Y-63976463D01*
X101406579Y-64010542D01*
X101335759Y-64005539D01*
X101290671Y-63976618D01*
X101208171Y-63894261D01*
X101196760Y-63885249D01*
X101058757Y-63800184D01*
X101045576Y-63794037D01*
X100891290Y-63742862D01*
X100877914Y-63739995D01*
X100783562Y-63730328D01*
X100777145Y-63730000D01*
X100739615Y-63730000D01*
X100724376Y-63734475D01*
X100723171Y-63735865D01*
X100721500Y-63743548D01*
X100721500Y-66127884D01*
X100725975Y-66143123D01*
X100727365Y-66144328D01*
X100735048Y-66145999D01*
X100777095Y-66145999D01*
X100783614Y-66145662D01*
X100879206Y-66135743D01*
X100892600Y-66132851D01*
X101046784Y-66081412D01*
X101059962Y-66075239D01*
X101197807Y-65989937D01*
X101209208Y-65980901D01*
X101290430Y-65899538D01*
X101352713Y-65865459D01*
X101423533Y-65870462D01*
X101468620Y-65899383D01*
X101551512Y-65982130D01*
X101551517Y-65982134D01*
X101556697Y-65987305D01*
X101562927Y-65991145D01*
X101562928Y-65991146D01*
X101602616Y-66015610D01*
X101650109Y-66068382D01*
X101662500Y-66122870D01*
X101662500Y-67323907D01*
X101642498Y-67392028D01*
X101637329Y-67399467D01*
X101565885Y-67494795D01*
X101514755Y-67631184D01*
X101508000Y-67693366D01*
X101508000Y-68513634D01*
X101514755Y-68575816D01*
X101565885Y-68712205D01*
X101653239Y-68828761D01*
X101769795Y-68916115D01*
X101906184Y-68967245D01*
X101968366Y-68974000D01*
X102623634Y-68974000D01*
X102685816Y-68967245D01*
X102822205Y-68916115D01*
X102938761Y-68828761D01*
X103026115Y-68712205D01*
X103077245Y-68575816D01*
X103084000Y-68513634D01*
X103084000Y-68510169D01*
X104942501Y-68510169D01*
X104942871Y-68516990D01*
X104948395Y-68567852D01*
X104952021Y-68583104D01*
X104997176Y-68703554D01*
X105005714Y-68719149D01*
X105082215Y-68821224D01*
X105094776Y-68833785D01*
X105196851Y-68910286D01*
X105212446Y-68918824D01*
X105332894Y-68963978D01*
X105348149Y-68967605D01*
X105399014Y-68973131D01*
X105405828Y-68973500D01*
X105457885Y-68973500D01*
X105473124Y-68969025D01*
X105474329Y-68967635D01*
X105476000Y-68959952D01*
X105476000Y-68955384D01*
X105984000Y-68955384D01*
X105988475Y-68970623D01*
X105989865Y-68971828D01*
X105997548Y-68973499D01*
X106054169Y-68973499D01*
X106060990Y-68973129D01*
X106111852Y-68967605D01*
X106127104Y-68963979D01*
X106247554Y-68918824D01*
X106263149Y-68910286D01*
X106365224Y-68833785D01*
X106377785Y-68821224D01*
X106454286Y-68719149D01*
X106462824Y-68703554D01*
X106507978Y-68583106D01*
X106511605Y-68567851D01*
X106517131Y-68516986D01*
X106517500Y-68510172D01*
X106517500Y-68375615D01*
X106513025Y-68360376D01*
X106511635Y-68359171D01*
X106503952Y-68357500D01*
X106002115Y-68357500D01*
X105986876Y-68361975D01*
X105985671Y-68363365D01*
X105984000Y-68371048D01*
X105984000Y-68955384D01*
X105476000Y-68955384D01*
X105476000Y-68375615D01*
X105471525Y-68360376D01*
X105470135Y-68359171D01*
X105462452Y-68357500D01*
X104960616Y-68357500D01*
X104945377Y-68361975D01*
X104944172Y-68363365D01*
X104942501Y-68371048D01*
X104942501Y-68510169D01*
X103084000Y-68510169D01*
X103084000Y-67831385D01*
X104942500Y-67831385D01*
X104946975Y-67846624D01*
X104948365Y-67847829D01*
X104956048Y-67849500D01*
X105457885Y-67849500D01*
X105473124Y-67845025D01*
X105474329Y-67843635D01*
X105476000Y-67835952D01*
X105476000Y-67831385D01*
X105984000Y-67831385D01*
X105988475Y-67846624D01*
X105989865Y-67847829D01*
X105997548Y-67849500D01*
X106499384Y-67849500D01*
X106514623Y-67845025D01*
X106515828Y-67843635D01*
X106517499Y-67835952D01*
X106517499Y-67696831D01*
X106517129Y-67690010D01*
X106511605Y-67639148D01*
X106507979Y-67623896D01*
X106462824Y-67503446D01*
X106454286Y-67487851D01*
X106377785Y-67385776D01*
X106365224Y-67373215D01*
X106263149Y-67296714D01*
X106247554Y-67288176D01*
X106127106Y-67243022D01*
X106111851Y-67239395D01*
X106060986Y-67233869D01*
X106054172Y-67233500D01*
X106002115Y-67233500D01*
X105986876Y-67237975D01*
X105985671Y-67239365D01*
X105984000Y-67247048D01*
X105984000Y-67831385D01*
X105476000Y-67831385D01*
X105476000Y-67251616D01*
X105471525Y-67236377D01*
X105470135Y-67235172D01*
X105462452Y-67233501D01*
X105405831Y-67233501D01*
X105399010Y-67233871D01*
X105348148Y-67239395D01*
X105332896Y-67243021D01*
X105212446Y-67288176D01*
X105196851Y-67296714D01*
X105094776Y-67373215D01*
X105082215Y-67385776D01*
X105005714Y-67487851D01*
X104997176Y-67503446D01*
X104952022Y-67623894D01*
X104948395Y-67639149D01*
X104942869Y-67690014D01*
X104942500Y-67696828D01*
X104942500Y-67831385D01*
X103084000Y-67831385D01*
X103084000Y-67693366D01*
X103077245Y-67631184D01*
X103026115Y-67494795D01*
X102954674Y-67399471D01*
X102929826Y-67332966D01*
X102929500Y-67323907D01*
X102929500Y-66118468D01*
X102949502Y-66050347D01*
X102989194Y-66011326D01*
X103029348Y-65986478D01*
X103154305Y-65861303D01*
X103182564Y-65815459D01*
X103243275Y-65716968D01*
X103243276Y-65716966D01*
X103247115Y-65710738D01*
X103302797Y-65542861D01*
X103313500Y-65438400D01*
X103313500Y-65385095D01*
X104897001Y-65385095D01*
X104897338Y-65391614D01*
X104907257Y-65487206D01*
X104910149Y-65500600D01*
X104961588Y-65654784D01*
X104967761Y-65667962D01*
X105053063Y-65805807D01*
X105062099Y-65817208D01*
X105176829Y-65931739D01*
X105188240Y-65940751D01*
X105326243Y-66025816D01*
X105339424Y-66031963D01*
X105493710Y-66083138D01*
X105507086Y-66086005D01*
X105601438Y-66095672D01*
X105607854Y-66096000D01*
X105645385Y-66096000D01*
X105660624Y-66091525D01*
X105661829Y-66090135D01*
X105663500Y-66082452D01*
X105663500Y-65160115D01*
X105659025Y-65144876D01*
X105657635Y-65143671D01*
X105649952Y-65142000D01*
X104915116Y-65142000D01*
X104899877Y-65146475D01*
X104898672Y-65147865D01*
X104897001Y-65155548D01*
X104897001Y-65385095D01*
X103313500Y-65385095D01*
X103313500Y-64615885D01*
X104897000Y-64615885D01*
X104901475Y-64631124D01*
X104902865Y-64632329D01*
X104910548Y-64634000D01*
X105645385Y-64634000D01*
X105660624Y-64629525D01*
X105661829Y-64628135D01*
X105663500Y-64620452D01*
X105663500Y-63698116D01*
X105659025Y-63682877D01*
X105657635Y-63681672D01*
X105649952Y-63680001D01*
X105607905Y-63680001D01*
X105601386Y-63680338D01*
X105505794Y-63690257D01*
X105492400Y-63693149D01*
X105338216Y-63744588D01*
X105325038Y-63750761D01*
X105187193Y-63836063D01*
X105175792Y-63845099D01*
X105061261Y-63959829D01*
X105052249Y-63971240D01*
X104967184Y-64109243D01*
X104961037Y-64122424D01*
X104909862Y-64276710D01*
X104906995Y-64290086D01*
X104897328Y-64384438D01*
X104897000Y-64390855D01*
X104897000Y-64615885D01*
X103313500Y-64615885D01*
X103313500Y-64437600D01*
X103307975Y-64384350D01*
X103303238Y-64338692D01*
X103303237Y-64338688D01*
X103302526Y-64331834D01*
X103299581Y-64323005D01*
X103248868Y-64171002D01*
X103246550Y-64164054D01*
X103153478Y-64013652D01*
X103028303Y-63888695D01*
X103005898Y-63874884D01*
X102985883Y-63862546D01*
X102938390Y-63809774D01*
X102926000Y-63755287D01*
X102926000Y-48235095D01*
X102946002Y-48166974D01*
X102999658Y-48120481D01*
X103069932Y-48110377D01*
X103134512Y-48139871D01*
X103141095Y-48146000D01*
X107072095Y-52077000D01*
X107106121Y-52139312D01*
X107109000Y-52166095D01*
X107109000Y-63705366D01*
X107088998Y-63773487D01*
X107049304Y-63812509D01*
X107005652Y-63839522D01*
X107000479Y-63844704D01*
X106918862Y-63926463D01*
X106856579Y-63960542D01*
X106785759Y-63955539D01*
X106740671Y-63926618D01*
X106658171Y-63844261D01*
X106646760Y-63835249D01*
X106508757Y-63750184D01*
X106495576Y-63744037D01*
X106341290Y-63692862D01*
X106327914Y-63689995D01*
X106233562Y-63680328D01*
X106227145Y-63680000D01*
X106189615Y-63680000D01*
X106174376Y-63684475D01*
X106173171Y-63685865D01*
X106171500Y-63693548D01*
X106171500Y-66077884D01*
X106175975Y-66093123D01*
X106177365Y-66094328D01*
X106185048Y-66095999D01*
X106227095Y-66095999D01*
X106233614Y-66095662D01*
X106329206Y-66085743D01*
X106342600Y-66082851D01*
X106496784Y-66031412D01*
X106509962Y-66025239D01*
X106647807Y-65939937D01*
X106659208Y-65930901D01*
X106740430Y-65849538D01*
X106802713Y-65815459D01*
X106873533Y-65820462D01*
X106918620Y-65849382D01*
X106959517Y-65890207D01*
X106993597Y-65952489D01*
X106996500Y-65979381D01*
X106996500Y-67323907D01*
X106976498Y-67392028D01*
X106971329Y-67399467D01*
X106899885Y-67494795D01*
X106848755Y-67631184D01*
X106842000Y-67693366D01*
X106842000Y-68513634D01*
X106848755Y-68575816D01*
X106899885Y-68712205D01*
X106987239Y-68828761D01*
X107103795Y-68916115D01*
X107240184Y-68967245D01*
X107302366Y-68974000D01*
X107957634Y-68974000D01*
X108019816Y-68967245D01*
X108156205Y-68916115D01*
X108272761Y-68828761D01*
X108360115Y-68712205D01*
X108411245Y-68575816D01*
X108418000Y-68513634D01*
X108418000Y-67693366D01*
X108411245Y-67631184D01*
X108360115Y-67494795D01*
X108288674Y-67399471D01*
X108263826Y-67332966D01*
X108263500Y-67323907D01*
X108263500Y-66139387D01*
X108283502Y-66071266D01*
X108329730Y-66030816D01*
X108328946Y-66029550D01*
X108473120Y-65940332D01*
X108479348Y-65936478D01*
X108604305Y-65811303D01*
X108608146Y-65805072D01*
X108693275Y-65666968D01*
X108693276Y-65666966D01*
X108697115Y-65660738D01*
X108752797Y-65492861D01*
X108763500Y-65388400D01*
X108763500Y-64387600D01*
X108758570Y-64340086D01*
X108753238Y-64288692D01*
X108753237Y-64288688D01*
X108752526Y-64281834D01*
X108725376Y-64200454D01*
X108698868Y-64121002D01*
X108696550Y-64114054D01*
X108603478Y-63963652D01*
X108478303Y-63838695D01*
X108472069Y-63834852D01*
X108435883Y-63812546D01*
X108388390Y-63759774D01*
X108376000Y-63705287D01*
X108376000Y-51930267D01*
X108376527Y-51919084D01*
X108378202Y-51911591D01*
X108376652Y-51862266D01*
X108376062Y-51843514D01*
X108376000Y-51839555D01*
X108376000Y-51811644D01*
X108375495Y-51807644D01*
X108374562Y-51795801D01*
X108373422Y-51759530D01*
X108373173Y-51751611D01*
X108367521Y-51732157D01*
X108363513Y-51712800D01*
X108361968Y-51700570D01*
X108361968Y-51700569D01*
X108360974Y-51692703D01*
X108355113Y-51677900D01*
X108344696Y-51651588D01*
X108340851Y-51640358D01*
X108330729Y-51605517D01*
X108330729Y-51605516D01*
X108328518Y-51597907D01*
X108324485Y-51591088D01*
X108324483Y-51591083D01*
X108318207Y-51580472D01*
X108309512Y-51562724D01*
X108302052Y-51543883D01*
X108276064Y-51508113D01*
X108269548Y-51498193D01*
X108251080Y-51466965D01*
X108251078Y-51466962D01*
X108247042Y-51460138D01*
X108232721Y-51445817D01*
X108219880Y-51430783D01*
X108212631Y-51420806D01*
X108207972Y-51414393D01*
X108173895Y-51386202D01*
X108165116Y-51378212D01*
X105092091Y-48305186D01*
X105809960Y-48305186D01*
X105817418Y-48315554D01*
X106032662Y-48489854D01*
X106037984Y-48493721D01*
X106340823Y-48690387D01*
X106346532Y-48693683D01*
X106668275Y-48857620D01*
X106674286Y-48860296D01*
X107011395Y-48989700D01*
X107017672Y-48991740D01*
X107366463Y-49085198D01*
X107372901Y-49086567D01*
X107729560Y-49143055D01*
X107736104Y-49143743D01*
X108096699Y-49162641D01*
X108103301Y-49162641D01*
X108463896Y-49143743D01*
X108470440Y-49143055D01*
X108827099Y-49086567D01*
X108833537Y-49085198D01*
X109182328Y-48991740D01*
X109188605Y-48989700D01*
X109525714Y-48860296D01*
X109531725Y-48857620D01*
X109853468Y-48693683D01*
X109859177Y-48690387D01*
X110162016Y-48493721D01*
X110167338Y-48489854D01*
X110381634Y-48316322D01*
X110390100Y-48304067D01*
X110383766Y-48292976D01*
X108112812Y-46022022D01*
X108098868Y-46014408D01*
X108097035Y-46014539D01*
X108090420Y-46018790D01*
X105817100Y-48292110D01*
X105809960Y-48305186D01*
X105092091Y-48305186D01*
X102440206Y-45653301D01*
X104587359Y-45653301D01*
X104606257Y-46013896D01*
X104606945Y-46020440D01*
X104663433Y-46377099D01*
X104664802Y-46383537D01*
X104758260Y-46732328D01*
X104760300Y-46738605D01*
X104889704Y-47075714D01*
X104892380Y-47081725D01*
X105056317Y-47403468D01*
X105059613Y-47409177D01*
X105256279Y-47712016D01*
X105260146Y-47717338D01*
X105433678Y-47931634D01*
X105445933Y-47940100D01*
X105457024Y-47933766D01*
X107727978Y-45662812D01*
X107734356Y-45651132D01*
X108464408Y-45651132D01*
X108464539Y-45652965D01*
X108468790Y-45659580D01*
X110742110Y-47932900D01*
X110755186Y-47940040D01*
X110765554Y-47932582D01*
X110939854Y-47717338D01*
X110943721Y-47712016D01*
X111140387Y-47409177D01*
X111143683Y-47403468D01*
X111307620Y-47081725D01*
X111310296Y-47075714D01*
X111439700Y-46738605D01*
X111441740Y-46732328D01*
X111535198Y-46383537D01*
X111536567Y-46377099D01*
X111593055Y-46020440D01*
X111593743Y-46013896D01*
X111612641Y-45653301D01*
X111612641Y-45646699D01*
X111593743Y-45286104D01*
X111593055Y-45279560D01*
X111536567Y-44922901D01*
X111535198Y-44916463D01*
X111441740Y-44567672D01*
X111439700Y-44561395D01*
X111310296Y-44224286D01*
X111307620Y-44218275D01*
X111143683Y-43896532D01*
X111140387Y-43890823D01*
X110943721Y-43587984D01*
X110939854Y-43582662D01*
X110766322Y-43368366D01*
X110754067Y-43359900D01*
X110742976Y-43366234D01*
X108472022Y-45637188D01*
X108464408Y-45651132D01*
X107734356Y-45651132D01*
X107735592Y-45648868D01*
X107735461Y-45647035D01*
X107731210Y-45640420D01*
X105457890Y-43367100D01*
X105444814Y-43359960D01*
X105434446Y-43367418D01*
X105260146Y-43582662D01*
X105256279Y-43587984D01*
X105059613Y-43890823D01*
X105056317Y-43896532D01*
X104892380Y-44218275D01*
X104889704Y-44224286D01*
X104760300Y-44561395D01*
X104758260Y-44567672D01*
X104664802Y-44916463D01*
X104663433Y-44922901D01*
X104606945Y-45279560D01*
X104606257Y-45286104D01*
X104587359Y-45646699D01*
X104587359Y-45653301D01*
X102440206Y-45653301D01*
X99782838Y-42995933D01*
X105809900Y-42995933D01*
X105816234Y-43007024D01*
X108087188Y-45277978D01*
X108101132Y-45285592D01*
X108102965Y-45285461D01*
X108109580Y-45281210D01*
X110382900Y-43007890D01*
X110390040Y-42994814D01*
X110382582Y-42984446D01*
X110167338Y-42810146D01*
X110162016Y-42806279D01*
X109859177Y-42609613D01*
X109853468Y-42606317D01*
X109531725Y-42442380D01*
X109525714Y-42439704D01*
X109188605Y-42310300D01*
X109182328Y-42308260D01*
X108833537Y-42214802D01*
X108827099Y-42213433D01*
X108470440Y-42156945D01*
X108463896Y-42156257D01*
X108103301Y-42137359D01*
X108096699Y-42137359D01*
X107736104Y-42156257D01*
X107729560Y-42156945D01*
X107372901Y-42213433D01*
X107366463Y-42214802D01*
X107017672Y-42308260D01*
X107011395Y-42310300D01*
X106674286Y-42439704D01*
X106668275Y-42442380D01*
X106346532Y-42606317D01*
X106340823Y-42609613D01*
X106037984Y-42806279D01*
X106032662Y-42810146D01*
X105818366Y-42983678D01*
X105809900Y-42995933D01*
X99782838Y-42995933D01*
X97421311Y-40634406D01*
X97387285Y-40572094D01*
X97384579Y-40538716D01*
X97386959Y-40493317D01*
X97386959Y-40493313D01*
X97387293Y-40486936D01*
X97358175Y-40294401D01*
X97355972Y-40288415D01*
X97355971Y-40288409D01*
X97293140Y-40117640D01*
X97293138Y-40117635D01*
X97290937Y-40111654D01*
X97199202Y-39963700D01*
X97180304Y-39895266D01*
X97201406Y-39827478D01*
X97206728Y-39820079D01*
X97238137Y-39779586D01*
X97242046Y-39774547D01*
X97328018Y-39599829D01*
X97329628Y-39593649D01*
X97375492Y-39417575D01*
X97375492Y-39417572D01*
X97377102Y-39411393D01*
X97387293Y-39216936D01*
X97358175Y-39024401D01*
X97355972Y-39018415D01*
X97355971Y-39018409D01*
X97293140Y-38847640D01*
X97293138Y-38847635D01*
X97290937Y-38841654D01*
X97199202Y-38693700D01*
X97180304Y-38625266D01*
X97201406Y-38557478D01*
X97206728Y-38550079D01*
X97238137Y-38509586D01*
X97242046Y-38504547D01*
X97328018Y-38329829D01*
X97333183Y-38310000D01*
X97375492Y-38147575D01*
X97375492Y-38147572D01*
X97377102Y-38141393D01*
X97382184Y-38044420D01*
X97386959Y-37953317D01*
X97386959Y-37953313D01*
X97387293Y-37946936D01*
X97358175Y-37754401D01*
X97355972Y-37748415D01*
X97355971Y-37748409D01*
X97293140Y-37577640D01*
X97293138Y-37577635D01*
X97290937Y-37571654D01*
X97277447Y-37549897D01*
X97258549Y-37481461D01*
X97279651Y-37413673D01*
X97334052Y-37368054D01*
X97384533Y-37357500D01*
X107469233Y-37357500D01*
X107480416Y-37358027D01*
X107487909Y-37359702D01*
X107495835Y-37359453D01*
X107495836Y-37359453D01*
X107555986Y-37357562D01*
X107559945Y-37357500D01*
X107587856Y-37357500D01*
X107591791Y-37357003D01*
X107591856Y-37356995D01*
X107603693Y-37356062D01*
X107635951Y-37355048D01*
X107639970Y-37354922D01*
X107647889Y-37354673D01*
X107667343Y-37349021D01*
X107686700Y-37345013D01*
X107698930Y-37343468D01*
X107698931Y-37343468D01*
X107706797Y-37342474D01*
X107714168Y-37339555D01*
X107714170Y-37339555D01*
X107747912Y-37326196D01*
X107759142Y-37322351D01*
X107793983Y-37312229D01*
X107793984Y-37312229D01*
X107801593Y-37310018D01*
X107808412Y-37305985D01*
X107808417Y-37305983D01*
X107819028Y-37299707D01*
X107836776Y-37291012D01*
X107855617Y-37283552D01*
X107891387Y-37257564D01*
X107901307Y-37251048D01*
X107932535Y-37232580D01*
X107932538Y-37232578D01*
X107939362Y-37228542D01*
X107953683Y-37214221D01*
X107968717Y-37201380D01*
X107978694Y-37194131D01*
X107985107Y-37189472D01*
X108013298Y-37155395D01*
X108021288Y-37146616D01*
X108832499Y-36335405D01*
X108894811Y-36301379D01*
X108921594Y-36298500D01*
X111530134Y-36298500D01*
X111592316Y-36291745D01*
X111728705Y-36240615D01*
X111845261Y-36153261D01*
X111932615Y-36036705D01*
X111983745Y-35900316D01*
X111990500Y-35838134D01*
X111990500Y-32741866D01*
X111983745Y-32679684D01*
X111932615Y-32543295D01*
X111845261Y-32426739D01*
X111728705Y-32339385D01*
X111592316Y-32288255D01*
X111530134Y-32281500D01*
X108433866Y-32281500D01*
X108371684Y-32288255D01*
X108235295Y-32339385D01*
X108118739Y-32426739D01*
X108031385Y-32543295D01*
X107980255Y-32679684D01*
X107973500Y-32741866D01*
X107973500Y-35350405D01*
X107953498Y-35418526D01*
X107936595Y-35439500D01*
X107322500Y-36053595D01*
X107260188Y-36087621D01*
X107233405Y-36090500D01*
X106225761Y-36090500D01*
X106157640Y-36070498D01*
X106111147Y-36016842D01*
X106101043Y-35946568D01*
X106130537Y-35881988D01*
X106148015Y-35865346D01*
X106178388Y-35841531D01*
X106249089Y-35786094D01*
X106336673Y-35695715D01*
X106428077Y-35601393D01*
X106439669Y-35589431D01*
X106442202Y-35585983D01*
X106442206Y-35585978D01*
X106599257Y-35372178D01*
X106601795Y-35368723D01*
X106603841Y-35364955D01*
X106730418Y-35131830D01*
X106730419Y-35131828D01*
X106732468Y-35128054D01*
X106829269Y-34871877D01*
X106871193Y-34688826D01*
X106889449Y-34609117D01*
X106889450Y-34609113D01*
X106890407Y-34604933D01*
X106890816Y-34600360D01*
X106914531Y-34334627D01*
X106914532Y-34334616D01*
X106914751Y-34332161D01*
X106915193Y-34290000D01*
X106910740Y-34224683D01*
X106896859Y-34021055D01*
X106896858Y-34021049D01*
X106896567Y-34016778D01*
X106841032Y-33748612D01*
X106749617Y-33490465D01*
X106624013Y-33247112D01*
X106614040Y-33232921D01*
X106501662Y-33073024D01*
X106466545Y-33023057D01*
X106280125Y-32822445D01*
X106276810Y-32819731D01*
X106276806Y-32819728D01*
X106106965Y-32680715D01*
X106068205Y-32648990D01*
X105834704Y-32505901D01*
X105830768Y-32504173D01*
X105587873Y-32397549D01*
X105587869Y-32397548D01*
X105583945Y-32395825D01*
X105320566Y-32320800D01*
X105316324Y-32320196D01*
X105316318Y-32320195D01*
X105111387Y-32291029D01*
X105049443Y-32282213D01*
X104905589Y-32281460D01*
X104779877Y-32280802D01*
X104779871Y-32280802D01*
X104775591Y-32280780D01*
X104771347Y-32281339D01*
X104771343Y-32281339D01*
X104697741Y-32291029D01*
X104504078Y-32316525D01*
X104499938Y-32317658D01*
X104499936Y-32317658D01*
X104468858Y-32326160D01*
X104239928Y-32388788D01*
X104235980Y-32390472D01*
X103991982Y-32494546D01*
X103991978Y-32494548D01*
X103988030Y-32496232D01*
X103968125Y-32508145D01*
X103756725Y-32634664D01*
X103756721Y-32634667D01*
X103753043Y-32636868D01*
X103539318Y-32808094D01*
X103350808Y-33006742D01*
X103191002Y-33229136D01*
X103062857Y-33471161D01*
X103061385Y-33475184D01*
X103061383Y-33475188D01*
X103054314Y-33494506D01*
X102968743Y-33728337D01*
X102910404Y-33995907D01*
X102888917Y-34268918D01*
X102904682Y-34542320D01*
X102905509Y-34546535D01*
X102929779Y-34670243D01*
X102923266Y-34740940D01*
X102879565Y-34796893D01*
X102806136Y-34820500D01*
X97382498Y-34820500D01*
X97314377Y-34800498D01*
X97267884Y-34746842D01*
X97257780Y-34676568D01*
X97269443Y-34638871D01*
X97325198Y-34525560D01*
X97328018Y-34519829D01*
X97329628Y-34513649D01*
X97375492Y-34337575D01*
X97375492Y-34337572D01*
X97377102Y-34331393D01*
X97387293Y-34136936D01*
X97358175Y-33944401D01*
X97355972Y-33938415D01*
X97355971Y-33938409D01*
X97293140Y-33767640D01*
X97293138Y-33767635D01*
X97290937Y-33761654D01*
X97199202Y-33613700D01*
X97180304Y-33545266D01*
X97201406Y-33477478D01*
X97206728Y-33470079D01*
X97238137Y-33429586D01*
X97242046Y-33424547D01*
X97328018Y-33249829D01*
X97334248Y-33225911D01*
X97375492Y-33067575D01*
X97375492Y-33067572D01*
X97377102Y-33061393D01*
X97387293Y-32866936D01*
X97358175Y-32674401D01*
X97355972Y-32668415D01*
X97355971Y-32668409D01*
X97293140Y-32497640D01*
X97293138Y-32497635D01*
X97290937Y-32491654D01*
X97198920Y-32343247D01*
X97180023Y-32274814D01*
X97201125Y-32207025D01*
X97206447Y-32199626D01*
X97237711Y-32159320D01*
X97244435Y-32148560D01*
X97324732Y-31985375D01*
X97329155Y-31973481D01*
X97344251Y-31915530D01*
X97343817Y-31901436D01*
X97335636Y-31898000D01*
X93415771Y-31898000D01*
X93402240Y-31901973D01*
X93401363Y-31908075D01*
X93457310Y-32060136D01*
X93462877Y-32071549D01*
X93551124Y-32213877D01*
X93570022Y-32282313D01*
X93548920Y-32350101D01*
X93543598Y-32357499D01*
X93511866Y-32398408D01*
X93511861Y-32398417D01*
X93507954Y-32403453D01*
X93421982Y-32578171D01*
X93420373Y-32584349D01*
X93420372Y-32584351D01*
X93379343Y-32741866D01*
X93372898Y-32766607D01*
X93372564Y-32772986D01*
X93364170Y-32933157D01*
X93362707Y-32961064D01*
X93391825Y-33153599D01*
X93394028Y-33159585D01*
X93394029Y-33159591D01*
X93456860Y-33330360D01*
X93456862Y-33330365D01*
X93459063Y-33336346D01*
X93550798Y-33484300D01*
X93569696Y-33552734D01*
X93548594Y-33620522D01*
X93543272Y-33627921D01*
X93507954Y-33673453D01*
X93421982Y-33848171D01*
X93420373Y-33854349D01*
X93420372Y-33854351D01*
X93379139Y-34012649D01*
X93372898Y-34036607D01*
X93362707Y-34231064D01*
X93391825Y-34423599D01*
X93394028Y-34429585D01*
X93394029Y-34429591D01*
X93456860Y-34600360D01*
X93456862Y-34600365D01*
X93459063Y-34606346D01*
X93550798Y-34754300D01*
X93569696Y-34822734D01*
X93548594Y-34890522D01*
X93543272Y-34897921D01*
X93507954Y-34943453D01*
X93421982Y-35118171D01*
X93420373Y-35124349D01*
X93420372Y-35124351D01*
X93398477Y-35208409D01*
X93372898Y-35306607D01*
X93369462Y-35372178D01*
X93367033Y-35418526D01*
X93362707Y-35501064D01*
X93391825Y-35693599D01*
X93394028Y-35699585D01*
X93394029Y-35699591D01*
X93456860Y-35870360D01*
X93456862Y-35870365D01*
X93459063Y-35876346D01*
X93550798Y-36024300D01*
X93569696Y-36092734D01*
X93548594Y-36160522D01*
X93543272Y-36167921D01*
X93507954Y-36213453D01*
X93421982Y-36388171D01*
X93420373Y-36394349D01*
X93420372Y-36394351D01*
X93379082Y-36552868D01*
X93372898Y-36576607D01*
X93372564Y-36582986D01*
X93366984Y-36689461D01*
X93362707Y-36771064D01*
X93391825Y-36963599D01*
X93394028Y-36969585D01*
X93394029Y-36969591D01*
X93456860Y-37140360D01*
X93456862Y-37140365D01*
X93459063Y-37146346D01*
X93550798Y-37294300D01*
X93569696Y-37362734D01*
X93548594Y-37430522D01*
X93543272Y-37437921D01*
X93507954Y-37483453D01*
X93421982Y-37658171D01*
X93420373Y-37664349D01*
X93420372Y-37664351D01*
X93383315Y-37806617D01*
X93372898Y-37846607D01*
X93372564Y-37852986D01*
X93363433Y-38027217D01*
X93362707Y-38041064D01*
X93391825Y-38233599D01*
X93394028Y-38239585D01*
X93394029Y-38239591D01*
X93456860Y-38410360D01*
X93456862Y-38410365D01*
X93459063Y-38416346D01*
X93550798Y-38564300D01*
X93569696Y-38632734D01*
X93548594Y-38700522D01*
X93543272Y-38707921D01*
X93507954Y-38753453D01*
X93421982Y-38928171D01*
X93420373Y-38934349D01*
X93420372Y-38934351D01*
X93385869Y-39066812D01*
X93372898Y-39116607D01*
X93362707Y-39311064D01*
X93391825Y-39503599D01*
X93394028Y-39509585D01*
X93394029Y-39509591D01*
X93456860Y-39680360D01*
X93456862Y-39680365D01*
X93459063Y-39686346D01*
X93550798Y-39834300D01*
X93569696Y-39902734D01*
X93548594Y-39970522D01*
X93543272Y-39977921D01*
X93507954Y-40023453D01*
X93421982Y-40198171D01*
X93420373Y-40204349D01*
X93420372Y-40204351D01*
X93398477Y-40288409D01*
X93372898Y-40386607D01*
X93368496Y-40470597D01*
X93364185Y-40552868D01*
X93362707Y-40581064D01*
X93391825Y-40773599D01*
X93394028Y-40779585D01*
X93394029Y-40779591D01*
X93456860Y-40950360D01*
X93456862Y-40950365D01*
X93459063Y-40956346D01*
X93550798Y-41104300D01*
X93569696Y-41172734D01*
X93548594Y-41240522D01*
X93543272Y-41247921D01*
X93507954Y-41293453D01*
X93421982Y-41468171D01*
X93420373Y-41474349D01*
X93420372Y-41474351D01*
X93394937Y-41572000D01*
X93372898Y-41656607D01*
X93362707Y-41851064D01*
X93391825Y-42043599D01*
X93394028Y-42049585D01*
X93394029Y-42049591D01*
X93456860Y-42220360D01*
X93456862Y-42220365D01*
X93459063Y-42226346D01*
X93550798Y-42374300D01*
X93569696Y-42442734D01*
X93548594Y-42510522D01*
X93543272Y-42517921D01*
X93507954Y-42563453D01*
X93421982Y-42738171D01*
X93420373Y-42744349D01*
X93420372Y-42744351D01*
X93398477Y-42828409D01*
X93372898Y-42926607D01*
X93369265Y-42995933D01*
X93364792Y-43081285D01*
X93362707Y-43121064D01*
X93391825Y-43313599D01*
X93394028Y-43319585D01*
X93394029Y-43319591D01*
X93456860Y-43490360D01*
X93456862Y-43490365D01*
X93459063Y-43496346D01*
X93550798Y-43644300D01*
X93569696Y-43712734D01*
X93548594Y-43780522D01*
X93543272Y-43787921D01*
X93507954Y-43833453D01*
X93421982Y-44008171D01*
X93420373Y-44014349D01*
X93420372Y-44014351D01*
X93398477Y-44098409D01*
X93372898Y-44196607D01*
X93362707Y-44391064D01*
X93391825Y-44583599D01*
X93394028Y-44589585D01*
X93394029Y-44589591D01*
X93456860Y-44760360D01*
X93456862Y-44760365D01*
X93459063Y-44766346D01*
X93550798Y-44914300D01*
X93569696Y-44982734D01*
X93548594Y-45050522D01*
X93543272Y-45057921D01*
X93507954Y-45103453D01*
X93421982Y-45278171D01*
X93420373Y-45284349D01*
X93420372Y-45284351D01*
X93376096Y-45454331D01*
X93372898Y-45466607D01*
X93368496Y-45550597D01*
X93363114Y-45653301D01*
X93362707Y-45661064D01*
X93391825Y-45853599D01*
X93394028Y-45859585D01*
X93394029Y-45859591D01*
X93456860Y-46030360D01*
X93456862Y-46030365D01*
X93459063Y-46036346D01*
X93550798Y-46184300D01*
X93569696Y-46252734D01*
X93548594Y-46320522D01*
X93543272Y-46327921D01*
X93507954Y-46373453D01*
X93421982Y-46548171D01*
X93420373Y-46554349D01*
X93420372Y-46554351D01*
X93385806Y-46687054D01*
X93372898Y-46736607D01*
X93372564Y-46742986D01*
X93364170Y-46903156D01*
X93362707Y-46931064D01*
X93391825Y-47123599D01*
X93394028Y-47129585D01*
X93394029Y-47129591D01*
X93456860Y-47300360D01*
X93456862Y-47300365D01*
X93459063Y-47306346D01*
X93550798Y-47454300D01*
X93569696Y-47522734D01*
X93548594Y-47590522D01*
X93543272Y-47597921D01*
X93507954Y-47643453D01*
X93421982Y-47818171D01*
X93420373Y-47824349D01*
X93420372Y-47824351D01*
X93382223Y-47970809D01*
X93372898Y-48006607D01*
X93369598Y-48069576D01*
X93364480Y-48167239D01*
X93362707Y-48201064D01*
X93391825Y-48393599D01*
X93394028Y-48399585D01*
X93394029Y-48399591D01*
X93456860Y-48570360D01*
X93456862Y-48570365D01*
X93459063Y-48576346D01*
X93529772Y-48690387D01*
X93547809Y-48719478D01*
X93566707Y-48787914D01*
X93545605Y-48855702D01*
X93540297Y-48863081D01*
X93477954Y-48943453D01*
X93475138Y-48949176D01*
X93475136Y-48949179D01*
X93437114Y-49026451D01*
X93391982Y-49118171D01*
X93390373Y-49124349D01*
X93390372Y-49124351D01*
X93352724Y-49268886D01*
X93342898Y-49306607D01*
X93332707Y-49501064D01*
X93361825Y-49693599D01*
X93364028Y-49699585D01*
X93364029Y-49699591D01*
X93426860Y-49870360D01*
X93426862Y-49870365D01*
X93429063Y-49876346D01*
X93520798Y-50024300D01*
X93539696Y-50092734D01*
X93518594Y-50160522D01*
X93513272Y-50167921D01*
X93477954Y-50213453D01*
X93391982Y-50388171D01*
X93390373Y-50394349D01*
X93390372Y-50394351D01*
X93368477Y-50478409D01*
X93342898Y-50576607D01*
X93334914Y-50728966D01*
X93334170Y-50743157D01*
X93310631Y-50810138D01*
X93297438Y-50825658D01*
X89015747Y-55107348D01*
X89007461Y-55114888D01*
X89000982Y-55119000D01*
X88995557Y-55124777D01*
X88954357Y-55168651D01*
X88951602Y-55171493D01*
X88931865Y-55191230D01*
X88929385Y-55194427D01*
X88921682Y-55203447D01*
X88891414Y-55235679D01*
X88887595Y-55242625D01*
X88887593Y-55242628D01*
X88881652Y-55253434D01*
X88870801Y-55269953D01*
X88858386Y-55285959D01*
X88855241Y-55293228D01*
X88855238Y-55293232D01*
X88840826Y-55326537D01*
X88835609Y-55337187D01*
X88814305Y-55375940D01*
X88812334Y-55383615D01*
X88812334Y-55383616D01*
X88809267Y-55395562D01*
X88802863Y-55414266D01*
X88794819Y-55432855D01*
X88793580Y-55440678D01*
X88793577Y-55440688D01*
X88787901Y-55476524D01*
X88785495Y-55488144D01*
X88784377Y-55492500D01*
X88774500Y-55530970D01*
X88774500Y-55551224D01*
X88772949Y-55570934D01*
X88769780Y-55590943D01*
X88770526Y-55598835D01*
X88773941Y-55634961D01*
X88774500Y-55646819D01*
X88774500Y-90617406D01*
X88754498Y-90685527D01*
X88737595Y-90706501D01*
X80275839Y-99168256D01*
X71827747Y-107616348D01*
X71819461Y-107623888D01*
X71812982Y-107628000D01*
X71807557Y-107633777D01*
X71766357Y-107677651D01*
X71763602Y-107680493D01*
X71743865Y-107700230D01*
X71741385Y-107703427D01*
X71733682Y-107712447D01*
X71703414Y-107744679D01*
X71699595Y-107751625D01*
X71699593Y-107751628D01*
X71693652Y-107762434D01*
X71682801Y-107778953D01*
X71670386Y-107794959D01*
X71667241Y-107802228D01*
X71667238Y-107802232D01*
X71652826Y-107835537D01*
X71647609Y-107846187D01*
X71626305Y-107884940D01*
X71622126Y-107901218D01*
X71621267Y-107904562D01*
X71614863Y-107923266D01*
X71606819Y-107941855D01*
X71605580Y-107949678D01*
X71605577Y-107949688D01*
X71599901Y-107985524D01*
X71597495Y-107997144D01*
X71586500Y-108039970D01*
X71586500Y-108060224D01*
X71584949Y-108079934D01*
X71581780Y-108099943D01*
X71582526Y-108107835D01*
X71585941Y-108143961D01*
X71586500Y-108155819D01*
X71586500Y-108653362D01*
X71566498Y-108721483D01*
X71509935Y-108769259D01*
X71457951Y-108791432D01*
X71309982Y-108854546D01*
X71309978Y-108854548D01*
X71306030Y-108856232D01*
X71286125Y-108868145D01*
X71074725Y-108994664D01*
X71074721Y-108994667D01*
X71071043Y-108996868D01*
X70857318Y-109168094D01*
X70668808Y-109366742D01*
X70509002Y-109589136D01*
X70380857Y-109831161D01*
X70379385Y-109835184D01*
X70379383Y-109835188D01*
X70372314Y-109854506D01*
X70286743Y-110088337D01*
X70228404Y-110355907D01*
X70206917Y-110628918D01*
X69151756Y-110628918D01*
X69151465Y-110624648D01*
X69134859Y-110381055D01*
X69134858Y-110381049D01*
X69134567Y-110376778D01*
X69079032Y-110108612D01*
X68987617Y-109850465D01*
X68985655Y-109846663D01*
X68985649Y-109846650D01*
X68978030Y-109831890D01*
X68964560Y-109762183D01*
X68990915Y-109696259D01*
X69000900Y-109685004D01*
X80656253Y-98029652D01*
X80664539Y-98022112D01*
X80671018Y-98018000D01*
X80717644Y-97968348D01*
X80720398Y-97965507D01*
X80740135Y-97945770D01*
X80742615Y-97942573D01*
X80750320Y-97933551D01*
X80775159Y-97907100D01*
X80780586Y-97901321D01*
X80784405Y-97894375D01*
X80784407Y-97894372D01*
X80790348Y-97883566D01*
X80801199Y-97867047D01*
X80808758Y-97857301D01*
X80813614Y-97851041D01*
X80816759Y-97843772D01*
X80816762Y-97843768D01*
X80831174Y-97810463D01*
X80836391Y-97799813D01*
X80857695Y-97761060D01*
X80862733Y-97741437D01*
X80869137Y-97722734D01*
X80874033Y-97711420D01*
X80874033Y-97711419D01*
X80877181Y-97704145D01*
X80878420Y-97696322D01*
X80878423Y-97696312D01*
X80884099Y-97660476D01*
X80886505Y-97648856D01*
X80895528Y-97613711D01*
X80895528Y-97613710D01*
X80897500Y-97606030D01*
X80897500Y-97585776D01*
X80899051Y-97566065D01*
X80900980Y-97553886D01*
X80902220Y-97546057D01*
X80898059Y-97502038D01*
X80897500Y-97490181D01*
X80897500Y-52671767D01*
X80898027Y-52660584D01*
X80899702Y-52653091D01*
X80899118Y-52634497D01*
X80897562Y-52585014D01*
X80897500Y-52581055D01*
X80897500Y-52553144D01*
X80896995Y-52549144D01*
X80896062Y-52537301D01*
X80894922Y-52501029D01*
X80894673Y-52493110D01*
X80889022Y-52473658D01*
X80885014Y-52454306D01*
X80883467Y-52442063D01*
X80882474Y-52434203D01*
X80875404Y-52416346D01*
X80866200Y-52393097D01*
X80862355Y-52381870D01*
X80859950Y-52373594D01*
X80850018Y-52339407D01*
X80844354Y-52329829D01*
X80839707Y-52321972D01*
X80831012Y-52304224D01*
X80823552Y-52285383D01*
X80797564Y-52249613D01*
X80791048Y-52239693D01*
X80772580Y-52208465D01*
X80772578Y-52208462D01*
X80768542Y-52201638D01*
X80754221Y-52187317D01*
X80741380Y-52172283D01*
X80734131Y-52162306D01*
X80729472Y-52155893D01*
X80695395Y-52127702D01*
X80686616Y-52119712D01*
X79391311Y-50824407D01*
X79357285Y-50762095D01*
X79354579Y-50728717D01*
X79356959Y-50683317D01*
X79356959Y-50683313D01*
X79357293Y-50676936D01*
X79328175Y-50484401D01*
X79325972Y-50478415D01*
X79325971Y-50478409D01*
X79263140Y-50307640D01*
X79263138Y-50307635D01*
X79260937Y-50301654D01*
X79168920Y-50153247D01*
X79150023Y-50084814D01*
X79171125Y-50017025D01*
X79176447Y-50009626D01*
X79207711Y-49969320D01*
X79214435Y-49958560D01*
X79294732Y-49795375D01*
X79299155Y-49783481D01*
X79314251Y-49725530D01*
X79313817Y-49711436D01*
X79305636Y-49708000D01*
X77217000Y-49708000D01*
X77148879Y-49687998D01*
X77102386Y-49634342D01*
X77091000Y-49582000D01*
X77091000Y-49326000D01*
X77111002Y-49257879D01*
X77164658Y-49211386D01*
X77217000Y-49200000D01*
X79304229Y-49200000D01*
X79317760Y-49196027D01*
X79318637Y-49189925D01*
X79262690Y-49037864D01*
X79257123Y-49026451D01*
X79158538Y-48867450D01*
X79139640Y-48799014D01*
X79160742Y-48731226D01*
X79166064Y-48723827D01*
X79208137Y-48669586D01*
X79212046Y-48664547D01*
X79298018Y-48489829D01*
X79299628Y-48483649D01*
X79345492Y-48307575D01*
X79345492Y-48307572D01*
X79347102Y-48301393D01*
X79352830Y-48192095D01*
X79356959Y-48113317D01*
X79356959Y-48113313D01*
X79357293Y-48106936D01*
X79328175Y-47914401D01*
X79325972Y-47908415D01*
X79325971Y-47908409D01*
X79263140Y-47737640D01*
X79263138Y-47737635D01*
X79260937Y-47731654D01*
X79169202Y-47583700D01*
X79150304Y-47515266D01*
X79171406Y-47447478D01*
X79176728Y-47440079D01*
X79208137Y-47399586D01*
X79212046Y-47394547D01*
X79298018Y-47219829D01*
X79299628Y-47213649D01*
X79345492Y-47037575D01*
X79345492Y-47037572D01*
X79347102Y-47031393D01*
X79357293Y-46836936D01*
X79328175Y-46644401D01*
X79325972Y-46638415D01*
X79325971Y-46638409D01*
X79263140Y-46467640D01*
X79263138Y-46467635D01*
X79260937Y-46461654D01*
X79169202Y-46313700D01*
X79150304Y-46245266D01*
X79171406Y-46177478D01*
X79176728Y-46170079D01*
X79208137Y-46129586D01*
X79212046Y-46124547D01*
X79298018Y-45949829D01*
X79309986Y-45903885D01*
X79345492Y-45767575D01*
X79345492Y-45767572D01*
X79347102Y-45761393D01*
X79352767Y-45653301D01*
X79356959Y-45573317D01*
X79356959Y-45573313D01*
X79357293Y-45566936D01*
X79328175Y-45374401D01*
X79325972Y-45368415D01*
X79325971Y-45368409D01*
X79263140Y-45197640D01*
X79263138Y-45197635D01*
X79260937Y-45191654D01*
X79169202Y-45043700D01*
X79150304Y-44975266D01*
X79171406Y-44907478D01*
X79176728Y-44900079D01*
X79208137Y-44859586D01*
X79212046Y-44854547D01*
X79298018Y-44679829D01*
X79299628Y-44673649D01*
X79345492Y-44497575D01*
X79345492Y-44497572D01*
X79347102Y-44491393D01*
X79352694Y-44384683D01*
X79356959Y-44303317D01*
X79356959Y-44303313D01*
X79357293Y-44296936D01*
X79328175Y-44104401D01*
X79325972Y-44098415D01*
X79325971Y-44098409D01*
X79263140Y-43927640D01*
X79263138Y-43927635D01*
X79260937Y-43921654D01*
X79169202Y-43773700D01*
X79150304Y-43705266D01*
X79171406Y-43637478D01*
X79176728Y-43630079D01*
X79208137Y-43589586D01*
X79212046Y-43584547D01*
X79298018Y-43409829D01*
X79299628Y-43403649D01*
X79345492Y-43227575D01*
X79345492Y-43227572D01*
X79347102Y-43221393D01*
X79357293Y-43026936D01*
X79328175Y-42834401D01*
X79325972Y-42828415D01*
X79325971Y-42828409D01*
X79263140Y-42657640D01*
X79263138Y-42657635D01*
X79260937Y-42651654D01*
X79169202Y-42503700D01*
X79150304Y-42435266D01*
X79171406Y-42367478D01*
X79176728Y-42360079D01*
X79208137Y-42319586D01*
X79212046Y-42314547D01*
X79298018Y-42139829D01*
X79299628Y-42133649D01*
X79345492Y-41957575D01*
X79345492Y-41957572D01*
X79347102Y-41951393D01*
X79357293Y-41756936D01*
X79329324Y-41571999D01*
X79329130Y-41570715D01*
X79329130Y-41570714D01*
X79328175Y-41564401D01*
X79325972Y-41558415D01*
X79325971Y-41558409D01*
X79263140Y-41387640D01*
X79263138Y-41387635D01*
X79260937Y-41381654D01*
X79169202Y-41233700D01*
X79150304Y-41165266D01*
X79167922Y-41108669D01*
X82937001Y-41108669D01*
X82937371Y-41115490D01*
X82942895Y-41166352D01*
X82946521Y-41181604D01*
X82991676Y-41302054D01*
X83000214Y-41317649D01*
X83076715Y-41419724D01*
X83089276Y-41432285D01*
X83191351Y-41508786D01*
X83206946Y-41517324D01*
X83327394Y-41562478D01*
X83342649Y-41566105D01*
X83393514Y-41571631D01*
X83400328Y-41572000D01*
X85672885Y-41572000D01*
X85688124Y-41567525D01*
X85689329Y-41566135D01*
X85691000Y-41558452D01*
X85691000Y-41553884D01*
X86199000Y-41553884D01*
X86203475Y-41569123D01*
X86204865Y-41570328D01*
X86212548Y-41571999D01*
X88489669Y-41571999D01*
X88496490Y-41571629D01*
X88547352Y-41566105D01*
X88562604Y-41562479D01*
X88683054Y-41517324D01*
X88698649Y-41508786D01*
X88800724Y-41432285D01*
X88813285Y-41419724D01*
X88889786Y-41317649D01*
X88898324Y-41302054D01*
X88943478Y-41181606D01*
X88947105Y-41166351D01*
X88952631Y-41115486D01*
X88953000Y-41108672D01*
X88953000Y-38836115D01*
X88948525Y-38820876D01*
X88947135Y-38819671D01*
X88939452Y-38818000D01*
X88586325Y-38818000D01*
X88575300Y-38821237D01*
X88578538Y-38828328D01*
X88715115Y-38964905D01*
X88749141Y-39027217D01*
X88744076Y-39098032D01*
X88715115Y-39143095D01*
X88317022Y-39541188D01*
X88309408Y-39555132D01*
X88309539Y-39556965D01*
X88313790Y-39563580D01*
X88715115Y-39964905D01*
X88749141Y-40027217D01*
X88744076Y-40098032D01*
X88715115Y-40143095D01*
X87534095Y-41324115D01*
X87471783Y-41358141D01*
X87400968Y-41353076D01*
X87355905Y-41324115D01*
X86957812Y-40926022D01*
X86943868Y-40918408D01*
X86942035Y-40918539D01*
X86935420Y-40922790D01*
X86534095Y-41324115D01*
X86471783Y-41358141D01*
X86400968Y-41353076D01*
X86355905Y-41324115D01*
X86211812Y-41180022D01*
X86201723Y-41174513D01*
X86199000Y-41181814D01*
X86199000Y-41553884D01*
X85691000Y-41553884D01*
X85691000Y-41185325D01*
X85687763Y-41174300D01*
X85680672Y-41177538D01*
X85534095Y-41324115D01*
X85471783Y-41358141D01*
X85400968Y-41353076D01*
X85355905Y-41324115D01*
X84957812Y-40926022D01*
X84943868Y-40918408D01*
X84942035Y-40918539D01*
X84935420Y-40922790D01*
X84534095Y-41324115D01*
X84471783Y-41358141D01*
X84400968Y-41353076D01*
X84355905Y-41324115D01*
X83586922Y-40555132D01*
X84309408Y-40555132D01*
X84309539Y-40556965D01*
X84313790Y-40563580D01*
X84432188Y-40681978D01*
X84446132Y-40689592D01*
X84447965Y-40689461D01*
X84454580Y-40685210D01*
X84572978Y-40566812D01*
X84579356Y-40555132D01*
X85309408Y-40555132D01*
X85309539Y-40556965D01*
X85313790Y-40563580D01*
X85432188Y-40681978D01*
X85446132Y-40689592D01*
X85447965Y-40689461D01*
X85454580Y-40685210D01*
X85572978Y-40566812D01*
X85579356Y-40555132D01*
X86309408Y-40555132D01*
X86309539Y-40556965D01*
X86313790Y-40563580D01*
X86432188Y-40681978D01*
X86446132Y-40689592D01*
X86447965Y-40689461D01*
X86454580Y-40685210D01*
X86572978Y-40566812D01*
X86579356Y-40555132D01*
X87309408Y-40555132D01*
X87309539Y-40556965D01*
X87313790Y-40563580D01*
X87432188Y-40681978D01*
X87446132Y-40689592D01*
X87447965Y-40689461D01*
X87454580Y-40685210D01*
X87572978Y-40566812D01*
X87580592Y-40552868D01*
X87580461Y-40551035D01*
X87576210Y-40544420D01*
X87457812Y-40426022D01*
X87443868Y-40418408D01*
X87442035Y-40418539D01*
X87435420Y-40422790D01*
X87317022Y-40541188D01*
X87309408Y-40555132D01*
X86579356Y-40555132D01*
X86580592Y-40552868D01*
X86580461Y-40551035D01*
X86576210Y-40544420D01*
X86457812Y-40426022D01*
X86443868Y-40418408D01*
X86442035Y-40418539D01*
X86435420Y-40422790D01*
X86317022Y-40541188D01*
X86309408Y-40555132D01*
X85579356Y-40555132D01*
X85580592Y-40552868D01*
X85580461Y-40551035D01*
X85576210Y-40544420D01*
X85457812Y-40426022D01*
X85443868Y-40418408D01*
X85442035Y-40418539D01*
X85435420Y-40422790D01*
X85317022Y-40541188D01*
X85309408Y-40555132D01*
X84579356Y-40555132D01*
X84580592Y-40552868D01*
X84580461Y-40551035D01*
X84576210Y-40544420D01*
X84457812Y-40426022D01*
X84443868Y-40418408D01*
X84442035Y-40418539D01*
X84435420Y-40422790D01*
X84317022Y-40541188D01*
X84309408Y-40555132D01*
X83586922Y-40555132D01*
X83174885Y-40143095D01*
X83140859Y-40080783D01*
X83142694Y-40055132D01*
X83809408Y-40055132D01*
X83809539Y-40056965D01*
X83813790Y-40063580D01*
X83932188Y-40181978D01*
X83946132Y-40189592D01*
X83947965Y-40189461D01*
X83954580Y-40185210D01*
X84072978Y-40066812D01*
X84079356Y-40055132D01*
X84809408Y-40055132D01*
X84809539Y-40056965D01*
X84813790Y-40063580D01*
X84932188Y-40181978D01*
X84946132Y-40189592D01*
X84947965Y-40189461D01*
X84954580Y-40185210D01*
X85072978Y-40066812D01*
X85079356Y-40055132D01*
X86809408Y-40055132D01*
X86809539Y-40056965D01*
X86813790Y-40063580D01*
X86932188Y-40181978D01*
X86946132Y-40189592D01*
X86947965Y-40189461D01*
X86954580Y-40185210D01*
X87072978Y-40066812D01*
X87079356Y-40055132D01*
X87809408Y-40055132D01*
X87809539Y-40056965D01*
X87813790Y-40063580D01*
X87932188Y-40181978D01*
X87946132Y-40189592D01*
X87947965Y-40189461D01*
X87954580Y-40185210D01*
X88072978Y-40066812D01*
X88080592Y-40052868D01*
X88080461Y-40051035D01*
X88076210Y-40044420D01*
X87957812Y-39926022D01*
X87943868Y-39918408D01*
X87942035Y-39918539D01*
X87935420Y-39922790D01*
X87817022Y-40041188D01*
X87809408Y-40055132D01*
X87079356Y-40055132D01*
X87080592Y-40052868D01*
X87080461Y-40051035D01*
X87076210Y-40044420D01*
X86957812Y-39926022D01*
X86943868Y-39918408D01*
X86942035Y-39918539D01*
X86935420Y-39922790D01*
X86817022Y-40041188D01*
X86809408Y-40055132D01*
X85079356Y-40055132D01*
X85080592Y-40052868D01*
X85080461Y-40051035D01*
X85076210Y-40044420D01*
X84957812Y-39926022D01*
X84943868Y-39918408D01*
X84942035Y-39918539D01*
X84935420Y-39922790D01*
X84817022Y-40041188D01*
X84809408Y-40055132D01*
X84079356Y-40055132D01*
X84080592Y-40052868D01*
X84080461Y-40051035D01*
X84076210Y-40044420D01*
X83957812Y-39926022D01*
X83943868Y-39918408D01*
X83942035Y-39918539D01*
X83935420Y-39922790D01*
X83817022Y-40041188D01*
X83809408Y-40055132D01*
X83142694Y-40055132D01*
X83145924Y-40009968D01*
X83174885Y-39964905D01*
X83572978Y-39566812D01*
X83579356Y-39555132D01*
X84309408Y-39555132D01*
X84309539Y-39556965D01*
X84313790Y-39563580D01*
X84432188Y-39681978D01*
X84446132Y-39689592D01*
X84447965Y-39689461D01*
X84454580Y-39685210D01*
X84572978Y-39566812D01*
X84579356Y-39555132D01*
X85309408Y-39555132D01*
X85309539Y-39556965D01*
X85313790Y-39563580D01*
X85432188Y-39681978D01*
X85446132Y-39689592D01*
X85447965Y-39689461D01*
X85454580Y-39685210D01*
X85572978Y-39566812D01*
X85579356Y-39555132D01*
X86309408Y-39555132D01*
X86309539Y-39556965D01*
X86313790Y-39563580D01*
X86432188Y-39681978D01*
X86446132Y-39689592D01*
X86447965Y-39689461D01*
X86454580Y-39685210D01*
X86572978Y-39566812D01*
X86579356Y-39555132D01*
X87309408Y-39555132D01*
X87309539Y-39556965D01*
X87313790Y-39563580D01*
X87432188Y-39681978D01*
X87446132Y-39689592D01*
X87447965Y-39689461D01*
X87454580Y-39685210D01*
X87572978Y-39566812D01*
X87580592Y-39552868D01*
X87580461Y-39551035D01*
X87576210Y-39544420D01*
X87457812Y-39426022D01*
X87443868Y-39418408D01*
X87442035Y-39418539D01*
X87435420Y-39422790D01*
X87317022Y-39541188D01*
X87309408Y-39555132D01*
X86579356Y-39555132D01*
X86580592Y-39552868D01*
X86580461Y-39551035D01*
X86576210Y-39544420D01*
X86457812Y-39426022D01*
X86443868Y-39418408D01*
X86442035Y-39418539D01*
X86435420Y-39422790D01*
X86317022Y-39541188D01*
X86309408Y-39555132D01*
X85579356Y-39555132D01*
X85580592Y-39552868D01*
X85580461Y-39551035D01*
X85576210Y-39544420D01*
X85457812Y-39426022D01*
X85443868Y-39418408D01*
X85442035Y-39418539D01*
X85435420Y-39422790D01*
X85317022Y-39541188D01*
X85309408Y-39555132D01*
X84579356Y-39555132D01*
X84580592Y-39552868D01*
X84580461Y-39551035D01*
X84576210Y-39544420D01*
X84457812Y-39426022D01*
X84443868Y-39418408D01*
X84442035Y-39418539D01*
X84435420Y-39422790D01*
X84317022Y-39541188D01*
X84309408Y-39555132D01*
X83579356Y-39555132D01*
X83580592Y-39552868D01*
X83580461Y-39551035D01*
X83576210Y-39544420D01*
X83174885Y-39143095D01*
X83140859Y-39080783D01*
X83142694Y-39055132D01*
X83809408Y-39055132D01*
X83809539Y-39056965D01*
X83813790Y-39063580D01*
X83932188Y-39181978D01*
X83946132Y-39189592D01*
X83947965Y-39189461D01*
X83954580Y-39185210D01*
X84072978Y-39066812D01*
X84079356Y-39055132D01*
X84809408Y-39055132D01*
X84809539Y-39056965D01*
X84813790Y-39063580D01*
X84932188Y-39181978D01*
X84946132Y-39189592D01*
X84947965Y-39189461D01*
X84954580Y-39185210D01*
X85072978Y-39066812D01*
X85079356Y-39055132D01*
X86809408Y-39055132D01*
X86809539Y-39056965D01*
X86813790Y-39063580D01*
X86932188Y-39181978D01*
X86946132Y-39189592D01*
X86947965Y-39189461D01*
X86954580Y-39185210D01*
X87072978Y-39066812D01*
X87079356Y-39055132D01*
X87809408Y-39055132D01*
X87809539Y-39056965D01*
X87813790Y-39063580D01*
X87932188Y-39181978D01*
X87946132Y-39189592D01*
X87947965Y-39189461D01*
X87954580Y-39185210D01*
X88072978Y-39066812D01*
X88080592Y-39052868D01*
X88080461Y-39051035D01*
X88076210Y-39044420D01*
X87957812Y-38926022D01*
X87943868Y-38918408D01*
X87942035Y-38918539D01*
X87935420Y-38922790D01*
X87817022Y-39041188D01*
X87809408Y-39055132D01*
X87079356Y-39055132D01*
X87080592Y-39052868D01*
X87080461Y-39051035D01*
X87076210Y-39044420D01*
X86957812Y-38926022D01*
X86943868Y-38918408D01*
X86942035Y-38918539D01*
X86935420Y-38922790D01*
X86817022Y-39041188D01*
X86809408Y-39055132D01*
X85079356Y-39055132D01*
X85080592Y-39052868D01*
X85080461Y-39051035D01*
X85076210Y-39044420D01*
X84957812Y-38926022D01*
X84943868Y-38918408D01*
X84942035Y-38918539D01*
X84935420Y-38922790D01*
X84817022Y-39041188D01*
X84809408Y-39055132D01*
X84079356Y-39055132D01*
X84080592Y-39052868D01*
X84080461Y-39051035D01*
X84076210Y-39044420D01*
X83957812Y-38926022D01*
X83943868Y-38918408D01*
X83942035Y-38918539D01*
X83935420Y-38922790D01*
X83817022Y-39041188D01*
X83809408Y-39055132D01*
X83142694Y-39055132D01*
X83145924Y-39009968D01*
X83174885Y-38964905D01*
X83308978Y-38830812D01*
X83314487Y-38820723D01*
X83307186Y-38818000D01*
X82955116Y-38818000D01*
X82939877Y-38822475D01*
X82938672Y-38823865D01*
X82937001Y-38831548D01*
X82937001Y-41108669D01*
X79167922Y-41108669D01*
X79171406Y-41097478D01*
X79176728Y-41090079D01*
X79208137Y-41049586D01*
X79212046Y-41044547D01*
X79298018Y-40869829D01*
X79299628Y-40863649D01*
X79345492Y-40687575D01*
X79345492Y-40687572D01*
X79347102Y-40681393D01*
X79353934Y-40551035D01*
X79356959Y-40493317D01*
X79356959Y-40493313D01*
X79357293Y-40486936D01*
X79328175Y-40294401D01*
X79325972Y-40288415D01*
X79325971Y-40288409D01*
X79263140Y-40117640D01*
X79263138Y-40117635D01*
X79260937Y-40111654D01*
X79169202Y-39963700D01*
X79150304Y-39895266D01*
X79171406Y-39827478D01*
X79176728Y-39820079D01*
X79208137Y-39779586D01*
X79212046Y-39774547D01*
X79298018Y-39599829D01*
X79299628Y-39593649D01*
X79345492Y-39417575D01*
X79345492Y-39417572D01*
X79347102Y-39411393D01*
X79357293Y-39216936D01*
X79328175Y-39024401D01*
X79325972Y-39018415D01*
X79325971Y-39018409D01*
X79263140Y-38847640D01*
X79263138Y-38847635D01*
X79260937Y-38841654D01*
X79169202Y-38693700D01*
X79150304Y-38625266D01*
X79171406Y-38557478D01*
X79176728Y-38550079D01*
X79208137Y-38509586D01*
X79212046Y-38504547D01*
X79298018Y-38329829D01*
X79303183Y-38310000D01*
X79307902Y-38291885D01*
X82937000Y-38291885D01*
X82941475Y-38307124D01*
X82942865Y-38308329D01*
X82950548Y-38310000D01*
X83323675Y-38310000D01*
X83334700Y-38306763D01*
X83331462Y-38299672D01*
X83174885Y-38143095D01*
X83140859Y-38080783D01*
X83142694Y-38055132D01*
X83809408Y-38055132D01*
X83809539Y-38056965D01*
X83813790Y-38063580D01*
X83932188Y-38181978D01*
X83946132Y-38189592D01*
X83947965Y-38189461D01*
X83954580Y-38185210D01*
X84072978Y-38066812D01*
X84079356Y-38055132D01*
X84809408Y-38055132D01*
X84809539Y-38056965D01*
X84813790Y-38063580D01*
X84932188Y-38181978D01*
X84946132Y-38189592D01*
X84947965Y-38189461D01*
X84954580Y-38185210D01*
X85072978Y-38066812D01*
X85079356Y-38055132D01*
X86809408Y-38055132D01*
X86809539Y-38056965D01*
X86813790Y-38063580D01*
X86932188Y-38181978D01*
X86946132Y-38189592D01*
X86947965Y-38189461D01*
X86954580Y-38185210D01*
X87072978Y-38066812D01*
X87079356Y-38055132D01*
X87809408Y-38055132D01*
X87809539Y-38056965D01*
X87813790Y-38063580D01*
X87932188Y-38181978D01*
X87946132Y-38189592D01*
X87947965Y-38189461D01*
X87954580Y-38185210D01*
X88072978Y-38066812D01*
X88080592Y-38052868D01*
X88080461Y-38051035D01*
X88076210Y-38044420D01*
X87957812Y-37926022D01*
X87943868Y-37918408D01*
X87942035Y-37918539D01*
X87935420Y-37922790D01*
X87817022Y-38041188D01*
X87809408Y-38055132D01*
X87079356Y-38055132D01*
X87080592Y-38052868D01*
X87080461Y-38051035D01*
X87076210Y-38044420D01*
X86957812Y-37926022D01*
X86943868Y-37918408D01*
X86942035Y-37918539D01*
X86935420Y-37922790D01*
X86817022Y-38041188D01*
X86809408Y-38055132D01*
X85079356Y-38055132D01*
X85080592Y-38052868D01*
X85080461Y-38051035D01*
X85076210Y-38044420D01*
X84957812Y-37926022D01*
X84943868Y-37918408D01*
X84942035Y-37918539D01*
X84935420Y-37922790D01*
X84817022Y-38041188D01*
X84809408Y-38055132D01*
X84079356Y-38055132D01*
X84080592Y-38052868D01*
X84080461Y-38051035D01*
X84076210Y-38044420D01*
X83957812Y-37926022D01*
X83943868Y-37918408D01*
X83942035Y-37918539D01*
X83935420Y-37922790D01*
X83817022Y-38041188D01*
X83809408Y-38055132D01*
X83142694Y-38055132D01*
X83145924Y-38009968D01*
X83174885Y-37964905D01*
X83572978Y-37566812D01*
X83579356Y-37555132D01*
X84309408Y-37555132D01*
X84309539Y-37556965D01*
X84313790Y-37563580D01*
X84432188Y-37681978D01*
X84446132Y-37689592D01*
X84447965Y-37689461D01*
X84454580Y-37685210D01*
X84572978Y-37566812D01*
X84579356Y-37555132D01*
X85309408Y-37555132D01*
X85309539Y-37556965D01*
X85313790Y-37563580D01*
X85432188Y-37681978D01*
X85446132Y-37689592D01*
X85447965Y-37689461D01*
X85454580Y-37685210D01*
X85572978Y-37566812D01*
X85579356Y-37555132D01*
X86309408Y-37555132D01*
X86309539Y-37556965D01*
X86313790Y-37563580D01*
X86432188Y-37681978D01*
X86446132Y-37689592D01*
X86447965Y-37689461D01*
X86454580Y-37685210D01*
X86572978Y-37566812D01*
X86579356Y-37555132D01*
X87309408Y-37555132D01*
X87309539Y-37556965D01*
X87313790Y-37563580D01*
X87432188Y-37681978D01*
X87446132Y-37689592D01*
X87447965Y-37689461D01*
X87454580Y-37685210D01*
X87572978Y-37566812D01*
X87580592Y-37552868D01*
X87580461Y-37551035D01*
X87576210Y-37544420D01*
X87457812Y-37426022D01*
X87443868Y-37418408D01*
X87442035Y-37418539D01*
X87435420Y-37422790D01*
X87317022Y-37541188D01*
X87309408Y-37555132D01*
X86579356Y-37555132D01*
X86580592Y-37552868D01*
X86580461Y-37551035D01*
X86576210Y-37544420D01*
X86457812Y-37426022D01*
X86443868Y-37418408D01*
X86442035Y-37418539D01*
X86435420Y-37422790D01*
X86317022Y-37541188D01*
X86309408Y-37555132D01*
X85579356Y-37555132D01*
X85580592Y-37552868D01*
X85580461Y-37551035D01*
X85576210Y-37544420D01*
X85457812Y-37426022D01*
X85443868Y-37418408D01*
X85442035Y-37418539D01*
X85435420Y-37422790D01*
X85317022Y-37541188D01*
X85309408Y-37555132D01*
X84579356Y-37555132D01*
X84580592Y-37552868D01*
X84580461Y-37551035D01*
X84576210Y-37544420D01*
X84457812Y-37426022D01*
X84443868Y-37418408D01*
X84442035Y-37418539D01*
X84435420Y-37422790D01*
X84317022Y-37541188D01*
X84309408Y-37555132D01*
X83579356Y-37555132D01*
X83580592Y-37552868D01*
X83580461Y-37551035D01*
X83576210Y-37544420D01*
X83174885Y-37143095D01*
X83140859Y-37080783D01*
X83142694Y-37055132D01*
X83809408Y-37055132D01*
X83809539Y-37056965D01*
X83813790Y-37063580D01*
X83932188Y-37181978D01*
X83946132Y-37189592D01*
X83947965Y-37189461D01*
X83954580Y-37185210D01*
X84072978Y-37066812D01*
X84079356Y-37055132D01*
X84809408Y-37055132D01*
X84809539Y-37056965D01*
X84813790Y-37063580D01*
X84932188Y-37181978D01*
X84946132Y-37189592D01*
X84947965Y-37189461D01*
X84954580Y-37185210D01*
X85072978Y-37066812D01*
X85079356Y-37055132D01*
X86809408Y-37055132D01*
X86809539Y-37056965D01*
X86813790Y-37063580D01*
X86932188Y-37181978D01*
X86946132Y-37189592D01*
X86947965Y-37189461D01*
X86954580Y-37185210D01*
X87072978Y-37066812D01*
X87079356Y-37055132D01*
X87809408Y-37055132D01*
X87809539Y-37056965D01*
X87813790Y-37063580D01*
X87932188Y-37181978D01*
X87946132Y-37189592D01*
X87947965Y-37189461D01*
X87954580Y-37185210D01*
X88072978Y-37066812D01*
X88080592Y-37052868D01*
X88080461Y-37051035D01*
X88076210Y-37044420D01*
X87957812Y-36926022D01*
X87943868Y-36918408D01*
X87942035Y-36918539D01*
X87935420Y-36922790D01*
X87817022Y-37041188D01*
X87809408Y-37055132D01*
X87079356Y-37055132D01*
X87080592Y-37052868D01*
X87080461Y-37051035D01*
X87076210Y-37044420D01*
X86957812Y-36926022D01*
X86943868Y-36918408D01*
X86942035Y-36918539D01*
X86935420Y-36922790D01*
X86817022Y-37041188D01*
X86809408Y-37055132D01*
X85079356Y-37055132D01*
X85080592Y-37052868D01*
X85080461Y-37051035D01*
X85076210Y-37044420D01*
X84957812Y-36926022D01*
X84943868Y-36918408D01*
X84942035Y-36918539D01*
X84935420Y-36922790D01*
X84817022Y-37041188D01*
X84809408Y-37055132D01*
X84079356Y-37055132D01*
X84080592Y-37052868D01*
X84080461Y-37051035D01*
X84076210Y-37044420D01*
X83957812Y-36926022D01*
X83943868Y-36918408D01*
X83942035Y-36918539D01*
X83935420Y-36922790D01*
X83817022Y-37041188D01*
X83809408Y-37055132D01*
X83142694Y-37055132D01*
X83145924Y-37009968D01*
X83174885Y-36964905D01*
X83584658Y-36555132D01*
X84309408Y-36555132D01*
X84309539Y-36556965D01*
X84313790Y-36563580D01*
X84432188Y-36681978D01*
X84446132Y-36689592D01*
X84447965Y-36689461D01*
X84454580Y-36685210D01*
X84572978Y-36566812D01*
X84579356Y-36555132D01*
X85309408Y-36555132D01*
X85309539Y-36556965D01*
X85313790Y-36563580D01*
X85432188Y-36681978D01*
X85446132Y-36689592D01*
X85447965Y-36689461D01*
X85454580Y-36685210D01*
X85572978Y-36566812D01*
X85579356Y-36555132D01*
X86309408Y-36555132D01*
X86309539Y-36556965D01*
X86313790Y-36563580D01*
X86432188Y-36681978D01*
X86446132Y-36689592D01*
X86447965Y-36689461D01*
X86454580Y-36685210D01*
X86572978Y-36566812D01*
X86579356Y-36555132D01*
X87309408Y-36555132D01*
X87309539Y-36556965D01*
X87313790Y-36563580D01*
X87432188Y-36681978D01*
X87446132Y-36689592D01*
X87447965Y-36689461D01*
X87454580Y-36685210D01*
X87572978Y-36566812D01*
X87580592Y-36552868D01*
X87580461Y-36551035D01*
X87576210Y-36544420D01*
X87457812Y-36426022D01*
X87443868Y-36418408D01*
X87442035Y-36418539D01*
X87435420Y-36422790D01*
X87317022Y-36541188D01*
X87309408Y-36555132D01*
X86579356Y-36555132D01*
X86580592Y-36552868D01*
X86580461Y-36551035D01*
X86576210Y-36544420D01*
X86457812Y-36426022D01*
X86443868Y-36418408D01*
X86442035Y-36418539D01*
X86435420Y-36422790D01*
X86317022Y-36541188D01*
X86309408Y-36555132D01*
X85579356Y-36555132D01*
X85580592Y-36552868D01*
X85580461Y-36551035D01*
X85576210Y-36544420D01*
X85457812Y-36426022D01*
X85443868Y-36418408D01*
X85442035Y-36418539D01*
X85435420Y-36422790D01*
X85317022Y-36541188D01*
X85309408Y-36555132D01*
X84579356Y-36555132D01*
X84580592Y-36552868D01*
X84580461Y-36551035D01*
X84576210Y-36544420D01*
X84457812Y-36426022D01*
X84443868Y-36418408D01*
X84442035Y-36418539D01*
X84435420Y-36422790D01*
X84317022Y-36541188D01*
X84309408Y-36555132D01*
X83584658Y-36555132D01*
X84355905Y-35783885D01*
X84418217Y-35749859D01*
X84489032Y-35754924D01*
X84534095Y-35783885D01*
X84932188Y-36181978D01*
X84946132Y-36189592D01*
X84947965Y-36189461D01*
X84954580Y-36185210D01*
X85355905Y-35783885D01*
X85418217Y-35749859D01*
X85489032Y-35754924D01*
X85534095Y-35783885D01*
X85678188Y-35927978D01*
X85688277Y-35933487D01*
X85691000Y-35926186D01*
X85691000Y-35922675D01*
X86199000Y-35922675D01*
X86202237Y-35933700D01*
X86209328Y-35930462D01*
X86355905Y-35783885D01*
X86418217Y-35749859D01*
X86489032Y-35754924D01*
X86534095Y-35783885D01*
X86932188Y-36181978D01*
X86946132Y-36189592D01*
X86947965Y-36189461D01*
X86954580Y-36185210D01*
X87355905Y-35783885D01*
X87418217Y-35749859D01*
X87489032Y-35754924D01*
X87534095Y-35783885D01*
X88715115Y-36964905D01*
X88749141Y-37027217D01*
X88744076Y-37098032D01*
X88715115Y-37143095D01*
X88317022Y-37541188D01*
X88309408Y-37555132D01*
X88309539Y-37556965D01*
X88313790Y-37563580D01*
X88715115Y-37964905D01*
X88749141Y-38027217D01*
X88744076Y-38098032D01*
X88715115Y-38143095D01*
X88561022Y-38297188D01*
X88555513Y-38307277D01*
X88562814Y-38310000D01*
X88934884Y-38310000D01*
X88950123Y-38305525D01*
X88951328Y-38304135D01*
X88952999Y-38296452D01*
X88952999Y-36019331D01*
X88952629Y-36012510D01*
X88947105Y-35961648D01*
X88943479Y-35946396D01*
X88898324Y-35825946D01*
X88889786Y-35810351D01*
X88813285Y-35708276D01*
X88800724Y-35695715D01*
X88698649Y-35619214D01*
X88683054Y-35610676D01*
X88562606Y-35565522D01*
X88547351Y-35561895D01*
X88496486Y-35556369D01*
X88489672Y-35556000D01*
X86217115Y-35556000D01*
X86201876Y-35560475D01*
X86200671Y-35561865D01*
X86199000Y-35569548D01*
X86199000Y-35922675D01*
X85691000Y-35922675D01*
X85691000Y-35574116D01*
X85686525Y-35558877D01*
X85685135Y-35557672D01*
X85677452Y-35556001D01*
X83400331Y-35556001D01*
X83393510Y-35556371D01*
X83342648Y-35561895D01*
X83327396Y-35565521D01*
X83206946Y-35610676D01*
X83191351Y-35619214D01*
X83089276Y-35695715D01*
X83076715Y-35708276D01*
X83000214Y-35810351D01*
X82991676Y-35825946D01*
X82946522Y-35946394D01*
X82942895Y-35961649D01*
X82937369Y-36012514D01*
X82937000Y-36019328D01*
X82937000Y-38291885D01*
X79307902Y-38291885D01*
X79345492Y-38147575D01*
X79345492Y-38147572D01*
X79347102Y-38141393D01*
X79352184Y-38044420D01*
X79356959Y-37953317D01*
X79356959Y-37953313D01*
X79357293Y-37946936D01*
X79328175Y-37754401D01*
X79325972Y-37748415D01*
X79325971Y-37748409D01*
X79263140Y-37577640D01*
X79263138Y-37577635D01*
X79260937Y-37571654D01*
X79169202Y-37423700D01*
X79150304Y-37355266D01*
X79171406Y-37287478D01*
X79176728Y-37280079D01*
X79196900Y-37254073D01*
X79212046Y-37234547D01*
X79298018Y-37059829D01*
X79311006Y-37009968D01*
X79345492Y-36877575D01*
X79345492Y-36877572D01*
X79347102Y-36871393D01*
X79356637Y-36689461D01*
X79356959Y-36683317D01*
X79356959Y-36683313D01*
X79357293Y-36676936D01*
X79328175Y-36484401D01*
X79325972Y-36478415D01*
X79325971Y-36478409D01*
X79263140Y-36307640D01*
X79263138Y-36307635D01*
X79260937Y-36301654D01*
X79169202Y-36153700D01*
X79150304Y-36085266D01*
X79171406Y-36017478D01*
X79176728Y-36010079D01*
X79208137Y-35969586D01*
X79212046Y-35964547D01*
X79298018Y-35789829D01*
X79307110Y-35754924D01*
X79345492Y-35607575D01*
X79345492Y-35607572D01*
X79347102Y-35601393D01*
X79352694Y-35494683D01*
X79356959Y-35413317D01*
X79356959Y-35413313D01*
X79357293Y-35406936D01*
X79328175Y-35214401D01*
X79325972Y-35208415D01*
X79325971Y-35208409D01*
X79263140Y-35037640D01*
X79263138Y-35037635D01*
X79260937Y-35031654D01*
X79169202Y-34883700D01*
X79150304Y-34815266D01*
X79171406Y-34747478D01*
X79176728Y-34740079D01*
X79208137Y-34699586D01*
X79212046Y-34694547D01*
X79298018Y-34519829D01*
X79299628Y-34513649D01*
X79345492Y-34337575D01*
X79345492Y-34337572D01*
X79347102Y-34331393D01*
X79357293Y-34136936D01*
X79328175Y-33944401D01*
X79325972Y-33938415D01*
X79325971Y-33938409D01*
X79263140Y-33767640D01*
X79263138Y-33767635D01*
X79260937Y-33761654D01*
X79169202Y-33613700D01*
X79150304Y-33545266D01*
X79171406Y-33477478D01*
X79176728Y-33470079D01*
X79208137Y-33429586D01*
X79212046Y-33424547D01*
X79298018Y-33249829D01*
X79304248Y-33225911D01*
X79345492Y-33067575D01*
X79345492Y-33067572D01*
X79347102Y-33061393D01*
X79357293Y-32866936D01*
X79328175Y-32674401D01*
X79325972Y-32668415D01*
X79325971Y-32668409D01*
X79263140Y-32497640D01*
X79263138Y-32497635D01*
X79260937Y-32491654D01*
X79168920Y-32343247D01*
X79150023Y-32274814D01*
X79171125Y-32207025D01*
X79176447Y-32199626D01*
X79207711Y-32159320D01*
X79214435Y-32148560D01*
X79294732Y-31985375D01*
X79299155Y-31973481D01*
X79314251Y-31915530D01*
X79313817Y-31901436D01*
X79305636Y-31898000D01*
X75385771Y-31898000D01*
X75372240Y-31901973D01*
X75371363Y-31908075D01*
X75427310Y-32060136D01*
X75432877Y-32071549D01*
X75521124Y-32213877D01*
X75540022Y-32282313D01*
X75518920Y-32350101D01*
X75513598Y-32357499D01*
X75481866Y-32398408D01*
X75481861Y-32398417D01*
X75477954Y-32403453D01*
X75391982Y-32578171D01*
X75390373Y-32584349D01*
X75390372Y-32584351D01*
X75349343Y-32741866D01*
X75342898Y-32766607D01*
X75337972Y-32860618D01*
X75334170Y-32933157D01*
X75310631Y-33000138D01*
X75297438Y-33015658D01*
X72321325Y-35991770D01*
X72259013Y-36025796D01*
X72188197Y-36020731D01*
X72131362Y-35978184D01*
X72106551Y-35911664D01*
X72106967Y-35889067D01*
X72112131Y-35841531D01*
X72112500Y-35838134D01*
X72112500Y-32741866D01*
X72105745Y-32679684D01*
X72054615Y-32543295D01*
X71967261Y-32426739D01*
X71850705Y-32339385D01*
X71714316Y-32288255D01*
X71652134Y-32281500D01*
X68555866Y-32281500D01*
X68493684Y-32288255D01*
X68357295Y-32339385D01*
X68240739Y-32426739D01*
X68153385Y-32543295D01*
X68102255Y-32679684D01*
X68095500Y-32741866D01*
X68095500Y-35838134D01*
X68102255Y-35900316D01*
X68153385Y-36036705D01*
X68240739Y-36153261D01*
X68357295Y-36240615D01*
X68493684Y-36291745D01*
X68555866Y-36298500D01*
X71652134Y-36298500D01*
X71714316Y-36291745D01*
X71850705Y-36240615D01*
X71853607Y-36238440D01*
X71920332Y-36223846D01*
X71986880Y-36248581D01*
X72029491Y-36305368D01*
X72034637Y-36376178D01*
X72033506Y-36380646D01*
X72030819Y-36386855D01*
X72029579Y-36394681D01*
X72029578Y-36394686D01*
X72023901Y-36430524D01*
X72021495Y-36442144D01*
X72010500Y-36484970D01*
X72010500Y-36505224D01*
X72008949Y-36524934D01*
X72005780Y-36544943D01*
X72006526Y-36552835D01*
X72009941Y-36588961D01*
X72010500Y-36600819D01*
X72010500Y-44509406D01*
X71990498Y-44577527D01*
X71973595Y-44598501D01*
X70992094Y-45580001D01*
X70929782Y-45614027D01*
X70858966Y-45608962D01*
X70802131Y-45566415D01*
X70777320Y-45499895D01*
X70776999Y-45490906D01*
X70776999Y-45454331D01*
X70776629Y-45447510D01*
X70771105Y-45396648D01*
X70767479Y-45381396D01*
X70722324Y-45260946D01*
X70713786Y-45245351D01*
X70637285Y-45143276D01*
X70624724Y-45130715D01*
X70522649Y-45054214D01*
X70507054Y-45045676D01*
X70386606Y-45000522D01*
X70371351Y-44996895D01*
X70320486Y-44991369D01*
X70313672Y-44991000D01*
X69466115Y-44991000D01*
X69450876Y-44995475D01*
X69449671Y-44996865D01*
X69448000Y-45004548D01*
X69448000Y-46938884D01*
X69457549Y-46971405D01*
X69477248Y-47002058D01*
X69477246Y-47073055D01*
X69445446Y-47126649D01*
X69318500Y-47253595D01*
X69256188Y-47287621D01*
X69229405Y-47290500D01*
X68070866Y-47290500D01*
X68008684Y-47297255D01*
X67872295Y-47348385D01*
X67755739Y-47435739D01*
X67668385Y-47552295D01*
X67617255Y-47688684D01*
X67610500Y-47750866D01*
X67610500Y-48797134D01*
X67617255Y-48859316D01*
X67668385Y-48995705D01*
X67755739Y-49112261D01*
X67872295Y-49199615D01*
X68008684Y-49250745D01*
X68070866Y-49257500D01*
X68434500Y-49257500D01*
X68502621Y-49277502D01*
X68549114Y-49331158D01*
X68560500Y-49383500D01*
X68560500Y-50791406D01*
X68540498Y-50859527D01*
X68523595Y-50880501D01*
X66866794Y-52537301D01*
X65257747Y-54146348D01*
X65249461Y-54153888D01*
X65242982Y-54158000D01*
X65237557Y-54163777D01*
X65196357Y-54207651D01*
X65193602Y-54210493D01*
X65173865Y-54230230D01*
X65171385Y-54233427D01*
X65163682Y-54242447D01*
X65133414Y-54274679D01*
X65129595Y-54281625D01*
X65129593Y-54281628D01*
X65123652Y-54292434D01*
X65112801Y-54308953D01*
X65100386Y-54324959D01*
X65097241Y-54332228D01*
X65097238Y-54332232D01*
X65082826Y-54365537D01*
X65077609Y-54376187D01*
X65056305Y-54414940D01*
X65054334Y-54422615D01*
X65054334Y-54422616D01*
X65051267Y-54434562D01*
X65044863Y-54453266D01*
X65036819Y-54471855D01*
X65035580Y-54479678D01*
X65035577Y-54479688D01*
X65029901Y-54515524D01*
X65027495Y-54527144D01*
X65020265Y-54555304D01*
X65016500Y-54569970D01*
X65016500Y-54590224D01*
X65014949Y-54609934D01*
X65011780Y-54629943D01*
X65012526Y-54637835D01*
X65015941Y-54673961D01*
X65016500Y-54685819D01*
X65016500Y-57250101D01*
X64996498Y-57318222D01*
X64956803Y-57357245D01*
X64925652Y-57376522D01*
X64800695Y-57501697D01*
X64797898Y-57506235D01*
X64740647Y-57546824D01*
X64669724Y-57550054D01*
X64608313Y-57514428D01*
X64600938Y-57505932D01*
X64592902Y-57495793D01*
X64478171Y-57381261D01*
X64466760Y-57372249D01*
X64328757Y-57287184D01*
X64315576Y-57281037D01*
X64161290Y-57229862D01*
X64147914Y-57226995D01*
X64053562Y-57217328D01*
X64047145Y-57217000D01*
X64022115Y-57217000D01*
X64006876Y-57221475D01*
X64005671Y-57222865D01*
X64004000Y-57230548D01*
X64004000Y-59664884D01*
X64008475Y-59680123D01*
X64009865Y-59681328D01*
X64017548Y-59682999D01*
X64047095Y-59682999D01*
X64053614Y-59682662D01*
X64149206Y-59672743D01*
X64162600Y-59669851D01*
X64316784Y-59618412D01*
X64329962Y-59612239D01*
X64467807Y-59526937D01*
X64479208Y-59517901D01*
X64593738Y-59403172D01*
X64600794Y-59394238D01*
X64658712Y-59353177D01*
X64729635Y-59349947D01*
X64791046Y-59385574D01*
X64797846Y-59393407D01*
X64801522Y-59399348D01*
X64926697Y-59524305D01*
X64932927Y-59528145D01*
X64956618Y-59542749D01*
X65004110Y-59595522D01*
X65016500Y-59650008D01*
X65016500Y-61812484D01*
X64996498Y-61880605D01*
X64942842Y-61927098D01*
X64935126Y-61930137D01*
X64933003Y-61931132D01*
X64926054Y-61933450D01*
X64775652Y-62026522D01*
X64650695Y-62151697D01*
X64647898Y-62156235D01*
X64590647Y-62196824D01*
X64519724Y-62200054D01*
X64458313Y-62164428D01*
X64450938Y-62155932D01*
X64442902Y-62145793D01*
X64328171Y-62031261D01*
X64316760Y-62022249D01*
X64178757Y-61937184D01*
X64165576Y-61931037D01*
X64011290Y-61879862D01*
X63997914Y-61876995D01*
X63903562Y-61867328D01*
X63897145Y-61867000D01*
X63872115Y-61867000D01*
X63856876Y-61871475D01*
X63855671Y-61872865D01*
X63854000Y-61880548D01*
X63854000Y-64314884D01*
X63858475Y-64330123D01*
X63859865Y-64331328D01*
X63867548Y-64332999D01*
X63897095Y-64332999D01*
X63903614Y-64332662D01*
X63999206Y-64322743D01*
X64012600Y-64319851D01*
X64166784Y-64268412D01*
X64179962Y-64262239D01*
X64317807Y-64176937D01*
X64329208Y-64167901D01*
X64443738Y-64053172D01*
X64450794Y-64044238D01*
X64508712Y-64003177D01*
X64579635Y-63999947D01*
X64641046Y-64035574D01*
X64647846Y-64043407D01*
X64651522Y-64049348D01*
X64776697Y-64174305D01*
X64782929Y-64178147D01*
X64782931Y-64178148D01*
X64819117Y-64200454D01*
X64866610Y-64253226D01*
X64879000Y-64307713D01*
X64879000Y-66417366D01*
X64858998Y-66485487D01*
X64819304Y-66524509D01*
X64775652Y-66551522D01*
X64770479Y-66556704D01*
X64689216Y-66638109D01*
X64626934Y-66672188D01*
X64556114Y-66667185D01*
X64511025Y-66638264D01*
X64428483Y-66555866D01*
X64423303Y-66550695D01*
X64380882Y-66524546D01*
X64278968Y-66461725D01*
X64278966Y-66461724D01*
X64272738Y-66457885D01*
X64192995Y-66431436D01*
X64111389Y-66404368D01*
X64111387Y-66404368D01*
X64104861Y-66402203D01*
X64098025Y-66401503D01*
X64098022Y-66401502D01*
X64054969Y-66397091D01*
X64000400Y-66391500D01*
X63374600Y-66391500D01*
X63371354Y-66391837D01*
X63371350Y-66391837D01*
X63275692Y-66401762D01*
X63275688Y-66401763D01*
X63268834Y-66402474D01*
X63262298Y-66404655D01*
X63262296Y-66404655D01*
X63224434Y-66417287D01*
X63101054Y-66458450D01*
X62950652Y-66551522D01*
X62825695Y-66676697D01*
X62732885Y-66827262D01*
X62677203Y-66995139D01*
X62666500Y-67099600D01*
X62666500Y-68100400D01*
X62666837Y-68103646D01*
X62666837Y-68103650D01*
X62676741Y-68199100D01*
X62677474Y-68206166D01*
X62679655Y-68212702D01*
X62679655Y-68212704D01*
X62710188Y-68304223D01*
X62733450Y-68373946D01*
X62826522Y-68524348D01*
X62951697Y-68649305D01*
X62957929Y-68653147D01*
X62957931Y-68653148D01*
X62994117Y-68675454D01*
X63041610Y-68728226D01*
X63054000Y-68782713D01*
X63054000Y-69457707D01*
X63051768Y-69481316D01*
X63050225Y-69489406D01*
X63050723Y-69497317D01*
X63053751Y-69545451D01*
X63054000Y-69553362D01*
X63054000Y-71107835D01*
X63033998Y-71175956D01*
X62994305Y-71214978D01*
X62981877Y-71222669D01*
X62981872Y-71222673D01*
X62975652Y-71226522D01*
X62850695Y-71351697D01*
X62757885Y-71502262D01*
X62702203Y-71670139D01*
X62691500Y-71774600D01*
X62691500Y-72825400D01*
X62691837Y-72828646D01*
X62691837Y-72828650D01*
X62701618Y-72922914D01*
X62702474Y-72931166D01*
X62758450Y-73098946D01*
X62851522Y-73249348D01*
X62976697Y-73374305D01*
X62982927Y-73378145D01*
X63006618Y-73392749D01*
X63054110Y-73445522D01*
X63066500Y-73500008D01*
X63066500Y-75208733D01*
X63065973Y-75219916D01*
X63064298Y-75227409D01*
X63064547Y-75235335D01*
X63064547Y-75235336D01*
X63065771Y-75274280D01*
X63047918Y-75342996D01*
X62995750Y-75391151D01*
X62925828Y-75403457D01*
X62860352Y-75376007D01*
X62850738Y-75367333D01*
X58920405Y-71437000D01*
X58886379Y-71374688D01*
X58883500Y-71347905D01*
X58883500Y-63622095D01*
X62592001Y-63622095D01*
X62592338Y-63628614D01*
X62602257Y-63724206D01*
X62605149Y-63737600D01*
X62656588Y-63891784D01*
X62662761Y-63904962D01*
X62748063Y-64042807D01*
X62757099Y-64054208D01*
X62871829Y-64168739D01*
X62883240Y-64177751D01*
X63021243Y-64262816D01*
X63034424Y-64268963D01*
X63188710Y-64320138D01*
X63202086Y-64323005D01*
X63296438Y-64332672D01*
X63302854Y-64333000D01*
X63327885Y-64333000D01*
X63343124Y-64328525D01*
X63344329Y-64327135D01*
X63346000Y-64319452D01*
X63346000Y-63372115D01*
X63341525Y-63356876D01*
X63340135Y-63355671D01*
X63332452Y-63354000D01*
X62610116Y-63354000D01*
X62594877Y-63358475D01*
X62593672Y-63359865D01*
X62592001Y-63367548D01*
X62592001Y-63622095D01*
X58883500Y-63622095D01*
X58883500Y-62827885D01*
X62592000Y-62827885D01*
X62596475Y-62843124D01*
X62597865Y-62844329D01*
X62605548Y-62846000D01*
X63327885Y-62846000D01*
X63343124Y-62841525D01*
X63344329Y-62840135D01*
X63346000Y-62832452D01*
X63346000Y-61885116D01*
X63341525Y-61869877D01*
X63340135Y-61868672D01*
X63332452Y-61867001D01*
X63302905Y-61867001D01*
X63296386Y-61867338D01*
X63200794Y-61877257D01*
X63187400Y-61880149D01*
X63033216Y-61931588D01*
X63020038Y-61937761D01*
X62882193Y-62023063D01*
X62870792Y-62032099D01*
X62756261Y-62146829D01*
X62747249Y-62158240D01*
X62662184Y-62296243D01*
X62656037Y-62309424D01*
X62604862Y-62463710D01*
X62601995Y-62477086D01*
X62592328Y-62571438D01*
X62592000Y-62577855D01*
X62592000Y-62827885D01*
X58883500Y-62827885D01*
X58883500Y-61680382D01*
X58903502Y-61612261D01*
X58957158Y-61565768D01*
X58965269Y-61562401D01*
X58988293Y-61553769D01*
X58988296Y-61553768D01*
X58996705Y-61550615D01*
X59113261Y-61463261D01*
X59200615Y-61346705D01*
X59251745Y-61210316D01*
X59258500Y-61148134D01*
X59258500Y-60151866D01*
X59251745Y-60089684D01*
X59200615Y-59953295D01*
X59113261Y-59836739D01*
X58996705Y-59749385D01*
X58988296Y-59746232D01*
X58988293Y-59746231D01*
X58965269Y-59737599D01*
X58908505Y-59694957D01*
X58883806Y-59628395D01*
X58883500Y-59619618D01*
X58883500Y-58972095D01*
X62742001Y-58972095D01*
X62742338Y-58978614D01*
X62752257Y-59074206D01*
X62755149Y-59087600D01*
X62806588Y-59241784D01*
X62812761Y-59254962D01*
X62898063Y-59392807D01*
X62907099Y-59404208D01*
X63021829Y-59518739D01*
X63033240Y-59527751D01*
X63171243Y-59612816D01*
X63184424Y-59618963D01*
X63338710Y-59670138D01*
X63352086Y-59673005D01*
X63446438Y-59682672D01*
X63452854Y-59683000D01*
X63477885Y-59683000D01*
X63493124Y-59678525D01*
X63494329Y-59677135D01*
X63496000Y-59669452D01*
X63496000Y-58722115D01*
X63491525Y-58706876D01*
X63490135Y-58705671D01*
X63482452Y-58704000D01*
X62760116Y-58704000D01*
X62744877Y-58708475D01*
X62743672Y-58709865D01*
X62742001Y-58717548D01*
X62742001Y-58972095D01*
X58883500Y-58972095D01*
X58883500Y-58177885D01*
X62742000Y-58177885D01*
X62746475Y-58193124D01*
X62747865Y-58194329D01*
X62755548Y-58196000D01*
X63477885Y-58196000D01*
X63493124Y-58191525D01*
X63494329Y-58190135D01*
X63496000Y-58182452D01*
X63496000Y-57235116D01*
X63491525Y-57219877D01*
X63490135Y-57218672D01*
X63482452Y-57217001D01*
X63452905Y-57217001D01*
X63446386Y-57217338D01*
X63350794Y-57227257D01*
X63337400Y-57230149D01*
X63183216Y-57281588D01*
X63170038Y-57287761D01*
X63032193Y-57373063D01*
X63020792Y-57382099D01*
X62906261Y-57496829D01*
X62897249Y-57508240D01*
X62812184Y-57646243D01*
X62806037Y-57659424D01*
X62754862Y-57813710D01*
X62751995Y-57827086D01*
X62742328Y-57921438D01*
X62742000Y-57927855D01*
X62742000Y-58177885D01*
X58883500Y-58177885D01*
X58883500Y-57580382D01*
X58903502Y-57512261D01*
X58957158Y-57465768D01*
X58965269Y-57462401D01*
X58988293Y-57453769D01*
X58988296Y-57453768D01*
X58996705Y-57450615D01*
X59113261Y-57363261D01*
X59200615Y-57246705D01*
X59251745Y-57110316D01*
X59258500Y-57048134D01*
X59258500Y-56051866D01*
X59251745Y-55989684D01*
X59200615Y-55853295D01*
X59113261Y-55736739D01*
X58996705Y-55649385D01*
X58860316Y-55598255D01*
X58798134Y-55591500D01*
X57701866Y-55591500D01*
X57639684Y-55598255D01*
X57620230Y-55605548D01*
X57511699Y-55646234D01*
X57511696Y-55646236D01*
X57503295Y-55649385D01*
X57503036Y-55648693D01*
X57440626Y-55662343D01*
X57396615Y-55649420D01*
X57396462Y-55649828D01*
X57390888Y-55647738D01*
X57388966Y-55647174D01*
X57388061Y-55646679D01*
X57267606Y-55601522D01*
X57252351Y-55597895D01*
X57201486Y-55592369D01*
X57194672Y-55592000D01*
X56922115Y-55592000D01*
X56906876Y-55596475D01*
X56905671Y-55597865D01*
X56904000Y-55605548D01*
X56904000Y-57489884D01*
X56908475Y-57505123D01*
X56909865Y-57506328D01*
X56917548Y-57507999D01*
X57194669Y-57507999D01*
X57201490Y-57507629D01*
X57252352Y-57502105D01*
X57267604Y-57498479D01*
X57388061Y-57453321D01*
X57388966Y-57452826D01*
X57389966Y-57452607D01*
X57396462Y-57450172D01*
X57396814Y-57451110D01*
X57458323Y-57437657D01*
X57503213Y-57450838D01*
X57503296Y-57450616D01*
X57506329Y-57451753D01*
X57506336Y-57451755D01*
X57511701Y-57453766D01*
X57511704Y-57453768D01*
X57534731Y-57462401D01*
X57591495Y-57505043D01*
X57616194Y-57571605D01*
X57616500Y-57580382D01*
X57616500Y-59619618D01*
X57596498Y-59687739D01*
X57542842Y-59734232D01*
X57534731Y-59737599D01*
X57511704Y-59746232D01*
X57511701Y-59746234D01*
X57508085Y-59747589D01*
X57508082Y-59747590D01*
X57503296Y-59749384D01*
X57503037Y-59748693D01*
X57440626Y-59762343D01*
X57396615Y-59749420D01*
X57396462Y-59749828D01*
X57390888Y-59747738D01*
X57388966Y-59747174D01*
X57388061Y-59746679D01*
X57267606Y-59701522D01*
X57252351Y-59697895D01*
X57201486Y-59692369D01*
X57194672Y-59692000D01*
X56922115Y-59692000D01*
X56906876Y-59696475D01*
X56905671Y-59697865D01*
X56904000Y-59705548D01*
X56904000Y-61589884D01*
X56908475Y-61605123D01*
X56909865Y-61606328D01*
X56917548Y-61607999D01*
X57194669Y-61607999D01*
X57201490Y-61607629D01*
X57252352Y-61602105D01*
X57267604Y-61598479D01*
X57388061Y-61553321D01*
X57388966Y-61552826D01*
X57389966Y-61552607D01*
X57396462Y-61550172D01*
X57396814Y-61551110D01*
X57458323Y-61537657D01*
X57503213Y-61550838D01*
X57503296Y-61550616D01*
X57506329Y-61551753D01*
X57506336Y-61551755D01*
X57511701Y-61553766D01*
X57511704Y-61553768D01*
X57534731Y-61562401D01*
X57591495Y-61605043D01*
X57616194Y-61671605D01*
X57616500Y-61680382D01*
X57616500Y-71583733D01*
X57615973Y-71594916D01*
X57614298Y-71602409D01*
X57614547Y-71610335D01*
X57614547Y-71610336D01*
X57616438Y-71670486D01*
X57616500Y-71674445D01*
X57616500Y-71702356D01*
X57616997Y-71706290D01*
X57616997Y-71706291D01*
X57617005Y-71706356D01*
X57617938Y-71718193D01*
X57619327Y-71762389D01*
X57623835Y-71777905D01*
X57624978Y-71781839D01*
X57628987Y-71801200D01*
X57631526Y-71821297D01*
X57634445Y-71828668D01*
X57634445Y-71828670D01*
X57647804Y-71862412D01*
X57651649Y-71873642D01*
X57663982Y-71916093D01*
X57668015Y-71922912D01*
X57668017Y-71922917D01*
X57674293Y-71933528D01*
X57682988Y-71951276D01*
X57690448Y-71970117D01*
X57695110Y-71976533D01*
X57695110Y-71976534D01*
X57716436Y-72005887D01*
X57722952Y-72015807D01*
X57738162Y-72041525D01*
X57745458Y-72053862D01*
X57759779Y-72068183D01*
X57772619Y-72083216D01*
X57784528Y-72099607D01*
X57790634Y-72104658D01*
X57818605Y-72127798D01*
X57827384Y-72135788D01*
X62629595Y-76937999D01*
X62663621Y-77000311D01*
X62666500Y-77027094D01*
X62666500Y-77600400D01*
X62677474Y-77706166D01*
X62733450Y-77873946D01*
X62826522Y-78024348D01*
X62951697Y-78149305D01*
X62957928Y-78153146D01*
X62957931Y-78153148D01*
X62994117Y-78175454D01*
X63041610Y-78228226D01*
X63054000Y-78282713D01*
X63054000Y-80267757D01*
X63033998Y-80335878D01*
X62981836Y-80381521D01*
X62976054Y-80383450D01*
X62969834Y-80387299D01*
X62969830Y-80387301D01*
X62836916Y-80469551D01*
X62825652Y-80476522D01*
X62700695Y-80601697D01*
X62607885Y-80752262D01*
X62552203Y-80920139D01*
X62541500Y-81024600D01*
X62541500Y-82075400D01*
X62541837Y-82078646D01*
X62541837Y-82078650D01*
X62551618Y-82172914D01*
X62552474Y-82181166D01*
X62608450Y-82348946D01*
X62701522Y-82499348D01*
X62826697Y-82624305D01*
X62832927Y-82628145D01*
X62832928Y-82628146D01*
X62970288Y-82712816D01*
X62977262Y-82717115D01*
X63057005Y-82743564D01*
X63138611Y-82770632D01*
X63138613Y-82770632D01*
X63145139Y-82772797D01*
X63151975Y-82773497D01*
X63151978Y-82773498D01*
X63195031Y-82777909D01*
X63249600Y-82783500D01*
X63850400Y-82783500D01*
X63853646Y-82783163D01*
X63853650Y-82783163D01*
X63949308Y-82773238D01*
X63949312Y-82773237D01*
X63956166Y-82772526D01*
X63962702Y-82770345D01*
X63962704Y-82770345D01*
X64094806Y-82726272D01*
X64123946Y-82716550D01*
X64274348Y-82623478D01*
X64399305Y-82498303D01*
X64402102Y-82493765D01*
X64459353Y-82453176D01*
X64530276Y-82449946D01*
X64591687Y-82485572D01*
X64599062Y-82494068D01*
X64607098Y-82504207D01*
X64721829Y-82618739D01*
X64733240Y-82627751D01*
X64871243Y-82712816D01*
X64884424Y-82718963D01*
X65038710Y-82770138D01*
X65052086Y-82773005D01*
X65146438Y-82782672D01*
X65152854Y-82783000D01*
X65177885Y-82783000D01*
X65193124Y-82778525D01*
X65194329Y-82777135D01*
X65196000Y-82769452D01*
X65196000Y-82764884D01*
X65704000Y-82764884D01*
X65708475Y-82780123D01*
X65709865Y-82781328D01*
X65717548Y-82782999D01*
X65747095Y-82782999D01*
X65753614Y-82782662D01*
X65849206Y-82772743D01*
X65862600Y-82769851D01*
X66016784Y-82718412D01*
X66029962Y-82712239D01*
X66167807Y-82626937D01*
X66179208Y-82617901D01*
X66293739Y-82503171D01*
X66302751Y-82491760D01*
X66387816Y-82353757D01*
X66393963Y-82340576D01*
X66445138Y-82186290D01*
X66448005Y-82172914D01*
X66457672Y-82078562D01*
X66458000Y-82072146D01*
X66458000Y-81822115D01*
X66453525Y-81806876D01*
X66452135Y-81805671D01*
X66444452Y-81804000D01*
X65722115Y-81804000D01*
X65706876Y-81808475D01*
X65705671Y-81809865D01*
X65704000Y-81817548D01*
X65704000Y-82764884D01*
X65196000Y-82764884D01*
X65196000Y-81277885D01*
X65704000Y-81277885D01*
X65708475Y-81293124D01*
X65709865Y-81294329D01*
X65717548Y-81296000D01*
X66439884Y-81296000D01*
X66455123Y-81291525D01*
X66456328Y-81290135D01*
X66457999Y-81282452D01*
X66457999Y-81027905D01*
X66457662Y-81021386D01*
X66447743Y-80925794D01*
X66444851Y-80912400D01*
X66393412Y-80758216D01*
X66387239Y-80745038D01*
X66301937Y-80607193D01*
X66292901Y-80595792D01*
X66178171Y-80481261D01*
X66166760Y-80472249D01*
X66028757Y-80387184D01*
X66015576Y-80381037D01*
X65861290Y-80329862D01*
X65847914Y-80326995D01*
X65753562Y-80317328D01*
X65747145Y-80317000D01*
X65722115Y-80317000D01*
X65706876Y-80321475D01*
X65705671Y-80322865D01*
X65704000Y-80330548D01*
X65704000Y-81277885D01*
X65196000Y-81277885D01*
X65196000Y-80335116D01*
X65191525Y-80319877D01*
X65190135Y-80318672D01*
X65182452Y-80317001D01*
X65152905Y-80317001D01*
X65146386Y-80317338D01*
X65050794Y-80327257D01*
X65037400Y-80330149D01*
X64883216Y-80381588D01*
X64870038Y-80387761D01*
X64732193Y-80473063D01*
X64720792Y-80482099D01*
X64606262Y-80596828D01*
X64599206Y-80605762D01*
X64541288Y-80646823D01*
X64470365Y-80650053D01*
X64408954Y-80614426D01*
X64402154Y-80606593D01*
X64398478Y-80600652D01*
X64357982Y-80560227D01*
X64323903Y-80497945D01*
X64321000Y-80471054D01*
X64321000Y-78282634D01*
X64341002Y-78214513D01*
X64380697Y-78175490D01*
X64418120Y-78152332D01*
X64424348Y-78148478D01*
X64510784Y-78061891D01*
X64573066Y-78027812D01*
X64643886Y-78032815D01*
X64688976Y-78061736D01*
X64776697Y-78149305D01*
X64782927Y-78153145D01*
X64782928Y-78153146D01*
X64920090Y-78237694D01*
X64927262Y-78242115D01*
X65007005Y-78268564D01*
X65088611Y-78295632D01*
X65088613Y-78295632D01*
X65095139Y-78297797D01*
X65101975Y-78298497D01*
X65101978Y-78298498D01*
X65145031Y-78302909D01*
X65199600Y-78308500D01*
X65825400Y-78308500D01*
X65828646Y-78308163D01*
X65828650Y-78308163D01*
X65924308Y-78298238D01*
X65924312Y-78298237D01*
X65931166Y-78297526D01*
X65937702Y-78295345D01*
X65937704Y-78295345D01*
X66069806Y-78251272D01*
X66098946Y-78241550D01*
X66249348Y-78148478D01*
X66374305Y-78023303D01*
X66467115Y-77872738D01*
X66522797Y-77704861D01*
X66533500Y-77600400D01*
X66533500Y-76599600D01*
X66522526Y-76493834D01*
X66466550Y-76326054D01*
X66373478Y-76175652D01*
X66248303Y-76050695D01*
X66097738Y-75957885D01*
X66017995Y-75931436D01*
X65936389Y-75904368D01*
X65936387Y-75904368D01*
X65929861Y-75902203D01*
X65923025Y-75901503D01*
X65923022Y-75901502D01*
X65879969Y-75897091D01*
X65825400Y-75891500D01*
X65252095Y-75891500D01*
X65183974Y-75871498D01*
X65162999Y-75854595D01*
X64370404Y-75061999D01*
X64336379Y-74999687D01*
X64333500Y-74972904D01*
X64333500Y-73499899D01*
X64353502Y-73431778D01*
X64393197Y-73392755D01*
X64418120Y-73377332D01*
X64424348Y-73373478D01*
X64549305Y-73248303D01*
X64552102Y-73243765D01*
X64609353Y-73203176D01*
X64680276Y-73199946D01*
X64741687Y-73235572D01*
X64749062Y-73244068D01*
X64757098Y-73254207D01*
X64871829Y-73368739D01*
X64883240Y-73377751D01*
X65021243Y-73462816D01*
X65034424Y-73468963D01*
X65188710Y-73520138D01*
X65202086Y-73523005D01*
X65296438Y-73532672D01*
X65302854Y-73533000D01*
X65327885Y-73533000D01*
X65343124Y-73528525D01*
X65344329Y-73527135D01*
X65346000Y-73519452D01*
X65346000Y-73514884D01*
X65854000Y-73514884D01*
X65858475Y-73530123D01*
X65859865Y-73531328D01*
X65867548Y-73532999D01*
X65897095Y-73532999D01*
X65903614Y-73532662D01*
X65999206Y-73522743D01*
X66012600Y-73519851D01*
X66166784Y-73468412D01*
X66179962Y-73462239D01*
X66317807Y-73376937D01*
X66329208Y-73367901D01*
X66443739Y-73253171D01*
X66452751Y-73241760D01*
X66537816Y-73103757D01*
X66543963Y-73090576D01*
X66595138Y-72936290D01*
X66598005Y-72922914D01*
X66607672Y-72828562D01*
X66608000Y-72822146D01*
X66608000Y-72572115D01*
X66603525Y-72556876D01*
X66602135Y-72555671D01*
X66594452Y-72554000D01*
X65872115Y-72554000D01*
X65856876Y-72558475D01*
X65855671Y-72559865D01*
X65854000Y-72567548D01*
X65854000Y-73514884D01*
X65346000Y-73514884D01*
X65346000Y-72027885D01*
X65854000Y-72027885D01*
X65858475Y-72043124D01*
X65859865Y-72044329D01*
X65867548Y-72046000D01*
X66589884Y-72046000D01*
X66605123Y-72041525D01*
X66606328Y-72040135D01*
X66607999Y-72032452D01*
X66607999Y-71777905D01*
X66607662Y-71771386D01*
X66597743Y-71675794D01*
X66594851Y-71662400D01*
X66543412Y-71508216D01*
X66537239Y-71495038D01*
X66451937Y-71357193D01*
X66442901Y-71345792D01*
X66328171Y-71231261D01*
X66316760Y-71222249D01*
X66178757Y-71137184D01*
X66165576Y-71131037D01*
X66011290Y-71079862D01*
X65997914Y-71076995D01*
X65903562Y-71067328D01*
X65897145Y-71067000D01*
X65872115Y-71067000D01*
X65856876Y-71071475D01*
X65855671Y-71072865D01*
X65854000Y-71080548D01*
X65854000Y-72027885D01*
X65346000Y-72027885D01*
X65346000Y-71085116D01*
X65341525Y-71069877D01*
X65340135Y-71068672D01*
X65332452Y-71067001D01*
X65302905Y-71067001D01*
X65296386Y-71067338D01*
X65200794Y-71077257D01*
X65187400Y-71080149D01*
X65033216Y-71131588D01*
X65020038Y-71137761D01*
X64882193Y-71223063D01*
X64870792Y-71232099D01*
X64756262Y-71346828D01*
X64749206Y-71355762D01*
X64691288Y-71396823D01*
X64620365Y-71400053D01*
X64558954Y-71364426D01*
X64552154Y-71356593D01*
X64548478Y-71350652D01*
X64423303Y-71225695D01*
X64417069Y-71221852D01*
X64380883Y-71199546D01*
X64333390Y-71146774D01*
X64321000Y-71092287D01*
X64321000Y-70289000D01*
X64341002Y-70220879D01*
X64394658Y-70174386D01*
X64447000Y-70163000D01*
X65773733Y-70163000D01*
X65784916Y-70163527D01*
X65792409Y-70165202D01*
X65800335Y-70164953D01*
X65800336Y-70164953D01*
X65860486Y-70163062D01*
X65864445Y-70163000D01*
X65892356Y-70163000D01*
X65896291Y-70162503D01*
X65896356Y-70162495D01*
X65908193Y-70161562D01*
X65940451Y-70160548D01*
X65944470Y-70160422D01*
X65952389Y-70160173D01*
X65971843Y-70154521D01*
X65991200Y-70150513D01*
X66003430Y-70148968D01*
X66003431Y-70148968D01*
X66011297Y-70147974D01*
X66018668Y-70145055D01*
X66018670Y-70145055D01*
X66052412Y-70131696D01*
X66063642Y-70127851D01*
X66098483Y-70117729D01*
X66098484Y-70117729D01*
X66106093Y-70115518D01*
X66112912Y-70111485D01*
X66112917Y-70111483D01*
X66123528Y-70105207D01*
X66141276Y-70096512D01*
X66160117Y-70089052D01*
X66195887Y-70063064D01*
X66205807Y-70056548D01*
X66237035Y-70038080D01*
X66237038Y-70038078D01*
X66243862Y-70034042D01*
X66258183Y-70019721D01*
X66273217Y-70006880D01*
X66283194Y-69999631D01*
X66289607Y-69994972D01*
X66317798Y-69960895D01*
X66325788Y-69952116D01*
X67956247Y-68321657D01*
X67964537Y-68314113D01*
X67971018Y-68310000D01*
X68017659Y-68260332D01*
X68020413Y-68257491D01*
X68040135Y-68237769D01*
X68042612Y-68234576D01*
X68050317Y-68225555D01*
X68080586Y-68193321D01*
X68084407Y-68186371D01*
X68090346Y-68175568D01*
X68101202Y-68159041D01*
X68108757Y-68149302D01*
X68108758Y-68149300D01*
X68113614Y-68143040D01*
X68131174Y-68102460D01*
X68136391Y-68091812D01*
X68153875Y-68060009D01*
X68153876Y-68060007D01*
X68157695Y-68053060D01*
X68162733Y-68033437D01*
X68169137Y-68014734D01*
X68174033Y-68003420D01*
X68174033Y-68003419D01*
X68177181Y-67996145D01*
X68178420Y-67988322D01*
X68178423Y-67988312D01*
X68184099Y-67952476D01*
X68186505Y-67940856D01*
X68195528Y-67905711D01*
X68195528Y-67905710D01*
X68197500Y-67898030D01*
X68197500Y-67877776D01*
X68199051Y-67858065D01*
X68200980Y-67845886D01*
X68202220Y-67838057D01*
X68198059Y-67794038D01*
X68197500Y-67782181D01*
X68197500Y-53686312D01*
X68217502Y-53618191D01*
X68234405Y-53597217D01*
X73485767Y-48345855D01*
X73494057Y-48338311D01*
X73500538Y-48334198D01*
X73547179Y-48284530D01*
X73549933Y-48281689D01*
X73569654Y-48261968D01*
X73572132Y-48258773D01*
X73579838Y-48249751D01*
X73604678Y-48223299D01*
X73610106Y-48217519D01*
X73619866Y-48199766D01*
X73630719Y-48183243D01*
X73638273Y-48173504D01*
X73643133Y-48167239D01*
X73660696Y-48126655D01*
X73665903Y-48116025D01*
X73687215Y-48077258D01*
X73689186Y-48069581D01*
X73689188Y-48069576D01*
X73692252Y-48057640D01*
X73698658Y-48038928D01*
X73703553Y-48027617D01*
X73706701Y-48020343D01*
X73707941Y-48012515D01*
X73707943Y-48012508D01*
X73713619Y-47976674D01*
X73716025Y-47965054D01*
X73725048Y-47929909D01*
X73725048Y-47929908D01*
X73727020Y-47922228D01*
X73727020Y-47901974D01*
X73728571Y-47882263D01*
X73730500Y-47870084D01*
X73731740Y-47862255D01*
X73727579Y-47818236D01*
X73727020Y-47806379D01*
X73727020Y-37874738D01*
X73747022Y-37806617D01*
X73763925Y-37785643D01*
X75145276Y-36404292D01*
X75207588Y-36370266D01*
X75278403Y-36375331D01*
X75335239Y-36417878D01*
X75360050Y-36484398D01*
X75356302Y-36525148D01*
X75349082Y-36552868D01*
X75342898Y-36576607D01*
X75342564Y-36582986D01*
X75336984Y-36689461D01*
X75332707Y-36771064D01*
X75361825Y-36963599D01*
X75364028Y-36969585D01*
X75364029Y-36969591D01*
X75426860Y-37140360D01*
X75426862Y-37140365D01*
X75429063Y-37146346D01*
X75520798Y-37294300D01*
X75539696Y-37362734D01*
X75518594Y-37430522D01*
X75513272Y-37437921D01*
X75477954Y-37483453D01*
X75391982Y-37658171D01*
X75390373Y-37664349D01*
X75390372Y-37664351D01*
X75353315Y-37806617D01*
X75342898Y-37846607D01*
X75342564Y-37852986D01*
X75333433Y-38027217D01*
X75332707Y-38041064D01*
X75361825Y-38233599D01*
X75364028Y-38239585D01*
X75364029Y-38239591D01*
X75426860Y-38410360D01*
X75426862Y-38410365D01*
X75429063Y-38416346D01*
X75520798Y-38564300D01*
X75539696Y-38632734D01*
X75518594Y-38700522D01*
X75513272Y-38707921D01*
X75477954Y-38753453D01*
X75391982Y-38928171D01*
X75390373Y-38934349D01*
X75390372Y-38934351D01*
X75355869Y-39066812D01*
X75342898Y-39116607D01*
X75332707Y-39311064D01*
X75361825Y-39503599D01*
X75364028Y-39509585D01*
X75364029Y-39509591D01*
X75426860Y-39680360D01*
X75426862Y-39680365D01*
X75429063Y-39686346D01*
X75520798Y-39834300D01*
X75539696Y-39902734D01*
X75518594Y-39970522D01*
X75513272Y-39977921D01*
X75477954Y-40023453D01*
X75391982Y-40198171D01*
X75390373Y-40204349D01*
X75390372Y-40204351D01*
X75368477Y-40288409D01*
X75342898Y-40386607D01*
X75338496Y-40470597D01*
X75334185Y-40552868D01*
X75332707Y-40581064D01*
X75361825Y-40773599D01*
X75364028Y-40779585D01*
X75364029Y-40779591D01*
X75426860Y-40950360D01*
X75426862Y-40950365D01*
X75429063Y-40956346D01*
X75520798Y-41104300D01*
X75539696Y-41172734D01*
X75518594Y-41240522D01*
X75513272Y-41247921D01*
X75477954Y-41293453D01*
X75391982Y-41468171D01*
X75390373Y-41474349D01*
X75390372Y-41474351D01*
X75364937Y-41572000D01*
X75342898Y-41656607D01*
X75332707Y-41851064D01*
X75361825Y-42043599D01*
X75364028Y-42049585D01*
X75364029Y-42049591D01*
X75426860Y-42220360D01*
X75426862Y-42220365D01*
X75429063Y-42226346D01*
X75520798Y-42374300D01*
X75539696Y-42442734D01*
X75518594Y-42510522D01*
X75513272Y-42517921D01*
X75477954Y-42563453D01*
X75391982Y-42738171D01*
X75390373Y-42744349D01*
X75390372Y-42744351D01*
X75368477Y-42828409D01*
X75342898Y-42926607D01*
X75339265Y-42995933D01*
X75334792Y-43081285D01*
X75332707Y-43121064D01*
X75361825Y-43313599D01*
X75364028Y-43319585D01*
X75364029Y-43319591D01*
X75426860Y-43490360D01*
X75426862Y-43490365D01*
X75429063Y-43496346D01*
X75520798Y-43644300D01*
X75539696Y-43712734D01*
X75518594Y-43780522D01*
X75513272Y-43787921D01*
X75477954Y-43833453D01*
X75391982Y-44008171D01*
X75390373Y-44014349D01*
X75390372Y-44014351D01*
X75368477Y-44098409D01*
X75342898Y-44196607D01*
X75332707Y-44391064D01*
X75361825Y-44583599D01*
X75364028Y-44589585D01*
X75364029Y-44589591D01*
X75426860Y-44760360D01*
X75426862Y-44760365D01*
X75429063Y-44766346D01*
X75520798Y-44914300D01*
X75539696Y-44982734D01*
X75518594Y-45050522D01*
X75513272Y-45057921D01*
X75477954Y-45103453D01*
X75391982Y-45278171D01*
X75390373Y-45284349D01*
X75390372Y-45284351D01*
X75346096Y-45454331D01*
X75342898Y-45466607D01*
X75338496Y-45550597D01*
X75333114Y-45653301D01*
X75332707Y-45661064D01*
X75361825Y-45853599D01*
X75364028Y-45859585D01*
X75364029Y-45859591D01*
X75426860Y-46030360D01*
X75426862Y-46030365D01*
X75429063Y-46036346D01*
X75520798Y-46184300D01*
X75539696Y-46252734D01*
X75518594Y-46320522D01*
X75513272Y-46327921D01*
X75477954Y-46373453D01*
X75391982Y-46548171D01*
X75390373Y-46554349D01*
X75390372Y-46554351D01*
X75355806Y-46687054D01*
X75342898Y-46736607D01*
X75334214Y-46902324D01*
X75334170Y-46903156D01*
X75310631Y-46970137D01*
X75297438Y-46985657D01*
X70727747Y-51555348D01*
X70719461Y-51562888D01*
X70712982Y-51567000D01*
X70707557Y-51572777D01*
X70666357Y-51616651D01*
X70663602Y-51619493D01*
X70643865Y-51639230D01*
X70641385Y-51642427D01*
X70633682Y-51651447D01*
X70603414Y-51683679D01*
X70599595Y-51690625D01*
X70599593Y-51690628D01*
X70593652Y-51701434D01*
X70582801Y-51717953D01*
X70570386Y-51733959D01*
X70567241Y-51741228D01*
X70567238Y-51741232D01*
X70552826Y-51774537D01*
X70547609Y-51785187D01*
X70526305Y-51823940D01*
X70524334Y-51831615D01*
X70524334Y-51831616D01*
X70521267Y-51843562D01*
X70514863Y-51862266D01*
X70506819Y-51880855D01*
X70505580Y-51888678D01*
X70505577Y-51888688D01*
X70499901Y-51924524D01*
X70497495Y-51936144D01*
X70493086Y-51953317D01*
X70486500Y-51978970D01*
X70486500Y-51999224D01*
X70484949Y-52018934D01*
X70481780Y-52038943D01*
X70485378Y-52077000D01*
X70485941Y-52082961D01*
X70486500Y-52094819D01*
X70486500Y-96195406D01*
X70466498Y-96263527D01*
X70449595Y-96284501D01*
X58129500Y-108604595D01*
X58067188Y-108638621D01*
X58040405Y-108641500D01*
X55431866Y-108641500D01*
X55369684Y-108648255D01*
X55233295Y-108699385D01*
X55116739Y-108786739D01*
X55029385Y-108903295D01*
X54978255Y-109039684D01*
X54971500Y-109101866D01*
X54971500Y-112198134D01*
X51308000Y-112198134D01*
X51308000Y-102255186D01*
X53859960Y-102255186D01*
X53867418Y-102265554D01*
X54082662Y-102439854D01*
X54087984Y-102443721D01*
X54390823Y-102640387D01*
X54396532Y-102643683D01*
X54718275Y-102807620D01*
X54724286Y-102810296D01*
X55061395Y-102939700D01*
X55067672Y-102941740D01*
X55416463Y-103035198D01*
X55422901Y-103036567D01*
X55779560Y-103093055D01*
X55786104Y-103093743D01*
X56146699Y-103112641D01*
X56153301Y-103112641D01*
X56513896Y-103093743D01*
X56520440Y-103093055D01*
X56877099Y-103036567D01*
X56883537Y-103035198D01*
X57232328Y-102941740D01*
X57238605Y-102939700D01*
X57575714Y-102810296D01*
X57581725Y-102807620D01*
X57903468Y-102643683D01*
X57909177Y-102640387D01*
X58212016Y-102443721D01*
X58217338Y-102439854D01*
X58431634Y-102266322D01*
X58440100Y-102254067D01*
X58433766Y-102242976D01*
X56162812Y-99972022D01*
X56148868Y-99964408D01*
X56147035Y-99964539D01*
X56140420Y-99968790D01*
X53867100Y-102242110D01*
X53859960Y-102255186D01*
X51308000Y-102255186D01*
X51308000Y-99603301D01*
X52637359Y-99603301D01*
X52656257Y-99963896D01*
X52656945Y-99970440D01*
X52713433Y-100327099D01*
X52714802Y-100333537D01*
X52808260Y-100682328D01*
X52810300Y-100688605D01*
X52939704Y-101025714D01*
X52942380Y-101031725D01*
X53106317Y-101353468D01*
X53109613Y-101359177D01*
X53306279Y-101662016D01*
X53310146Y-101667338D01*
X53483678Y-101881634D01*
X53495933Y-101890100D01*
X53507024Y-101883766D01*
X55777978Y-99612812D01*
X55784356Y-99601132D01*
X56514408Y-99601132D01*
X56514539Y-99602965D01*
X56518790Y-99609580D01*
X58792110Y-101882900D01*
X58805186Y-101890040D01*
X58815554Y-101882582D01*
X58989854Y-101667338D01*
X58993721Y-101662016D01*
X59190387Y-101359177D01*
X59193683Y-101353468D01*
X59357620Y-101031725D01*
X59360296Y-101025714D01*
X59489700Y-100688605D01*
X59491740Y-100682328D01*
X59585198Y-100333537D01*
X59586567Y-100327099D01*
X59643055Y-99970440D01*
X59643743Y-99963896D01*
X59662641Y-99603301D01*
X59662641Y-99596699D01*
X59643743Y-99236104D01*
X59643055Y-99229560D01*
X59586567Y-98872901D01*
X59585198Y-98866463D01*
X59491740Y-98517672D01*
X59489700Y-98511395D01*
X59360296Y-98174286D01*
X59357620Y-98168275D01*
X59193683Y-97846532D01*
X59190387Y-97840823D01*
X58993721Y-97537984D01*
X58989854Y-97532662D01*
X58816322Y-97318366D01*
X58804067Y-97309900D01*
X58792976Y-97316234D01*
X56522022Y-99587188D01*
X56514408Y-99601132D01*
X55784356Y-99601132D01*
X55785592Y-99598868D01*
X55785461Y-99597035D01*
X55781210Y-99590420D01*
X53507890Y-97317100D01*
X53494814Y-97309960D01*
X53484446Y-97317418D01*
X53310146Y-97532662D01*
X53306279Y-97537984D01*
X53109613Y-97840823D01*
X53106317Y-97846532D01*
X52942380Y-98168275D01*
X52939704Y-98174286D01*
X52810300Y-98511395D01*
X52808260Y-98517672D01*
X52714802Y-98866463D01*
X52713433Y-98872901D01*
X52656945Y-99229560D01*
X52656257Y-99236104D01*
X52637359Y-99596699D01*
X52637359Y-99603301D01*
X51308000Y-99603301D01*
X51308000Y-96945933D01*
X53859900Y-96945933D01*
X53866234Y-96957024D01*
X56137188Y-99227978D01*
X56151132Y-99235592D01*
X56152965Y-99235461D01*
X56159580Y-99231210D01*
X58432900Y-96957890D01*
X58440040Y-96944814D01*
X58432582Y-96934446D01*
X58217338Y-96760146D01*
X58212016Y-96756279D01*
X57909177Y-96559613D01*
X57903468Y-96556317D01*
X57581725Y-96392380D01*
X57575714Y-96389704D01*
X57238605Y-96260300D01*
X57232328Y-96258260D01*
X56883537Y-96164802D01*
X56877099Y-96163433D01*
X56520440Y-96106945D01*
X56513896Y-96106257D01*
X56153301Y-96087359D01*
X56146699Y-96087359D01*
X55786104Y-96106257D01*
X55779560Y-96106945D01*
X55422901Y-96163433D01*
X55416463Y-96164802D01*
X55067672Y-96258260D01*
X55061395Y-96260300D01*
X54724286Y-96389704D01*
X54718275Y-96392380D01*
X54396532Y-96556317D01*
X54390823Y-96559613D01*
X54087984Y-96756279D01*
X54082662Y-96760146D01*
X53868366Y-96933678D01*
X53859900Y-96945933D01*
X51308000Y-96945933D01*
X51308000Y-61144669D01*
X55642001Y-61144669D01*
X55642371Y-61151490D01*
X55647895Y-61202352D01*
X55651521Y-61217604D01*
X55696676Y-61338054D01*
X55705214Y-61353649D01*
X55781715Y-61455724D01*
X55794276Y-61468285D01*
X55896351Y-61544786D01*
X55911946Y-61553324D01*
X56032394Y-61598478D01*
X56047649Y-61602105D01*
X56098514Y-61607631D01*
X56105328Y-61608000D01*
X56377885Y-61608000D01*
X56393124Y-61603525D01*
X56394329Y-61602135D01*
X56396000Y-61594452D01*
X56396000Y-60922115D01*
X56391525Y-60906876D01*
X56390135Y-60905671D01*
X56382452Y-60904000D01*
X55660116Y-60904000D01*
X55644877Y-60908475D01*
X55643672Y-60909865D01*
X55642001Y-60917548D01*
X55642001Y-61144669D01*
X51308000Y-61144669D01*
X51308000Y-60377885D01*
X55642000Y-60377885D01*
X55646475Y-60393124D01*
X55647865Y-60394329D01*
X55655548Y-60396000D01*
X56377885Y-60396000D01*
X56393124Y-60391525D01*
X56394329Y-60390135D01*
X56396000Y-60382452D01*
X56396000Y-59710116D01*
X56391525Y-59694877D01*
X56390135Y-59693672D01*
X56382452Y-59692001D01*
X56105331Y-59692001D01*
X56098510Y-59692371D01*
X56047648Y-59697895D01*
X56032396Y-59701521D01*
X55911946Y-59746676D01*
X55896351Y-59755214D01*
X55794276Y-59831715D01*
X55781715Y-59844276D01*
X55705214Y-59946351D01*
X55696676Y-59961946D01*
X55651522Y-60082394D01*
X55647895Y-60097649D01*
X55642369Y-60148514D01*
X55642000Y-60155328D01*
X55642000Y-60377885D01*
X51308000Y-60377885D01*
X51308000Y-57044669D01*
X55642001Y-57044669D01*
X55642371Y-57051490D01*
X55647895Y-57102352D01*
X55651521Y-57117604D01*
X55696676Y-57238054D01*
X55705214Y-57253649D01*
X55781715Y-57355724D01*
X55794276Y-57368285D01*
X55896351Y-57444786D01*
X55911946Y-57453324D01*
X56032394Y-57498478D01*
X56047649Y-57502105D01*
X56098514Y-57507631D01*
X56105328Y-57508000D01*
X56377885Y-57508000D01*
X56393124Y-57503525D01*
X56394329Y-57502135D01*
X56396000Y-57494452D01*
X56396000Y-56822115D01*
X56391525Y-56806876D01*
X56390135Y-56805671D01*
X56382452Y-56804000D01*
X55660116Y-56804000D01*
X55644877Y-56808475D01*
X55643672Y-56809865D01*
X55642001Y-56817548D01*
X55642001Y-57044669D01*
X51308000Y-57044669D01*
X51308000Y-56277885D01*
X55642000Y-56277885D01*
X55646475Y-56293124D01*
X55647865Y-56294329D01*
X55655548Y-56296000D01*
X56377885Y-56296000D01*
X56393124Y-56291525D01*
X56394329Y-56290135D01*
X56396000Y-56282452D01*
X56396000Y-55610116D01*
X56391525Y-55594877D01*
X56390135Y-55593672D01*
X56382452Y-55592001D01*
X56105331Y-55592001D01*
X56098510Y-55592371D01*
X56047648Y-55597895D01*
X56032396Y-55601521D01*
X55911946Y-55646676D01*
X55896351Y-55655214D01*
X55794276Y-55731715D01*
X55781715Y-55744276D01*
X55705214Y-55846351D01*
X55696676Y-55861946D01*
X55651522Y-55982394D01*
X55647895Y-55997649D01*
X55642369Y-56048514D01*
X55642000Y-56055328D01*
X55642000Y-56277885D01*
X51308000Y-56277885D01*
X51308000Y-48305186D01*
X53859960Y-48305186D01*
X53867418Y-48315554D01*
X54082662Y-48489854D01*
X54087984Y-48493721D01*
X54390823Y-48690387D01*
X54396532Y-48693683D01*
X54718275Y-48857620D01*
X54724286Y-48860296D01*
X55061395Y-48989700D01*
X55067672Y-48991740D01*
X55416463Y-49085198D01*
X55422901Y-49086567D01*
X55779560Y-49143055D01*
X55786104Y-49143743D01*
X56146699Y-49162641D01*
X56153301Y-49162641D01*
X56513896Y-49143743D01*
X56520440Y-49143055D01*
X56877099Y-49086567D01*
X56883537Y-49085198D01*
X57232328Y-48991740D01*
X57238605Y-48989700D01*
X57575714Y-48860296D01*
X57581725Y-48857620D01*
X57903468Y-48693683D01*
X57909177Y-48690387D01*
X58212016Y-48493721D01*
X58217338Y-48489854D01*
X58431634Y-48316322D01*
X58440100Y-48304067D01*
X58433766Y-48292976D01*
X56162812Y-46022022D01*
X56148868Y-46014408D01*
X56147035Y-46014539D01*
X56140420Y-46018790D01*
X53867100Y-48292110D01*
X53859960Y-48305186D01*
X51308000Y-48305186D01*
X51308000Y-45653301D01*
X52637359Y-45653301D01*
X52656257Y-46013896D01*
X52656945Y-46020440D01*
X52713433Y-46377099D01*
X52714802Y-46383537D01*
X52808260Y-46732328D01*
X52810300Y-46738605D01*
X52939704Y-47075714D01*
X52942380Y-47081725D01*
X53106317Y-47403468D01*
X53109613Y-47409177D01*
X53306279Y-47712016D01*
X53310146Y-47717338D01*
X53483678Y-47931634D01*
X53495933Y-47940100D01*
X53507024Y-47933766D01*
X55777978Y-45662812D01*
X55784356Y-45651132D01*
X56514408Y-45651132D01*
X56514539Y-45652965D01*
X56518790Y-45659580D01*
X58792110Y-47932900D01*
X58805186Y-47940040D01*
X58815554Y-47932582D01*
X58989854Y-47717338D01*
X58993721Y-47712016D01*
X59038106Y-47643669D01*
X61811001Y-47643669D01*
X61811371Y-47650490D01*
X61816895Y-47701352D01*
X61820521Y-47716604D01*
X61865676Y-47837054D01*
X61874214Y-47852649D01*
X61950715Y-47954724D01*
X61963276Y-47967285D01*
X62065351Y-48043786D01*
X62080946Y-48052324D01*
X62201394Y-48097478D01*
X62216649Y-48101105D01*
X62267514Y-48106631D01*
X62274328Y-48107000D01*
X63121885Y-48107000D01*
X63137124Y-48102525D01*
X63138329Y-48101135D01*
X63140000Y-48093452D01*
X63140000Y-48088884D01*
X63648000Y-48088884D01*
X63652475Y-48104123D01*
X63653865Y-48105328D01*
X63661548Y-48106999D01*
X64513669Y-48106999D01*
X64520490Y-48106629D01*
X64571352Y-48101105D01*
X64586604Y-48097479D01*
X64707054Y-48052324D01*
X64722649Y-48043786D01*
X64824724Y-47967285D01*
X64837285Y-47954724D01*
X64913786Y-47852649D01*
X64922324Y-47837054D01*
X64967478Y-47716606D01*
X64971105Y-47701351D01*
X64976631Y-47650486D01*
X64977000Y-47643672D01*
X64977000Y-46493669D01*
X67611001Y-46493669D01*
X67611371Y-46500490D01*
X67616895Y-46551352D01*
X67620521Y-46566604D01*
X67665676Y-46687054D01*
X67674214Y-46702649D01*
X67750715Y-46804724D01*
X67763276Y-46817285D01*
X67865351Y-46893786D01*
X67880946Y-46902324D01*
X68001394Y-46947478D01*
X68016649Y-46951105D01*
X68067514Y-46956631D01*
X68074328Y-46957000D01*
X68921885Y-46957000D01*
X68937124Y-46952525D01*
X68938329Y-46951135D01*
X68940000Y-46943452D01*
X68940000Y-46246115D01*
X68935525Y-46230876D01*
X68934135Y-46229671D01*
X68926452Y-46228000D01*
X67629116Y-46228000D01*
X67613877Y-46232475D01*
X67612672Y-46233865D01*
X67611001Y-46241548D01*
X67611001Y-46493669D01*
X64977000Y-46493669D01*
X64977000Y-46246115D01*
X64972525Y-46230876D01*
X64971135Y-46229671D01*
X64963452Y-46228000D01*
X63666115Y-46228000D01*
X63650876Y-46232475D01*
X63649671Y-46233865D01*
X63648000Y-46241548D01*
X63648000Y-48088884D01*
X63140000Y-48088884D01*
X63140000Y-46246115D01*
X63135525Y-46230876D01*
X63134135Y-46229671D01*
X63126452Y-46228000D01*
X61829116Y-46228000D01*
X61813877Y-46232475D01*
X61812672Y-46233865D01*
X61811001Y-46241548D01*
X61811001Y-47643669D01*
X59038106Y-47643669D01*
X59190387Y-47409177D01*
X59193683Y-47403468D01*
X59357620Y-47081725D01*
X59360296Y-47075714D01*
X59489700Y-46738605D01*
X59491740Y-46732328D01*
X59585198Y-46383537D01*
X59586567Y-46377099D01*
X59643055Y-46020440D01*
X59643743Y-46013896D01*
X59660095Y-45701885D01*
X61811000Y-45701885D01*
X61815475Y-45717124D01*
X61816865Y-45718329D01*
X61824548Y-45720000D01*
X63121885Y-45720000D01*
X63137124Y-45715525D01*
X63138329Y-45714135D01*
X63140000Y-45706452D01*
X63140000Y-45701885D01*
X63648000Y-45701885D01*
X63652475Y-45717124D01*
X63653865Y-45718329D01*
X63661548Y-45720000D01*
X64958884Y-45720000D01*
X64974123Y-45715525D01*
X64975328Y-45714135D01*
X64976999Y-45706452D01*
X64976999Y-45701885D01*
X67611000Y-45701885D01*
X67615475Y-45717124D01*
X67616865Y-45718329D01*
X67624548Y-45720000D01*
X68921885Y-45720000D01*
X68937124Y-45715525D01*
X68938329Y-45714135D01*
X68940000Y-45706452D01*
X68940000Y-45009116D01*
X68935525Y-44993877D01*
X68934135Y-44992672D01*
X68926452Y-44991001D01*
X68074331Y-44991001D01*
X68067510Y-44991371D01*
X68016648Y-44996895D01*
X68001396Y-45000521D01*
X67880946Y-45045676D01*
X67865351Y-45054214D01*
X67763276Y-45130715D01*
X67750715Y-45143276D01*
X67674214Y-45245351D01*
X67665676Y-45260946D01*
X67620522Y-45381394D01*
X67616895Y-45396649D01*
X67611369Y-45447514D01*
X67611000Y-45454328D01*
X67611000Y-45701885D01*
X64976999Y-45701885D01*
X64976999Y-44304331D01*
X64976629Y-44297510D01*
X64971105Y-44246648D01*
X64967479Y-44231396D01*
X64922324Y-44110946D01*
X64913786Y-44095351D01*
X64837285Y-43993276D01*
X64824724Y-43980715D01*
X64722649Y-43904214D01*
X64707054Y-43895676D01*
X64586606Y-43850522D01*
X64571351Y-43846895D01*
X64520486Y-43841369D01*
X64513672Y-43841000D01*
X63666115Y-43841000D01*
X63650876Y-43845475D01*
X63649671Y-43846865D01*
X63648000Y-43854548D01*
X63648000Y-45701885D01*
X63140000Y-45701885D01*
X63140000Y-43859116D01*
X63135525Y-43843877D01*
X63134135Y-43842672D01*
X63126452Y-43841001D01*
X62274331Y-43841001D01*
X62267510Y-43841371D01*
X62216648Y-43846895D01*
X62201396Y-43850521D01*
X62080946Y-43895676D01*
X62065351Y-43904214D01*
X61963276Y-43980715D01*
X61950715Y-43993276D01*
X61874214Y-44095351D01*
X61865676Y-44110946D01*
X61820522Y-44231394D01*
X61816895Y-44246649D01*
X61811369Y-44297514D01*
X61811000Y-44304328D01*
X61811000Y-45701885D01*
X59660095Y-45701885D01*
X59662641Y-45653301D01*
X59662641Y-45646699D01*
X59643743Y-45286104D01*
X59643055Y-45279560D01*
X59586567Y-44922901D01*
X59585198Y-44916463D01*
X59491740Y-44567672D01*
X59489700Y-44561395D01*
X59360296Y-44224286D01*
X59357620Y-44218275D01*
X59193683Y-43896532D01*
X59190387Y-43890823D01*
X58993721Y-43587984D01*
X58989854Y-43582662D01*
X58816322Y-43368366D01*
X58804067Y-43359900D01*
X58792976Y-43366234D01*
X56522022Y-45637188D01*
X56514408Y-45651132D01*
X55784356Y-45651132D01*
X55785592Y-45648868D01*
X55785461Y-45647035D01*
X55781210Y-45640420D01*
X53507890Y-43367100D01*
X53494814Y-43359960D01*
X53484446Y-43367418D01*
X53310146Y-43582662D01*
X53306279Y-43587984D01*
X53109613Y-43890823D01*
X53106317Y-43896532D01*
X52942380Y-44218275D01*
X52939704Y-44224286D01*
X52810300Y-44561395D01*
X52808260Y-44567672D01*
X52714802Y-44916463D01*
X52713433Y-44922901D01*
X52656945Y-45279560D01*
X52656257Y-45286104D01*
X52637359Y-45646699D01*
X52637359Y-45653301D01*
X51308000Y-45653301D01*
X51308000Y-42995933D01*
X53859900Y-42995933D01*
X53866234Y-43007024D01*
X56137188Y-45277978D01*
X56151132Y-45285592D01*
X56152965Y-45285461D01*
X56159580Y-45281210D01*
X58432900Y-43007890D01*
X58440040Y-42994814D01*
X58432582Y-42984446D01*
X58217338Y-42810146D01*
X58212016Y-42806279D01*
X57909177Y-42609613D01*
X57903468Y-42606317D01*
X57581725Y-42442380D01*
X57575714Y-42439704D01*
X57238605Y-42310300D01*
X57232328Y-42308260D01*
X56883537Y-42214802D01*
X56877099Y-42213433D01*
X56520440Y-42156945D01*
X56513896Y-42156257D01*
X56153301Y-42137359D01*
X56146699Y-42137359D01*
X55786104Y-42156257D01*
X55779560Y-42156945D01*
X55422901Y-42213433D01*
X55416463Y-42214802D01*
X55067672Y-42308260D01*
X55061395Y-42310300D01*
X54724286Y-42439704D01*
X54718275Y-42442380D01*
X54396532Y-42606317D01*
X54390823Y-42609613D01*
X54087984Y-42806279D01*
X54082662Y-42810146D01*
X53868366Y-42983678D01*
X53859900Y-42995933D01*
X51308000Y-42995933D01*
X51308000Y-35879654D01*
X52849618Y-35879654D01*
X52856673Y-35889627D01*
X52887679Y-35915551D01*
X52894598Y-35920579D01*
X53119272Y-36061515D01*
X53126807Y-36065556D01*
X53368520Y-36174694D01*
X53376551Y-36177680D01*
X53630832Y-36253002D01*
X53639184Y-36254869D01*
X53901340Y-36294984D01*
X53909874Y-36295700D01*
X54175045Y-36299867D01*
X54183596Y-36299418D01*
X54446883Y-36267557D01*
X54455284Y-36265955D01*
X54711824Y-36198653D01*
X54719926Y-36195926D01*
X54964949Y-36094434D01*
X54972617Y-36090628D01*
X55201598Y-35956822D01*
X55208679Y-35952009D01*
X55288655Y-35889301D01*
X55297125Y-35877442D01*
X55290608Y-35865818D01*
X55262924Y-35838134D01*
X57145500Y-35838134D01*
X57152255Y-35900316D01*
X57203385Y-36036705D01*
X57290739Y-36153261D01*
X57407295Y-36240615D01*
X57543684Y-36291745D01*
X57605866Y-36298500D01*
X60702134Y-36298500D01*
X60764316Y-36291745D01*
X60771711Y-36288973D01*
X60771718Y-36288971D01*
X60798565Y-36278906D01*
X60869372Y-36273723D01*
X60931889Y-36307793D01*
X67586656Y-42962561D01*
X67620682Y-43024873D01*
X67620143Y-43080805D01*
X67620029Y-43081284D01*
X67617255Y-43088684D01*
X67610500Y-43150866D01*
X67610500Y-44197134D01*
X67617255Y-44259316D01*
X67668385Y-44395705D01*
X67755739Y-44512261D01*
X67872295Y-44599615D01*
X68008684Y-44650745D01*
X68070866Y-44657500D01*
X70317134Y-44657500D01*
X70379316Y-44650745D01*
X70515705Y-44599615D01*
X70632261Y-44512261D01*
X70719615Y-44395705D01*
X70770745Y-44259316D01*
X70777500Y-44197134D01*
X70777500Y-43150866D01*
X70770745Y-43088684D01*
X70719615Y-42952295D01*
X70632261Y-42835739D01*
X70515705Y-42748385D01*
X70379316Y-42697255D01*
X70317134Y-42690500D01*
X69158594Y-42690500D01*
X69090473Y-42670498D01*
X69069499Y-42653595D01*
X62295559Y-35879654D01*
X63799618Y-35879654D01*
X63806673Y-35889627D01*
X63837679Y-35915551D01*
X63844598Y-35920579D01*
X64069272Y-36061515D01*
X64076807Y-36065556D01*
X64318520Y-36174694D01*
X64326551Y-36177680D01*
X64580832Y-36253002D01*
X64589184Y-36254869D01*
X64851340Y-36294984D01*
X64859874Y-36295700D01*
X65125045Y-36299867D01*
X65133596Y-36299418D01*
X65396883Y-36267557D01*
X65405284Y-36265955D01*
X65661824Y-36198653D01*
X65669926Y-36195926D01*
X65914949Y-36094434D01*
X65922617Y-36090628D01*
X66151598Y-35956822D01*
X66158679Y-35952009D01*
X66238655Y-35889301D01*
X66247125Y-35877442D01*
X66240608Y-35865818D01*
X65036812Y-34662022D01*
X65022868Y-34654408D01*
X65021035Y-34654539D01*
X65014420Y-34658790D01*
X63806910Y-35866300D01*
X63799618Y-35879654D01*
X62295559Y-35879654D01*
X61199405Y-34783500D01*
X61165379Y-34721188D01*
X61162500Y-34694405D01*
X61162500Y-34273204D01*
X63011665Y-34273204D01*
X63026932Y-34537969D01*
X63028005Y-34546470D01*
X63079065Y-34806722D01*
X63081276Y-34814974D01*
X63167184Y-35065894D01*
X63170499Y-35073779D01*
X63289664Y-35310713D01*
X63294020Y-35318079D01*
X63423347Y-35506250D01*
X63433601Y-35514594D01*
X63447342Y-35507448D01*
X64651978Y-34302812D01*
X64658356Y-34291132D01*
X65388408Y-34291132D01*
X65388539Y-34292965D01*
X65392790Y-34299580D01*
X66599730Y-35506520D01*
X66611939Y-35513187D01*
X66623439Y-35504497D01*
X66720831Y-35371913D01*
X66725418Y-35364685D01*
X66851962Y-35131621D01*
X66855530Y-35123827D01*
X66949271Y-34875750D01*
X66951748Y-34867544D01*
X67010954Y-34609038D01*
X67012294Y-34600577D01*
X67036031Y-34334616D01*
X67036277Y-34329677D01*
X67036666Y-34292485D01*
X67036523Y-34287519D01*
X67018362Y-34021123D01*
X67017201Y-34012649D01*
X66963419Y-33752944D01*
X66961120Y-33744709D01*
X66872588Y-33494705D01*
X66869191Y-33486854D01*
X66747550Y-33251178D01*
X66743122Y-33243866D01*
X66624031Y-33074417D01*
X66613509Y-33066037D01*
X66600121Y-33073089D01*
X65396022Y-34277188D01*
X65388408Y-34291132D01*
X64658356Y-34291132D01*
X64659592Y-34288868D01*
X64659461Y-34287035D01*
X64655210Y-34280420D01*
X63447814Y-33073024D01*
X63435804Y-33066466D01*
X63424064Y-33075434D01*
X63315935Y-33225911D01*
X63311418Y-33233196D01*
X63187325Y-33467567D01*
X63183839Y-33475395D01*
X63092700Y-33724446D01*
X63090311Y-33732670D01*
X63033812Y-33991795D01*
X63032563Y-34000250D01*
X63011754Y-34264653D01*
X63011665Y-34273204D01*
X61162500Y-34273204D01*
X61162500Y-32741866D01*
X61158224Y-32702500D01*
X63800584Y-32702500D01*
X63806980Y-32713770D01*
X65011188Y-33917978D01*
X65025132Y-33925592D01*
X65026965Y-33925461D01*
X65033580Y-33921210D01*
X66240604Y-32714186D01*
X66247795Y-32701017D01*
X66240473Y-32690780D01*
X66193233Y-32652115D01*
X66186261Y-32647160D01*
X65960122Y-32508582D01*
X65952552Y-32504624D01*
X65709704Y-32398022D01*
X65701644Y-32395120D01*
X65446592Y-32322467D01*
X65438214Y-32320685D01*
X65175656Y-32283318D01*
X65167111Y-32282691D01*
X64901908Y-32281302D01*
X64893374Y-32281839D01*
X64630433Y-32316456D01*
X64622035Y-32318149D01*
X64366238Y-32388127D01*
X64358143Y-32390946D01*
X64114199Y-32494997D01*
X64106577Y-32498881D01*
X63879013Y-32635075D01*
X63871981Y-32639962D01*
X63809053Y-32690377D01*
X63800584Y-32702500D01*
X61158224Y-32702500D01*
X61155745Y-32679684D01*
X61104615Y-32543295D01*
X61017261Y-32426739D01*
X60900705Y-32339385D01*
X60764316Y-32288255D01*
X60702134Y-32281500D01*
X57605866Y-32281500D01*
X57543684Y-32288255D01*
X57407295Y-32339385D01*
X57290739Y-32426739D01*
X57203385Y-32543295D01*
X57152255Y-32679684D01*
X57145500Y-32741866D01*
X57145500Y-35838134D01*
X55262924Y-35838134D01*
X54086812Y-34662022D01*
X54072868Y-34654408D01*
X54071035Y-34654539D01*
X54064420Y-34658790D01*
X52856910Y-35866300D01*
X52849618Y-35879654D01*
X51308000Y-35879654D01*
X51308000Y-34273204D01*
X52061665Y-34273204D01*
X52076932Y-34537969D01*
X52078005Y-34546470D01*
X52129065Y-34806722D01*
X52131276Y-34814974D01*
X52217184Y-35065894D01*
X52220499Y-35073779D01*
X52339664Y-35310713D01*
X52344020Y-35318079D01*
X52473347Y-35506250D01*
X52483601Y-35514594D01*
X52497342Y-35507448D01*
X53701978Y-34302812D01*
X53708356Y-34291132D01*
X54438408Y-34291132D01*
X54438539Y-34292965D01*
X54442790Y-34299580D01*
X55649730Y-35506520D01*
X55661939Y-35513187D01*
X55673439Y-35504497D01*
X55770831Y-35371913D01*
X55775418Y-35364685D01*
X55901962Y-35131621D01*
X55905530Y-35123827D01*
X55999271Y-34875750D01*
X56001748Y-34867544D01*
X56060954Y-34609038D01*
X56062294Y-34600577D01*
X56086031Y-34334616D01*
X56086277Y-34329677D01*
X56086666Y-34292485D01*
X56086523Y-34287519D01*
X56068362Y-34021123D01*
X56067201Y-34012649D01*
X56013419Y-33752944D01*
X56011120Y-33744709D01*
X55922588Y-33494705D01*
X55919191Y-33486854D01*
X55797550Y-33251178D01*
X55793122Y-33243866D01*
X55674031Y-33074417D01*
X55663509Y-33066037D01*
X55650121Y-33073089D01*
X54446022Y-34277188D01*
X54438408Y-34291132D01*
X53708356Y-34291132D01*
X53709592Y-34288868D01*
X53709461Y-34287035D01*
X53705210Y-34280420D01*
X52497814Y-33073024D01*
X52485804Y-33066466D01*
X52474064Y-33075434D01*
X52365935Y-33225911D01*
X52361418Y-33233196D01*
X52237325Y-33467567D01*
X52233839Y-33475395D01*
X52142700Y-33724446D01*
X52140311Y-33732670D01*
X52083812Y-33991795D01*
X52082563Y-34000250D01*
X52061754Y-34264653D01*
X52061665Y-34273204D01*
X51308000Y-34273204D01*
X51308000Y-32702500D01*
X52850584Y-32702500D01*
X52856980Y-32713770D01*
X54061188Y-33917978D01*
X54075132Y-33925592D01*
X54076965Y-33925461D01*
X54083580Y-33921210D01*
X55290604Y-32714186D01*
X55297795Y-32701017D01*
X55290473Y-32690780D01*
X55243233Y-32652115D01*
X55236261Y-32647160D01*
X55010122Y-32508582D01*
X55002552Y-32504624D01*
X54759704Y-32398022D01*
X54751644Y-32395120D01*
X54496592Y-32322467D01*
X54488214Y-32320685D01*
X54225656Y-32283318D01*
X54217111Y-32282691D01*
X53951908Y-32281302D01*
X53943374Y-32281839D01*
X53680433Y-32316456D01*
X53672035Y-32318149D01*
X53416238Y-32388127D01*
X53408143Y-32390946D01*
X53164199Y-32494997D01*
X53156577Y-32498881D01*
X52929013Y-32635075D01*
X52921981Y-32639962D01*
X52859053Y-32690377D01*
X52850584Y-32702500D01*
X51308000Y-32702500D01*
X51308000Y-30634000D01*
X51328002Y-30565879D01*
X51381658Y-30519386D01*
X51434000Y-30508000D01*
X75892953Y-30508000D01*
X75961074Y-30528002D01*
G37*
G04 #@! TD.AperFunction*
M02*
