G04 #@! TF.GenerationSoftware,KiCad,Pcbnew,(6.0.1)*
G04 #@! TF.CreationDate,2022-04-27T15:55:03+02:00*
G04 #@! TF.ProjectId,PompController_brian,506f6d70-436f-46e7-9472-6f6c6c65725f,rev?*
G04 #@! TF.SameCoordinates,Original*
G04 #@! TF.FileFunction,Soldermask,Bot*
G04 #@! TF.FilePolarity,Negative*
%FSLAX46Y46*%
G04 Gerber Fmt 4.6, Leading zero omitted, Abs format (unit mm)*
G04 Created by KiCad (PCBNEW (6.0.1)) date 2022-04-27 15:55:03*
%MOMM*%
%LPD*%
G01*
G04 APERTURE LIST*
%ADD10R,3.000000X3.000000*%
%ADD11C,3.000000*%
%ADD12C,0.800000*%
%ADD13C,6.000000*%
G04 APERTURE END LIST*
D10*
X89710000Y-110650000D03*
D11*
X94790000Y-110650000D03*
D12*
X56150000Y-43400000D03*
X54559010Y-47240990D03*
X54559010Y-44059010D03*
X53900000Y-45650000D03*
X57740990Y-44059010D03*
D13*
X56150000Y-45650000D03*
D12*
X58400000Y-45650000D03*
X56150000Y-47900000D03*
X57740990Y-47240990D03*
D10*
X78660000Y-110650000D03*
D11*
X83740000Y-110650000D03*
D10*
X59154000Y-34290000D03*
D11*
X54074000Y-34290000D03*
D10*
X70104000Y-34290000D03*
D11*
X65024000Y-34290000D03*
D12*
X85945000Y-40554000D03*
X83945000Y-40554000D03*
X83945000Y-36554000D03*
X84945000Y-38554000D03*
X84945000Y-37554000D03*
X86945000Y-36554000D03*
X83945000Y-37554000D03*
X86945000Y-38554000D03*
X84945000Y-39554000D03*
X86945000Y-40554000D03*
X87945000Y-39554000D03*
X85945000Y-39554000D03*
X87945000Y-37554000D03*
X83945000Y-39554000D03*
X86945000Y-37554000D03*
X84945000Y-40554000D03*
X87945000Y-36554000D03*
X87945000Y-38554000D03*
X86945000Y-39554000D03*
X84945000Y-36554000D03*
X85945000Y-37554000D03*
X85945000Y-38554000D03*
X83945000Y-38554000D03*
X87945000Y-40554000D03*
X85945000Y-36554000D03*
X110350000Y-99600000D03*
D13*
X108100000Y-99600000D03*
D12*
X109690990Y-98009010D03*
X108100000Y-97350000D03*
X109690990Y-101190990D03*
X108100000Y-101850000D03*
X106509010Y-101190990D03*
X106509010Y-98009010D03*
X105850000Y-99600000D03*
D10*
X56980000Y-110650000D03*
D11*
X62060000Y-110650000D03*
X67140000Y-110650000D03*
X72220000Y-110650000D03*
D12*
X110350000Y-45650000D03*
X109690990Y-47240990D03*
X106509010Y-47240990D03*
X106509010Y-44059010D03*
X109690990Y-44059010D03*
X108100000Y-47900000D03*
X105850000Y-45650000D03*
D13*
X108100000Y-45650000D03*
D12*
X108100000Y-43400000D03*
D10*
X100570000Y-110650000D03*
D11*
X105650000Y-110650000D03*
D10*
X109982000Y-34290000D03*
D11*
X104902000Y-34290000D03*
D12*
X56150000Y-97350000D03*
X56150000Y-101850000D03*
X57740990Y-101190990D03*
D13*
X56150000Y-99600000D03*
D12*
X54559010Y-98009010D03*
X54559010Y-101190990D03*
X53900000Y-99600000D03*
X58400000Y-99600000D03*
X57740990Y-98009010D03*
M02*
