<svg version="1.1" xmlns="http://www.w3.org/2000/svg" xmlns:xlink="http://www.w3.org/1999/xlink" stroke-linecap="round" stroke-linejoin="round" stroke-width="0" fill-rule="evenodd" width="72.731286mm" height="95.54838000000001mm" viewBox="39850.714 -119603.38 72731.286 95548.38" id="uX6yo2eh4IUBS-WyztYr"><defs><rect x="-1075" y="-475" width="2150" height="950" id="uX6yo2eh4IUBS-WyztYr_pad-17"/><rect x="-1075" y="-1625" width="2150" height="3250" id="uX6yo2eh4IUBS-WyztYr_pad-18"/><rect x="-1500" y="-1500" width="3000" height="3000" id="uX6yo2eh4IUBS-WyztYr_pad-19"/><circle cx="0" cy="0" r="1500" id="uX6yo2eh4IUBS-WyztYr_pad-20"/><g id="uX6yo2eh4IUBS-WyztYr_pad-21"><polygon points="262.5,450 -262.5,450 -262.5,-450 262.5,-450"/><circle cx="262.5" cy="450" r="250"/><circle cx="-262.5" cy="450" r="250"/><circle cx="-262.5" cy="-450" r="250"/><circle cx="262.5" cy="-450" r="250"/><polygon points="262.5,200 -262.5,200 -262.5,700 262.5,700"/><polygon points="-12.5,450 -12.5,-450 -512.5,-450 -512.5,450"/><polygon points="-262.5,-700 262.5,-700 262.5,-200 -262.5,-200"/><polygon points="512.5,-450 512.5,450 12.5,450 12.5,-450"/></g><rect x="-500" y="-450" width="1000" height="900" id="uX6yo2eh4IUBS-WyztYr_pad-22"/><circle cx="0" cy="0" r="400" id="uX6yo2eh4IUBS-WyztYr_pad-23"/><circle cx="0" cy="0" r="3000" id="uX6yo2eh4IUBS-WyztYr_pad-24"/><g id="uX6yo2eh4IUBS-WyztYr_pad-25"><polygon points="-250,-475 250,-475 250,475 -250,475"/><circle cx="-250" cy="-475" r="250"/><circle cx="250" cy="-475" r="250"/><circle cx="250" cy="475" r="250"/><circle cx="-250" cy="475" r="250"/><polygon points="-250,-725 250,-725 250,-225 -250,-225"/><polygon points="500,-475 500,475 0,475 0,-475"/><polygon points="250,225 -250,225 -250,725 250,725"/><polygon points="0,475 0,-475 -500,-475 -500,475"/></g><g id="uX6yo2eh4IUBS-WyztYr_pad-26"><polygon points="250,475 -250,475 -250,-475 250,-475"/><circle cx="250" cy="475" r="250"/><circle cx="-250" cy="475" r="250"/><circle cx="-250" cy="-475" r="250"/><circle cx="250" cy="-475" r="250"/><polygon points="250,225 -250,225 -250,725 250,725"/><polygon points="0,475 0,-475 -500,-475 -500,475"/><polygon points="-250,-725 250,-725 250,-225 -250,-225"/><polygon points="500,-475 500,475 0,475 0,-475"/></g><rect x="-1500" y="-450" width="3000" height="900" rx="450" ry="450" id="uX6yo2eh4IUBS-WyztYr_pad-27"/><rect x="-2500" y="-2500" width="5000" height="5000" id="uX6yo2eh4IUBS-WyztYr_pad-28"/><rect x="-279.5" y="-362" width="559" height="724" id="uX6yo2eh4IUBS-WyztYr_pad-29"/><mask id="uX6yo2eh4IUBS-WyztYr_clear-1" fill="#000" stroke="#000"><g><rect x="39850.714" y="-119603.38" width="72731.286" height="95548.38" fill="#fff"/><use xlink:href="#uX6yo2eh4IUBS-WyztYr_pad-17" x="69194" y="-48274"/><use xlink:href="#uX6yo2eh4IUBS-WyztYr_pad-17" x="69194" y="-45974"/><use xlink:href="#uX6yo2eh4IUBS-WyztYr_pad-17" x="69194" y="-43674"/><use xlink:href="#uX6yo2eh4IUBS-WyztYr_pad-18" x="63394" y="-45974"/><use xlink:href="#uX6yo2eh4IUBS-WyztYr_pad-19" x="89710" y="-110650"/><use xlink:href="#uX6yo2eh4IUBS-WyztYr_pad-20" x="94790" y="-110650"/><use xlink:href="#uX6yo2eh4IUBS-WyztYr_pad-21" x="65512.5" y="-67600"/><use xlink:href="#uX6yo2eh4IUBS-WyztYr_pad-21" x="63687.5" y="-67600"/><use xlink:href="#uX6yo2eh4IUBS-WyztYr_pad-22" x="56650" y="-56550"/><use xlink:href="#uX6yo2eh4IUBS-WyztYr_pad-22" x="56650" y="-60650"/><use xlink:href="#uX6yo2eh4IUBS-WyztYr_pad-22" x="58250" y="-56550"/><use xlink:href="#uX6yo2eh4IUBS-WyztYr_pad-22" x="58250" y="-60650"/><use xlink:href="#uX6yo2eh4IUBS-WyztYr_pad-21" x="107742.5" y="-64888"/><use xlink:href="#uX6yo2eh4IUBS-WyztYr_pad-21" x="105917.5" y="-64888"/><use xlink:href="#uX6yo2eh4IUBS-WyztYr_pad-23" x="56150" y="-43400"/><use xlink:href="#uX6yo2eh4IUBS-WyztYr_pad-23" x="54559.01" y="-47240.99"/><use xlink:href="#uX6yo2eh4IUBS-WyztYr_pad-23" x="54559.01" y="-44059.01"/><use xlink:href="#uX6yo2eh4IUBS-WyztYr_pad-23" x="53900" y="-45650"/><use xlink:href="#uX6yo2eh4IUBS-WyztYr_pad-23" x="57740.99" y="-44059.01"/><use xlink:href="#uX6yo2eh4IUBS-WyztYr_pad-24" x="56150" y="-45650"/><use xlink:href="#uX6yo2eh4IUBS-WyztYr_pad-23" x="58400" y="-45650"/><use xlink:href="#uX6yo2eh4IUBS-WyztYr_pad-23" x="56150" y="-47900"/><use xlink:href="#uX6yo2eh4IUBS-WyztYr_pad-23" x="57740.99" y="-47240.99"/><use xlink:href="#uX6yo2eh4IUBS-WyztYr_pad-21" x="65512.5" y="-77100"/><use xlink:href="#uX6yo2eh4IUBS-WyztYr_pad-21" x="63687.5" y="-77100"/><use xlink:href="#uX6yo2eh4IUBS-WyztYr_pad-19" x="78660" y="-110650"/><use xlink:href="#uX6yo2eh4IUBS-WyztYr_pad-20" x="83740" y="-110650"/><use xlink:href="#uX6yo2eh4IUBS-WyztYr_pad-19" x="59154" y="-34290"/><use xlink:href="#uX6yo2eh4IUBS-WyztYr_pad-20" x="54074" y="-34290"/><use xlink:href="#uX6yo2eh4IUBS-WyztYr_pad-21" x="102292.5" y="-64938"/><use xlink:href="#uX6yo2eh4IUBS-WyztYr_pad-21" x="100467.5" y="-64938"/><use xlink:href="#uX6yo2eh4IUBS-WyztYr_pad-25" x="63700" y="-72300"/><use xlink:href="#uX6yo2eh4IUBS-WyztYr_pad-25" x="65600" y="-72300"/><use xlink:href="#uX6yo2eh4IUBS-WyztYr_pad-25" x="63750" y="-58450"/><use xlink:href="#uX6yo2eh4IUBS-WyztYr_pad-25" x="65650" y="-58450"/><use xlink:href="#uX6yo2eh4IUBS-WyztYr_pad-26" x="65500" y="-63100"/><use xlink:href="#uX6yo2eh4IUBS-WyztYr_pad-26" x="63600" y="-63100"/><use xlink:href="#uX6yo2eh4IUBS-WyztYr_pad-19" x="70104" y="-34290"/><use xlink:href="#uX6yo2eh4IUBS-WyztYr_pad-20" x="65024" y="-34290"/><use xlink:href="#uX6yo2eh4IUBS-WyztYr_pad-27" x="77345" y="-31644"/><use xlink:href="#uX6yo2eh4IUBS-WyztYr_pad-27" x="77345" y="-32914"/><use xlink:href="#uX6yo2eh4IUBS-WyztYr_pad-27" x="77345" y="-34184"/><use xlink:href="#uX6yo2eh4IUBS-WyztYr_pad-27" x="77345" y="-35454"/><use xlink:href="#uX6yo2eh4IUBS-WyztYr_pad-27" x="77345" y="-36724"/><use xlink:href="#uX6yo2eh4IUBS-WyztYr_pad-27" x="77345" y="-37994"/><use xlink:href="#uX6yo2eh4IUBS-WyztYr_pad-27" x="77345" y="-39264"/><use xlink:href="#uX6yo2eh4IUBS-WyztYr_pad-27" x="77345" y="-40534"/><use xlink:href="#uX6yo2eh4IUBS-WyztYr_pad-27" x="77345" y="-41804"/><use xlink:href="#uX6yo2eh4IUBS-WyztYr_pad-27" x="77345" y="-43074"/><use xlink:href="#uX6yo2eh4IUBS-WyztYr_pad-27" x="77345" y="-44344"/><use xlink:href="#uX6yo2eh4IUBS-WyztYr_pad-27" x="77345" y="-45614"/><use xlink:href="#uX6yo2eh4IUBS-WyztYr_pad-27" x="77345" y="-46884"/><use xlink:href="#uX6yo2eh4IUBS-WyztYr_pad-27" x="77345" y="-48154"/><use xlink:href="#uX6yo2eh4IUBS-WyztYr_pad-27" x="77345" y="-49454"/><use xlink:href="#uX6yo2eh4IUBS-WyztYr_pad-27" x="77345" y="-50724"/><use xlink:href="#uX6yo2eh4IUBS-WyztYr_pad-27" x="77345" y="-51994"/><use xlink:href="#uX6yo2eh4IUBS-WyztYr_pad-27" x="77345" y="-53264"/><use xlink:href="#uX6yo2eh4IUBS-WyztYr_pad-27" x="77345" y="-54534"/><use xlink:href="#uX6yo2eh4IUBS-WyztYr_pad-27" x="95345" y="-54534"/><use xlink:href="#uX6yo2eh4IUBS-WyztYr_pad-27" x="95345" y="-53264"/><use xlink:href="#uX6yo2eh4IUBS-WyztYr_pad-27" x="95345" y="-51994"/><use xlink:href="#uX6yo2eh4IUBS-WyztYr_pad-27" x="95345" y="-50724"/><use xlink:href="#uX6yo2eh4IUBS-WyztYr_pad-27" x="95345" y="-49454"/><use xlink:href="#uX6yo2eh4IUBS-WyztYr_pad-27" x="95375" y="-48154"/><use xlink:href="#uX6yo2eh4IUBS-WyztYr_pad-27" x="95375" y="-46884"/><use xlink:href="#uX6yo2eh4IUBS-WyztYr_pad-27" x="95375" y="-45614"/><use xlink:href="#uX6yo2eh4IUBS-WyztYr_pad-27" x="95375" y="-44344"/><use xlink:href="#uX6yo2eh4IUBS-WyztYr_pad-27" x="95375" y="-43074"/><use xlink:href="#uX6yo2eh4IUBS-WyztYr_pad-27" x="95375" y="-41804"/><use xlink:href="#uX6yo2eh4IUBS-WyztYr_pad-27" x="95375" y="-40534"/><use xlink:href="#uX6yo2eh4IUBS-WyztYr_pad-27" x="95375" y="-39264"/><use xlink:href="#uX6yo2eh4IUBS-WyztYr_pad-27" x="95375" y="-37994"/><use xlink:href="#uX6yo2eh4IUBS-WyztYr_pad-27" x="95375" y="-36724"/><use xlink:href="#uX6yo2eh4IUBS-WyztYr_pad-27" x="95375" y="-35454"/><use xlink:href="#uX6yo2eh4IUBS-WyztYr_pad-27" x="95375" y="-34184"/><use xlink:href="#uX6yo2eh4IUBS-WyztYr_pad-27" x="95375" y="-32914"/><use xlink:href="#uX6yo2eh4IUBS-WyztYr_pad-27" x="95375" y="-31644"/><use xlink:href="#uX6yo2eh4IUBS-WyztYr_pad-23" x="85945" y="-40554"/><use xlink:href="#uX6yo2eh4IUBS-WyztYr_pad-23" x="83945" y="-40554"/><use xlink:href="#uX6yo2eh4IUBS-WyztYr_pad-23" x="83945" y="-36554"/><use xlink:href="#uX6yo2eh4IUBS-WyztYr_pad-23" x="84945" y="-38554"/><use xlink:href="#uX6yo2eh4IUBS-WyztYr_pad-23" x="84945" y="-37554"/><use xlink:href="#uX6yo2eh4IUBS-WyztYr_pad-23" x="86945" y="-36554"/><use xlink:href="#uX6yo2eh4IUBS-WyztYr_pad-23" x="83945" y="-37554"/><use xlink:href="#uX6yo2eh4IUBS-WyztYr_pad-23" x="86945" y="-38554"/><use xlink:href="#uX6yo2eh4IUBS-WyztYr_pad-23" x="84945" y="-39554"/><use xlink:href="#uX6yo2eh4IUBS-WyztYr_pad-28" x="85945" y="-38564"/><use xlink:href="#uX6yo2eh4IUBS-WyztYr_pad-23" x="86945" y="-40554"/><use xlink:href="#uX6yo2eh4IUBS-WyztYr_pad-23" x="87945" y="-39554"/><use xlink:href="#uX6yo2eh4IUBS-WyztYr_pad-23" x="85945" y="-39554"/><use xlink:href="#uX6yo2eh4IUBS-WyztYr_pad-23" x="87945" y="-37554"/><use xlink:href="#uX6yo2eh4IUBS-WyztYr_pad-23" x="83945" y="-39554"/><use xlink:href="#uX6yo2eh4IUBS-WyztYr_pad-23" x="86945" y="-37554"/><use xlink:href="#uX6yo2eh4IUBS-WyztYr_pad-23" x="84945" y="-40554"/><use xlink:href="#uX6yo2eh4IUBS-WyztYr_pad-23" x="87945" y="-36554"/><use xlink:href="#uX6yo2eh4IUBS-WyztYr_pad-23" x="87945" y="-38554"/><use xlink:href="#uX6yo2eh4IUBS-WyztYr_pad-23" x="86945" y="-39554"/><use xlink:href="#uX6yo2eh4IUBS-WyztYr_pad-23" x="84945" y="-36554"/><use xlink:href="#uX6yo2eh4IUBS-WyztYr_pad-23" x="85945" y="-37554"/><use xlink:href="#uX6yo2eh4IUBS-WyztYr_pad-23" x="85945" y="-38554"/><use xlink:href="#uX6yo2eh4IUBS-WyztYr_pad-23" x="83945" y="-38554"/><use xlink:href="#uX6yo2eh4IUBS-WyztYr_pad-23" x="87945" y="-40554"/><use xlink:href="#uX6yo2eh4IUBS-WyztYr_pad-23" x="85945" y="-36554"/><use xlink:href="#uX6yo2eh4IUBS-WyztYr_pad-23" x="110350" y="-99600"/><use xlink:href="#uX6yo2eh4IUBS-WyztYr_pad-24" x="108100" y="-99600"/><use xlink:href="#uX6yo2eh4IUBS-WyztYr_pad-23" x="109690.99" y="-98009.01"/><use xlink:href="#uX6yo2eh4IUBS-WyztYr_pad-23" x="108100" y="-97350"/><use xlink:href="#uX6yo2eh4IUBS-WyztYr_pad-23" x="109690.99" y="-101190.99"/><use xlink:href="#uX6yo2eh4IUBS-WyztYr_pad-23" x="108100" y="-101850"/><use xlink:href="#uX6yo2eh4IUBS-WyztYr_pad-23" x="106509.01" y="-101190.99"/><use xlink:href="#uX6yo2eh4IUBS-WyztYr_pad-23" x="106509.01" y="-98009.01"/><use xlink:href="#uX6yo2eh4IUBS-WyztYr_pad-23" x="105850" y="-99600"/><use xlink:href="#uX6yo2eh4IUBS-WyztYr_pad-26" x="65450" y="-81550"/><use xlink:href="#uX6yo2eh4IUBS-WyztYr_pad-26" x="63550" y="-81550"/><use xlink:href="#uX6yo2eh4IUBS-WyztYr_pad-19" x="56980" y="-110650"/><use xlink:href="#uX6yo2eh4IUBS-WyztYr_pad-20" x="62060" y="-110650"/><use xlink:href="#uX6yo2eh4IUBS-WyztYr_pad-20" x="67140" y="-110650"/><use xlink:href="#uX6yo2eh4IUBS-WyztYr_pad-20" x="72220" y="-110650"/><use xlink:href="#uX6yo2eh4IUBS-WyztYr_pad-23" x="110350" y="-45650"/><use xlink:href="#uX6yo2eh4IUBS-WyztYr_pad-23" x="109690.99" y="-47240.99"/><use xlink:href="#uX6yo2eh4IUBS-WyztYr_pad-23" x="106509.01" y="-47240.99"/><use xlink:href="#uX6yo2eh4IUBS-WyztYr_pad-23" x="106509.01" y="-44059.01"/><use xlink:href="#uX6yo2eh4IUBS-WyztYr_pad-23" x="109690.99" y="-44059.01"/><use xlink:href="#uX6yo2eh4IUBS-WyztYr_pad-23" x="108100" y="-47900"/><use xlink:href="#uX6yo2eh4IUBS-WyztYr_pad-23" x="105850" y="-45650"/><use xlink:href="#uX6yo2eh4IUBS-WyztYr_pad-24" x="108100" y="-45650"/><use xlink:href="#uX6yo2eh4IUBS-WyztYr_pad-23" x="108100" y="-43400"/><use xlink:href="#uX6yo2eh4IUBS-WyztYr_pad-29" x="107630" y="-68103.5"/><use xlink:href="#uX6yo2eh4IUBS-WyztYr_pad-29" x="105730" y="-68103.5"/><use xlink:href="#uX6yo2eh4IUBS-WyztYr_pad-29" x="106680" y="-70072.5"/><use xlink:href="#uX6yo2eh4IUBS-WyztYr_pad-19" x="100570" y="-110650"/><use xlink:href="#uX6yo2eh4IUBS-WyztYr_pad-20" x="105650" y="-110650"/><use xlink:href="#uX6yo2eh4IUBS-WyztYr_pad-19" x="109982" y="-34290"/><use xlink:href="#uX6yo2eh4IUBS-WyztYr_pad-20" x="104902" y="-34290"/><use xlink:href="#uX6yo2eh4IUBS-WyztYr_pad-29" x="102296" y="-68103.5"/><use xlink:href="#uX6yo2eh4IUBS-WyztYr_pad-29" x="100396" y="-68103.5"/><use xlink:href="#uX6yo2eh4IUBS-WyztYr_pad-29" x="101346" y="-70072.5"/><use xlink:href="#uX6yo2eh4IUBS-WyztYr_pad-23" x="56150" y="-97350"/><use xlink:href="#uX6yo2eh4IUBS-WyztYr_pad-23" x="56150" y="-101850"/><use xlink:href="#uX6yo2eh4IUBS-WyztYr_pad-23" x="57740.99" y="-101190.99"/><use xlink:href="#uX6yo2eh4IUBS-WyztYr_pad-24" x="56150" y="-99600"/><use xlink:href="#uX6yo2eh4IUBS-WyztYr_pad-23" x="54559.01" y="-98009.01"/><use xlink:href="#uX6yo2eh4IUBS-WyztYr_pad-23" x="54559.01" y="-101190.99"/><use xlink:href="#uX6yo2eh4IUBS-WyztYr_pad-23" x="53900" y="-99600"/><use xlink:href="#uX6yo2eh4IUBS-WyztYr_pad-23" x="58400" y="-99600"/><use xlink:href="#uX6yo2eh4IUBS-WyztYr_pad-23" x="57740.99" y="-98009.01"/></g></mask></defs><g transform="translate(0,-143658.38) scale(1,-1)" fill="currentColor" stroke="currentColor"><g mask="url(#uX6yo2eh4IUBS-WyztYr_clear-1)"><path d="M 83521.357 -96827.142 83521.357 -97327.142 M 84307.071 -97327.142 82807.071 -97327.142 82807.071 -96612.857 M 84307.071 -95398.571 83521.357 -95398.571 83378.5 -95470 83307.071 -95612.857 83307.071 -95898.571 83378.5 -96041.428 M 84235.642 -95398.571 84307.071 -95541.428 84307.071 -95898.571 84235.642 -96041.428 84092.785 -96112.857 83949.928 -96112.857 83807.071 -96041.428 83735.642 -95898.571 83735.642 -95541.428 83664.214 -95398.571 M 84307.071 -94684.285 83307.071 -94684.285 M 83592.785 -94684.285 83449.928 -94612.857 83378.5 -94541.428 83307.071 -94398.571 83307.071 -94255.714 M 84307.071 -93755.714 83307.071 -93755.714 M 83449.928 -93755.714 83378.5 -93684.285 83307.071 -93541.428 83307.071 -93327.142 83378.5 -93184.285 83521.357 -93112.857 84307.071 -93112.857 M 83521.357 -93112.857 83378.5 -93041.428 83307.071 -92898.571 83307.071 -92684.285 83378.5 -92541.428 83521.357 -92470 84307.071 -92470 M 84307.071 -91041.428 84307.071 -91755.714 82807.071 -91755.714 M 84307.071 -89898.571 83521.357 -89898.571 83378.5 -89970 83307.071 -90112.857 83307.071 -90398.571 83378.5 -90541.428 M 84235.642 -89898.571 84307.071 -90041.428 84307.071 -90398.571 84235.642 -90541.428 84092.785 -90612.857 83949.928 -90612.857 83807.071 -90541.428 83735.642 -90398.571 83735.642 -90041.428 83664.214 -89898.571 M 84307.071 -89184.285 82807.071 -89184.285 M 83378.5 -89184.285 83307.071 -89041.428 83307.071 -88755.714 83378.5 -88612.857 83449.928 -88541.428 83592.785 -88470 84021.357 -88470 84164.214 -88541.428 84235.642 -88612.857 84307.071 -88755.714 84307.071 -89041.428 84235.642 -89184.285 M 82949.928 -86755.714 82878.5 -86684.285 82807.071 -86541.428 82807.071 -86184.285 82878.5 -86041.428 82949.928 -85970 83092.785 -85898.571 83235.642 -85898.571 83449.928 -85970 84307.071 -86827.142 84307.071 -85898.571 M 84307.071 -84470 84307.071 -85327.142 M 84307.071 -84898.571 82807.071 -84898.571 83021.357 -85041.428 83164.214 -85184.285 83235.642 -85327.142 M 83735.642 -83827.142 83735.642 -82684.285 M 82949.928 -82041.428 82878.5 -81970 82807.071 -81827.142 82807.071 -81470 82878.5 -81327.142 82949.928 -81255.714 83092.785 -81184.285 83235.642 -81184.285 83449.928 -81255.714 84307.071 -82112.857 84307.071 -81184.285 M 82949.928 -80612.857 82878.5 -80541.428 82807.071 -80398.571 82807.071 -80041.428 82878.5 -79898.571 82949.928 -79827.142 83092.785 -79755.714 83235.642 -79755.714 83449.928 -79827.142 84307.071 -80684.285 84307.071 -79755.714 M 84807.071 -77612.857 82664.214 -77612.857 M 84307.071 -75398.571 82807.071 -75398.571 82807.071 -74827.142 82878.5 -74684.285 82949.928 -74612.857 83092.785 -74541.428 83307.071 -74541.428 83449.928 -74612.857 83521.357 -74684.285 83592.785 -74827.142 83592.785 -75398.571 M 84307.071 -73684.285 84235.642 -73827.142 84164.214 -73898.571 84021.357 -73970 83592.785 -73970 83449.928 -73898.571 83378.5 -73827.142 83307.071 -73684.285 83307.071 -73470 83378.5 -73327.142 83449.928 -73255.714 83592.785 -73184.285 84021.357 -73184.285 84164.214 -73255.714 84235.642 -73327.142 84307.071 -73470 84307.071 -73684.285 M 84307.071 -72541.428 83307.071 -72541.428 M 83449.928 -72541.428 83378.5 -72470 83307.071 -72327.142 83307.071 -72112.857 83378.5 -71970 83521.357 -71898.571 84307.071 -71898.571 M 83521.357 -71898.571 83378.5 -71827.142 83307.071 -71684.285 83307.071 -71470 83378.5 -71327.142 83521.357 -71255.714 84307.071 -71255.714 M 83307.071 -70541.428 84807.071 -70541.428 M 83378.5 -70541.428 83307.071 -70398.571 83307.071 -70112.857 83378.5 -69970 83449.928 -69898.571 83592.785 -69827.142 84021.357 -69827.142 84164.214 -69898.571 84235.642 -69970 84307.071 -70112.857 84307.071 -70398.571 84235.642 -70541.428 M 84164.214 -67184.285 84235.642 -67255.714 84307.071 -67470 84307.071 -67612.857 84235.642 -67827.142 84092.785 -67970 83949.928 -68041.428 83664.214 -68112.857 83449.928 -68112.857 83164.214 -68041.428 83021.357 -67970 82878.5 -67827.142 82807.071 -67612.857 82807.071 -67470 82878.5 -67255.714 82949.928 -67184.285 M 84307.071 -66327.142 84235.642 -66470 84164.214 -66541.428 84021.357 -66612.857 83592.785 -66612.857 83449.928 -66541.428 83378.5 -66470 83307.071 -66327.142 83307.071 -66112.857 83378.5 -65970 83449.928 -65898.571 83592.785 -65827.142 84021.357 -65827.142 84164.214 -65898.571 84235.642 -65970 84307.071 -66112.857 84307.071 -66327.142 M 83307.071 -65184.285 84307.071 -65184.285 M 83449.928 -65184.285 83378.5 -65112.857 83307.071 -64970 83307.071 -64755.714 83378.5 -64612.857 83521.357 -64541.428 84307.071 -64541.428 M 83307.071 -64041.428 83307.071 -63470 M 82807.071 -63827.142 84092.785 -63827.142 84235.642 -63755.714 84307.071 -63612.857 84307.071 -63470 M 84307.071 -62970 83307.071 -62970 M 83592.785 -62970 83449.928 -62898.571 83378.5 -62827.142 83307.071 -62684.285 83307.071 -62541.428 M 84307.071 -61827.142 84235.642 -61970 84164.214 -62041.428 84021.357 -62112.857 83592.785 -62112.857 83449.928 -62041.428 83378.5 -61970 83307.071 -61827.142 83307.071 -61612.857 83378.5 -61470 83449.928 -61398.571 83592.785 -61327.142 84021.357 -61327.142 84164.214 -61398.571 84235.642 -61470 84307.071 -61612.857 84307.071 -61827.142 M 84307.071 -60470 84235.642 -60612.857 84092.785 -60684.285 82807.071 -60684.285 M 84307.071 -59684.285 84235.642 -59827.142 84092.785 -59898.571 82807.071 -59898.571 M 84235.642 -58541.428 84307.071 -58684.285 84307.071 -58970 84235.642 -59112.857 84092.785 -59184.285 83521.357 -59184.285 83378.5 -59112.857 83307.071 -58970 83307.071 -58684.285 83378.5 -58541.428 83521.357 -58470 83664.214 -58470 83807.071 -59184.285 M 84307.071 -57827.142 83307.071 -57827.142 M 83592.785 -57827.142 83449.928 -57755.714 83378.5 -57684.285 83307.071 -57541.428 83307.071 -57398.571 M 85936.357 -87112.857 86007.785 -86898.571 86079.214 -86827.142 86222.071 -86755.714 86436.357 -86755.714 86579.214 -86827.142 86650.642 -86898.571 86722.071 -87041.428 86722.071 -87612.857 85222.071 -87612.857 85222.071 -87112.857 85293.5 -86970 85364.928 -86898.571 85507.785 -86827.142 85650.642 -86827.142 85793.5 -86898.571 85864.928 -86970 85936.357 -87112.857 85936.357 -87612.857 M 86722.071 -86112.857 85722.071 -86112.857 M 86007.785 -86112.857 85864.928 -86041.428 85793.5 -85970 85722.071 -85827.142 85722.071 -85684.285 M 86722.071 -85184.285 85722.071 -85184.285 M 85222.071 -85184.285 85293.5 -85255.714 85364.928 -85184.285 85293.5 -85112.857 85222.071 -85184.285 85364.928 -85184.285 M 86722.071 -83827.142 85936.357 -83827.142 85793.5 -83898.571 85722.071 -84041.428 85722.071 -84327.142 85793.5 -84470 M 86650.642 -83827.142 86722.071 -83970 86722.071 -84327.142 86650.642 -84470 86507.785 -84541.428 86364.928 -84541.428 86222.071 -84470 86150.642 -84327.142 86150.642 -83970 86079.214 -83827.142 M 85722.071 -83112.857 86722.071 -83112.857 M 85864.928 -83112.857 85793.5 -83041.428 85722.071 -82898.571 85722.071 -82684.285 85793.5 -82541.428 85936.357 -82470 86722.071 -82470 M 85222.071 -80827.142 86722.071 -80327.142 85222.071 -79827.142 M 86722.071 -78684.285 85936.357 -78684.285 85793.5 -78755.714 85722.071 -78898.571 85722.071 -79184.285 85793.5 -79327.142 M 86650.642 -78684.285 86722.071 -78827.142 86722.071 -79184.285 86650.642 -79327.142 86507.785 -79398.571 86364.928 -79398.571 86222.071 -79327.142 86150.642 -79184.285 86150.642 -78827.142 86079.214 -78684.285 M 85722.071 -77970 86722.071 -77970 M 85864.928 -77970 85793.5 -77898.571 85722.071 -77755.714 85722.071 -77541.428 85793.5 -77398.571 85936.357 -77327.142 86722.071 -77327.142 M 86579.214 -74612.857 86650.642 -74684.285 86722.071 -74898.571 86722.071 -75041.428 86650.642 -75255.714 86507.785 -75398.571 86364.928 -75470 86079.214 -75541.428 85864.928 -75541.428 85579.214 -75470 85436.357 -75398.571 85293.5 -75255.714 85222.071 -75041.428 85222.071 -74898.571 85293.5 -74684.285 85364.928 -74612.857 M 86722.071 -73327.142 85936.357 -73327.142 85793.5 -73398.571 85722.071 -73541.428 85722.071 -73827.142 85793.5 -73970 M 86650.642 -73327.142 86722.071 -73470 86722.071 -73827.142 86650.642 -73970 86507.785 -74041.428 86364.928 -74041.428 86222.071 -73970 86150.642 -73827.142 86150.642 -73470 86079.214 -73327.142 M 86722.071 -72612.857 85722.071 -72612.857 M 85864.928 -72612.857 85793.5 -72541.428 85722.071 -72398.571 85722.071 -72184.285 85793.5 -72041.428 85936.357 -71970 86722.071 -71970 M 85936.357 -71970 85793.5 -71898.571 85722.071 -71755.714 85722.071 -71541.428 85793.5 -71398.571 85936.357 -71327.142 86722.071 -71327.142 M 85722.071 -70612.857 87222.071 -70612.857 M 85793.5 -70612.857 85722.071 -70470 85722.071 -70184.285 85793.5 -70041.428 85864.928 -69970 86007.785 -69898.571 86436.357 -69898.571 86579.214 -69970 86650.642 -70041.428 86722.071 -70184.285 86722.071 -70470 86650.642 -70612.857 M 86650.642 -68684.285 86722.071 -68827.142 86722.071 -69112.857 86650.642 -69255.714 86507.785 -69327.142 85936.357 -69327.142 85793.5 -69255.714 85722.071 -69112.857 85722.071 -68827.142 85793.5 -68684.285 85936.357 -68612.857 86079.214 -68612.857 86222.071 -69327.142 M 85722.071 -67970 86722.071 -67970 M 85864.928 -67970 85793.5 -67898.571 85722.071 -67755.714 85722.071 -67541.428 85793.5 -67398.571 85936.357 -67327.142 86722.071 -67327.142" fill="none" stroke-width="300"/><path d="M 65557.095 -50180.38 65557.095 -50989.904 65604.714 -51085.142 65652.333 -51132.761 65747.571 -51180.38 65938.047 -51180.38 66033.285 -51132.761 66080.904 -51085.142 66128.523 -50989.904 66128.523 -50180.38 M 66557.095 -50275.619 66604.714 -50228 66699.952 -50180.38 66938.047 -50180.38 67033.285 -50228 67080.904 -50275.619 67128.523 -50370.857 67128.523 -50466.095 67080.904 -50608.952 66509.476 -51180.38 67128.523 -51180.38 M 90090.666 -118528.38 90090.666 -119242.666 90043.047 -119385.523 89947.809 -119480.761 89804.952 -119528.38 89709.714 -119528.38 M 90471.619 -118528.38 91138.285 -118528.38 90709.714 -119528.38 M 88321.047 -105449.714 88511.523 -106116.38 88702 -105640.19 88892.476 -106116.38 89082.952 -105449.714 M 89892.476 -106116.38 89892.476 -105592.571 89844.857 -105497.333 89749.619 -105449.714 89559.142 -105449.714 89463.904 -105497.333 M 89892.476 -106068.761 89797.238 -106116.38 89559.142 -106116.38 89463.904 -106068.761 89416.285 -105973.523 89416.285 -105878.285 89463.904 -105783.047 89559.142 -105735.428 89797.238 -105735.428 89892.476 -105687.809 M 90225.809 -105449.714 90606.761 -105449.714 M 90368.666 -105116.38 90368.666 -105973.523 90416.285 -106068.761 90511.523 -106116.38 90606.761 -106116.38 M 91321.047 -106068.761 91225.809 -106116.38 91035.333 -106116.38 90940.095 -106068.761 90892.476 -105973.523 90892.476 -105592.571 90940.095 -105497.333 91035.333 -105449.714 91225.809 -105449.714 91321.047 -105497.333 91368.666 -105592.571 91368.666 -105687.809 90892.476 -105783.047 M 91797.238 -106116.38 91797.238 -105449.714 M 91797.238 -105640.19 91844.857 -105544.952 91892.476 -105497.333 91987.714 -105449.714 92082.952 -105449.714 M 92416.285 -105449.714 92416.285 -106449.714 M 92416.285 -105497.333 92511.523 -105449.714 92702 -105449.714 92797.238 -105497.333 92844.857 -105544.952 92892.476 -105640.19 92892.476 -105925.904 92844.857 -106021.142 92797.238 -106068.761 92702 -106116.38 92511.523 -106116.38 92416.285 -106068.761 M 93749.619 -105449.714 93749.619 -106116.38 M 93321.047 -105449.714 93321.047 -105973.523 93368.666 -106068.761 93463.904 -106116.38 93606.761 -106116.38 93702 -106068.761 93749.619 -106021.142 M 94225.809 -106116.38 94225.809 -105449.714 M 94225.809 -105544.952 94273.428 -105497.333 94368.666 -105449.714 94511.523 -105449.714 94606.761 -105497.333 94654.38 -105592.571 94654.38 -106116.38 M 94654.38 -105592.571 94702 -105497.333 94797.238 -105449.714 94940.095 -105449.714 95035.333 -105497.333 95082.952 -105592.571 95082.952 -106116.38 M 95559.142 -105449.714 95559.142 -106449.714 M 95559.142 -105497.333 95654.38 -105449.714 95844.857 -105449.714 95940.095 -105497.333 95987.714 -105544.952 96035.333 -105640.19 96035.333 -105925.904 95987.714 -106021.142 95940.095 -106068.761 95844.857 -106116.38 95654.38 -106116.38 95559.142 -106068.761 M 64433.333 -69702.38 64100 -69226.19 M 63861.904 -69702.38 63861.904 -68702.38 64242.857 -68702.38 64338.095 -68750 64385.714 -68797.619 64433.333 -68892.857 64433.333 -69035.714 64385.714 -69130.952 64338.095 -69178.571 64242.857 -69226.19 63861.904 -69226.19 M 64766.666 -68702.38 65385.714 -68702.38 65052.38 -69083.333 65195.238 -69083.333 65290.476 -69130.952 65338.095 -69178.571 65385.714 -69273.809 65385.714 -69511.904 65338.095 -69607.142 65290.476 -69654.761 65195.238 -69702.38 64909.523 -69702.38 64814.285 -69654.761 64766.666 -69607.142 M 64004.761 -66362.38 63433.333 -66362.38 M 63719.047 -66362.38 63719.047 -65362.38 63623.809 -65505.238 63528.571 -65600.476 63433.333 -65648.095 M 64623.809 -65362.38 64719.047 -65362.38 64814.285 -65410 64861.904 -65457.619 64909.523 -65552.857 64957.142 -65743.333 64957.142 -65981.428 64909.523 -66171.904 64861.904 -66267.142 64814.285 -66314.761 64719.047 -66362.38 64623.809 -66362.38 64528.571 -66314.761 64480.952 -66267.142 64433.333 -66171.904 64385.714 -65981.428 64385.714 -65743.333 64433.333 -65552.857 64480.952 -65457.619 64528.571 -65410 64623.809 -65362.38 M 65385.714 -66362.38 65385.714 -65362.38 M 65480.952 -65981.428 65766.666 -66362.38 M 65766.666 -65695.714 65385.714 -66076.666 M 55404.761 -59933.333 55452.38 -59790.476 55452.38 -59552.38 55404.761 -59457.142 55357.142 -59409.523 55261.904 -59361.904 55166.666 -59361.904 55071.428 -59409.523 55023.809 -59457.142 54976.19 -59552.38 54928.571 -59742.857 54880.952 -59838.095 54833.333 -59885.714 54738.095 -59933.333 54642.857 -59933.333 54547.619 -59885.714 54500 -59838.095 54452.38 -59742.857 54452.38 -59504.761 54500 -59361.904 M 54452.38 -59028.571 55452.38 -58790.476 54738.095 -58600 55452.38 -58409.523 54452.38 -58171.428 M 55452.38 -57266.666 55452.38 -57838.095 M 55452.38 -57552.38 54452.38 -57552.38 54595.238 -57647.619 54690.476 -57742.857 54738.095 -57838.095 M 106663.333 -66990.38 106330 -66514.19 M 106091.904 -66990.38 106091.904 -65990.38 106472.857 -65990.38 106568.095 -66038 106615.714 -66085.619 106663.333 -66180.857 106663.333 -66323.714 106615.714 -66418.952 106568.095 -66466.571 106472.857 -66514.19 106091.904 -66514.19 M 107615.714 -66990.38 107044.285 -66990.38 M 107330 -66990.38 107330 -65990.38 107234.761 -66133.238 107139.523 -66228.476 107044.285 -66276.095 M 106234.761 -63690.38 105663.333 -63690.38 M 105949.047 -63690.38 105949.047 -62690.38 105853.809 -62833.238 105758.571 -62928.476 105663.333 -62976.095 M 106853.809 -62690.38 106949.047 -62690.38 107044.285 -62738 107091.904 -62785.619 107139.523 -62880.857 107187.142 -63071.333 107187.142 -63309.428 107139.523 -63499.904 107091.904 -63595.142 107044.285 -63642.761 106949.047 -63690.38 106853.809 -63690.38 106758.571 -63642.761 106710.952 -63595.142 106663.333 -63499.904 106615.714 -63309.428 106615.714 -63071.333 106663.333 -62880.857 106710.952 -62785.619 106758.571 -62738 106853.809 -62690.38 M 107615.714 -63690.38 107615.714 -62690.38 M 107710.952 -63309.428 107996.666 -63690.38 M 107996.666 -63023.714 107615.714 -63404.666 M 64433.333 -79202.38 64100 -78726.19 M 63861.904 -79202.38 63861.904 -78202.38 64242.857 -78202.38 64338.095 -78250 64385.714 -78297.619 64433.333 -78392.857 64433.333 -78535.714 64385.714 -78630.952 64338.095 -78678.571 64242.857 -78726.19 63861.904 -78726.19 M 65290.476 -78535.714 65290.476 -79202.38 M 65052.38 -78154.761 64814.285 -78869.047 65433.333 -78869.047 M 64004.761 -75902.38 63433.333 -75902.38 M 63719.047 -75902.38 63719.047 -74902.38 63623.809 -75045.238 63528.571 -75140.476 63433.333 -75188.095 M 64623.809 -74902.38 64719.047 -74902.38 64814.285 -74950 64861.904 -74997.619 64909.523 -75092.857 64957.142 -75283.333 64957.142 -75521.428 64909.523 -75711.904 64861.904 -75807.142 64814.285 -75854.761 64719.047 -75902.38 64623.809 -75902.38 64528.571 -75854.761 64480.952 -75807.142 64433.333 -75711.904 64385.714 -75521.428 64385.714 -75283.333 64433.333 -75092.857 64480.952 -74997.619 64528.571 -74950 64623.809 -74902.38 M 65385.714 -75902.38 65385.714 -74902.38 M 65480.952 -75521.428 65766.666 -75902.38 M 65766.666 -75235.714 65385.714 -75616.666 M 83486.666 -117816.38 83486.666 -118530.666 83439.047 -118673.523 83343.809 -118768.761 83200.952 -118816.38 83105.714 -118816.38 M 83867.619 -117816.38 84486.666 -117816.38 84153.333 -118197.333 84296.19 -118197.333 84391.428 -118244.952 84439.047 -118292.571 84486.666 -118387.809 84486.666 -118625.904 84439.047 -118721.142 84391.428 -118768.761 84296.19 -118816.38 84010.476 -118816.38 83915.238 -118768.761 83867.619 -118721.142 M 76684.666 -105592.571 76827.523 -105640.19 76875.142 -105687.809 76922.761 -105783.047 76922.761 -105925.904 76875.142 -106021.142 76827.523 -106068.761 76732.285 -106116.38 76351.333 -106116.38 76351.333 -105116.38 76684.666 -105116.38 76779.904 -105164 76827.523 -105211.619 76875.142 -105306.857 76875.142 -105402.095 76827.523 -105497.333 76779.904 -105544.952 76684.666 -105592.571 76351.333 -105592.571 M 77494.19 -106116.38 77398.952 -106068.761 77351.333 -106021.142 77303.714 -105925.904 77303.714 -105640.19 77351.333 -105544.952 77398.952 -105497.333 77494.19 -105449.714 77637.047 -105449.714 77732.285 -105497.333 77779.904 -105544.952 77827.523 -105640.19 77827.523 -105925.904 77779.904 -106021.142 77732.285 -106068.761 77637.047 -106116.38 77494.19 -106116.38 M 78398.952 -106116.38 78303.714 -106068.761 78256.095 -106021.142 78208.476 -105925.904 78208.476 -105640.19 78256.095 -105544.952 78303.714 -105497.333 78398.952 -105449.714 78541.809 -105449.714 78637.047 -105497.333 78684.666 -105544.952 78732.285 -105640.19 78732.285 -105925.904 78684.666 -106021.142 78637.047 -106068.761 78541.809 -106116.38 78398.952 -106116.38 M 79018 -105449.714 79398.952 -105449.714 M 79160.857 -105116.38 79160.857 -105973.523 79208.476 -106068.761 79303.714 -106116.38 79398.952 -106116.38 M 80637.047 -106116.38 80541.809 -106068.761 80494.19 -106021.142 80446.571 -105925.904 80446.571 -105640.19 80494.19 -105544.952 80541.809 -105497.333 80637.047 -105449.714 80779.904 -105449.714 80875.142 -105497.333 80922.761 -105544.952 80970.38 -105640.19 80970.38 -105925.904 80922.761 -106021.142 80875.142 -106068.761 80779.904 -106116.38 80637.047 -106116.38 M 81398.952 -105449.714 81398.952 -106449.714 M 81398.952 -105497.333 81494.19 -105449.714 81684.666 -105449.714 81779.904 -105497.333 81827.523 -105544.952 81875.142 -105640.19 81875.142 -105925.904 81827.523 -106021.142 81779.904 -106068.761 81684.666 -106116.38 81494.19 -106116.38 81398.952 -106068.761 M 82160.857 -105449.714 82541.809 -105449.714 M 82303.714 -105116.38 82303.714 -105973.523 82351.333 -106068.761 82446.571 -106116.38 82541.809 -106116.38 M 82875.142 -106116.38 82875.142 -105449.714 M 82875.142 -105116.38 82827.523 -105164 82875.142 -105211.619 82922.761 -105164 82875.142 -105116.38 82875.142 -105211.619 M 83494.19 -106116.38 83398.952 -106068.761 83351.333 -106021.142 83303.714 -105925.904 83303.714 -105640.19 83351.333 -105544.952 83398.952 -105497.333 83494.19 -105449.714 83637.047 -105449.714 83732.285 -105497.333 83779.904 -105544.952 83827.523 -105640.19 83827.523 -105925.904 83779.904 -106021.142 83732.285 -106068.761 83637.047 -106116.38 83494.19 -106116.38 M 84256.095 -105449.714 84256.095 -106116.38 M 84256.095 -105544.952 84303.714 -105497.333 84398.952 -105449.714 84541.809 -105449.714 84637.047 -105497.333 84684.666 -105592.571 84684.666 -106116.38 M 58086.666 -25868.38 58086.666 -26582.666 58039.047 -26725.523 57943.809 -26820.761 57800.952 -26868.38 57705.714 -26868.38 M 58991.428 -25868.38 58800.952 -25868.38 58705.714 -25916 58658.095 -25963.619 58562.857 -26106.476 58515.238 -26296.952 58515.238 -26677.904 58562.857 -26773.142 58610.476 -26820.761 58705.714 -26868.38 58896.19 -26868.38 58991.428 -26820.761 59039.047 -26773.142 59086.666 -26677.904 59086.666 -26439.809 59039.047 -26344.571 58991.428 -26296.952 58896.19 -26249.333 58705.714 -26249.333 58610.476 -26296.952 58562.857 -26344.571 58515.238 -26439.809 M 56363.523 -38568.38 55887.333 -38568.38 55839.714 -39044.571 55887.333 -38996.952 55982.571 -38949.333 56220.666 -38949.333 56315.904 -38996.952 56363.523 -39044.571 56411.142 -39139.809 56411.142 -39377.904 56363.523 -39473.142 56315.904 -39520.761 56220.666 -39568.38 55982.571 -39568.38 55887.333 -39520.761 55839.714 -39473.142 M 56696.857 -38568.38 57030.19 -39568.38 57363.523 -38568.38 M 101213.333 -67040.38 100880 -66564.19 M 100641.904 -67040.38 100641.904 -66040.38 101022.857 -66040.38 101118.095 -66088 101165.714 -66135.619 101213.333 -66230.857 101213.333 -66373.714 101165.714 -66468.952 101118.095 -66516.571 101022.857 -66564.19 100641.904 -66564.19 M 101594.285 -66135.619 101641.904 -66088 101737.142 -66040.38 101975.238 -66040.38 102070.476 -66088 102118.095 -66135.619 102165.714 -66230.857 102165.714 -66326.095 102118.095 -66468.952 101546.666 -67040.38 102165.714 -67040.38 M 100784.761 -63740.38 100213.333 -63740.38 M 100499.047 -63740.38 100499.047 -62740.38 100403.809 -62883.238 100308.571 -62978.476 100213.333 -63026.095 M 101403.809 -62740.38 101499.047 -62740.38 101594.285 -62788 101641.904 -62835.619 101689.523 -62930.857 101737.142 -63121.333 101737.142 -63359.428 101689.523 -63549.904 101641.904 -63645.142 101594.285 -63692.761 101499.047 -63740.38 101403.809 -63740.38 101308.571 -63692.761 101260.952 -63645.142 101213.333 -63549.904 101165.714 -63359.428 101165.714 -63121.333 101213.333 -62930.857 101260.952 -62835.619 101308.571 -62788 101403.809 -62740.38 M 102165.714 -63740.38 102165.714 -62740.38 M 102260.952 -63359.428 102546.666 -63740.38 M 102546.666 -63073.714 102165.714 -63454.666 M 64483.333 -70977.142 64435.714 -71024.761 64292.857 -71072.38 64197.619 -71072.38 64054.761 -71024.761 63959.523 -70929.523 63911.904 -70834.285 63864.285 -70643.809 63864.285 -70500.952 63911.904 -70310.476 63959.523 -70215.238 64054.761 -70120 64197.619 -70072.38 64292.857 -70072.38 64435.714 -70120 64483.333 -70167.619 M 64816.666 -70072.38 65435.714 -70072.38 65102.38 -70453.333 65245.238 -70453.333 65340.476 -70500.952 65388.095 -70548.571 65435.714 -70643.809 65435.714 -70881.904 65388.095 -70977.142 65340.476 -71024.761 65245.238 -71072.38 64959.523 -71072.38 64864.285 -71024.761 64816.666 -70977.142 M 63007.142 -73432.38 63102.38 -73432.38 63197.619 -73480 63245.238 -73527.619 63292.857 -73622.857 63340.476 -73813.333 63340.476 -74051.428 63292.857 -74241.904 63245.238 -74337.142 63197.619 -74384.761 63102.38 -74432.38 63007.142 -74432.38 62911.904 -74384.761 62864.285 -74337.142 62816.666 -74241.904 62769.047 -74051.428 62769.047 -73813.333 62816.666 -73622.857 62864.285 -73527.619 62911.904 -73480 63007.142 -73432.38 M 63769.047 -74337.142 63816.666 -74384.761 63769.047 -74432.38 63721.428 -74384.761 63769.047 -74337.142 63769.047 -74432.38 M 64769.047 -74432.38 64197.619 -74432.38 M 64483.333 -74432.38 64483.333 -73432.38 64388.095 -73575.238 64292.857 -73670.476 64197.619 -73718.095 M 65626.19 -73765.714 65626.19 -74432.38 M 65197.619 -73765.714 65197.619 -74289.523 65245.238 -74384.761 65340.476 -74432.38 65483.333 -74432.38 65578.571 -74384.761 65626.19 -74337.142 M 66435.714 -73908.571 66102.38 -73908.571 M 66102.38 -74432.38 66102.38 -73432.38 66578.571 -73432.38 M 64533.333 -57127.142 64485.714 -57174.761 64342.857 -57222.38 64247.619 -57222.38 64104.761 -57174.761 64009.523 -57079.523 63961.904 -56984.285 63914.285 -56793.809 63914.285 -56650.952 63961.904 -56460.476 64009.523 -56365.238 64104.761 -56270 64247.619 -56222.38 64342.857 -56222.38 64485.714 -56270 64533.333 -56317.619 M 65485.714 -57222.38 64914.285 -57222.38 M 65200 -57222.38 65200 -56222.38 65104.761 -56365.238 65009.523 -56460.476 64914.285 -56508.095 M 63057.142 -59677.619 63104.761 -59630 63200 -59582.38 63438.095 -59582.38 63533.333 -59630 63580.952 -59677.619 63628.571 -59772.857 63628.571 -59868.095 63580.952 -60010.952 63009.523 -60582.38 63628.571 -60582.38 M 64009.523 -59677.619 64057.142 -59630 64152.38 -59582.38 64390.476 -59582.38 64485.714 -59630 64533.333 -59677.619 64580.952 -59772.857 64580.952 -59868.095 64533.333 -60010.952 63961.904 -60582.38 64580.952 -60582.38 M 65438.095 -59915.714 65438.095 -60582.38 M 65009.523 -59915.714 65009.523 -60439.523 65057.142 -60534.761 65152.38 -60582.38 65295.238 -60582.38 65390.476 -60534.761 65438.095 -60487.142 M 66247.619 -60058.571 65914.285 -60058.571 M 65914.285 -60582.38 65914.285 -59582.38 66390.476 -59582.38 M 64383.333 -65137.142 64335.714 -65184.761 64192.857 -65232.38 64097.619 -65232.38 63954.761 -65184.761 63859.523 -65089.523 63811.904 -64994.285 63764.285 -64803.809 63764.285 -64660.952 63811.904 -64470.476 63859.523 -64375.238 63954.761 -64280 64097.619 -64232.38 64192.857 -64232.38 64335.714 -64280 64383.333 -64327.619 M 64764.285 -64327.619 64811.904 -64280 64907.142 -64232.38 65145.238 -64232.38 65240.476 -64280 65288.095 -64327.619 65335.714 -64422.857 65335.714 -64518.095 65288.095 -64660.952 64716.666 -65232.38 65335.714 -65232.38 M 63414.642 -61022.38 63509.88 -61022.38 63605.119 -61070 63652.738 -61117.619 63700.357 -61212.857 63747.976 -61403.333 63747.976 -61641.428 63700.357 -61831.904 63652.738 -61927.142 63605.119 -61974.761 63509.88 -62022.38 63414.642 -62022.38 63319.404 -61974.761 63271.785 -61927.142 63224.166 -61831.904 63176.547 -61641.428 63176.547 -61403.333 63224.166 -61212.857 63271.785 -61117.619 63319.404 -61070 63414.642 -61022.38 M 64176.547 -61927.142 64224.166 -61974.761 64176.547 -62022.38 64128.928 -61974.761 64176.547 -61927.142 64176.547 -62022.38 M 65176.547 -62022.38 64605.119 -62022.38 M 64890.833 -62022.38 64890.833 -61022.38 64795.595 -61165.238 64700.357 -61260.476 64605.119 -61308.095 M 66033.69 -61355.714 66033.69 -62022.38 M 65605.119 -61355.714 65605.119 -61879.523 65652.738 -61974.761 65747.976 -62022.38 65890.833 -62022.38 65986.071 -61974.761 66033.69 -61927.142 M 66843.214 -61498.571 66509.88 -61498.571 M 66509.88 -62022.38 66509.88 -61022.38 66986.071 -61022.38 M 70220.666 -25542.38 70220.666 -26256.666 70173.047 -26399.523 70077.809 -26494.761 69934.952 -26542.38 69839.714 -26542.38 M 71173.047 -25542.38 70696.857 -25542.38 70649.238 -26018.571 70696.857 -25970.952 70792.095 -25923.333 71030.19 -25923.333 71125.428 -25970.952 71173.047 -26018.571 71220.666 -26113.809 71220.666 -26351.904 71173.047 -26447.142 71125.428 -26494.761 71030.19 -26542.38 70792.095 -26542.38 70696.857 -26494.761 70649.238 -26447.142 M 67232.571 -39568.38 66661.142 -39568.38 M 66946.857 -39568.38 66946.857 -38568.38 66851.619 -38711.238 66756.38 -38806.476 66661.142 -38854.095 M 67613.523 -38663.619 67661.142 -38616 67756.38 -38568.38 67994.476 -38568.38 68089.714 -38616 68137.333 -38663.619 68184.952 -38758.857 68184.952 -38854.095 68137.333 -38996.952 67565.904 -39568.38 68184.952 -39568.38 M 68518.285 -38901.714 68756.38 -39568.38 68994.476 -38901.714 M 85483.095 -30806.38 85483.095 -31615.904 85530.714 -31711.142 85578.333 -31758.761 85673.571 -31806.38 85864.047 -31806.38 85959.285 -31758.761 86006.904 -31711.142 86054.523 -31615.904 86054.523 -30806.38 M 87054.523 -31806.38 86483.095 -31806.38 M 86768.809 -31806.38 86768.809 -30806.38 86673.571 -30949.238 86578.333 -31044.476 86483.095 -31092.095 M 63993.333 -83727.142 63945.714 -83774.761 63802.857 -83822.38 63707.619 -83822.38 63564.761 -83774.761 63469.523 -83679.523 63421.904 -83584.285 63374.285 -83393.809 63374.285 -83250.952 63421.904 -83060.476 63469.523 -82965.238 63564.761 -82870 63707.619 -82822.38 63802.857 -82822.38 63945.714 -82870 63993.333 -82917.619 M 64850.476 -83155.714 64850.476 -83822.38 M 64612.38 -82774.761 64374.285 -83489.047 64993.333 -83489.047 M 63904.761 -80322.38 63333.333 -80322.38 M 63619.047 -80322.38 63619.047 -79322.38 63523.809 -79465.238 63428.571 -79560.476 63333.333 -79608.095 M 64761.904 -79655.714 64761.904 -80322.38 M 64333.333 -79655.714 64333.333 -80179.523 64380.952 -80274.761 64476.19 -80322.38 64619.047 -80322.38 64714.285 -80274.761 64761.904 -80227.142 M 65571.428 -79798.571 65238.095 -79798.571 M 65238.095 -80322.38 65238.095 -79322.38 65714.285 -79322.38 M 40306.666 -114260.38 40306.666 -114974.666 40259.047 -115117.523 40163.809 -115212.761 40020.952 -115260.38 39925.714 -115260.38 M 41211.428 -114593.714 41211.428 -115260.38 M 40973.333 -114212.761 40735.238 -114927.047 41354.285 -114927.047 M 63603.333 -105116.38 63603.333 -105830.666 63555.714 -105973.523 63460.476 -106068.761 63317.619 -106116.38 63222.38 -106116.38 M 63936.666 -105116.38 64508.095 -105116.38 M 64222.38 -106116.38 64222.38 -105116.38 M 64793.809 -105830.666 65270 -105830.666 M 64698.571 -106116.38 65031.904 -105116.38 65365.238 -106116.38 M 66222.38 -105164 66127.142 -105116.38 65984.285 -105116.38 65841.428 -105164 65746.19 -105259.238 65698.571 -105354.476 65650.952 -105544.952 65650.952 -105687.809 65698.571 -105878.285 65746.19 -105973.523 65841.428 -106068.761 65984.285 -106116.38 66079.523 -106116.38 66222.38 -106068.761 66270 -106021.142 66270 -105687.809 66079.523 -105687.809 M 107237.261 -71760.619 107142.023 -71713 107046.785 -71617.761 106903.928 -71474.904 106808.69 -71427.285 106713.452 -71427.285 M 106761.071 -71665.38 106665.833 -71617.761 106570.595 -71522.523 106522.976 -71332.047 106522.976 -70998.714 106570.595 -70808.238 106665.833 -70713 106761.071 -70665.38 106951.547 -70665.38 107046.785 -70713 107142.023 -70808.238 107189.642 -70998.714 107189.642 -71332.047 107142.023 -71522.523 107046.785 -71617.761 106951.547 -71665.38 106761.071 -71665.38 M 108142.023 -71665.38 107570.595 -71665.38 M 107856.309 -71665.38 107856.309 -70665.38 107761.071 -70808.238 107665.833 -70903.476 107570.595 -70951.095" fill="none" stroke-width="150"/><path d="M 95595.714 -69290.38 95667.142 -69314.19 95786.19 -69314.19 95833.809 -69290.38 95857.619 -69266.571 95881.428 -69218.952 95881.428 -69171.333 95857.619 -69123.714 95833.809 -69099.904 95786.19 -69076.095 95690.952 -69052.285 95643.333 -69028.476 95619.523 -69004.666 95595.714 -68957.047 95595.714 -68909.428 95619.523 -68861.809 95643.333 -68838 95690.952 -68814.19 95810 -68814.19 95881.428 -68838 M 96095.714 -69314.19 96095.714 -68814.19 M 96310 -68861.809 96333.809 -68838 96381.428 -68814.19 96500.476 -68814.19 96548.095 -68838 96571.904 -68861.809 96595.714 -68909.428 96595.714 -68957.047 96571.904 -69028.476 96286.19 -69314.19 96595.714 -69314.19 M 96762.38 -68814.19 97071.904 -68814.19 96905.238 -69004.666 96976.666 -69004.666 97024.285 -69028.476 97048.095 -69052.285 97071.904 -69099.904 97071.904 -69218.952 97048.095 -69266.571 97024.285 -69290.38 96976.666 -69314.19 96833.809 -69314.19 96786.19 -69290.38 96762.38 -69266.571 M 97548.095 -69314.19 97262.38 -69314.19 M 97405.238 -69314.19 97405.238 -68814.19 97357.619 -68885.619 97310 -68933.238 97262.38 -68957.047 M 97738.571 -68861.809 97762.38 -68838 97810 -68814.19 97929.047 -68814.19 97976.666 -68838 98000.476 -68861.809 98024.285 -68909.428 98024.285 -68957.047 98000.476 -69028.476 97714.761 -69314.19 98024.285 -69314.19 M 98405.238 -69052.285 98476.666 -69076.095 98500.476 -69099.904 98524.285 -69147.523 98524.285 -69218.952 98500.476 -69266.571 98476.666 -69290.38 98429.047 -69314.19 98238.571 -69314.19 98238.571 -68814.19 98405.238 -68814.19 98452.857 -68838 98476.666 -68861.809 98500.476 -68909.428 98500.476 -68957.047 98476.666 -69004.666 98452.857 -69028.476 98405.238 -69052.285 98238.571 -69052.285 M 98738.571 -69314.19 98738.571 -68814.19 98857.619 -68814.19 98929.047 -68838 98976.666 -68885.619 99000.476 -68933.238 99024.285 -69028.476 99024.285 -69099.904 99000.476 -69195.142 98976.666 -69242.761 98929.047 -69290.38 98857.619 -69314.19 98738.571 -69314.19 M 99214.761 -69290.38 99286.19 -69314.19 99405.238 -69314.19 99452.857 -69290.38 99476.666 -69266.571 99500.476 -69218.952 99500.476 -69171.333 99476.666 -69123.714 99452.857 -69099.904 99405.238 -69076.095 99310 -69052.285 99262.38 -69028.476 99238.571 -69004.666 99214.761 -68957.047 99214.761 -68909.428 99238.571 -68861.809 99262.38 -68838 99310 -68814.19 99429.047 -68814.19 99500.476 -68838 M 99714.761 -69123.714 100095.714 -69123.714 M 100262.38 -68814.19 100548.095 -68814.19 M 100405.238 -69314.19 100405.238 -68814.19 M 100976.666 -69314.19 100690.952 -69314.19 M 100833.809 -69314.19 100833.809 -68814.19 100786.19 -68885.619 100738.571 -68933.238 100690.952 -68957.047 M 101190.952 -69123.714 101571.904 -69123.714 M 101810 -69052.285 101976.666 -69052.285 M 102048.095 -69314.19 101810 -69314.19 101810 -68814.19 102048.095 -68814.19 M 102214.761 -68814.19 102524.285 -68814.19 102357.619 -69004.666 102429.047 -69004.666 102476.666 -69028.476 102500.476 -69052.285 102524.285 -69099.904 102524.285 -69218.952 102500.476 -69266.571 102476.666 -69290.38 102429.047 -69314.19 102286.19 -69314.19 102238.571 -69290.38 102214.761 -69266.571" fill="none" stroke-width="75"/><path d="M 101774.666 -117816.38 101774.666 -118530.666 101727.047 -118673.523 101631.809 -118768.761 101488.952 -118816.38 101393.714 -118816.38 M 102203.238 -117911.619 102250.857 -117864 102346.095 -117816.38 102584.19 -117816.38 102679.428 -117864 102727.047 -117911.619 102774.666 -118006.857 102774.666 -118102.095 102727.047 -118244.952 102155.619 -118816.38 102774.666 -118816.38 M 98568.476 -106116.38 98568.476 -105116.38 99139.904 -106116.38 99139.904 -105116.38 M 100044.666 -105449.714 100044.666 -106116.38 M 99616.095 -105449.714 99616.095 -105973.523 99663.714 -106068.761 99758.952 -106116.38 99901.809 -106116.38 99997.047 -106068.761 100044.666 -106021.142 M 100378 -105449.714 100758.952 -105449.714 M 100520.857 -105116.38 100520.857 -105973.523 100568.476 -106068.761 100663.714 -106116.38 100758.952 -106116.38 M 101092.285 -106116.38 101092.285 -105449.714 M 101092.285 -105640.19 101139.904 -105544.952 101187.523 -105497.333 101282.761 -105449.714 101378 -105449.714 M 101711.333 -106116.38 101711.333 -105449.714 M 101711.333 -105116.38 101663.714 -105164 101711.333 -105211.619 101758.952 -105164 101711.333 -105116.38 101711.333 -105211.619 M 102568.476 -106068.761 102473.238 -106116.38 102282.761 -106116.38 102187.523 -106068.761 102139.904 -105973.523 102139.904 -105592.571 102187.523 -105497.333 102282.761 -105449.714 102473.238 -105449.714 102568.476 -105497.333 102616.095 -105592.571 102616.095 -105687.809 102139.904 -105783.047 M 103044.666 -105449.714 103044.666 -106116.38 M 103044.666 -105544.952 103092.285 -105497.333 103187.523 -105449.714 103330.38 -105449.714 103425.619 -105497.333 103473.238 -105592.571 103473.238 -106116.38 M 103806.571 -105449.714 104187.523 -105449.714 M 103949.428 -105116.38 103949.428 -105973.523 103997.047 -106068.761 104092.285 -106116.38 104187.523 -106116.38 M 104520.857 -106116.38 104520.857 -105116.38 104901.809 -105116.38 104997.047 -105164 105044.666 -105211.619 105092.285 -105306.857 105092.285 -105449.714 105044.666 -105544.952 104997.047 -105592.571 104901.809 -105640.19 104520.857 -105640.19 M 105949.428 -105449.714 105949.428 -106116.38 M 105520.857 -105449.714 105520.857 -105973.523 105568.476 -106068.761 105663.714 -106116.38 105806.571 -106116.38 105901.809 -106068.761 105949.428 -106021.142 M 106425.619 -106116.38 106425.619 -105449.714 M 106425.619 -105544.952 106473.238 -105497.333 106568.476 -105449.714 106711.333 -105449.714 106806.571 -105497.333 106854.19 -105592.571 106854.19 -106116.38 M 106854.19 -105592.571 106901.809 -105497.333 106997.047 -105449.714 107139.904 -105449.714 107235.142 -105497.333 107282.761 -105592.571 107282.761 -106116.38 M 107758.952 -105449.714 107758.952 -106449.714 M 107758.952 -105497.333 107854.19 -105449.714 108044.666 -105449.714 108139.904 -105497.333 108187.523 -105544.952 108235.142 -105640.19 108235.142 -105925.904 108187.523 -106021.142 108139.904 -106068.761 108044.666 -106116.38 107854.19 -106116.38 107758.952 -106068.761 M 107370.761 -38568.38 107370.761 -39377.904 107418.38 -39473.142 107466 -39520.761 107561.238 -39568.38 107751.714 -39568.38 107846.952 -39520.761 107894.571 -39473.142 107942.19 -39377.904 107942.19 -38568.38 M 108370.761 -39282.666 108846.952 -39282.666 M 108275.523 -39568.38 108608.857 -38568.38 108942.19 -39568.38 M 109846.952 -39568.38 109513.619 -39092.19 M 109275.523 -39568.38 109275.523 -38568.38 109656.476 -38568.38 109751.714 -38616 109799.333 -38663.619 109846.952 -38758.857 109846.952 -38901.714 109799.333 -38996.952 109751.714 -39044.571 109656.476 -39092.19 109275.523 -39092.19 M 110132.666 -38568.38 110704.095 -38568.38 M 110418.38 -39568.38 110418.38 -38568.38 M 101903.261 -71760.619 101808.023 -71713 101712.785 -71617.761 101569.928 -71474.904 101474.69 -71427.285 101379.452 -71427.285 M 101427.071 -71665.38 101331.833 -71617.761 101236.595 -71522.523 101188.976 -71332.047 101188.976 -70998.714 101236.595 -70808.238 101331.833 -70713 101427.071 -70665.38 101617.547 -70665.38 101712.785 -70713 101808.023 -70808.238 101855.642 -70998.714 101855.642 -71332.047 101808.023 -71522.523 101712.785 -71617.761 101617.547 -71665.38 101427.071 -71665.38 M 102236.595 -70760.619 102284.214 -70713 102379.452 -70665.38 102617.547 -70665.38 102712.785 -70713 102760.404 -70760.619 102808.023 -70855.857 102808.023 -70951.095 102760.404 -71093.952 102188.976 -71665.38 102808.023 -71665.38" fill="none" stroke-width="150"/><path d="M 105501.714 -69537.88 105573.142 -69561.69 105692.19 -69561.69 105739.809 -69537.88 105763.619 -69514.071 105787.428 -69466.452 105787.428 -69418.833 105763.619 -69371.214 105739.809 -69347.404 105692.19 -69323.595 105596.952 -69299.785 105549.333 -69275.976 105525.523 -69252.166 105501.714 -69204.547 105501.714 -69156.928 105525.523 -69109.309 105549.333 -69085.5 105596.952 -69061.69 105716 -69061.69 105787.428 -69085.5 M 106001.714 -69561.69 106001.714 -69061.69 M 106216 -69109.309 106239.809 -69085.5 106287.428 -69061.69 106406.476 -69061.69 106454.095 -69085.5 106477.904 -69109.309 106501.714 -69156.928 106501.714 -69204.547 106477.904 -69275.976 106192.19 -69561.69 106501.714 -69561.69 M 106668.38 -69061.69 106977.904 -69061.69 106811.238 -69252.166 106882.666 -69252.166 106930.285 -69275.976 106954.095 -69299.785 106977.904 -69347.404 106977.904 -69466.452 106954.095 -69514.071 106930.285 -69537.88 106882.666 -69561.69 106739.809 -69561.69 106692.19 -69537.88 106668.38 -69514.071 M 107454.095 -69561.69 107168.38 -69561.69 M 107311.238 -69561.69 107311.238 -69061.69 107263.619 -69133.119 107216 -69180.738 107168.38 -69204.547 M 107644.571 -69109.309 107668.38 -69085.5 107716 -69061.69 107835.047 -69061.69 107882.666 -69085.5 107906.476 -69109.309 107930.285 -69156.928 107930.285 -69204.547 107906.476 -69275.976 107620.761 -69561.69 107930.285 -69561.69 M 108311.238 -69299.785 108382.666 -69323.595 108406.476 -69347.404 108430.285 -69395.023 108430.285 -69466.452 108406.476 -69514.071 108382.666 -69537.88 108335.047 -69561.69 108144.571 -69561.69 108144.571 -69061.69 108311.238 -69061.69 108358.857 -69085.5 108382.666 -69109.309 108406.476 -69156.928 108406.476 -69204.547 108382.666 -69252.166 108358.857 -69275.976 108311.238 -69299.785 108144.571 -69299.785 M 108644.571 -69561.69 108644.571 -69061.69 108763.619 -69061.69 108835.047 -69085.5 108882.666 -69133.119 108906.476 -69180.738 108930.285 -69275.976 108930.285 -69347.404 108906.476 -69442.642 108882.666 -69490.261 108835.047 -69537.88 108763.619 -69561.69 108644.571 -69561.69 M 109120.761 -69537.88 109192.19 -69561.69 109311.238 -69561.69 109358.857 -69537.88 109382.666 -69514.071 109406.476 -69466.452 109406.476 -69418.833 109382.666 -69371.214 109358.857 -69347.404 109311.238 -69323.595 109216 -69299.785 109168.38 -69275.976 109144.571 -69252.166 109120.761 -69204.547 109120.761 -69156.928 109144.571 -69109.309 109168.38 -69085.5 109216 -69061.69 109335.047 -69061.69 109406.476 -69085.5 M 109620.761 -69371.214 110001.714 -69371.214 M 110168.38 -69061.69 110454.095 -69061.69 M 110311.238 -69561.69 110311.238 -69061.69 M 110882.666 -69561.69 110596.952 -69561.69 M 110739.809 -69561.69 110739.809 -69061.69 110692.19 -69133.119 110644.571 -69180.738 110596.952 -69204.547 M 111096.952 -69371.214 111477.904 -69371.214 M 111716 -69299.785 111882.666 -69299.785 M 111954.095 -69561.69 111716 -69561.69 111716 -69061.69 111954.095 -69061.69 M 112120.761 -69061.69 112430.285 -69061.69 112263.619 -69252.166 112335.047 -69252.166 112382.666 -69275.976 112406.476 -69299.785 112430.285 -69347.404 112430.285 -69466.452 112406.476 -69514.071 112382.666 -69537.88 112335.047 -69561.69 112192.19 -69561.69 112144.571 -69537.88 112120.761 -69514.071" fill="none" stroke-width="75"/><path d="M 68044 -49224 64544 -49224 M 68044 -42724 64544 -42724 64544 -43964 M 64544 -49224 64544 -47984" fill="none" stroke-width="127"/><path d="M 70994 -48274 A 100 100 0 0 1 70794 -48274 100 100 0 0 1 70994 -48274" fill="none" stroke-width="200"/><path d="M 97330 -114460 97330 -106840 87170 -106840 87170 -114460 M 97330 -113190 87170 -113190 M 87170 -114460 97330 -114460 M 64827.064 -68335 64372.936 -68335 M 64827.064 -66865 64372.936 -66865 M 55900 -56400 55900 -60800 M 57500 -60800 57400 -60800 M 57500 -56400 57400 -56400 M 59000 -60800 59000 -56400 M 107057.064 -65623 106602.936 -65623 M 107057.064 -64153 106602.936 -64153 M 64827.064 -77835 64372.936 -77835 M 64827.064 -76365 64372.936 -76365 M 76120 -114460 86280 -114460 M 86280 -106840 76120 -106840 76120 -114460 M 86280 -113190 76120 -113190 M 86280 -114460 86280 -106840 M 61694 -38100 61694 -30480 51534 -30480 M 51534 -38100 61694 -38100 M 51534 -30480 51534 -38100 M 51534 -31750 61694 -31750 M 101607.064 -65673 101152.936 -65673 M 101607.064 -64203 101152.936 -64203 M 64388.748 -73035 64911.252 -73035 M 64388.748 -71565 64911.252 -71565 M 64438.748 -59185 64961.252 -59185 M 64438.748 -57715 64961.252 -57715 M 64811.252 -63835 64288.748 -63835 M 64811.252 -62365 64288.748 -62365 M 62484 -38100 72644 -38100 72644 -30480 M 62484 -31750 72644 -31750 M 62484 -30480 62484 -38100 M 72644 -30480 62484 -30480" fill="none" stroke-width="120"/><path d="M 77345 -30154 95345 -30154 M 77345 -55684 77345 -30154 M 95345 -30154 95345 -55684" fill="none" stroke-width="50"/><path d="M 95362 -30099 95362 -24130 77328 -24130" fill="none" stroke-width="150"/><path d="M 95345 -55684 77345 -55684" fill="none" stroke-width="50"/><path d="M 77328 -30099 77328 -24130" fill="none" stroke-width="150"/><path d="M 64761.252 -82285 64238.748 -82285 M 64761.252 -80815 64238.748 -80815 M 74760 -113190 54440 -113190 M 54440 -114460 74760 -114460 74760 -106840 M 54440 -106840 54440 -114460 M 54440 -106840 74760 -106840" fill="none" stroke-width="120"/><path d="M 108140 -69335.5 105220 -69335.5 105220 -68840.5 108140 -68840.5 108140 -69335.5" fill="none" stroke-width="150"/><path d="M 108190 -114460 108190 -106840 M 98030 -106840 98030 -114460 108190 -114460 M 108190 -106840 98030 -106840 M 108190 -113190 98030 -113190 M 102362 -31750 112522 -31750 M 112522 -38100 112522 -30480 M 102362 -38100 112522 -38100 M 102362 -30480 102362 -38100 M 112522 -30480 102362 -30480" fill="none" stroke-width="120"/><path d="M 99886 -68840.5 102806 -68840.5 102806 -69335.5 M 99886 -69335.5 99886 -68840.5 M 102806 -69335.5 99886 -69335.5" fill="none" stroke-width="150"/></g></g></svg>