<svg version="1.1" xmlns="http://www.w3.org/2000/svg" xmlns:xlink="http://www.w3.org/1999/xlink" stroke-linecap="round" stroke-linejoin="round" stroke-width="0" fill-rule="evenodd" width="61.384mm" height="84.184mm" viewBox="51308 -114692 61384 84184" id="ClH_m_eCggK842Fdus_y"><defs><rect x="-1500" y="-1500" width="3000" height="3000" id="ClH_m_eCggK842Fdus_y_pad-10"/><circle cx="0" cy="0" r="1500" id="ClH_m_eCggK842Fdus_y_pad-11"/><circle cx="0" cy="0" r="400" id="ClH_m_eCggK842Fdus_y_pad-12"/><circle cx="0" cy="0" r="3000" id="ClH_m_eCggK842Fdus_y_pad-13"/></defs><g transform="translate(0,-145200) scale(1,-1)" fill="currentColor" stroke="currentColor"><use xlink:href="#ClH_m_eCggK842Fdus_y_pad-10" x="89710" y="-110650"/><use xlink:href="#ClH_m_eCggK842Fdus_y_pad-11" x="94790" y="-110650"/><use xlink:href="#ClH_m_eCggK842Fdus_y_pad-12" x="56150" y="-43400"/><use xlink:href="#ClH_m_eCggK842Fdus_y_pad-12" x="54559.01" y="-47240.99"/><use xlink:href="#ClH_m_eCggK842Fdus_y_pad-12" x="54559.01" y="-44059.01"/><use xlink:href="#ClH_m_eCggK842Fdus_y_pad-12" x="53900" y="-45650"/><use xlink:href="#ClH_m_eCggK842Fdus_y_pad-12" x="57740.99" y="-44059.01"/><use xlink:href="#ClH_m_eCggK842Fdus_y_pad-13" x="56150" y="-45650"/><use xlink:href="#ClH_m_eCggK842Fdus_y_pad-12" x="58400" y="-45650"/><use xlink:href="#ClH_m_eCggK842Fdus_y_pad-12" x="56150" y="-47900"/><use xlink:href="#ClH_m_eCggK842Fdus_y_pad-12" x="57740.99" y="-47240.99"/><use xlink:href="#ClH_m_eCggK842Fdus_y_pad-10" x="78660" y="-110650"/><use xlink:href="#ClH_m_eCggK842Fdus_y_pad-11" x="83740" y="-110650"/><use xlink:href="#ClH_m_eCggK842Fdus_y_pad-10" x="59154" y="-34290"/><use xlink:href="#ClH_m_eCggK842Fdus_y_pad-11" x="54074" y="-34290"/><use xlink:href="#ClH_m_eCggK842Fdus_y_pad-10" x="70104" y="-34290"/><use xlink:href="#ClH_m_eCggK842Fdus_y_pad-11" x="65024" y="-34290"/><use xlink:href="#ClH_m_eCggK842Fdus_y_pad-12" x="85945" y="-40554"/><use xlink:href="#ClH_m_eCggK842Fdus_y_pad-12" x="83945" y="-40554"/><use xlink:href="#ClH_m_eCggK842Fdus_y_pad-12" x="83945" y="-36554"/><use xlink:href="#ClH_m_eCggK842Fdus_y_pad-12" x="84945" y="-38554"/><use xlink:href="#ClH_m_eCggK842Fdus_y_pad-12" x="84945" y="-37554"/><use xlink:href="#ClH_m_eCggK842Fdus_y_pad-12" x="86945" y="-36554"/><use xlink:href="#ClH_m_eCggK842Fdus_y_pad-12" x="83945" y="-37554"/><use xlink:href="#ClH_m_eCggK842Fdus_y_pad-12" x="86945" y="-38554"/><use xlink:href="#ClH_m_eCggK842Fdus_y_pad-12" x="84945" y="-39554"/><use xlink:href="#ClH_m_eCggK842Fdus_y_pad-12" x="86945" y="-40554"/><use xlink:href="#ClH_m_eCggK842Fdus_y_pad-12" x="87945" y="-39554"/><use xlink:href="#ClH_m_eCggK842Fdus_y_pad-12" x="85945" y="-39554"/><use xlink:href="#ClH_m_eCggK842Fdus_y_pad-12" x="87945" y="-37554"/><use xlink:href="#ClH_m_eCggK842Fdus_y_pad-12" x="83945" y="-39554"/><use xlink:href="#ClH_m_eCggK842Fdus_y_pad-12" x="86945" y="-37554"/><use xlink:href="#ClH_m_eCggK842Fdus_y_pad-12" x="84945" y="-40554"/><use xlink:href="#ClH_m_eCggK842Fdus_y_pad-12" x="87945" y="-36554"/><use xlink:href="#ClH_m_eCggK842Fdus_y_pad-12" x="87945" y="-38554"/><use xlink:href="#ClH_m_eCggK842Fdus_y_pad-12" x="86945" y="-39554"/><use xlink:href="#ClH_m_eCggK842Fdus_y_pad-12" x="84945" y="-36554"/><use xlink:href="#ClH_m_eCggK842Fdus_y_pad-12" x="85945" y="-37554"/><use xlink:href="#ClH_m_eCggK842Fdus_y_pad-12" x="85945" y="-38554"/><use xlink:href="#ClH_m_eCggK842Fdus_y_pad-12" x="83945" y="-38554"/><use xlink:href="#ClH_m_eCggK842Fdus_y_pad-12" x="87945" y="-40554"/><use xlink:href="#ClH_m_eCggK842Fdus_y_pad-12" x="85945" y="-36554"/><use xlink:href="#ClH_m_eCggK842Fdus_y_pad-12" x="110350" y="-99600"/><use xlink:href="#ClH_m_eCggK842Fdus_y_pad-13" x="108100" y="-99600"/><use xlink:href="#ClH_m_eCggK842Fdus_y_pad-12" x="109690.99" y="-98009.01"/><use xlink:href="#ClH_m_eCggK842Fdus_y_pad-12" x="108100" y="-97350"/><use xlink:href="#ClH_m_eCggK842Fdus_y_pad-12" x="109690.99" y="-101190.99"/><use xlink:href="#ClH_m_eCggK842Fdus_y_pad-12" x="108100" y="-101850"/><use xlink:href="#ClH_m_eCggK842Fdus_y_pad-12" x="106509.01" y="-101190.99"/><use xlink:href="#ClH_m_eCggK842Fdus_y_pad-12" x="106509.01" y="-98009.01"/><use xlink:href="#ClH_m_eCggK842Fdus_y_pad-12" x="105850" y="-99600"/><use xlink:href="#ClH_m_eCggK842Fdus_y_pad-10" x="56980" y="-110650"/><use xlink:href="#ClH_m_eCggK842Fdus_y_pad-11" x="62060" y="-110650"/><use xlink:href="#ClH_m_eCggK842Fdus_y_pad-11" x="67140" y="-110650"/><use xlink:href="#ClH_m_eCggK842Fdus_y_pad-11" x="72220" y="-110650"/><use xlink:href="#ClH_m_eCggK842Fdus_y_pad-12" x="110350" y="-45650"/><use xlink:href="#ClH_m_eCggK842Fdus_y_pad-12" x="109690.99" y="-47240.99"/><use xlink:href="#ClH_m_eCggK842Fdus_y_pad-12" x="106509.01" y="-47240.99"/><use xlink:href="#ClH_m_eCggK842Fdus_y_pad-12" x="106509.01" y="-44059.01"/><use xlink:href="#ClH_m_eCggK842Fdus_y_pad-12" x="109690.99" y="-44059.01"/><use xlink:href="#ClH_m_eCggK842Fdus_y_pad-12" x="108100" y="-47900"/><use xlink:href="#ClH_m_eCggK842Fdus_y_pad-12" x="105850" y="-45650"/><use xlink:href="#ClH_m_eCggK842Fdus_y_pad-13" x="108100" y="-45650"/><use xlink:href="#ClH_m_eCggK842Fdus_y_pad-12" x="108100" y="-43400"/><use xlink:href="#ClH_m_eCggK842Fdus_y_pad-10" x="100570" y="-110650"/><use xlink:href="#ClH_m_eCggK842Fdus_y_pad-11" x="105650" y="-110650"/><use xlink:href="#ClH_m_eCggK842Fdus_y_pad-10" x="109982" y="-34290"/><use xlink:href="#ClH_m_eCggK842Fdus_y_pad-11" x="104902" y="-34290"/><use xlink:href="#ClH_m_eCggK842Fdus_y_pad-12" x="56150" y="-97350"/><use xlink:href="#ClH_m_eCggK842Fdus_y_pad-12" x="56150" y="-101850"/><use xlink:href="#ClH_m_eCggK842Fdus_y_pad-12" x="57740.99" y="-101190.99"/><use xlink:href="#ClH_m_eCggK842Fdus_y_pad-13" x="56150" y="-99600"/><use xlink:href="#ClH_m_eCggK842Fdus_y_pad-12" x="54559.01" y="-98009.01"/><use xlink:href="#ClH_m_eCggK842Fdus_y_pad-12" x="54559.01" y="-101190.99"/><use xlink:href="#ClH_m_eCggK842Fdus_y_pad-12" x="53900" y="-99600"/><use xlink:href="#ClH_m_eCggK842Fdus_y_pad-12" x="58400" y="-99600"/><use xlink:href="#ClH_m_eCggK842Fdus_y_pad-12" x="57740.99" y="-98009.01"/><path d="M 70104 -91044 89710 -110650 92090 -113030 98806 -113030 M 100570 -111266 100570 -110650 M 70104 -34290 70104 -91044 M 98806 -113030 100570 -111266" fill="none" stroke-width="250"/><path d="M 112634.121 -30528.002 112680.614 -30581.658 112692 -30634 112692 -114566 112671.998 -114634.121 112618.342 -114680.614 112566 -114692 51434 -114692 51365.879 -114671.998 51319.386 -114618.342 51308 -114566 51308 -112198.134 54971.5 -112198.134 54978.255 -112260.316 55029.385 -112396.705 55116.739 -112513.261 55233.295 -112600.615 55369.684 -112651.745 55431.866 -112658.5 58528.134 -112658.5 58590.316 -112651.745 58726.705 -112600.615 58843.261 -112513.261 58930.615 -112396.705 58981.745 -112260.316 58988.5 -112198.134 58988.5 -110628.918 60046.917 -110628.918 60062.682 -110902.32 60063.507 -110906.525 60063.508 -110906.533 60084.698 -111014.539 60115.405 -111171.053 60116.792 -111175.103 60116.793 -111175.108 60137.605 -111235.895 60204.112 -111430.144 60327.16 -111674.799 60329.586 -111678.328 60329.589 -111678.334 60458.741 -111866.25 60482.274 -111900.49 60666.582 -112103.043 60876.675 -112278.707 60880.316 -112280.991 61105.024 -112421.951 61105.028 -112421.953 61108.664 -112424.234 61176.544 -112454.883 61354.345 -112535.164 61354.349 -112535.166 61358.257 -112536.93 61362.377 -112538.15 61362.376 -112538.15 61616.723 -112613.491 61616.727 -112613.492 61620.836 -112614.709 61625.07 -112615.357 61625.075 -112615.358 61887.298 -112655.483 61887.3 -112655.483 61891.54 -112656.132 62030.912 -112658.322 62161.071 -112660.367 62161.077 -112660.367 62165.362 -112660.434 62437.235 -112627.534 62702.127 -112558.041 62706.087 -112556.401 62706.092 -112556.399 62828.632 -112505.641 62955.136 -112453.241 63086.466 -112376.498 63187.879 -112317.237 63187.88 -112317.236 63191.582 -112315.073 63407.089 -112146.094 63448.809 -112103.043 63594.686 -111952.509 63597.669 -111949.431 63600.202 -111945.983 63600.206 -111945.978 63757.257 -111732.178 63759.795 -111728.723 63761.841 -111724.955 63888.418 -111491.83 63888.419 -111491.828 63890.468 -111488.054 63987.269 -111231.877 64048.407 -110964.933 64054.384 -110897.969 64072.531 -110694.627 64072.532 -110694.616 64072.751 -110692.161 64073.193 -110650 64071.756 -110628.918 65126.917 -110628.918 65142.682 -110902.32 65143.507 -110906.525 65143.508 -110906.533 65164.698 -111014.539 65195.405 -111171.053 65196.792 -111175.103 65196.793 -111175.108 65217.605 -111235.895 65284.112 -111430.144 65407.16 -111674.799 65409.586 -111678.328 65409.589 -111678.334 65538.741 -111866.25 65562.274 -111900.49 65746.582 -112103.043 65956.675 -112278.707 65960.316 -112280.991 66185.024 -112421.951 66185.028 -112421.953 66188.664 -112424.234 66256.544 -112454.883 66434.345 -112535.164 66434.349 -112535.166 66438.257 -112536.93 66442.377 -112538.15 66442.376 -112538.15 66696.723 -112613.491 66696.727 -112613.492 66700.836 -112614.709 66705.07 -112615.357 66705.075 -112615.358 66967.298 -112655.483 66967.3 -112655.483 66971.54 -112656.132 67110.912 -112658.322 67241.071 -112660.367 67241.077 -112660.367 67245.362 -112660.434 67517.235 -112627.534 67782.127 -112558.041 67786.087 -112556.401 67786.092 -112556.399 67908.632 -112505.641 68035.136 -112453.241 68166.466 -112376.498 68267.879 -112317.237 68267.88 -112317.236 68271.582 -112315.073 68487.089 -112146.094 68528.809 -112103.043 68674.686 -111952.509 68677.669 -111949.431 68680.202 -111945.983 68680.206 -111945.978 68837.257 -111732.178 68839.795 -111728.723 68841.841 -111724.955 68968.418 -111491.83 68968.419 -111491.828 68970.468 -111488.054 69067.269 -111231.877 69128.407 -110964.933 69134.384 -110897.969 69152.531 -110694.627 69152.532 -110694.616 69152.751 -110692.161 69153.193 -110650 69151.756 -110628.918 70206.917 -110628.918 70222.682 -110902.32 70223.507 -110906.525 70223.508 -110906.533 70244.698 -111014.539 70275.405 -111171.053 70276.792 -111175.103 70276.793 -111175.108 70297.605 -111235.895 70364.112 -111430.144 70487.16 -111674.799 70489.586 -111678.328 70489.589 -111678.334 70618.741 -111866.25 70642.274 -111900.49 70826.582 -112103.043 71036.675 -112278.707 71040.316 -112280.991 71265.024 -112421.951 71265.028 -112421.953 71268.664 -112424.234 71336.544 -112454.883 71514.345 -112535.164 71514.349 -112535.166 71518.257 -112536.93 71522.377 -112538.15 71522.376 -112538.15 71776.723 -112613.491 71776.727 -112613.492 71780.836 -112614.709 71785.07 -112615.357 71785.075 -112615.358 72047.298 -112655.483 72047.3 -112655.483 72051.54 -112656.132 72190.912 -112658.322 72321.071 -112660.367 72321.077 -112660.367 72325.362 -112660.434 72597.235 -112627.534 72862.127 -112558.041 72866.087 -112556.401 72866.092 -112556.399 72988.632 -112505.641 73115.136 -112453.241 73246.466 -112376.498 73347.879 -112317.237 73347.88 -112317.236 73351.582 -112315.073 73500.72 -112198.134 76651.5 -112198.134 76658.255 -112260.316 76709.385 -112396.705 76796.739 -112513.261 76913.295 -112600.615 77049.684 -112651.745 77111.866 -112658.5 80208.134 -112658.5 80270.316 -112651.745 80406.705 -112600.615 80523.261 -112513.261 80610.615 -112396.705 80661.745 -112260.316 80663.99 -112239.654 82515.618 -112239.654 82522.673 -112249.627 82553.679 -112275.551 82560.598 -112280.579 82785.272 -112421.515 82792.807 -112425.556 83034.52 -112534.694 83042.551 -112537.68 83296.832 -112613.002 83305.184 -112614.869 83567.34 -112654.984 83575.874 -112655.7 83841.045 -112659.867 83849.596 -112659.418 84112.883 -112627.557 84121.284 -112625.955 84377.824 -112558.653 84385.926 -112555.926 84630.949 -112454.434 84638.617 -112450.628 84867.598 -112316.822 84874.679 -112312.009 84954.655 -112249.301 84963.125 -112237.442 84956.608 -112225.818 83752.812 -111022.022 83738.868 -111014.408 83737.035 -111014.539 83730.42 -111018.79 82522.91 -112226.3 82515.618 -112239.654 80663.99 -112239.654 80668.5 -112198.134 80668.5 -110633.204 81727.665 -110633.204 81742.932 -110897.969 81744.005 -110906.47 81795.065 -111166.722 81797.276 -111174.974 81883.184 -111425.894 81886.499 -111433.779 82005.664 -111670.713 82010.02 -111678.079 82139.347 -111866.25 82149.601 -111874.594 82163.342 -111867.448 83367.978 -110662.812 83374.356 -110651.132 84104.408 -110651.132 84104.539 -110652.965 84108.79 -110659.58 85315.73 -111866.52 85327.939 -111873.187 85339.439 -111864.497 85436.831 -111731.913 85441.418 -111724.685 85567.962 -111491.621 85571.53 -111483.827 85665.271 -111235.75 85667.748 -111227.544 85726.954 -110969.038 85728.294 -110960.577 85752.031 -110694.616 85752.277 -110689.677 85752.666 -110652.485 85752.523 -110647.519 85734.362 -110381.123 85733.201 -110372.649 85679.419 -110112.944 85677.12 -110104.709 85588.588 -109854.705 85585.191 -109846.854 85463.55 -109611.178 85459.122 -109603.866 85340.031 -109434.417 85329.509 -109426.037 85316.121 -109433.089 84112.022 -110637.188 84104.408 -110651.132 83374.356 -110651.132 83375.592 -110648.868 83375.461 -110647.035 83371.21 -110640.42 82163.814 -109433.024 82151.804 -109426.466 82140.064 -109435.434 82031.935 -109585.911 82027.418 -109593.196 81903.325 -109827.567 81899.839 -109835.395 81808.7 -110084.446 81806.311 -110092.67 81749.812 -110351.795 81748.563 -110360.25 81727.754 -110624.653 81727.665 -110633.204 80668.5 -110633.204 80668.5 -109101.866 80664.224 -109062.5 82516.584 -109062.5 82522.98 -109073.77 83727.188 -110277.978 83741.132 -110285.592 83742.965 -110285.461 83749.58 -110281.21 84956.604 -109074.186 84963.795 -109061.017 84956.473 -109050.78 84909.233 -109012.115 84902.261 -109007.16 84676.122 -108868.582 84668.552 -108864.624 84425.704 -108758.022 84417.644 -108755.12 84162.592 -108682.467 84154.214 -108680.685 83891.656 -108643.318 83883.111 -108642.691 83617.908 -108641.302 83609.374 -108641.839 83346.433 -108676.456 83338.035 -108678.149 83082.238 -108748.127 83074.143 -108750.946 82830.199 -108854.997 82822.577 -108858.881 82595.013 -108995.075 82587.981 -108999.962 82525.053 -109050.377 82516.584 -109062.5 80664.224 -109062.5 80661.745 -109039.684 80610.615 -108903.295 80523.261 -108786.739 80406.705 -108699.385 80270.316 -108648.255 80208.134 -108641.5 77111.866 -108641.5 77049.684 -108648.255 76913.295 -108699.385 76796.739 -108786.739 76709.385 -108903.295 76658.255 -109039.684 76651.5 -109101.866 76651.5 -112198.134 73500.72 -112198.134 73567.089 -112146.094 73608.809 -112103.043 73754.686 -111952.509 73757.669 -111949.431 73760.202 -111945.983 73760.206 -111945.978 73917.257 -111732.178 73919.795 -111728.723 73921.841 -111724.955 74048.418 -111491.83 74048.419 -111491.828 74050.468 -111488.054 74147.269 -111231.877 74208.407 -110964.933 74214.384 -110897.969 74232.531 -110694.627 74232.532 -110694.616 74232.751 -110692.161 74233.193 -110650 74231.465 -110624.648 74214.859 -110381.055 74214.858 -110381.049 74214.567 -110376.778 74159.032 -110108.612 74067.617 -109850.465 73942.013 -109607.112 73932.04 -109592.921 73787.008 -109386.562 73784.545 -109383.057 73598.125 -109182.445 73594.81 -109179.731 73594.806 -109179.728 73433.304 -109047.54 73386.205 -109008.99 73152.704 -108865.901 73148.768 -108864.173 72905.873 -108757.549 72905.869 -108757.548 72901.945 -108755.825 72638.566 -108680.8 72634.324 -108680.196 72634.318 -108680.195 72429.387 -108651.029 72367.443 -108642.213 72223.589 -108641.46 72097.877 -108640.802 72097.871 -108640.802 72093.591 -108640.78 72089.347 -108641.339 72089.343 -108641.339 72015.741 -108651.029 71822.078 -108676.525 71817.938 -108677.658 71817.936 -108677.658 71750.037 -108696.233 71557.928 -108748.788 71553.98 -108750.472 71309.982 -108854.546 71309.978 -108854.548 71306.03 -108856.232 71286.125 -108868.145 71074.725 -108994.664 71074.721 -108994.667 71071.043 -108996.868 70857.318 -109168.094 70668.808 -109366.742 70509.002 -109589.136 70380.857 -109831.161 70379.385 -109835.184 70379.383 -109835.188 70372.314 -109854.506 70286.743 -110088.337 70228.404 -110355.907 70206.917 -110628.918 69151.756 -110628.918 69151.465 -110624.648 69134.859 -110381.055 69134.858 -110381.049 69134.567 -110376.778 69079.032 -110108.612 68987.617 -109850.465 68862.013 -109607.112 68852.04 -109592.921 68707.008 -109386.562 68704.545 -109383.057 68518.125 -109182.445 68514.81 -109179.731 68514.806 -109179.728 68353.304 -109047.54 68306.205 -109008.99 68072.704 -108865.901 68068.768 -108864.173 67825.873 -108757.549 67825.869 -108757.548 67821.945 -108755.825 67558.566 -108680.8 67554.324 -108680.196 67554.318 -108680.195 67349.387 -108651.029 67287.443 -108642.213 67143.589 -108641.46 67017.877 -108640.802 67017.871 -108640.802 67013.591 -108640.78 67009.347 -108641.339 67009.343 -108641.339 66935.741 -108651.029 66742.078 -108676.525 66737.938 -108677.658 66737.936 -108677.658 66670.037 -108696.233 66477.928 -108748.788 66473.98 -108750.472 66229.982 -108854.546 66229.978 -108854.548 66226.03 -108856.232 66206.125 -108868.145 65994.725 -108994.664 65994.721 -108994.667 65991.043 -108996.868 65777.318 -109168.094 65588.808 -109366.742 65429.002 -109589.136 65300.857 -109831.161 65299.385 -109835.184 65299.383 -109835.188 65292.314 -109854.506 65206.743 -110088.337 65148.404 -110355.907 65126.917 -110628.918 64071.756 -110628.918 64071.465 -110624.648 64054.859 -110381.055 64054.858 -110381.049 64054.567 -110376.778 63999.032 -110108.612 63907.617 -109850.465 63782.013 -109607.112 63772.04 -109592.921 63627.008 -109386.562 63624.545 -109383.057 63438.125 -109182.445 63434.81 -109179.731 63434.806 -109179.728 63273.304 -109047.54 63226.205 -109008.99 62992.704 -108865.901 62988.768 -108864.173 62745.873 -108757.549 62745.869 -108757.548 62741.945 -108755.825 62478.566 -108680.8 62474.324 -108680.196 62474.318 -108680.195 62269.387 -108651.029 62207.443 -108642.213 62063.589 -108641.46 61937.877 -108640.802 61937.871 -108640.802 61933.591 -108640.78 61929.347 -108641.339 61929.343 -108641.339 61855.741 -108651.029 61662.078 -108676.525 61657.938 -108677.658 61657.936 -108677.658 61590.037 -108696.233 61397.928 -108748.788 61393.98 -108750.472 61149.982 -108854.546 61149.978 -108854.548 61146.03 -108856.232 61126.125 -108868.145 60914.725 -108994.664 60914.721 -108994.667 60911.043 -108996.868 60697.318 -109168.094 60508.808 -109366.742 60349.002 -109589.136 60220.857 -109831.161 60219.385 -109835.184 60219.383 -109835.188 60212.314 -109854.506 60126.743 -110088.337 60068.404 -110355.907 60046.917 -110628.918 58988.5 -110628.918 58988.5 -109101.866 58981.745 -109039.684 58930.615 -108903.295 58843.261 -108786.739 58726.705 -108699.385 58590.316 -108648.255 58528.134 -108641.5 55431.866 -108641.5 55369.684 -108648.255 55233.295 -108699.385 55116.739 -108786.739 55029.385 -108903.295 54978.255 -109039.684 54971.5 -109101.866 54971.5 -112198.134 51308 -112198.134 51308 -102255.186 53859.96 -102255.186 53867.418 -102265.554 54082.662 -102439.854 54087.984 -102443.721 54390.823 -102640.387 54396.532 -102643.683 54718.275 -102807.62 54724.286 -102810.296 55061.395 -102939.7 55067.672 -102941.74 55416.463 -103035.198 55422.901 -103036.567 55779.56 -103093.055 55786.104 -103093.743 56146.699 -103112.641 56153.301 -103112.641 56513.896 -103093.743 56520.44 -103093.055 56877.099 -103036.567 56883.537 -103035.198 57232.328 -102941.74 57238.605 -102939.7 57575.714 -102810.296 57581.725 -102807.62 57903.468 -102643.683 57909.177 -102640.387 58212.016 -102443.721 58217.338 -102439.854 58431.634 -102266.322 58440.1 -102254.067 58433.766 -102242.976 56162.812 -99972.022 56148.868 -99964.408 56147.035 -99964.539 56140.42 -99968.79 53867.1 -102242.11 53859.96 -102255.186 51308 -102255.186 51308 -99603.301 52637.359 -99603.301 52656.257 -99963.896 52656.945 -99970.44 52713.433 -100327.099 52714.802 -100333.537 52808.26 -100682.328 52810.3 -100688.605 52939.704 -101025.714 52942.38 -101031.725 53106.317 -101353.468 53109.613 -101359.177 53306.279 -101662.016 53310.146 -101667.338 53483.678 -101881.634 53495.933 -101890.1 53507.024 -101883.766 55777.978 -99612.812 55784.356 -99601.132 56514.408 -99601.132 56514.539 -99602.965 56518.79 -99609.58 58792.11 -101882.9 58805.186 -101890.04 58815.554 -101882.582 58989.854 -101667.338 58993.721 -101662.016 59190.387 -101359.177 59193.683 -101353.468 59357.62 -101031.725 59360.296 -101025.714 59489.7 -100688.605 59491.74 -100682.328 59585.198 -100333.537 59586.567 -100327.099 59643.055 -99970.44 59643.743 -99963.896 59662.641 -99603.301 59662.641 -99596.699 59643.743 -99236.104 59643.055 -99229.56 59586.567 -98872.901 59585.198 -98866.463 59491.74 -98517.672 59489.7 -98511.395 59360.296 -98174.286 59357.62 -98168.275 59193.683 -97846.532 59190.387 -97840.823 58993.721 -97537.984 58989.854 -97532.662 58816.322 -97318.366 58804.067 -97309.9 58792.976 -97316.234 56522.022 -99587.188 56514.408 -99601.132 55784.356 -99601.132 55785.592 -99598.868 55785.461 -99597.035 55781.21 -99590.42 53507.89 -97317.1 53494.814 -97309.96 53484.446 -97317.418 53310.146 -97532.662 53306.279 -97537.984 53109.613 -97840.823 53106.317 -97846.532 52942.38 -98168.275 52939.704 -98174.286 52810.3 -98511.395 52808.26 -98517.672 52714.802 -98866.463 52713.433 -98872.901 52656.945 -99229.56 52656.257 -99236.104 52637.359 -99596.699 52637.359 -99603.301 51308 -99603.301 51308 -96945.933 53859.9 -96945.933 53866.234 -96957.024 56137.188 -99227.978 56151.132 -99235.592 56152.965 -99235.461 56159.58 -99231.21 58432.9 -96957.89 58440.04 -96944.814 58432.582 -96934.446 58217.338 -96760.146 58212.016 -96756.279 57909.177 -96559.613 57903.468 -96556.317 57581.725 -96392.38 57575.714 -96389.704 57238.605 -96260.3 57232.328 -96258.26 56883.537 -96164.802 56877.099 -96163.433 56520.44 -96106.945 56513.896 -96106.257 56153.301 -96087.359 56146.699 -96087.359 55786.104 -96106.257 55779.56 -96106.945 55422.901 -96163.433 55416.463 -96164.802 55067.672 -96258.26 55061.395 -96260.3 54724.286 -96389.704 54718.275 -96392.38 54396.532 -96556.317 54390.823 -96559.613 54087.984 -96756.279 54082.662 -96760.146 53868.366 -96933.678 53859.9 -96945.933 51308 -96945.933 51308 -48305.186 53859.96 -48305.186 53867.418 -48315.554 54082.662 -48489.854 54087.984 -48493.721 54390.823 -48690.387 54396.532 -48693.683 54718.275 -48857.62 54724.286 -48860.296 55061.395 -48989.7 55067.672 -48991.74 55416.463 -49085.198 55422.901 -49086.567 55779.56 -49143.055 55786.104 -49143.743 56146.699 -49162.641 56153.301 -49162.641 56513.896 -49143.743 56520.44 -49143.055 56877.099 -49086.567 56883.537 -49085.198 57232.328 -48991.74 57238.605 -48989.7 57575.714 -48860.296 57581.725 -48857.62 57903.468 -48693.683 57909.177 -48690.387 58212.016 -48493.721 58217.338 -48489.854 58431.634 -48316.322 58440.1 -48304.067 58433.766 -48292.976 56162.812 -46022.022 56148.868 -46014.408 56147.035 -46014.539 56140.42 -46018.79 53867.1 -48292.11 53859.96 -48305.186 51308 -48305.186 51308 -45653.301 52637.359 -45653.301 52656.257 -46013.896 52656.945 -46020.44 52713.433 -46377.099 52714.802 -46383.537 52808.26 -46732.328 52810.3 -46738.605 52939.704 -47075.714 52942.38 -47081.725 53106.317 -47403.468 53109.613 -47409.177 53306.279 -47712.016 53310.146 -47717.338 53483.678 -47931.634 53495.933 -47940.1 53507.024 -47933.766 55777.978 -45662.812 55784.356 -45651.132 56514.408 -45651.132 56514.539 -45652.965 56518.79 -45659.58 58792.11 -47932.9 58805.186 -47940.04 58815.554 -47932.582 58989.854 -47717.338 58993.721 -47712.016 59190.387 -47409.177 59193.683 -47403.468 59357.62 -47081.725 59360.296 -47075.714 59489.7 -46738.605 59491.74 -46732.328 59585.198 -46383.537 59586.567 -46377.099 59643.055 -46020.44 59643.743 -46013.896 59662.641 -45653.301 59662.641 -45646.699 59643.743 -45286.104 59643.055 -45279.56 59586.567 -44922.901 59585.198 -44916.463 59491.74 -44567.672 59489.7 -44561.395 59360.296 -44224.286 59357.62 -44218.275 59193.683 -43896.532 59190.387 -43890.823 58993.721 -43587.984 58989.854 -43582.662 58816.322 -43368.366 58804.067 -43359.9 58792.976 -43366.234 56522.022 -45637.188 56514.408 -45651.132 55784.356 -45651.132 55785.592 -45648.868 55785.461 -45647.035 55781.21 -45640.42 53507.89 -43367.1 53494.814 -43359.96 53484.446 -43367.418 53310.146 -43582.662 53306.279 -43587.984 53109.613 -43890.823 53106.317 -43896.532 52942.38 -44218.275 52939.704 -44224.286 52810.3 -44561.395 52808.26 -44567.672 52714.802 -44916.463 52713.433 -44922.901 52656.945 -45279.56 52656.257 -45286.104 52637.359 -45646.699 52637.359 -45653.301 51308 -45653.301 51308 -42995.933 53859.9 -42995.933 53866.234 -43007.024 56137.188 -45277.978 56151.132 -45285.592 56152.965 -45285.461 56159.58 -45281.21 58432.9 -43007.89 58440.04 -42994.814 58432.582 -42984.446 58217.338 -42810.146 58212.016 -42806.279 57909.177 -42609.613 57903.468 -42606.317 57581.725 -42442.38 57575.714 -42439.704 57238.605 -42310.3 57232.328 -42308.26 56883.537 -42214.802 56877.099 -42213.433 56520.44 -42156.945 56513.896 -42156.257 56153.301 -42137.359 56146.699 -42137.359 55786.104 -42156.257 55779.56 -42156.945 55422.901 -42213.433 55416.463 -42214.802 55067.672 -42308.26 55061.395 -42310.3 54724.286 -42439.704 54718.275 -42442.38 54396.532 -42606.317 54390.823 -42609.613 54087.984 -42806.279 54082.662 -42810.146 53868.366 -42983.678 53859.9 -42995.933 51308 -42995.933 51308 -35879.654 52849.618 -35879.654 52856.673 -35889.627 52887.679 -35915.551 52894.598 -35920.579 53119.272 -36061.515 53126.807 -36065.556 53368.52 -36174.694 53376.551 -36177.68 53630.832 -36253.002 53639.184 -36254.869 53901.34 -36294.984 53909.874 -36295.7 54175.045 -36299.867 54183.596 -36299.418 54446.883 -36267.557 54455.284 -36265.955 54711.824 -36198.653 54719.926 -36195.926 54964.949 -36094.434 54972.617 -36090.628 55201.598 -35956.822 55208.679 -35952.009 55288.655 -35889.301 55297.125 -35877.442 55290.608 -35865.818 55262.924 -35838.134 57145.5 -35838.134 57152.255 -35900.316 57203.385 -36036.705 57290.739 -36153.261 57407.295 -36240.615 57543.684 -36291.745 57605.866 -36298.5 60702.134 -36298.5 60764.316 -36291.745 60900.705 -36240.615 61017.261 -36153.261 61104.615 -36036.705 61155.745 -35900.316 61157.99 -35879.654 63799.618 -35879.654 63806.673 -35889.627 63837.679 -35915.551 63844.598 -35920.579 64069.272 -36061.515 64076.807 -36065.556 64318.52 -36174.694 64326.551 -36177.68 64580.832 -36253.002 64589.184 -36254.869 64851.34 -36294.984 64859.874 -36295.7 65125.045 -36299.867 65133.596 -36299.418 65396.883 -36267.557 65405.284 -36265.955 65661.824 -36198.653 65669.926 -36195.926 65914.949 -36094.434 65922.617 -36090.628 66151.598 -35956.822 66158.679 -35952.009 66238.655 -35889.301 66247.125 -35877.442 66240.608 -35865.818 66212.924 -35838.134 68095.5 -35838.134 68102.255 -35900.316 68153.385 -36036.705 68240.739 -36153.261 68357.295 -36240.615 68493.684 -36291.745 68555.866 -36298.5 69344.5 -36298.5 69412.621 -36318.502 69459.114 -36372.158 69470.5 -36424.5 69470.5 -90965.233 69469.973 -90976.416 69468.298 -90983.909 69468.547 -90991.835 69468.547 -90991.836 69470.438 -91051.986 69470.5 -91055.945 69470.5 -91083.856 69470.997 -91087.79 69470.997 -91087.791 69471.005 -91087.856 69471.938 -91099.693 69473.327 -91143.889 69478.978 -91163.339 69482.987 -91182.7 69485.526 -91202.797 69488.445 -91210.168 69488.445 -91210.17 69501.804 -91243.912 69505.649 -91255.142 69517.982 -91297.593 69522.015 -91304.412 69522.017 -91304.417 69528.293 -91315.028 69536.988 -91332.776 69544.448 -91351.617 69549.11 -91358.033 69549.11 -91358.034 69570.436 -91387.387 69576.952 -91397.307 69599.458 -91435.362 69613.779 -91449.683 69626.619 -91464.716 69638.528 -91481.107 69644.634 -91486.158 69672.605 -91509.298 69681.384 -91517.288 87664.595 -109500.5 87698.621 -109562.812 87701.5 -109589.595 87701.5 -112198.134 87708.255 -112260.316 87759.385 -112396.705 87846.739 -112513.261 87963.295 -112600.615 88099.684 -112651.745 88161.866 -112658.5 90770.406 -112658.5 90838.527 -112678.502 90859.501 -112695.405 91586.343 -113422.247 91593.887 -113430.537 91598 -113437.018 91603.777 -113442.443 91647.667 -113483.658 91650.509 -113486.413 91670.23 -113506.134 91673.425 -113508.612 91682.447 -113516.318 91714.679 -113546.586 91721.628 -113550.406 91732.432 -113556.346 91748.956 -113567.199 91764.959 -113579.613 91805.543 -113597.176 91816.173 -113602.383 91854.94 -113623.695 91862.617 -113625.666 91862.622 -113625.668 91874.558 -113628.732 91893.266 -113635.137 91911.855 -113643.181 91919.683 -113644.421 91919.69 -113644.423 91955.524 -113650.099 91967.144 -113652.505 91998.959 -113660.673 92009.97 -113663.5 92030.224 -113663.5 92049.934 -113665.051 92069.943 -113668.22 92077.835 -113667.474 92096.58 -113665.702 92113.962 -113664.059 92125.819 -113663.5 98727.233 -113663.5 98738.416 -113664.027 98745.909 -113665.702 98753.835 -113665.453 98753.836 -113665.453 98813.986 -113663.562 98817.945 -113663.5 98845.856 -113663.5 98849.791 -113663.003 98849.856 -113662.995 98861.693 -113662.062 98893.951 -113661.048 98897.97 -113660.922 98905.889 -113660.673 98925.343 -113655.021 98944.7 -113651.013 98956.93 -113649.468 98956.931 -113649.468 98964.797 -113648.474 98972.168 -113645.555 98972.17 -113645.555 99005.912 -113632.196 99017.142 -113628.351 99051.983 -113618.229 99051.984 -113618.229 99059.593 -113616.018 99066.412 -113611.985 99066.417 -113611.983 99077.028 -113605.707 99094.776 -113597.012 99113.617 -113589.552 99133.987 -113574.753 99149.387 -113563.564 99159.307 -113557.048 99190.535 -113538.58 99190.538 -113538.578 99197.362 -113534.542 99211.683 -113520.221 99226.717 -113507.38 99228.432 -113506.134 99243.107 -113495.472 99271.298 -113461.395 99279.288 -113452.616 100036.499 -112695.405 100098.811 -112661.379 100125.594 -112658.5 102118.134 -112658.5 102180.316 -112651.745 102316.705 -112600.615 102433.261 -112513.261 102520.615 -112396.705 102571.745 -112260.316 102578.5 -112198.134 102578.5 -110628.918 103636.917 -110628.918 103652.682 -110902.32 103653.507 -110906.525 103653.508 -110906.533 103674.698 -111014.539 103705.405 -111171.053 103706.792 -111175.103 103706.793 -111175.108 103727.605 -111235.895 103794.112 -111430.144 103917.16 -111674.799 103919.586 -111678.328 103919.589 -111678.334 104048.741 -111866.25 104072.274 -111900.49 104256.582 -112103.043 104466.675 -112278.707 104470.316 -112280.991 104695.024 -112421.951 104695.028 -112421.953 104698.664 -112424.234 104766.544 -112454.883 104944.345 -112535.164 104944.349 -112535.166 104948.257 -112536.93 104952.377 -112538.15 104952.376 -112538.15 105206.723 -112613.491 105206.727 -112613.492 105210.836 -112614.709 105215.07 -112615.357 105215.075 -112615.358 105477.298 -112655.483 105477.3 -112655.483 105481.54 -112656.132 105620.912 -112658.322 105751.071 -112660.367 105751.077 -112660.367 105755.362 -112660.434 106027.235 -112627.534 106292.127 -112558.041 106296.087 -112556.401 106296.092 -112556.399 106418.632 -112505.641 106545.136 -112453.241 106676.466 -112376.498 106777.879 -112317.237 106777.88 -112317.236 106781.582 -112315.073 106997.089 -112146.094 107038.809 -112103.043 107184.686 -111952.509 107187.669 -111949.431 107190.202 -111945.983 107190.206 -111945.978 107347.257 -111732.178 107349.795 -111728.723 107351.841 -111724.955 107478.418 -111491.83 107478.419 -111491.828 107480.468 -111488.054 107577.269 -111231.877 107638.407 -110964.933 107644.384 -110897.969 107662.531 -110694.627 107662.532 -110694.616 107662.751 -110692.161 107663.193 -110650 107661.465 -110624.648 107644.859 -110381.055 107644.858 -110381.049 107644.567 -110376.778 107589.032 -110108.612 107497.617 -109850.465 107372.013 -109607.112 107362.04 -109592.921 107217.008 -109386.562 107214.545 -109383.057 107028.125 -109182.445 107024.81 -109179.731 107024.806 -109179.728 106863.304 -109047.54 106816.205 -109008.99 106582.704 -108865.901 106578.768 -108864.173 106335.873 -108757.549 106335.869 -108757.548 106331.945 -108755.825 106068.566 -108680.8 106064.324 -108680.196 106064.318 -108680.195 105859.387 -108651.029 105797.443 -108642.213 105653.589 -108641.46 105527.877 -108640.802 105527.871 -108640.802 105523.591 -108640.78 105519.347 -108641.339 105519.343 -108641.339 105445.741 -108651.029 105252.078 -108676.525 105247.938 -108677.658 105247.936 -108677.658 105180.037 -108696.233 104987.928 -108748.788 104983.98 -108750.472 104739.982 -108854.546 104739.978 -108854.548 104736.03 -108856.232 104716.125 -108868.145 104504.725 -108994.664 104504.721 -108994.667 104501.043 -108996.868 104287.318 -109168.094 104098.808 -109366.742 103939.002 -109589.136 103810.857 -109831.161 103809.385 -109835.184 103809.383 -109835.188 103802.314 -109854.506 103716.743 -110088.337 103658.404 -110355.907 103636.917 -110628.918 102578.5 -110628.918 102578.5 -109101.866 102571.745 -109039.684 102520.615 -108903.295 102433.261 -108786.739 102316.705 -108699.385 102180.316 -108648.255 102118.134 -108641.5 99021.866 -108641.5 98959.684 -108648.255 98823.295 -108699.385 98706.739 -108786.739 98619.385 -108903.295 98568.255 -109039.684 98561.5 -109101.866 98561.5 -112198.134 98561.869 -112201.531 98567.883 -112256.892 98555.355 -112326.775 98507.034 -112378.79 98442.62 -112396.5 96182.63 -112396.5 96114.509 -112376.498 96068.016 -112322.842 96057.912 -112252.568 96087.406 -112187.988 96104.879 -112171.35 96137.089 -112146.094 96178.809 -112103.043 96324.686 -111952.509 96327.669 -111949.431 96330.202 -111945.983 96330.206 -111945.978 96487.257 -111732.178 96489.795 -111728.723 96491.841 -111724.955 96618.418 -111491.83 96618.419 -111491.828 96620.468 -111488.054 96717.269 -111231.877 96778.407 -110964.933 96784.384 -110897.969 96802.531 -110694.627 96802.532 -110694.616 96802.751 -110692.161 96803.193 -110650 96801.465 -110624.648 96784.859 -110381.055 96784.858 -110381.049 96784.567 -110376.778 96729.032 -110108.612 96637.617 -109850.465 96512.013 -109607.112 96502.04 -109592.921 96357.008 -109386.562 96354.545 -109383.057 96168.125 -109182.445 96164.81 -109179.731 96164.806 -109179.728 96003.304 -109047.54 95956.205 -109008.99 95722.704 -108865.901 95718.768 -108864.173 95475.873 -108757.549 95475.869 -108757.548 95471.945 -108755.825 95208.566 -108680.8 95204.324 -108680.196 95204.318 -108680.195 94999.387 -108651.029 94937.443 -108642.213 94793.589 -108641.46 94667.877 -108640.802 94667.871 -108640.802 94663.591 -108640.78 94659.347 -108641.339 94659.343 -108641.339 94585.741 -108651.029 94392.078 -108676.525 94387.938 -108677.658 94387.936 -108677.658 94320.037 -108696.233 94127.928 -108748.788 94123.98 -108750.472 93879.982 -108854.546 93879.978 -108854.548 93876.03 -108856.232 93856.125 -108868.145 93644.725 -108994.664 93644.721 -108994.667 93641.043 -108996.868 93427.318 -109168.094 93238.808 -109366.742 93079.002 -109589.136 92950.857 -109831.161 92949.385 -109835.184 92949.383 -109835.188 92942.314 -109854.506 92856.743 -110088.337 92798.404 -110355.907 92776.917 -110628.918 92792.682 -110902.32 92793.507 -110906.525 92793.508 -110906.533 92814.698 -111014.539 92845.405 -111171.053 92846.792 -111175.103 92846.793 -111175.108 92867.605 -111235.895 92934.112 -111430.144 93057.16 -111674.799 93059.586 -111678.328 93059.589 -111678.334 93188.741 -111866.25 93212.274 -111900.49 93396.582 -112103.043 93399.877 -112105.798 93399.878 -112105.799 93481.251 -112173.837 93520.681 -112232.878 93521.932 -112303.863 93484.606 -112364.256 93420.555 -112394.882 93400.429 -112396.5 92404.595 -112396.5 92336.474 -112376.498 92315.5 -112359.595 91755.405 -111799.5 91721.379 -111737.188 91718.5 -111710.405 91718.5 -109101.866 91711.745 -109039.684 91660.615 -108903.295 91573.261 -108786.739 91456.705 -108699.385 91320.316 -108648.255 91258.134 -108641.5 88649.594 -108641.5 88581.473 -108621.498 88560.499 -108604.595 82211.091 -102255.186 105809.96 -102255.186 105817.418 -102265.554 106032.662 -102439.854 106037.984 -102443.721 106340.823 -102640.387 106346.532 -102643.683 106668.275 -102807.62 106674.286 -102810.296 107011.395 -102939.7 107017.672 -102941.74 107366.463 -103035.198 107372.901 -103036.567 107729.56 -103093.055 107736.104 -103093.743 108096.699 -103112.641 108103.301 -103112.641 108463.896 -103093.743 108470.44 -103093.055 108827.099 -103036.567 108833.537 -103035.198 109182.328 -102941.74 109188.605 -102939.7 109525.714 -102810.296 109531.725 -102807.62 109853.468 -102643.683 109859.177 -102640.387 110162.016 -102443.721 110167.338 -102439.854 110381.634 -102266.322 110390.1 -102254.067 110383.766 -102242.976 108112.812 -99972.022 108098.868 -99964.408 108097.035 -99964.539 108090.42 -99968.79 105817.1 -102242.11 105809.96 -102255.186 82211.091 -102255.186 79559.206 -99603.301 104587.359 -99603.301 104606.257 -99963.896 104606.945 -99970.44 104663.433 -100327.099 104664.802 -100333.537 104758.26 -100682.328 104760.3 -100688.605 104889.704 -101025.714 104892.38 -101031.725 105056.317 -101353.468 105059.613 -101359.177 105256.279 -101662.016 105260.146 -101667.338 105433.678 -101881.634 105445.933 -101890.1 105457.024 -101883.766 107727.978 -99612.812 107734.356 -99601.132 108464.408 -99601.132 108464.539 -99602.965 108468.79 -99609.58 110742.11 -101882.9 110755.186 -101890.04 110765.554 -101882.582 110939.854 -101667.338 110943.721 -101662.016 111140.387 -101359.177 111143.683 -101353.468 111307.62 -101031.725 111310.296 -101025.714 111439.7 -100688.605 111441.74 -100682.328 111535.198 -100333.537 111536.567 -100327.099 111593.055 -99970.44 111593.743 -99963.896 111612.641 -99603.301 111612.641 -99596.699 111593.743 -99236.104 111593.055 -99229.56 111536.567 -98872.901 111535.198 -98866.463 111441.74 -98517.672 111439.7 -98511.395 111310.296 -98174.286 111307.62 -98168.275 111143.683 -97846.532 111140.387 -97840.823 110943.721 -97537.984 110939.854 -97532.662 110766.322 -97318.366 110754.067 -97309.9 110742.976 -97316.234 108472.022 -99587.188 108464.408 -99601.132 107734.356 -99601.132 107735.592 -99598.868 107735.461 -99597.035 107731.21 -99590.42 105457.89 -97317.1 105444.814 -97309.96 105434.446 -97317.418 105260.146 -97532.662 105256.279 -97537.984 105059.613 -97840.823 105056.317 -97846.532 104892.38 -98168.275 104889.704 -98174.286 104760.3 -98511.395 104758.26 -98517.672 104664.802 -98866.463 104663.433 -98872.901 104606.945 -99229.56 104606.257 -99236.104 104587.359 -99596.699 104587.359 -99603.301 79559.206 -99603.301 76901.838 -96945.933 105809.9 -96945.933 105816.234 -96957.024 108087.188 -99227.978 108101.132 -99235.592 108102.965 -99235.461 108109.58 -99231.21 110382.9 -96957.89 110390.04 -96944.814 110382.582 -96934.446 110167.338 -96760.146 110162.016 -96756.279 109859.177 -96559.613 109853.468 -96556.317 109531.725 -96392.38 109525.714 -96389.704 109188.605 -96260.3 109182.328 -96258.26 108833.537 -96164.802 108827.099 -96163.433 108470.44 -96106.945 108463.896 -96106.257 108103.301 -96087.359 108096.699 -96087.359 107736.104 -96106.257 107729.56 -96106.945 107372.901 -96163.433 107366.463 -96164.802 107017.672 -96258.26 107011.395 -96260.3 106674.286 -96389.704 106668.275 -96392.38 106346.532 -96556.317 106340.823 -96559.613 106037.984 -96756.279 106032.662 -96760.146 105818.366 -96933.678 105809.9 -96945.933 76901.838 -96945.933 70774.405 -90818.5 70740.379 -90756.188 70737.5 -90729.405 70737.5 -48305.186 105809.96 -48305.186 105817.418 -48315.554 106032.662 -48489.854 106037.984 -48493.721 106340.823 -48690.387 106346.532 -48693.683 106668.275 -48857.62 106674.286 -48860.296 107011.395 -48989.7 107017.672 -48991.74 107366.463 -49085.198 107372.901 -49086.567 107729.56 -49143.055 107736.104 -49143.743 108096.699 -49162.641 108103.301 -49162.641 108463.896 -49143.743 108470.44 -49143.055 108827.099 -49086.567 108833.537 -49085.198 109182.328 -48991.74 109188.605 -48989.7 109525.714 -48860.296 109531.725 -48857.62 109853.468 -48693.683 109859.177 -48690.387 110162.016 -48493.721 110167.338 -48489.854 110381.634 -48316.322 110390.1 -48304.067 110383.766 -48292.976 108112.812 -46022.022 108098.868 -46014.408 108097.035 -46014.539 108090.42 -46018.79 105817.1 -48292.11 105809.96 -48305.186 70737.5 -48305.186 70737.5 -45653.301 104587.359 -45653.301 104606.257 -46013.896 104606.945 -46020.44 104663.433 -46377.099 104664.802 -46383.537 104758.26 -46732.328 104760.3 -46738.605 104889.704 -47075.714 104892.38 -47081.725 105056.317 -47403.468 105059.613 -47409.177 105256.279 -47712.016 105260.146 -47717.338 105433.678 -47931.634 105445.933 -47940.1 105457.024 -47933.766 107727.978 -45662.812 107734.356 -45651.132 108464.408 -45651.132 108464.539 -45652.965 108468.79 -45659.58 110742.11 -47932.9 110755.186 -47940.04 110765.554 -47932.582 110939.854 -47717.338 110943.721 -47712.016 111140.387 -47409.177 111143.683 -47403.468 111307.62 -47081.725 111310.296 -47075.714 111439.7 -46738.605 111441.74 -46732.328 111535.198 -46383.537 111536.567 -46377.099 111593.055 -46020.44 111593.743 -46013.896 111612.641 -45653.301 111612.641 -45646.699 111593.743 -45286.104 111593.055 -45279.56 111536.567 -44922.901 111535.198 -44916.463 111441.74 -44567.672 111439.7 -44561.395 111310.296 -44224.286 111307.62 -44218.275 111143.683 -43896.532 111140.387 -43890.823 110943.721 -43587.984 110939.854 -43582.662 110766.322 -43368.366 110754.067 -43359.9 110742.976 -43366.234 108472.022 -45637.188 108464.408 -45651.132 107734.356 -45651.132 107735.592 -45648.868 107735.461 -45647.035 107731.21 -45640.42 105457.89 -43367.1 105444.814 -43359.96 105434.446 -43367.418 105260.146 -43582.662 105256.279 -43587.984 105059.613 -43890.823 105056.317 -43896.532 104892.38 -44218.275 104889.704 -44224.286 104760.3 -44561.395 104758.26 -44567.672 104664.802 -44916.463 104663.433 -44922.901 104606.945 -45279.56 104606.257 -45286.104 104587.359 -45646.699 104587.359 -45653.301 70737.5 -45653.301 70737.5 -42995.933 105809.9 -42995.933 105816.234 -43007.024 108087.188 -45277.978 108101.132 -45285.592 108102.965 -45285.461 108109.58 -45281.21 110382.9 -43007.89 110390.04 -42994.814 110382.582 -42984.446 110167.338 -42810.146 110162.016 -42806.279 109859.177 -42609.613 109853.468 -42606.317 109531.725 -42442.38 109525.714 -42439.704 109188.605 -42310.3 109182.328 -42308.26 108833.537 -42214.802 108827.099 -42213.433 108470.44 -42156.945 108463.896 -42156.257 108103.301 -42137.359 108096.699 -42137.359 107736.104 -42156.257 107729.56 -42156.945 107372.901 -42213.433 107366.463 -42214.802 107017.672 -42308.26 107011.395 -42310.3 106674.286 -42439.704 106668.275 -42442.38 106346.532 -42606.317 106340.823 -42609.613 106037.984 -42806.279 106032.662 -42810.146 105818.366 -42983.678 105809.9 -42995.933 70737.5 -42995.933 70737.5 -41351.961 83511.869 -41351.961 83515.38 -41356.651 83656.841 -41419.634 83669.32 -41423.689 83843.107 -41460.627 83856.168 -41462 84033.832 -41462 84046.893 -41460.627 84220.68 -41423.689 84233.159 -41419.634 84384.183 -41352.393 84385.083 -41354.416 84395.698 -41349.689 84390.366 -41346.262 84493.538 -41346.262 84496.674 -41346.743 84507.027 -41352.19 84512.262 -41355.262 84656.841 -41419.634 84669.32 -41423.689 84843.107 -41460.627 84856.168 -41462 85033.832 -41462 85046.893 -41460.627 85220.68 -41423.689 85233.159 -41419.634 85384.183 -41352.393 85385.083 -41354.416 85395.698 -41349.689 85390.366 -41346.262 85493.538 -41346.262 85496.674 -41346.743 85507.027 -41352.19 85512.262 -41355.262 85656.841 -41419.634 85669.32 -41423.689 85843.107 -41460.627 85856.168 -41462 86033.832 -41462 86046.893 -41460.627 86220.68 -41423.689 86233.159 -41419.634 86384.183 -41352.393 86385.083 -41354.416 86395.698 -41349.689 86390.366 -41346.262 86493.538 -41346.262 86496.674 -41346.743 86507.027 -41352.19 86512.262 -41355.262 86656.841 -41419.634 86669.32 -41423.689 86843.107 -41460.627 86856.168 -41462 87033.832 -41462 87046.893 -41460.627 87220.68 -41423.689 87233.159 -41419.634 87384.183 -41352.393 87385.083 -41354.416 87395.698 -41349.689 87390.366 -41346.262 87493.538 -41346.262 87496.674 -41346.743 87507.027 -41352.19 87512.262 -41355.262 87656.841 -41419.634 87669.32 -41423.689 87843.107 -41460.627 87856.168 -41462 88033.832 -41462 88046.893 -41460.627 88220.68 -41423.689 88233.159 -41419.634 88367.633 -41359.761 88378.378 -41350.628 88376.781 -41344.991 87957.812 -40926.022 87943.868 -40918.408 87942.035 -40918.539 87935.42 -40922.79 87534.095 -41324.115 87493.538 -41346.262 87390.366 -41346.262 87355.905 -41324.115 86957.812 -40926.022 86943.868 -40918.408 86942.035 -40918.539 86935.42 -40922.79 86534.095 -41324.115 86493.538 -41346.262 86390.366 -41346.262 86355.905 -41324.115 85957.812 -40926.022 85943.868 -40918.408 85942.035 -40918.539 85935.42 -40922.79 85534.095 -41324.115 85493.538 -41346.262 85390.366 -41346.262 85355.905 -41324.115 84957.812 -40926.022 84943.868 -40918.408 84942.035 -40918.539 84935.42 -40922.79 84534.095 -41324.115 84493.538 -41346.262 84390.366 -41346.262 84355.905 -41324.115 83957.812 -40926.022 83943.868 -40918.408 83942.035 -40918.539 83935.42 -40922.79 83518.629 -41339.581 83511.869 -41351.961 70737.5 -41351.961 70737.5 -40560.565 83032.688 -40560.565 83051.259 -40737.261 83053.989 -40750.102 83108.892 -40919.075 83114.23 -40931.064 83139.761 -40975.285 83149.965 -40985.015 83157.986 -40981.804 83572.978 -40566.812 83579.356 -40555.132 84309.408 -40555.132 84309.539 -40556.965 84313.79 -40563.58 84432.188 -40681.978 84446.132 -40689.592 84447.965 -40689.461 84454.58 -40685.21 84572.978 -40566.812 84579.356 -40555.132 85309.408 -40555.132 85309.539 -40556.965 85313.79 -40563.58 85432.188 -40681.978 85446.132 -40689.592 85447.965 -40689.461 85454.58 -40685.21 85572.978 -40566.812 85579.356 -40555.132 86309.408 -40555.132 86309.539 -40556.965 86313.79 -40563.58 86432.188 -40681.978 86446.132 -40689.592 86447.965 -40689.461 86454.58 -40685.21 86572.978 -40566.812 86579.356 -40555.132 87309.408 -40555.132 87309.539 -40556.965 87313.79 -40563.58 87432.188 -40681.978 87446.132 -40689.592 87447.965 -40689.461 87454.58 -40685.21 87572.978 -40566.812 87579.356 -40555.132 88309.408 -40555.132 88309.539 -40556.965 88313.79 -40563.58 88728.37 -40978.16 88740.75 -40984.92 88747.665 -40979.744 88775.77 -40931.064 88781.108 -40919.075 88836.011 -40750.102 88838.741 -40737.261 88857.312 -40560.565 88857.312 -40547.435 88838.741 -40370.739 88836.011 -40357.898 88781.108 -40188.925 88775.77 -40176.936 88741.182 -40117.028 88745.595 -40114.48 88739.877 -40104.565 88715.115 -40143.095 88317.022 -40541.188 88309.408 -40555.132 87579.356 -40555.132 87580.592 -40552.868 87580.461 -40551.035 87576.21 -40544.42 87457.812 -40426.022 87443.868 -40418.408 87442.035 -40418.539 87435.42 -40422.79 87317.022 -40541.188 87309.408 -40555.132 86579.356 -40555.132 86580.592 -40552.868 86580.461 -40551.035 86576.21 -40544.42 86457.812 -40426.022 86443.868 -40418.408 86442.035 -40418.539 86435.42 -40422.79 86317.022 -40541.188 86309.408 -40555.132 85579.356 -40555.132 85580.592 -40552.868 85580.461 -40551.035 85576.21 -40544.42 85457.812 -40426.022 85443.868 -40418.408 85442.035 -40418.539 85435.42 -40422.79 85317.022 -40541.188 85309.408 -40555.132 84579.356 -40555.132 84580.592 -40552.868 84580.461 -40551.035 84576.21 -40544.42 84457.812 -40426.022 84443.868 -40418.408 84442.035 -40418.539 84435.42 -40422.79 84317.022 -40541.188 84309.408 -40555.132 83579.356 -40555.132 83580.592 -40552.868 83580.461 -40551.035 83576.21 -40544.42 83174.885 -40143.095 83154.006 -40104.86 83148.154 -40116.645 83148.818 -40117.028 83114.23 -40176.936 83108.892 -40188.925 83053.989 -40357.898 83051.259 -40370.739 83032.688 -40547.435 83032.688 -40560.565 70737.5 -40560.565 70737.5 -40055.132 83809.408 -40055.132 83809.539 -40056.965 83813.79 -40063.58 83932.188 -40181.978 83946.132 -40189.592 83947.965 -40189.461 83954.58 -40185.21 84072.978 -40066.812 84079.356 -40055.132 84809.408 -40055.132 84809.539 -40056.965 84813.79 -40063.58 84932.188 -40181.978 84946.132 -40189.592 84947.965 -40189.461 84954.58 -40185.21 85072.978 -40066.812 85079.356 -40055.132 85809.408 -40055.132 85809.539 -40056.965 85813.79 -40063.58 85932.188 -40181.978 85946.132 -40189.592 85947.965 -40189.461 85954.58 -40185.21 86072.978 -40066.812 86079.356 -40055.132 86809.408 -40055.132 86809.539 -40056.965 86813.79 -40063.58 86932.188 -40181.978 86946.132 -40189.592 86947.965 -40189.461 86954.58 -40185.21 87072.978 -40066.812 87079.356 -40055.132 87809.408 -40055.132 87809.539 -40056.965 87813.79 -40063.58 87932.188 -40181.978 87946.132 -40189.592 87947.965 -40189.461 87954.58 -40185.21 88072.978 -40066.812 88080.592 -40052.868 88080.461 -40051.035 88076.21 -40044.42 87957.812 -39926.022 87943.868 -39918.408 87942.035 -39918.539 87935.42 -39922.79 87817.022 -40041.188 87809.408 -40055.132 87079.356 -40055.132 87080.592 -40052.868 87080.461 -40051.035 87076.21 -40044.42 86957.812 -39926.022 86943.868 -39918.408 86942.035 -39918.539 86935.42 -39922.79 86817.022 -40041.188 86809.408 -40055.132 86079.356 -40055.132 86080.592 -40052.868 86080.461 -40051.035 86076.21 -40044.42 85957.812 -39926.022 85943.868 -39918.408 85942.035 -39918.539 85935.42 -39922.79 85817.022 -40041.188 85809.408 -40055.132 85079.356 -40055.132 85080.592 -40052.868 85080.461 -40051.035 85076.21 -40044.42 84957.812 -39926.022 84943.868 -39918.408 84942.035 -39918.539 84935.42 -39922.79 84817.022 -40041.188 84809.408 -40055.132 84079.356 -40055.132 84080.592 -40052.868 84080.461 -40051.035 84076.21 -40044.42 83957.812 -39926.022 83943.868 -39918.408 83942.035 -39918.539 83935.42 -39922.79 83817.022 -40041.188 83809.408 -40055.132 70737.5 -40055.132 70737.5 -39560.565 83032.688 -39560.565 83051.259 -39737.261 83053.989 -39750.102 83108.892 -39919.075 83114.23 -39931.064 83148.818 -39990.972 83144.405 -39993.52 83150.123 -40003.435 83174.885 -39964.905 83572.978 -39566.812 83579.356 -39555.132 84309.408 -39555.132 84309.539 -39556.965 84313.79 -39563.58 84432.188 -39681.978 84446.132 -39689.592 84447.965 -39689.461 84454.58 -39685.21 84572.978 -39566.812 84579.356 -39555.132 85309.408 -39555.132 85309.539 -39556.965 85313.79 -39563.58 85432.188 -39681.978 85446.132 -39689.592 85447.965 -39689.461 85454.58 -39685.21 85572.978 -39566.812 85579.356 -39555.132 86309.408 -39555.132 86309.539 -39556.965 86313.79 -39563.58 86432.188 -39681.978 86446.132 -39689.592 86447.965 -39689.461 86454.58 -39685.21 86572.978 -39566.812 86579.356 -39555.132 87309.408 -39555.132 87309.539 -39556.965 87313.79 -39563.58 87432.188 -39681.978 87446.132 -39689.592 87447.965 -39689.461 87454.58 -39685.21 87572.978 -39566.812 87579.356 -39555.132 88309.408 -39555.132 88309.539 -39556.965 88313.79 -39563.58 88715.115 -39964.905 88735.994 -40003.14 88741.846 -39991.355 88741.182 -39990.972 88775.77 -39931.064 88781.108 -39919.075 88836.011 -39750.102 88838.741 -39737.261 88857.312 -39560.565 88857.312 -39547.435 88838.741 -39370.739 88836.011 -39357.898 88781.108 -39188.925 88775.77 -39176.936 88741.182 -39117.028 88745.595 -39114.48 88739.877 -39104.565 88715.115 -39143.095 88317.022 -39541.188 88309.408 -39555.132 87579.356 -39555.132 87580.592 -39552.868 87580.461 -39551.035 87576.21 -39544.42 87457.812 -39426.022 87443.868 -39418.408 87442.035 -39418.539 87435.42 -39422.79 87317.022 -39541.188 87309.408 -39555.132 86579.356 -39555.132 86580.592 -39552.868 86580.461 -39551.035 86576.21 -39544.42 86457.812 -39426.022 86443.868 -39418.408 86442.035 -39418.539 86435.42 -39422.79 86317.022 -39541.188 86309.408 -39555.132 85579.356 -39555.132 85580.592 -39552.868 85580.461 -39551.035 85576.21 -39544.42 85457.812 -39426.022 85443.868 -39418.408 85442.035 -39418.539 85435.42 -39422.79 85317.022 -39541.188 85309.408 -39555.132 84579.356 -39555.132 84580.592 -39552.868 84580.461 -39551.035 84576.21 -39544.42 84457.812 -39426.022 84443.868 -39418.408 84442.035 -39418.539 84435.42 -39422.79 84317.022 -39541.188 84309.408 -39555.132 83579.356 -39555.132 83580.592 -39552.868 83580.461 -39551.035 83576.21 -39544.42 83174.885 -39143.095 83154.006 -39104.86 83148.154 -39116.645 83148.818 -39117.028 83114.23 -39176.936 83108.892 -39188.925 83053.989 -39357.898 83051.259 -39370.739 83032.688 -39547.435 83032.688 -39560.565 70737.5 -39560.565 70737.5 -39055.132 83809.408 -39055.132 83809.539 -39056.965 83813.79 -39063.58 83932.188 -39181.978 83946.132 -39189.592 83947.965 -39189.461 83954.58 -39185.21 84072.978 -39066.812 84079.356 -39055.132 84809.408 -39055.132 84809.539 -39056.965 84813.79 -39063.58 84932.188 -39181.978 84946.132 -39189.592 84947.965 -39189.461 84954.58 -39185.21 85072.978 -39066.812 85079.356 -39055.132 85809.408 -39055.132 85809.539 -39056.965 85813.79 -39063.58 85932.188 -39181.978 85946.132 -39189.592 85947.965 -39189.461 85954.58 -39185.21 86072.978 -39066.812 86079.356 -39055.132 86809.408 -39055.132 86809.539 -39056.965 86813.79 -39063.58 86932.188 -39181.978 86946.132 -39189.592 86947.965 -39189.461 86954.58 -39185.21 87072.978 -39066.812 87079.356 -39055.132 87809.408 -39055.132 87809.539 -39056.965 87813.79 -39063.58 87932.188 -39181.978 87946.132 -39189.592 87947.965 -39189.461 87954.58 -39185.21 88072.978 -39066.812 88080.592 -39052.868 88080.461 -39051.035 88076.21 -39044.42 87957.812 -38926.022 87943.868 -38918.408 87942.035 -38918.539 87935.42 -38922.79 87817.022 -39041.188 87809.408 -39055.132 87079.356 -39055.132 87080.592 -39052.868 87080.461 -39051.035 87076.21 -39044.42 86957.812 -38926.022 86943.868 -38918.408 86942.035 -38918.539 86935.42 -38922.79 86817.022 -39041.188 86809.408 -39055.132 86079.356 -39055.132 86080.592 -39052.868 86080.461 -39051.035 86076.21 -39044.42 85957.812 -38926.022 85943.868 -38918.408 85942.035 -38918.539 85935.42 -38922.79 85817.022 -39041.188 85809.408 -39055.132 85079.356 -39055.132 85080.592 -39052.868 85080.461 -39051.035 85076.21 -39044.42 84957.812 -38926.022 84943.868 -38918.408 84942.035 -38918.539 84935.42 -38922.79 84817.022 -39041.188 84809.408 -39055.132 84079.356 -39055.132 84080.592 -39052.868 84080.461 -39051.035 84076.21 -39044.42 83957.812 -38926.022 83943.868 -38918.408 83942.035 -38918.539 83935.42 -38922.79 83817.022 -39041.188 83809.408 -39055.132 70737.5 -39055.132 70737.5 -38560.565 83032.688 -38560.565 83051.259 -38737.261 83053.989 -38750.102 83108.892 -38919.075 83114.23 -38931.064 83148.818 -38990.972 83144.405 -38993.52 83150.123 -39003.435 83174.885 -38964.905 83572.978 -38566.812 83579.356 -38555.132 84309.408 -38555.132 84309.539 -38556.965 84313.79 -38563.58 84432.188 -38681.978 84446.132 -38689.592 84447.965 -38689.461 84454.58 -38685.21 84572.978 -38566.812 84579.356 -38555.132 85309.408 -38555.132 85309.539 -38556.965 85313.79 -38563.58 85432.188 -38681.978 85446.132 -38689.592 85447.965 -38689.461 85454.58 -38685.21 85572.978 -38566.812 85579.356 -38555.132 86309.408 -38555.132 86309.539 -38556.965 86313.79 -38563.58 86432.188 -38681.978 86446.132 -38689.592 86447.965 -38689.461 86454.58 -38685.21 86572.978 -38566.812 86579.356 -38555.132 87309.408 -38555.132 87309.539 -38556.965 87313.79 -38563.58 87432.188 -38681.978 87446.132 -38689.592 87447.965 -38689.461 87454.58 -38685.21 87572.978 -38566.812 87579.356 -38555.132 88309.408 -38555.132 88309.539 -38556.965 88313.79 -38563.58 88715.115 -38964.905 88735.994 -39003.14 88741.846 -38991.355 88741.182 -38990.972 88775.77 -38931.064 88781.108 -38919.075 88836.011 -38750.102 88838.741 -38737.261 88857.312 -38560.565 88857.312 -38547.435 88838.741 -38370.739 88836.011 -38357.898 88781.108 -38188.925 88775.77 -38176.936 88741.182 -38117.028 88745.595 -38114.48 88739.877 -38104.565 88715.115 -38143.095 88317.022 -38541.188 88309.408 -38555.132 87579.356 -38555.132 87580.592 -38552.868 87580.461 -38551.035 87576.21 -38544.42 87457.812 -38426.022 87443.868 -38418.408 87442.035 -38418.539 87435.42 -38422.79 87317.022 -38541.188 87309.408 -38555.132 86579.356 -38555.132 86580.592 -38552.868 86580.461 -38551.035 86576.21 -38544.42 86457.812 -38426.022 86443.868 -38418.408 86442.035 -38418.539 86435.42 -38422.79 86317.022 -38541.188 86309.408 -38555.132 85579.356 -38555.132 85580.592 -38552.868 85580.461 -38551.035 85576.21 -38544.42 85457.812 -38426.022 85443.868 -38418.408 85442.035 -38418.539 85435.42 -38422.79 85317.022 -38541.188 85309.408 -38555.132 84579.356 -38555.132 84580.592 -38552.868 84580.461 -38551.035 84576.21 -38544.42 84457.812 -38426.022 84443.868 -38418.408 84442.035 -38418.539 84435.42 -38422.79 84317.022 -38541.188 84309.408 -38555.132 83579.356 -38555.132 83580.592 -38552.868 83580.461 -38551.035 83576.21 -38544.42 83174.885 -38143.095 83154.006 -38104.86 83148.154 -38116.645 83148.818 -38117.028 83114.23 -38176.936 83108.892 -38188.925 83053.989 -38357.898 83051.259 -38370.739 83032.688 -38547.435 83032.688 -38560.565 70737.5 -38560.565 70737.5 -38055.132 83809.408 -38055.132 83809.539 -38056.965 83813.79 -38063.58 83932.188 -38181.978 83946.132 -38189.592 83947.965 -38189.461 83954.58 -38185.21 84072.978 -38066.812 84079.356 -38055.132 84809.408 -38055.132 84809.539 -38056.965 84813.79 -38063.58 84932.188 -38181.978 84946.132 -38189.592 84947.965 -38189.461 84954.58 -38185.21 85072.978 -38066.812 85079.356 -38055.132 85809.408 -38055.132 85809.539 -38056.965 85813.79 -38063.58 85932.188 -38181.978 85946.132 -38189.592 85947.965 -38189.461 85954.58 -38185.21 86072.978 -38066.812 86079.356 -38055.132 86809.408 -38055.132 86809.539 -38056.965 86813.79 -38063.58 86932.188 -38181.978 86946.132 -38189.592 86947.965 -38189.461 86954.58 -38185.21 87072.978 -38066.812 87079.356 -38055.132 87809.408 -38055.132 87809.539 -38056.965 87813.79 -38063.58 87932.188 -38181.978 87946.132 -38189.592 87947.965 -38189.461 87954.58 -38185.21 88072.978 -38066.812 88080.592 -38052.868 88080.461 -38051.035 88076.21 -38044.42 87957.812 -37926.022 87943.868 -37918.408 87942.035 -37918.539 87935.42 -37922.79 87817.022 -38041.188 87809.408 -38055.132 87079.356 -38055.132 87080.592 -38052.868 87080.461 -38051.035 87076.21 -38044.42 86957.812 -37926.022 86943.868 -37918.408 86942.035 -37918.539 86935.42 -37922.79 86817.022 -38041.188 86809.408 -38055.132 86079.356 -38055.132 86080.592 -38052.868 86080.461 -38051.035 86076.21 -38044.42 85957.812 -37926.022 85943.868 -37918.408 85942.035 -37918.539 85935.42 -37922.79 85817.022 -38041.188 85809.408 -38055.132 85079.356 -38055.132 85080.592 -38052.868 85080.461 -38051.035 85076.21 -38044.42 84957.812 -37926.022 84943.868 -37918.408 84942.035 -37918.539 84935.42 -37922.79 84817.022 -38041.188 84809.408 -38055.132 84079.356 -38055.132 84080.592 -38052.868 84080.461 -38051.035 84076.21 -38044.42 83957.812 -37926.022 83943.868 -37918.408 83942.035 -37918.539 83935.42 -37922.79 83817.022 -38041.188 83809.408 -38055.132 70737.5 -38055.132 70737.5 -37560.565 83032.688 -37560.565 83051.259 -37737.261 83053.989 -37750.102 83108.892 -37919.075 83114.23 -37931.064 83148.818 -37990.972 83144.405 -37993.52 83150.123 -38003.435 83174.885 -37964.905 83572.978 -37566.812 83579.356 -37555.132 84309.408 -37555.132 84309.539 -37556.965 84313.79 -37563.58 84432.188 -37681.978 84446.132 -37689.592 84447.965 -37689.461 84454.58 -37685.21 84572.978 -37566.812 84579.356 -37555.132 85309.408 -37555.132 85309.539 -37556.965 85313.79 -37563.58 85432.188 -37681.978 85446.132 -37689.592 85447.965 -37689.461 85454.58 -37685.21 85572.978 -37566.812 85579.356 -37555.132 86309.408 -37555.132 86309.539 -37556.965 86313.79 -37563.58 86432.188 -37681.978 86446.132 -37689.592 86447.965 -37689.461 86454.58 -37685.21 86572.978 -37566.812 86579.356 -37555.132 87309.408 -37555.132 87309.539 -37556.965 87313.79 -37563.58 87432.188 -37681.978 87446.132 -37689.592 87447.965 -37689.461 87454.58 -37685.21 87572.978 -37566.812 87579.356 -37555.132 88309.408 -37555.132 88309.539 -37556.965 88313.79 -37563.58 88715.115 -37964.905 88735.994 -38003.14 88741.846 -37991.355 88741.182 -37990.972 88775.77 -37931.064 88781.108 -37919.075 88836.011 -37750.102 88838.741 -37737.261 88857.312 -37560.565 88857.312 -37547.435 88838.741 -37370.739 88836.011 -37357.898 88781.108 -37188.925 88775.77 -37176.936 88741.182 -37117.028 88745.595 -37114.48 88739.877 -37104.565 88715.115 -37143.095 88317.022 -37541.188 88309.408 -37555.132 87579.356 -37555.132 87580.592 -37552.868 87580.461 -37551.035 87576.21 -37544.42 87457.812 -37426.022 87443.868 -37418.408 87442.035 -37418.539 87435.42 -37422.79 87317.022 -37541.188 87309.408 -37555.132 86579.356 -37555.132 86580.592 -37552.868 86580.461 -37551.035 86576.21 -37544.42 86457.812 -37426.022 86443.868 -37418.408 86442.035 -37418.539 86435.42 -37422.79 86317.022 -37541.188 86309.408 -37555.132 85579.356 -37555.132 85580.592 -37552.868 85580.461 -37551.035 85576.21 -37544.42 85457.812 -37426.022 85443.868 -37418.408 85442.035 -37418.539 85435.42 -37422.79 85317.022 -37541.188 85309.408 -37555.132 84579.356 -37555.132 84580.592 -37552.868 84580.461 -37551.035 84576.21 -37544.42 84457.812 -37426.022 84443.868 -37418.408 84442.035 -37418.539 84435.42 -37422.79 84317.022 -37541.188 84309.408 -37555.132 83579.356 -37555.132 83580.592 -37552.868 83580.461 -37551.035 83576.21 -37544.42 83174.885 -37143.095 83154.006 -37104.86 83148.154 -37116.645 83148.818 -37117.028 83114.23 -37176.936 83108.892 -37188.925 83053.989 -37357.898 83051.259 -37370.739 83032.688 -37547.435 83032.688 -37560.565 70737.5 -37560.565 70737.5 -37055.132 83809.408 -37055.132 83809.539 -37056.965 83813.79 -37063.58 83932.188 -37181.978 83946.132 -37189.592 83947.965 -37189.461 83954.58 -37185.21 84072.978 -37066.812 84079.356 -37055.132 84809.408 -37055.132 84809.539 -37056.965 84813.79 -37063.58 84932.188 -37181.978 84946.132 -37189.592 84947.965 -37189.461 84954.58 -37185.21 85072.978 -37066.812 85079.356 -37055.132 85809.408 -37055.132 85809.539 -37056.965 85813.79 -37063.58 85932.188 -37181.978 85946.132 -37189.592 85947.965 -37189.461 85954.58 -37185.21 86072.978 -37066.812 86079.356 -37055.132 86809.408 -37055.132 86809.539 -37056.965 86813.79 -37063.58 86932.188 -37181.978 86946.132 -37189.592 86947.965 -37189.461 86954.58 -37185.21 87072.978 -37066.812 87079.356 -37055.132 87809.408 -37055.132 87809.539 -37056.965 87813.79 -37063.58 87932.188 -37181.978 87946.132 -37189.592 87947.965 -37189.461 87954.58 -37185.21 88072.978 -37066.812 88080.592 -37052.868 88080.461 -37051.035 88076.21 -37044.42 87957.812 -36926.022 87943.868 -36918.408 87942.035 -36918.539 87935.42 -36922.79 87817.022 -37041.188 87809.408 -37055.132 87079.356 -37055.132 87080.592 -37052.868 87080.461 -37051.035 87076.21 -37044.42 86957.812 -36926.022 86943.868 -36918.408 86942.035 -36918.539 86935.42 -36922.79 86817.022 -37041.188 86809.408 -37055.132 86079.356 -37055.132 86080.592 -37052.868 86080.461 -37051.035 86076.21 -37044.42 85957.812 -36926.022 85943.868 -36918.408 85942.035 -36918.539 85935.42 -36922.79 85817.022 -37041.188 85809.408 -37055.132 85079.356 -37055.132 85080.592 -37052.868 85080.461 -37051.035 85076.21 -37044.42 84957.812 -36926.022 84943.868 -36918.408 84942.035 -36918.539 84935.42 -36922.79 84817.022 -37041.188 84809.408 -37055.132 84079.356 -37055.132 84080.592 -37052.868 84080.461 -37051.035 84076.21 -37044.42 83957.812 -36926.022 83943.868 -36918.408 83942.035 -36918.539 83935.42 -36922.79 83817.022 -37041.188 83809.408 -37055.132 70737.5 -37055.132 70737.5 -36560.565 83032.688 -36560.565 83051.259 -36737.261 83053.989 -36750.102 83108.892 -36919.075 83114.23 -36931.064 83148.818 -36990.972 83144.405 -36993.52 83150.123 -37003.435 83174.885 -36964.905 83572.978 -36566.812 83579.356 -36555.132 84309.408 -36555.132 84309.539 -36556.965 84313.79 -36563.58 84432.188 -36681.978 84446.132 -36689.592 84447.965 -36689.461 84454.58 -36685.21 84572.978 -36566.812 84579.356 -36555.132 85309.408 -36555.132 85309.539 -36556.965 85313.79 -36563.58 85432.188 -36681.978 85446.132 -36689.592 85447.965 -36689.461 85454.58 -36685.21 85572.978 -36566.812 85579.356 -36555.132 86309.408 -36555.132 86309.539 -36556.965 86313.79 -36563.58 86432.188 -36681.978 86446.132 -36689.592 86447.965 -36689.461 86454.58 -36685.21 86572.978 -36566.812 86579.356 -36555.132 87309.408 -36555.132 87309.539 -36556.965 87313.79 -36563.58 87432.188 -36681.978 87446.132 -36689.592 87447.965 -36689.461 87454.58 -36685.21 87572.978 -36566.812 87579.356 -36555.132 88309.408 -36555.132 88309.539 -36556.965 88313.79 -36563.58 88715.115 -36964.905 88735.994 -37003.14 88741.846 -36991.355 88741.182 -36990.972 88775.77 -36931.064 88781.108 -36919.075 88836.011 -36750.102 88838.741 -36737.261 88857.312 -36560.565 88857.312 -36547.435 88838.741 -36370.739 88836.011 -36357.898 88781.108 -36188.925 88775.77 -36176.936 88750.239 -36132.715 88740.035 -36122.985 88732.014 -36126.196 88317.022 -36541.188 88309.408 -36555.132 87579.356 -36555.132 87580.592 -36552.868 87580.461 -36551.035 87576.21 -36544.42 87457.812 -36426.022 87443.868 -36418.408 87442.035 -36418.539 87435.42 -36422.79 87317.022 -36541.188 87309.408 -36555.132 86579.356 -36555.132 86580.592 -36552.868 86580.461 -36551.035 86576.21 -36544.42 86457.812 -36426.022 86443.868 -36418.408 86442.035 -36418.539 86435.42 -36422.79 86317.022 -36541.188 86309.408 -36555.132 85579.356 -36555.132 85580.592 -36552.868 85580.461 -36551.035 85576.21 -36544.42 85457.812 -36426.022 85443.868 -36418.408 85442.035 -36418.539 85435.42 -36422.79 85317.022 -36541.188 85309.408 -36555.132 84579.356 -36555.132 84580.592 -36552.868 84580.461 -36551.035 84576.21 -36544.42 84457.812 -36426.022 84443.868 -36418.408 84442.035 -36418.539 84435.42 -36422.79 84317.022 -36541.188 84309.408 -36555.132 83579.356 -36555.132 83580.592 -36552.868 83580.461 -36551.035 83576.21 -36544.42 83161.63 -36129.84 83149.25 -36123.08 83142.335 -36128.256 83114.23 -36176.936 83108.892 -36188.925 83053.989 -36357.898 83051.259 -36370.739 83032.688 -36547.435 83032.688 -36560.565 70737.5 -36560.565 70737.5 -36424.5 70757.502 -36356.379 70811.158 -36309.886 70863.5 -36298.5 71652.134 -36298.5 71714.316 -36291.745 71850.705 -36240.615 71967.261 -36153.261 72054.615 -36036.705 72105.745 -35900.316 72112.5 -35838.134 72112.5 -35757.372 83511.622 -35757.372 83513.219 -35763.009 83932.188 -36181.978 83946.132 -36189.592 83947.965 -36189.461 83954.58 -36185.21 84355.905 -35783.885 84396.462 -35761.738 84393.326 -35761.257 84387.727 -35758.311 84494.302 -35758.311 84534.095 -35783.885 84932.188 -36181.978 84946.132 -36189.592 84947.965 -36189.461 84954.58 -36185.21 85355.905 -35783.885 85396.462 -35761.738 85393.326 -35761.257 85387.727 -35758.311 85494.302 -35758.311 85534.095 -35783.885 85932.188 -36181.978 85946.132 -36189.592 85947.965 -36189.461 85954.58 -36185.21 86355.905 -35783.885 86396.462 -35761.738 86393.326 -35761.257 86387.727 -35758.311 86494.302 -35758.311 86534.095 -35783.885 86932.188 -36181.978 86946.132 -36189.592 86947.965 -36189.461 86954.58 -36185.21 87355.905 -35783.885 87396.462 -35761.738 87393.326 -35761.257 87387.727 -35758.311 87494.302 -35758.311 87534.095 -35783.885 87932.188 -36181.978 87946.132 -36189.592 87947.965 -36189.461 87954.58 -36185.21 88371.371 -35768.419 88378.131 -35756.039 88374.62 -35751.349 88233.159 -35688.366 88220.68 -35684.311 88046.893 -35647.373 88033.832 -35646 87856.168 -35646 87843.107 -35647.373 87669.32 -35684.311 87656.841 -35688.366 87505.817 -35755.607 87504.917 -35753.584 87494.302 -35758.311 87387.727 -35758.311 87382.973 -35755.81 87377.738 -35752.738 87233.159 -35688.366 87220.68 -35684.311 87046.893 -35647.373 87033.832 -35646 86856.168 -35646 86843.107 -35647.373 86669.32 -35684.311 86656.841 -35688.366 86505.817 -35755.607 86504.917 -35753.584 86494.302 -35758.311 86387.727 -35758.311 86382.973 -35755.81 86377.738 -35752.738 86233.159 -35688.366 86220.68 -35684.311 86046.893 -35647.373 86033.832 -35646 85856.168 -35646 85843.107 -35647.373 85669.32 -35684.311 85656.841 -35688.366 85505.817 -35755.607 85504.917 -35753.584 85494.302 -35758.311 85387.727 -35758.311 85382.973 -35755.81 85377.738 -35752.738 85233.159 -35688.366 85220.68 -35684.311 85046.893 -35647.373 85033.832 -35646 84856.168 -35646 84843.107 -35647.373 84669.32 -35684.311 84656.841 -35688.366 84505.817 -35755.607 84504.917 -35753.584 84494.302 -35758.311 84387.727 -35758.311 84382.973 -35755.81 84377.738 -35752.738 84233.159 -35688.366 84220.68 -35684.311 84046.893 -35647.373 84033.832 -35646 83856.168 -35646 83843.107 -35647.373 83669.32 -35684.311 83656.841 -35688.366 83522.367 -35748.239 83511.622 -35757.372 72112.5 -35757.372 72112.5 -34268.918 102888.917 -34268.918 102904.682 -34542.32 102905.507 -34546.525 102905.508 -34546.533 102926.698 -34654.539 102957.405 -34811.053 102958.792 -34815.103 102958.793 -34815.108 102979.605 -34875.895 103046.112 -35070.144 103169.16 -35314.799 103171.586 -35318.328 103171.589 -35318.334 103300.741 -35506.25 103324.274 -35540.49 103508.582 -35743.043 103511.877 -35745.798 103511.878 -35745.799 103556.382 -35783.01 103718.675 -35918.707 103722.316 -35920.991 103947.024 -36061.951 103947.028 -36061.953 103950.664 -36064.234 104018.544 -36094.883 104196.345 -36175.164 104196.349 -36175.166 104200.257 -36176.93 104263.393 -36195.632 104458.723 -36253.491 104458.727 -36253.492 104462.836 -36254.709 104467.07 -36255.357 104467.075 -36255.358 104729.298 -36295.483 104729.3 -36295.483 104733.54 -36296.132 104872.912 -36298.322 105003.071 -36300.367 105003.077 -36300.367 105007.362 -36300.434 105279.235 -36267.534 105544.127 -36198.041 105548.087 -36196.401 105548.092 -36196.399 105670.632 -36145.641 105797.136 -36093.241 106033.582 -35955.073 106182.72 -35838.134 107973.5 -35838.134 107980.255 -35900.316 108031.385 -36036.705 108118.739 -36153.261 108235.295 -36240.615 108371.684 -36291.745 108433.866 -36298.5 111530.134 -36298.5 111592.316 -36291.745 111728.705 -36240.615 111845.261 -36153.261 111932.615 -36036.705 111983.745 -35900.316 111990.5 -35838.134 111990.5 -32741.866 111983.745 -32679.684 111932.615 -32543.295 111845.261 -32426.739 111728.705 -32339.385 111592.316 -32288.255 111530.134 -32281.5 108433.866 -32281.5 108371.684 -32288.255 108235.295 -32339.385 108118.739 -32426.739 108031.385 -32543.295 107980.255 -32679.684 107973.5 -32741.866 107973.5 -35838.134 106182.72 -35838.134 106249.089 -35786.094 106266.218 -35768.419 106436.686 -35592.509 106439.669 -35589.431 106442.202 -35585.983 106442.206 -35585.978 106599.257 -35372.178 106601.795 -35368.723 106603.841 -35364.955 106730.418 -35131.83 106730.419 -35131.828 106732.468 -35128.054 106829.269 -34871.877 106890.407 -34604.933 106896.384 -34537.969 106914.531 -34334.627 106914.532 -34334.616 106914.751 -34332.161 106915.193 -34290 106913.465 -34264.648 106896.859 -34021.055 106896.858 -34021.049 106896.567 -34016.778 106841.032 -33748.612 106749.617 -33490.465 106624.013 -33247.112 106614.04 -33232.921 106469.008 -33026.562 106466.545 -33023.057 106280.125 -32822.445 106276.81 -32819.731 106276.806 -32819.728 106115.304 -32687.54 106068.205 -32648.99 105834.704 -32505.901 105830.768 -32504.173 105587.873 -32397.549 105587.869 -32397.548 105583.945 -32395.825 105320.566 -32320.8 105316.324 -32320.196 105316.318 -32320.195 105111.387 -32291.029 105049.443 -32282.213 104905.589 -32281.46 104779.877 -32280.802 104779.871 -32280.802 104775.591 -32280.78 104771.347 -32281.339 104771.343 -32281.339 104697.741 -32291.029 104504.078 -32316.525 104499.938 -32317.658 104499.936 -32317.658 104432.037 -32336.233 104239.928 -32388.788 104235.98 -32390.472 103991.982 -32494.546 103991.978 -32494.548 103988.03 -32496.232 103968.125 -32508.145 103756.725 -32634.664 103756.721 -32634.667 103753.043 -32636.868 103539.318 -32808.094 103350.808 -33006.742 103191.002 -33229.136 103062.857 -33471.161 103061.385 -33475.184 103061.383 -33475.188 103054.314 -33494.506 102968.743 -33728.337 102910.404 -33995.907 102888.917 -34268.918 72112.5 -34268.918 72112.5 -32741.866 72105.745 -32679.684 72054.615 -32543.295 71967.261 -32426.739 71850.705 -32339.385 71714.316 -32288.255 71652.134 -32281.5 68555.866 -32281.5 68493.684 -32288.255 68357.295 -32339.385 68240.739 -32426.739 68153.385 -32543.295 68102.255 -32679.684 68095.5 -32741.866 68095.5 -35838.134 66212.924 -35838.134 65036.812 -34662.022 65022.868 -34654.408 65021.035 -34654.539 65014.42 -34658.79 63806.91 -35866.3 63799.618 -35879.654 61157.99 -35879.654 61162.5 -35838.134 61162.5 -34273.204 63011.665 -34273.204 63026.932 -34537.969 63028.005 -34546.47 63079.065 -34806.722 63081.276 -34814.974 63167.184 -35065.894 63170.499 -35073.779 63289.664 -35310.713 63294.02 -35318.079 63423.347 -35506.25 63433.601 -35514.594 63447.342 -35507.448 64651.978 -34302.812 64658.356 -34291.132 65388.408 -34291.132 65388.539 -34292.965 65392.79 -34299.58 66599.73 -35506.52 66611.939 -35513.187 66623.439 -35504.497 66720.831 -35371.913 66725.418 -35364.685 66851.962 -35131.621 66855.53 -35123.827 66949.271 -34875.75 66951.748 -34867.544 67010.954 -34609.038 67012.294 -34600.577 67036.031 -34334.616 67036.277 -34329.677 67036.666 -34292.485 67036.523 -34287.519 67018.362 -34021.123 67017.201 -34012.649 66963.419 -33752.944 66961.12 -33744.709 66872.588 -33494.705 66869.191 -33486.854 66747.55 -33251.178 66743.122 -33243.866 66624.031 -33074.417 66613.509 -33066.037 66600.121 -33073.089 65396.022 -34277.188 65388.408 -34291.132 64658.356 -34291.132 64659.592 -34288.868 64659.461 -34287.035 64655.21 -34280.42 63447.814 -33073.024 63435.804 -33066.466 63424.064 -33075.434 63315.935 -33225.911 63311.418 -33233.196 63187.325 -33467.567 63183.839 -33475.395 63092.7 -33724.446 63090.311 -33732.67 63033.812 -33991.795 63032.563 -34000.25 63011.754 -34264.653 63011.665 -34273.204 61162.5 -34273.204 61162.5 -32741.866 61158.224 -32702.5 63800.584 -32702.5 63806.98 -32713.77 65011.188 -33917.978 65025.132 -33925.592 65026.965 -33925.461 65033.58 -33921.21 66240.604 -32714.186 66247.795 -32701.017 66240.473 -32690.78 66193.233 -32652.115 66186.261 -32647.16 65960.122 -32508.582 65952.552 -32504.624 65709.704 -32398.022 65701.644 -32395.12 65446.592 -32322.467 65438.214 -32320.685 65175.656 -32283.318 65167.111 -32282.691 64901.908 -32281.302 64893.374 -32281.839 64630.433 -32316.456 64622.035 -32318.149 64366.238 -32388.127 64358.143 -32390.946 64114.199 -32494.997 64106.577 -32498.881 63879.013 -32635.075 63871.981 -32639.962 63809.053 -32690.377 63800.584 -32702.5 61158.224 -32702.5 61155.745 -32679.684 61104.615 -32543.295 61017.261 -32426.739 60900.705 -32339.385 60764.316 -32288.255 60702.134 -32281.5 57605.866 -32281.5 57543.684 -32288.255 57407.295 -32339.385 57290.739 -32426.739 57203.385 -32543.295 57152.255 -32679.684 57145.5 -32741.866 57145.5 -35838.134 55262.924 -35838.134 54086.812 -34662.022 54072.868 -34654.408 54071.035 -34654.539 54064.42 -34658.79 52856.91 -35866.3 52849.618 -35879.654 51308 -35879.654 51308 -34273.204 52061.665 -34273.204 52076.932 -34537.969 52078.005 -34546.47 52129.065 -34806.722 52131.276 -34814.974 52217.184 -35065.894 52220.499 -35073.779 52339.664 -35310.713 52344.02 -35318.079 52473.347 -35506.25 52483.601 -35514.594 52497.342 -35507.448 53701.978 -34302.812 53708.356 -34291.132 54438.408 -34291.132 54438.539 -34292.965 54442.79 -34299.58 55649.73 -35506.52 55661.939 -35513.187 55673.439 -35504.497 55770.831 -35371.913 55775.418 -35364.685 55901.962 -35131.621 55905.53 -35123.827 55999.271 -34875.75 56001.748 -34867.544 56060.954 -34609.038 56062.294 -34600.577 56086.031 -34334.616 56086.277 -34329.677 56086.666 -34292.485 56086.523 -34287.519 56068.362 -34021.123 56067.201 -34012.649 56013.419 -33752.944 56011.12 -33744.709 55922.588 -33494.705 55919.191 -33486.854 55797.55 -33251.178 55793.122 -33243.866 55674.031 -33074.417 55663.509 -33066.037 55650.121 -33073.089 54446.022 -34277.188 54438.408 -34291.132 53708.356 -34291.132 53709.592 -34288.868 53709.461 -34287.035 53705.21 -34280.42 52497.814 -33073.024 52485.804 -33066.466 52474.064 -33075.434 52365.935 -33225.911 52361.418 -33233.196 52237.325 -33467.567 52233.839 -33475.395 52142.7 -33724.446 52140.311 -33732.67 52083.812 -33991.795 52082.563 -34000.25 52061.754 -34264.653 52061.665 -34273.204 51308 -34273.204 51308 -32702.5 52850.584 -32702.5 52856.98 -32713.77 54061.188 -33917.978 54075.132 -33925.592 54076.965 -33925.461 54083.58 -33921.21 55290.604 -32714.186 55297.795 -32701.017 55290.473 -32690.78 55243.233 -32652.115 55236.261 -32647.16 55010.122 -32508.582 55002.552 -32504.624 54759.704 -32398.022 54751.644 -32395.12 54496.592 -32322.467 54488.214 -32320.685 54225.656 -32283.318 54217.111 -32282.691 53951.908 -32281.302 53943.374 -32281.839 53680.433 -32316.456 53672.035 -32318.149 53416.238 -32388.127 53408.143 -32390.946 53164.199 -32494.997 53156.577 -32498.881 52929.013 -32635.075 52921.981 -32639.962 52859.053 -32690.377 52850.584 -32702.5 51308 -32702.5 51308 -30634 51328.002 -30565.879 51381.658 -30519.386 51434 -30508 112566 -30508 112634.121 -30528.002"/></g></svg>