<svg version="1.1" xmlns="http://www.w3.org/2000/svg" xmlns:xlink="http://www.w3.org/1999/xlink" stroke-linecap="round" stroke-linejoin="round" stroke-width="0" fill-rule="evenodd" width="52.105mm" height="51.081mm" viewBox="56150 -82275 52105 51081" id="Wt5lxHk1hA7ZJP8KsW_0"><defs><rect x="-1075" y="-475" width="2150" height="950" id="Wt5lxHk1hA7ZJP8KsW_0_pad-10"/><rect x="-1075" y="-1625" width="2150" height="3250" id="Wt5lxHk1hA7ZJP8KsW_0_pad-11"/><g id="Wt5lxHk1hA7ZJP8KsW_0_pad-12"><polygon points="262.5,450 -262.5,450 -262.5,-450 262.5,-450"/><circle cx="262.5" cy="450" r="250"/><circle cx="-262.5" cy="450" r="250"/><circle cx="-262.5" cy="-450" r="250"/><circle cx="262.5" cy="-450" r="250"/><polygon points="262.5,200 -262.5,200 -262.5,700 262.5,700"/><polygon points="-12.5,450 -12.5,-450 -512.5,-450 -512.5,450"/><polygon points="-262.5,-700 262.5,-700 262.5,-200 -262.5,-200"/><polygon points="512.5,-450 512.5,450 12.5,450 12.5,-450"/></g><rect x="-500" y="-450" width="1000" height="900" id="Wt5lxHk1hA7ZJP8KsW_0_pad-13"/><g id="Wt5lxHk1hA7ZJP8KsW_0_pad-14"><polygon points="-250,-475 250,-475 250,475 -250,475"/><circle cx="-250" cy="-475" r="250"/><circle cx="250" cy="-475" r="250"/><circle cx="250" cy="475" r="250"/><circle cx="-250" cy="475" r="250"/><polygon points="-250,-725 250,-725 250,-225 -250,-225"/><polygon points="500,-475 500,475 0,475 0,-475"/><polygon points="250,225 -250,225 -250,725 250,725"/><polygon points="0,475 0,-475 -500,-475 -500,475"/></g><g id="Wt5lxHk1hA7ZJP8KsW_0_pad-15"><polygon points="250,475 -250,475 -250,-475 250,-475"/><circle cx="250" cy="475" r="250"/><circle cx="-250" cy="475" r="250"/><circle cx="-250" cy="-475" r="250"/><circle cx="250" cy="-475" r="250"/><polygon points="250,225 -250,225 -250,725 250,725"/><polygon points="0,475 0,-475 -500,-475 -500,475"/><polygon points="-250,-725 250,-725 250,-225 -250,-225"/><polygon points="500,-475 500,475 0,475 0,-475"/></g><rect x="-1500" y="-450" width="3000" height="900" rx="450" ry="450" id="Wt5lxHk1hA7ZJP8KsW_0_pad-16"/><rect x="-2500" y="-2500" width="5000" height="5000" id="Wt5lxHk1hA7ZJP8KsW_0_pad-17"/><rect x="-279.5" y="-362" width="559" height="724" id="Wt5lxHk1hA7ZJP8KsW_0_pad-18"/></defs><g transform="translate(0,-113469) scale(1,-1)" fill="currentColor" stroke="currentColor"><use xlink:href="#Wt5lxHk1hA7ZJP8KsW_0_pad-10" x="69194" y="-48274"/><use xlink:href="#Wt5lxHk1hA7ZJP8KsW_0_pad-10" x="69194" y="-45974"/><use xlink:href="#Wt5lxHk1hA7ZJP8KsW_0_pad-10" x="69194" y="-43674"/><use xlink:href="#Wt5lxHk1hA7ZJP8KsW_0_pad-11" x="63394" y="-45974"/><use xlink:href="#Wt5lxHk1hA7ZJP8KsW_0_pad-12" x="65512.5" y="-67600"/><use xlink:href="#Wt5lxHk1hA7ZJP8KsW_0_pad-12" x="63687.5" y="-67600"/><use xlink:href="#Wt5lxHk1hA7ZJP8KsW_0_pad-13" x="56650" y="-56550"/><use xlink:href="#Wt5lxHk1hA7ZJP8KsW_0_pad-13" x="56650" y="-60650"/><use xlink:href="#Wt5lxHk1hA7ZJP8KsW_0_pad-13" x="58250" y="-56550"/><use xlink:href="#Wt5lxHk1hA7ZJP8KsW_0_pad-13" x="58250" y="-60650"/><use xlink:href="#Wt5lxHk1hA7ZJP8KsW_0_pad-12" x="107742.5" y="-64888"/><use xlink:href="#Wt5lxHk1hA7ZJP8KsW_0_pad-12" x="105917.5" y="-64888"/><use xlink:href="#Wt5lxHk1hA7ZJP8KsW_0_pad-12" x="65512.5" y="-77100"/><use xlink:href="#Wt5lxHk1hA7ZJP8KsW_0_pad-12" x="63687.5" y="-77100"/><use xlink:href="#Wt5lxHk1hA7ZJP8KsW_0_pad-12" x="102292.5" y="-64938"/><use xlink:href="#Wt5lxHk1hA7ZJP8KsW_0_pad-12" x="100467.5" y="-64938"/><use xlink:href="#Wt5lxHk1hA7ZJP8KsW_0_pad-14" x="63700" y="-72300"/><use xlink:href="#Wt5lxHk1hA7ZJP8KsW_0_pad-14" x="65600" y="-72300"/><use xlink:href="#Wt5lxHk1hA7ZJP8KsW_0_pad-14" x="63750" y="-58450"/><use xlink:href="#Wt5lxHk1hA7ZJP8KsW_0_pad-14" x="65650" y="-58450"/><use xlink:href="#Wt5lxHk1hA7ZJP8KsW_0_pad-15" x="65500" y="-63100"/><use xlink:href="#Wt5lxHk1hA7ZJP8KsW_0_pad-15" x="63600" y="-63100"/><use xlink:href="#Wt5lxHk1hA7ZJP8KsW_0_pad-16" x="77345" y="-31644"/><use xlink:href="#Wt5lxHk1hA7ZJP8KsW_0_pad-16" x="77345" y="-32914"/><use xlink:href="#Wt5lxHk1hA7ZJP8KsW_0_pad-16" x="77345" y="-34184"/><use xlink:href="#Wt5lxHk1hA7ZJP8KsW_0_pad-16" x="77345" y="-35454"/><use xlink:href="#Wt5lxHk1hA7ZJP8KsW_0_pad-16" x="77345" y="-36724"/><use xlink:href="#Wt5lxHk1hA7ZJP8KsW_0_pad-16" x="77345" y="-37994"/><use xlink:href="#Wt5lxHk1hA7ZJP8KsW_0_pad-16" x="77345" y="-39264"/><use xlink:href="#Wt5lxHk1hA7ZJP8KsW_0_pad-16" x="77345" y="-40534"/><use xlink:href="#Wt5lxHk1hA7ZJP8KsW_0_pad-16" x="77345" y="-41804"/><use xlink:href="#Wt5lxHk1hA7ZJP8KsW_0_pad-16" x="77345" y="-43074"/><use xlink:href="#Wt5lxHk1hA7ZJP8KsW_0_pad-16" x="77345" y="-44344"/><use xlink:href="#Wt5lxHk1hA7ZJP8KsW_0_pad-16" x="77345" y="-45614"/><use xlink:href="#Wt5lxHk1hA7ZJP8KsW_0_pad-16" x="77345" y="-46884"/><use xlink:href="#Wt5lxHk1hA7ZJP8KsW_0_pad-16" x="77345" y="-48154"/><use xlink:href="#Wt5lxHk1hA7ZJP8KsW_0_pad-16" x="77345" y="-49454"/><use xlink:href="#Wt5lxHk1hA7ZJP8KsW_0_pad-16" x="77345" y="-50724"/><use xlink:href="#Wt5lxHk1hA7ZJP8KsW_0_pad-16" x="77345" y="-51994"/><use xlink:href="#Wt5lxHk1hA7ZJP8KsW_0_pad-16" x="77345" y="-53264"/><use xlink:href="#Wt5lxHk1hA7ZJP8KsW_0_pad-16" x="77345" y="-54534"/><use xlink:href="#Wt5lxHk1hA7ZJP8KsW_0_pad-16" x="95345" y="-54534"/><use xlink:href="#Wt5lxHk1hA7ZJP8KsW_0_pad-16" x="95345" y="-53264"/><use xlink:href="#Wt5lxHk1hA7ZJP8KsW_0_pad-16" x="95345" y="-51994"/><use xlink:href="#Wt5lxHk1hA7ZJP8KsW_0_pad-16" x="95345" y="-50724"/><use xlink:href="#Wt5lxHk1hA7ZJP8KsW_0_pad-16" x="95345" y="-49454"/><use xlink:href="#Wt5lxHk1hA7ZJP8KsW_0_pad-16" x="95375" y="-48154"/><use xlink:href="#Wt5lxHk1hA7ZJP8KsW_0_pad-16" x="95375" y="-46884"/><use xlink:href="#Wt5lxHk1hA7ZJP8KsW_0_pad-16" x="95375" y="-45614"/><use xlink:href="#Wt5lxHk1hA7ZJP8KsW_0_pad-16" x="95375" y="-44344"/><use xlink:href="#Wt5lxHk1hA7ZJP8KsW_0_pad-16" x="95375" y="-43074"/><use xlink:href="#Wt5lxHk1hA7ZJP8KsW_0_pad-16" x="95375" y="-41804"/><use xlink:href="#Wt5lxHk1hA7ZJP8KsW_0_pad-16" x="95375" y="-40534"/><use xlink:href="#Wt5lxHk1hA7ZJP8KsW_0_pad-16" x="95375" y="-39264"/><use xlink:href="#Wt5lxHk1hA7ZJP8KsW_0_pad-16" x="95375" y="-37994"/><use xlink:href="#Wt5lxHk1hA7ZJP8KsW_0_pad-16" x="95375" y="-36724"/><use xlink:href="#Wt5lxHk1hA7ZJP8KsW_0_pad-16" x="95375" y="-35454"/><use xlink:href="#Wt5lxHk1hA7ZJP8KsW_0_pad-16" x="95375" y="-34184"/><use xlink:href="#Wt5lxHk1hA7ZJP8KsW_0_pad-16" x="95375" y="-32914"/><use xlink:href="#Wt5lxHk1hA7ZJP8KsW_0_pad-16" x="95375" y="-31644"/><use xlink:href="#Wt5lxHk1hA7ZJP8KsW_0_pad-17" x="85945" y="-38564"/><use xlink:href="#Wt5lxHk1hA7ZJP8KsW_0_pad-15" x="65450" y="-81550"/><use xlink:href="#Wt5lxHk1hA7ZJP8KsW_0_pad-15" x="63550" y="-81550"/><use xlink:href="#Wt5lxHk1hA7ZJP8KsW_0_pad-18" x="107630" y="-68103.5"/><use xlink:href="#Wt5lxHk1hA7ZJP8KsW_0_pad-18" x="105730" y="-68103.5"/><use xlink:href="#Wt5lxHk1hA7ZJP8KsW_0_pad-18" x="106680" y="-70072.5"/><use xlink:href="#Wt5lxHk1hA7ZJP8KsW_0_pad-18" x="102296" y="-68103.5"/><use xlink:href="#Wt5lxHk1hA7ZJP8KsW_0_pad-18" x="100396" y="-68103.5"/><use xlink:href="#Wt5lxHk1hA7ZJP8KsW_0_pad-18" x="101346" y="-70072.5"/></g></svg>