<svg version="1.1" xmlns="http://www.w3.org/2000/svg" xmlns:xlink="http://www.w3.org/1999/xlink" stroke-linecap="round" stroke-linejoin="round" stroke-width="0" fill-rule="evenodd" width="62.5mm" height="89.17142999999999mm" viewBox="50750 -119121.43 62500 89171.43" id="ZMgZNoN-boh_smemb2zM"><g transform="translate(0,-149071.43) scale(1,-1)" fill="currentColor" stroke="currentColor"><path d="M 50800 -115200 50800 -30000 113200 -30000 M 113200 -115200 113200 -30000 M 50800 -115200 113200 -115200" fill="none" stroke-width="100"/><path d="M 53326.19 -118354.76 53326.19 -116354.76 53802.38 -116354.76 54088.1 -116450 54278.57 -116640.48 54373.81 -116830.95 54469.05 -117211.9 54469.05 -117497.62 54373.81 -117878.57 54278.57 -118069.05 54088.1 -118259.52 53802.38 -118354.76 53326.19 -118354.76 M 55326.19 -118354.76 55326.19 -117021.43 M 55326.19 -117402.38 55421.43 -117211.9 55516.67 -117116.67 55707.14 -117021.43 55897.62 -117021.43 M 56564.28 -118354.76 56564.28 -117021.43 M 56564.28 -116354.76 56469.05 -116450 56564.28 -116545.24 56659.52 -116450 56564.28 -116354.76 56564.28 -116545.24 M 57802.38 -118354.76 57611.9 -118259.52 57516.67 -118069.05 57516.67 -116354.76 M 58850 -118354.76 58659.52 -118259.52 58564.28 -118069.05 58564.28 -116354.76 M 61135.71 -118354.76 61135.71 -116354.76 61802.38 -117783.33 62469.05 -116354.76 62469.05 -118354.76 M 64278.57 -118354.76 64278.57 -117307.14 64183.33 -117116.67 63992.86 -117021.43 63611.9 -117021.43 63421.43 -117116.67 M 64278.57 -118259.52 64088.09 -118354.76 63611.9 -118354.76 63421.43 -118259.52 63326.19 -118069.05 63326.19 -117878.57 63421.43 -117688.09 63611.9 -117592.86 64088.09 -117592.86 64278.57 -117497.62 M 65230.95 -117021.43 65230.95 -119021.43 M 65230.95 -117116.67 65421.43 -117021.43 65802.38 -117021.43 65992.86 -117116.67 66088.09 -117211.9 66183.33 -117402.38 66183.33 -117973.81 66088.09 -118164.28 65992.86 -118259.52 65802.38 -118354.76 65421.43 -118354.76 65230.95 -118259.52 M 67040.48 -118164.28 67135.71 -118259.52 67040.48 -118354.76 66945.24 -118259.52 67040.48 -118164.28 67040.48 -118354.76 M 67040.48 -117116.67 67135.71 -117211.9 67040.48 -117307.14 66945.24 -117211.9 67040.48 -117116.67 67040.48 -117307.14" fill="none" stroke-width="200"/></g></svg>