<svg version="1.1" xmlns="http://www.w3.org/2000/svg" xmlns:xlink="http://www.w3.org/1999/xlink" stroke-linecap="round" stroke-linejoin="round" stroke-width="0" fill-rule="evenodd" width="57.428mm" height="77.88mm" viewBox="53314 -111410 57428 77880" id="taaqCFsi579vLAcDiaR2"><defs><circle cx="0" cy="0" r="150" id="taaqCFsi579vLAcDiaR2_pad-1"/><circle cx="0" cy="0" r="250" id="taaqCFsi579vLAcDiaR2_pad-2"/><circle cx="0" cy="0" r="760" id="taaqCFsi579vLAcDiaR2_pad-3"/><circle cx="0" cy="0" r="1750" id="taaqCFsi579vLAcDiaR2_pad-4"/></defs><g transform="translate(0,-144940) scale(1,-1)" fill="currentColor" stroke="currentColor"><use xlink:href="#taaqCFsi579vLAcDiaR2_pad-1" x="83945" y="-36554"/><use xlink:href="#taaqCFsi579vLAcDiaR2_pad-1" x="83945" y="-37554"/><use xlink:href="#taaqCFsi579vLAcDiaR2_pad-1" x="83945" y="-38554"/><use xlink:href="#taaqCFsi579vLAcDiaR2_pad-1" x="83945" y="-39554"/><use xlink:href="#taaqCFsi579vLAcDiaR2_pad-1" x="83945" y="-40554"/><use xlink:href="#taaqCFsi579vLAcDiaR2_pad-1" x="84945" y="-36554"/><use xlink:href="#taaqCFsi579vLAcDiaR2_pad-1" x="84945" y="-37554"/><use xlink:href="#taaqCFsi579vLAcDiaR2_pad-1" x="84945" y="-38554"/><use xlink:href="#taaqCFsi579vLAcDiaR2_pad-1" x="84945" y="-39554"/><use xlink:href="#taaqCFsi579vLAcDiaR2_pad-1" x="84945" y="-40554"/><use xlink:href="#taaqCFsi579vLAcDiaR2_pad-1" x="85945" y="-36554"/><use xlink:href="#taaqCFsi579vLAcDiaR2_pad-1" x="85945" y="-37554"/><use xlink:href="#taaqCFsi579vLAcDiaR2_pad-1" x="85945" y="-38554"/><use xlink:href="#taaqCFsi579vLAcDiaR2_pad-1" x="85945" y="-39554"/><use xlink:href="#taaqCFsi579vLAcDiaR2_pad-1" x="85945" y="-40554"/><use xlink:href="#taaqCFsi579vLAcDiaR2_pad-1" x="86945" y="-36554"/><use xlink:href="#taaqCFsi579vLAcDiaR2_pad-1" x="86945" y="-37554"/><use xlink:href="#taaqCFsi579vLAcDiaR2_pad-1" x="86945" y="-38554"/><use xlink:href="#taaqCFsi579vLAcDiaR2_pad-1" x="86945" y="-39554"/><use xlink:href="#taaqCFsi579vLAcDiaR2_pad-1" x="86945" y="-40554"/><use xlink:href="#taaqCFsi579vLAcDiaR2_pad-1" x="87945" y="-36554"/><use xlink:href="#taaqCFsi579vLAcDiaR2_pad-1" x="87945" y="-37554"/><use xlink:href="#taaqCFsi579vLAcDiaR2_pad-1" x="87945" y="-38554"/><use xlink:href="#taaqCFsi579vLAcDiaR2_pad-1" x="87945" y="-39554"/><use xlink:href="#taaqCFsi579vLAcDiaR2_pad-1" x="87945" y="-40554"/><use xlink:href="#taaqCFsi579vLAcDiaR2_pad-2" x="53900" y="-45650"/><use xlink:href="#taaqCFsi579vLAcDiaR2_pad-2" x="53900" y="-99600"/><use xlink:href="#taaqCFsi579vLAcDiaR2_pad-2" x="54559" y="-44059"/><use xlink:href="#taaqCFsi579vLAcDiaR2_pad-2" x="54559" y="-47241"/><use xlink:href="#taaqCFsi579vLAcDiaR2_pad-2" x="54559" y="-98009"/><use xlink:href="#taaqCFsi579vLAcDiaR2_pad-2" x="54559" y="-101191"/><use xlink:href="#taaqCFsi579vLAcDiaR2_pad-2" x="56150" y="-43400"/><use xlink:href="#taaqCFsi579vLAcDiaR2_pad-2" x="56150" y="-47900"/><use xlink:href="#taaqCFsi579vLAcDiaR2_pad-2" x="56150" y="-97350"/><use xlink:href="#taaqCFsi579vLAcDiaR2_pad-2" x="56150" y="-101850"/><use xlink:href="#taaqCFsi579vLAcDiaR2_pad-2" x="57741" y="-44059"/><use xlink:href="#taaqCFsi579vLAcDiaR2_pad-2" x="57741" y="-47241"/><use xlink:href="#taaqCFsi579vLAcDiaR2_pad-2" x="57741" y="-98009"/><use xlink:href="#taaqCFsi579vLAcDiaR2_pad-2" x="57741" y="-101191"/><use xlink:href="#taaqCFsi579vLAcDiaR2_pad-2" x="58400" y="-45650"/><use xlink:href="#taaqCFsi579vLAcDiaR2_pad-2" x="58400" y="-99600"/><use xlink:href="#taaqCFsi579vLAcDiaR2_pad-2" x="105850" y="-45650"/><use xlink:href="#taaqCFsi579vLAcDiaR2_pad-2" x="105850" y="-99600"/><use xlink:href="#taaqCFsi579vLAcDiaR2_pad-2" x="106509" y="-44059"/><use xlink:href="#taaqCFsi579vLAcDiaR2_pad-2" x="106509" y="-47241"/><use xlink:href="#taaqCFsi579vLAcDiaR2_pad-2" x="106509" y="-98009"/><use xlink:href="#taaqCFsi579vLAcDiaR2_pad-2" x="106509" y="-101191"/><use xlink:href="#taaqCFsi579vLAcDiaR2_pad-2" x="108100" y="-43400"/><use xlink:href="#taaqCFsi579vLAcDiaR2_pad-2" x="108100" y="-47900"/><use xlink:href="#taaqCFsi579vLAcDiaR2_pad-2" x="108100" y="-97350"/><use xlink:href="#taaqCFsi579vLAcDiaR2_pad-2" x="108100" y="-101850"/><use xlink:href="#taaqCFsi579vLAcDiaR2_pad-2" x="109691" y="-44059"/><use xlink:href="#taaqCFsi579vLAcDiaR2_pad-2" x="109691" y="-47241"/><use xlink:href="#taaqCFsi579vLAcDiaR2_pad-2" x="109691" y="-98009"/><use xlink:href="#taaqCFsi579vLAcDiaR2_pad-2" x="109691" y="-101191"/><use xlink:href="#taaqCFsi579vLAcDiaR2_pad-2" x="110350" y="-45650"/><use xlink:href="#taaqCFsi579vLAcDiaR2_pad-2" x="110350" y="-99600"/><use xlink:href="#taaqCFsi579vLAcDiaR2_pad-3" x="54074" y="-34290"/><use xlink:href="#taaqCFsi579vLAcDiaR2_pad-3" x="56980" y="-110650"/><use xlink:href="#taaqCFsi579vLAcDiaR2_pad-3" x="59154" y="-34290"/><use xlink:href="#taaqCFsi579vLAcDiaR2_pad-3" x="62060" y="-110650"/><use xlink:href="#taaqCFsi579vLAcDiaR2_pad-3" x="65024" y="-34290"/><use xlink:href="#taaqCFsi579vLAcDiaR2_pad-3" x="67140" y="-110650"/><use xlink:href="#taaqCFsi579vLAcDiaR2_pad-3" x="70104" y="-34290"/><use xlink:href="#taaqCFsi579vLAcDiaR2_pad-3" x="72220" y="-110650"/><use xlink:href="#taaqCFsi579vLAcDiaR2_pad-3" x="78660" y="-110650"/><use xlink:href="#taaqCFsi579vLAcDiaR2_pad-3" x="83740" y="-110650"/><use xlink:href="#taaqCFsi579vLAcDiaR2_pad-3" x="89710" y="-110650"/><use xlink:href="#taaqCFsi579vLAcDiaR2_pad-3" x="94790" y="-110650"/><use xlink:href="#taaqCFsi579vLAcDiaR2_pad-3" x="100570" y="-110650"/><use xlink:href="#taaqCFsi579vLAcDiaR2_pad-3" x="104902" y="-34290"/><use xlink:href="#taaqCFsi579vLAcDiaR2_pad-3" x="105650" y="-110650"/><use xlink:href="#taaqCFsi579vLAcDiaR2_pad-3" x="109982" y="-34290"/><use xlink:href="#taaqCFsi579vLAcDiaR2_pad-4" x="56150" y="-45650"/><use xlink:href="#taaqCFsi579vLAcDiaR2_pad-4" x="56150" y="-99600"/><use xlink:href="#taaqCFsi579vLAcDiaR2_pad-4" x="108100" y="-45650"/><use xlink:href="#taaqCFsi579vLAcDiaR2_pad-4" x="108100" y="-99600"/></g></svg>