<svg version="1.1" xmlns="http://www.w3.org/2000/svg" xmlns:xlink="http://www.w3.org/1999/xlink" stroke-linecap="round" stroke-linejoin="round" stroke-width="0" fill-rule="evenodd" width="58.908mm" height="79.36mm" viewBox="52574 -112150 58908 79360" id="lhONcsK-v8RFOGeDsYR9"><defs><rect x="-1500" y="-1500" width="3000" height="3000" id="lhONcsK-v8RFOGeDsYR9_pad-10"/><circle cx="0" cy="0" r="1500" id="lhONcsK-v8RFOGeDsYR9_pad-11"/><circle cx="0" cy="0" r="400" id="lhONcsK-v8RFOGeDsYR9_pad-12"/><circle cx="0" cy="0" r="3000" id="lhONcsK-v8RFOGeDsYR9_pad-13"/><mask id="lhONcsK-v8RFOGeDsYR9_clear-1" fill="#000" stroke="#000"><g><rect x="Infinity" y="Infinity" width="-Infinity" height="-Infinity" fill="#fff"/><use xlink:href="#lhONcsK-v8RFOGeDsYR9_pad-10" x="89710" y="-110650"/><use xlink:href="#lhONcsK-v8RFOGeDsYR9_pad-11" x="94790" y="-110650"/><use xlink:href="#lhONcsK-v8RFOGeDsYR9_pad-12" x="56150" y="-43400"/><use xlink:href="#lhONcsK-v8RFOGeDsYR9_pad-12" x="54559.01" y="-47240.99"/><use xlink:href="#lhONcsK-v8RFOGeDsYR9_pad-12" x="54559.01" y="-44059.01"/><use xlink:href="#lhONcsK-v8RFOGeDsYR9_pad-12" x="53900" y="-45650"/><use xlink:href="#lhONcsK-v8RFOGeDsYR9_pad-12" x="57740.99" y="-44059.01"/><use xlink:href="#lhONcsK-v8RFOGeDsYR9_pad-13" x="56150" y="-45650"/><use xlink:href="#lhONcsK-v8RFOGeDsYR9_pad-12" x="58400" y="-45650"/><use xlink:href="#lhONcsK-v8RFOGeDsYR9_pad-12" x="56150" y="-47900"/><use xlink:href="#lhONcsK-v8RFOGeDsYR9_pad-12" x="57740.99" y="-47240.99"/><use xlink:href="#lhONcsK-v8RFOGeDsYR9_pad-10" x="78660" y="-110650"/><use xlink:href="#lhONcsK-v8RFOGeDsYR9_pad-11" x="83740" y="-110650"/><use xlink:href="#lhONcsK-v8RFOGeDsYR9_pad-10" x="59154" y="-34290"/><use xlink:href="#lhONcsK-v8RFOGeDsYR9_pad-11" x="54074" y="-34290"/><use xlink:href="#lhONcsK-v8RFOGeDsYR9_pad-10" x="70104" y="-34290"/><use xlink:href="#lhONcsK-v8RFOGeDsYR9_pad-11" x="65024" y="-34290"/><use xlink:href="#lhONcsK-v8RFOGeDsYR9_pad-12" x="85945" y="-40554"/><use xlink:href="#lhONcsK-v8RFOGeDsYR9_pad-12" x="83945" y="-40554"/><use xlink:href="#lhONcsK-v8RFOGeDsYR9_pad-12" x="83945" y="-36554"/><use xlink:href="#lhONcsK-v8RFOGeDsYR9_pad-12" x="84945" y="-38554"/><use xlink:href="#lhONcsK-v8RFOGeDsYR9_pad-12" x="84945" y="-37554"/><use xlink:href="#lhONcsK-v8RFOGeDsYR9_pad-12" x="86945" y="-36554"/><use xlink:href="#lhONcsK-v8RFOGeDsYR9_pad-12" x="83945" y="-37554"/><use xlink:href="#lhONcsK-v8RFOGeDsYR9_pad-12" x="86945" y="-38554"/><use xlink:href="#lhONcsK-v8RFOGeDsYR9_pad-12" x="84945" y="-39554"/><use xlink:href="#lhONcsK-v8RFOGeDsYR9_pad-12" x="86945" y="-40554"/><use xlink:href="#lhONcsK-v8RFOGeDsYR9_pad-12" x="87945" y="-39554"/><use xlink:href="#lhONcsK-v8RFOGeDsYR9_pad-12" x="85945" y="-39554"/><use xlink:href="#lhONcsK-v8RFOGeDsYR9_pad-12" x="87945" y="-37554"/><use xlink:href="#lhONcsK-v8RFOGeDsYR9_pad-12" x="83945" y="-39554"/><use xlink:href="#lhONcsK-v8RFOGeDsYR9_pad-12" x="86945" y="-37554"/><use xlink:href="#lhONcsK-v8RFOGeDsYR9_pad-12" x="84945" y="-40554"/><use xlink:href="#lhONcsK-v8RFOGeDsYR9_pad-12" x="87945" y="-36554"/><use xlink:href="#lhONcsK-v8RFOGeDsYR9_pad-12" x="87945" y="-38554"/><use xlink:href="#lhONcsK-v8RFOGeDsYR9_pad-12" x="86945" y="-39554"/><use xlink:href="#lhONcsK-v8RFOGeDsYR9_pad-12" x="84945" y="-36554"/><use xlink:href="#lhONcsK-v8RFOGeDsYR9_pad-12" x="85945" y="-37554"/><use xlink:href="#lhONcsK-v8RFOGeDsYR9_pad-12" x="85945" y="-38554"/><use xlink:href="#lhONcsK-v8RFOGeDsYR9_pad-12" x="83945" y="-38554"/><use xlink:href="#lhONcsK-v8RFOGeDsYR9_pad-12" x="87945" y="-40554"/><use xlink:href="#lhONcsK-v8RFOGeDsYR9_pad-12" x="85945" y="-36554"/><use xlink:href="#lhONcsK-v8RFOGeDsYR9_pad-12" x="110350" y="-99600"/><use xlink:href="#lhONcsK-v8RFOGeDsYR9_pad-13" x="108100" y="-99600"/><use xlink:href="#lhONcsK-v8RFOGeDsYR9_pad-12" x="109690.99" y="-98009.01"/><use xlink:href="#lhONcsK-v8RFOGeDsYR9_pad-12" x="108100" y="-97350"/><use xlink:href="#lhONcsK-v8RFOGeDsYR9_pad-12" x="109690.99" y="-101190.99"/><use xlink:href="#lhONcsK-v8RFOGeDsYR9_pad-12" x="108100" y="-101850"/><use xlink:href="#lhONcsK-v8RFOGeDsYR9_pad-12" x="106509.01" y="-101190.99"/><use xlink:href="#lhONcsK-v8RFOGeDsYR9_pad-12" x="106509.01" y="-98009.01"/><use xlink:href="#lhONcsK-v8RFOGeDsYR9_pad-12" x="105850" y="-99600"/><use xlink:href="#lhONcsK-v8RFOGeDsYR9_pad-10" x="56980" y="-110650"/><use xlink:href="#lhONcsK-v8RFOGeDsYR9_pad-11" x="62060" y="-110650"/><use xlink:href="#lhONcsK-v8RFOGeDsYR9_pad-11" x="67140" y="-110650"/><use xlink:href="#lhONcsK-v8RFOGeDsYR9_pad-11" x="72220" y="-110650"/><use xlink:href="#lhONcsK-v8RFOGeDsYR9_pad-12" x="110350" y="-45650"/><use xlink:href="#lhONcsK-v8RFOGeDsYR9_pad-12" x="109690.99" y="-47240.99"/><use xlink:href="#lhONcsK-v8RFOGeDsYR9_pad-12" x="106509.01" y="-47240.99"/><use xlink:href="#lhONcsK-v8RFOGeDsYR9_pad-12" x="106509.01" y="-44059.01"/><use xlink:href="#lhONcsK-v8RFOGeDsYR9_pad-12" x="109690.99" y="-44059.01"/><use xlink:href="#lhONcsK-v8RFOGeDsYR9_pad-12" x="108100" y="-47900"/><use xlink:href="#lhONcsK-v8RFOGeDsYR9_pad-12" x="105850" y="-45650"/><use xlink:href="#lhONcsK-v8RFOGeDsYR9_pad-13" x="108100" y="-45650"/><use xlink:href="#lhONcsK-v8RFOGeDsYR9_pad-12" x="108100" y="-43400"/><use xlink:href="#lhONcsK-v8RFOGeDsYR9_pad-10" x="100570" y="-110650"/><use xlink:href="#lhONcsK-v8RFOGeDsYR9_pad-11" x="105650" y="-110650"/><use xlink:href="#lhONcsK-v8RFOGeDsYR9_pad-10" x="109982" y="-34290"/><use xlink:href="#lhONcsK-v8RFOGeDsYR9_pad-11" x="104902" y="-34290"/><use xlink:href="#lhONcsK-v8RFOGeDsYR9_pad-12" x="56150" y="-97350"/><use xlink:href="#lhONcsK-v8RFOGeDsYR9_pad-12" x="56150" y="-101850"/><use xlink:href="#lhONcsK-v8RFOGeDsYR9_pad-12" x="57740.99" y="-101190.99"/><use xlink:href="#lhONcsK-v8RFOGeDsYR9_pad-13" x="56150" y="-99600"/><use xlink:href="#lhONcsK-v8RFOGeDsYR9_pad-12" x="54559.01" y="-98009.01"/><use xlink:href="#lhONcsK-v8RFOGeDsYR9_pad-12" x="54559.01" y="-101190.99"/><use xlink:href="#lhONcsK-v8RFOGeDsYR9_pad-12" x="53900" y="-99600"/><use xlink:href="#lhONcsK-v8RFOGeDsYR9_pad-12" x="58400" y="-99600"/><use xlink:href="#lhONcsK-v8RFOGeDsYR9_pad-12" x="57740.99" y="-98009.01"/></g></mask></defs><g transform="translate(0,-144940) scale(1,-1)" fill="currentColor" stroke="currentColor"><g mask="url(#lhONcsK-v8RFOGeDsYR9_clear-1)"/></g></svg>