<svg version="1.1" xmlns="http://www.w3.org/2000/svg" xmlns:xlink="http://www.w3.org/1999/xlink" stroke-linecap="round" stroke-linejoin="round" stroke-width="0" fill-rule="evenodd" width="58.908mm" height="80.956mm" viewBox="52574 -112150 58908 80956" id="TM4nRJ5xrgqhKZ3iwLPg"><defs><rect x="-1075" y="-475" width="2150" height="950" id="TM4nRJ5xrgqhKZ3iwLPg_pad-10"/><rect x="-1075" y="-1625" width="2150" height="3250" id="TM4nRJ5xrgqhKZ3iwLPg_pad-11"/><rect x="-1500" y="-1500" width="3000" height="3000" id="TM4nRJ5xrgqhKZ3iwLPg_pad-12"/><circle cx="0" cy="0" r="1500" id="TM4nRJ5xrgqhKZ3iwLPg_pad-13"/><g id="TM4nRJ5xrgqhKZ3iwLPg_pad-14"><polygon points="262.5,450 -262.5,450 -262.5,-450 262.5,-450"/><circle cx="262.5" cy="450" r="250"/><circle cx="-262.5" cy="450" r="250"/><circle cx="-262.5" cy="-450" r="250"/><circle cx="262.5" cy="-450" r="250"/><polygon points="262.5,200 -262.5,200 -262.5,700 262.5,700"/><polygon points="-12.5,450 -12.5,-450 -512.5,-450 -512.5,450"/><polygon points="-262.5,-700 262.5,-700 262.5,-200 -262.5,-200"/><polygon points="512.5,-450 512.5,450 12.5,450 12.5,-450"/></g><rect x="-500" y="-450" width="1000" height="900" id="TM4nRJ5xrgqhKZ3iwLPg_pad-15"/><circle cx="0" cy="0" r="400" id="TM4nRJ5xrgqhKZ3iwLPg_pad-16"/><circle cx="0" cy="0" r="3000" id="TM4nRJ5xrgqhKZ3iwLPg_pad-17"/><g id="TM4nRJ5xrgqhKZ3iwLPg_pad-18"><polygon points="-250,-475 250,-475 250,475 -250,475"/><circle cx="-250" cy="-475" r="250"/><circle cx="250" cy="-475" r="250"/><circle cx="250" cy="475" r="250"/><circle cx="-250" cy="475" r="250"/><polygon points="-250,-725 250,-725 250,-225 -250,-225"/><polygon points="500,-475 500,475 0,475 0,-475"/><polygon points="250,225 -250,225 -250,725 250,725"/><polygon points="0,475 0,-475 -500,-475 -500,475"/></g><g id="TM4nRJ5xrgqhKZ3iwLPg_pad-19"><polygon points="250,475 -250,475 -250,-475 250,-475"/><circle cx="250" cy="475" r="250"/><circle cx="-250" cy="475" r="250"/><circle cx="-250" cy="-475" r="250"/><circle cx="250" cy="-475" r="250"/><polygon points="250,225 -250,225 -250,725 250,725"/><polygon points="0,475 0,-475 -500,-475 -500,475"/><polygon points="-250,-725 250,-725 250,-225 -250,-225"/><polygon points="500,-475 500,475 0,475 0,-475"/></g><rect x="-1500" y="-450" width="3000" height="900" rx="450" ry="450" id="TM4nRJ5xrgqhKZ3iwLPg_pad-20"/><rect x="-2500" y="-2500" width="5000" height="5000" id="TM4nRJ5xrgqhKZ3iwLPg_pad-21"/><rect x="-279.5" y="-362" width="559" height="724" id="TM4nRJ5xrgqhKZ3iwLPg_pad-22"/></defs><g transform="translate(0,-143344) scale(1,-1)" fill="currentColor" stroke="currentColor"><use xlink:href="#TM4nRJ5xrgqhKZ3iwLPg_pad-10" x="69194" y="-48274"/><use xlink:href="#TM4nRJ5xrgqhKZ3iwLPg_pad-10" x="69194" y="-45974"/><use xlink:href="#TM4nRJ5xrgqhKZ3iwLPg_pad-10" x="69194" y="-43674"/><use xlink:href="#TM4nRJ5xrgqhKZ3iwLPg_pad-11" x="63394" y="-45974"/><use xlink:href="#TM4nRJ5xrgqhKZ3iwLPg_pad-12" x="89710" y="-110650"/><use xlink:href="#TM4nRJ5xrgqhKZ3iwLPg_pad-13" x="94790" y="-110650"/><use xlink:href="#TM4nRJ5xrgqhKZ3iwLPg_pad-14" x="65512.5" y="-67600"/><use xlink:href="#TM4nRJ5xrgqhKZ3iwLPg_pad-14" x="63687.5" y="-67600"/><use xlink:href="#TM4nRJ5xrgqhKZ3iwLPg_pad-15" x="56650" y="-56550"/><use xlink:href="#TM4nRJ5xrgqhKZ3iwLPg_pad-15" x="56650" y="-60650"/><use xlink:href="#TM4nRJ5xrgqhKZ3iwLPg_pad-15" x="58250" y="-56550"/><use xlink:href="#TM4nRJ5xrgqhKZ3iwLPg_pad-15" x="58250" y="-60650"/><use xlink:href="#TM4nRJ5xrgqhKZ3iwLPg_pad-14" x="107742.5" y="-64888"/><use xlink:href="#TM4nRJ5xrgqhKZ3iwLPg_pad-14" x="105917.5" y="-64888"/><use xlink:href="#TM4nRJ5xrgqhKZ3iwLPg_pad-16" x="56150" y="-43400"/><use xlink:href="#TM4nRJ5xrgqhKZ3iwLPg_pad-16" x="54559.01" y="-47240.99"/><use xlink:href="#TM4nRJ5xrgqhKZ3iwLPg_pad-16" x="54559.01" y="-44059.01"/><use xlink:href="#TM4nRJ5xrgqhKZ3iwLPg_pad-16" x="53900" y="-45650"/><use xlink:href="#TM4nRJ5xrgqhKZ3iwLPg_pad-16" x="57740.99" y="-44059.01"/><use xlink:href="#TM4nRJ5xrgqhKZ3iwLPg_pad-17" x="56150" y="-45650"/><use xlink:href="#TM4nRJ5xrgqhKZ3iwLPg_pad-16" x="58400" y="-45650"/><use xlink:href="#TM4nRJ5xrgqhKZ3iwLPg_pad-16" x="56150" y="-47900"/><use xlink:href="#TM4nRJ5xrgqhKZ3iwLPg_pad-16" x="57740.99" y="-47240.99"/><use xlink:href="#TM4nRJ5xrgqhKZ3iwLPg_pad-14" x="65512.5" y="-77100"/><use xlink:href="#TM4nRJ5xrgqhKZ3iwLPg_pad-14" x="63687.5" y="-77100"/><use xlink:href="#TM4nRJ5xrgqhKZ3iwLPg_pad-12" x="78660" y="-110650"/><use xlink:href="#TM4nRJ5xrgqhKZ3iwLPg_pad-13" x="83740" y="-110650"/><use xlink:href="#TM4nRJ5xrgqhKZ3iwLPg_pad-12" x="59154" y="-34290"/><use xlink:href="#TM4nRJ5xrgqhKZ3iwLPg_pad-13" x="54074" y="-34290"/><use xlink:href="#TM4nRJ5xrgqhKZ3iwLPg_pad-14" x="102292.5" y="-64938"/><use xlink:href="#TM4nRJ5xrgqhKZ3iwLPg_pad-14" x="100467.5" y="-64938"/><use xlink:href="#TM4nRJ5xrgqhKZ3iwLPg_pad-18" x="63700" y="-72300"/><use xlink:href="#TM4nRJ5xrgqhKZ3iwLPg_pad-18" x="65600" y="-72300"/><use xlink:href="#TM4nRJ5xrgqhKZ3iwLPg_pad-18" x="63750" y="-58450"/><use xlink:href="#TM4nRJ5xrgqhKZ3iwLPg_pad-18" x="65650" y="-58450"/><use xlink:href="#TM4nRJ5xrgqhKZ3iwLPg_pad-19" x="65500" y="-63100"/><use xlink:href="#TM4nRJ5xrgqhKZ3iwLPg_pad-19" x="63600" y="-63100"/><use xlink:href="#TM4nRJ5xrgqhKZ3iwLPg_pad-12" x="70104" y="-34290"/><use xlink:href="#TM4nRJ5xrgqhKZ3iwLPg_pad-13" x="65024" y="-34290"/><use xlink:href="#TM4nRJ5xrgqhKZ3iwLPg_pad-20" x="77345" y="-31644"/><use xlink:href="#TM4nRJ5xrgqhKZ3iwLPg_pad-20" x="77345" y="-32914"/><use xlink:href="#TM4nRJ5xrgqhKZ3iwLPg_pad-20" x="77345" y="-34184"/><use xlink:href="#TM4nRJ5xrgqhKZ3iwLPg_pad-20" x="77345" y="-35454"/><use xlink:href="#TM4nRJ5xrgqhKZ3iwLPg_pad-20" x="77345" y="-36724"/><use xlink:href="#TM4nRJ5xrgqhKZ3iwLPg_pad-20" x="77345" y="-37994"/><use xlink:href="#TM4nRJ5xrgqhKZ3iwLPg_pad-20" x="77345" y="-39264"/><use xlink:href="#TM4nRJ5xrgqhKZ3iwLPg_pad-20" x="77345" y="-40534"/><use xlink:href="#TM4nRJ5xrgqhKZ3iwLPg_pad-20" x="77345" y="-41804"/><use xlink:href="#TM4nRJ5xrgqhKZ3iwLPg_pad-20" x="77345" y="-43074"/><use xlink:href="#TM4nRJ5xrgqhKZ3iwLPg_pad-20" x="77345" y="-44344"/><use xlink:href="#TM4nRJ5xrgqhKZ3iwLPg_pad-20" x="77345" y="-45614"/><use xlink:href="#TM4nRJ5xrgqhKZ3iwLPg_pad-20" x="77345" y="-46884"/><use xlink:href="#TM4nRJ5xrgqhKZ3iwLPg_pad-20" x="77345" y="-48154"/><use xlink:href="#TM4nRJ5xrgqhKZ3iwLPg_pad-20" x="77345" y="-49454"/><use xlink:href="#TM4nRJ5xrgqhKZ3iwLPg_pad-20" x="77345" y="-50724"/><use xlink:href="#TM4nRJ5xrgqhKZ3iwLPg_pad-20" x="77345" y="-51994"/><use xlink:href="#TM4nRJ5xrgqhKZ3iwLPg_pad-20" x="77345" y="-53264"/><use xlink:href="#TM4nRJ5xrgqhKZ3iwLPg_pad-20" x="77345" y="-54534"/><use xlink:href="#TM4nRJ5xrgqhKZ3iwLPg_pad-20" x="95345" y="-54534"/><use xlink:href="#TM4nRJ5xrgqhKZ3iwLPg_pad-20" x="95345" y="-53264"/><use xlink:href="#TM4nRJ5xrgqhKZ3iwLPg_pad-20" x="95345" y="-51994"/><use xlink:href="#TM4nRJ5xrgqhKZ3iwLPg_pad-20" x="95345" y="-50724"/><use xlink:href="#TM4nRJ5xrgqhKZ3iwLPg_pad-20" x="95345" y="-49454"/><use xlink:href="#TM4nRJ5xrgqhKZ3iwLPg_pad-20" x="95375" y="-48154"/><use xlink:href="#TM4nRJ5xrgqhKZ3iwLPg_pad-20" x="95375" y="-46884"/><use xlink:href="#TM4nRJ5xrgqhKZ3iwLPg_pad-20" x="95375" y="-45614"/><use xlink:href="#TM4nRJ5xrgqhKZ3iwLPg_pad-20" x="95375" y="-44344"/><use xlink:href="#TM4nRJ5xrgqhKZ3iwLPg_pad-20" x="95375" y="-43074"/><use xlink:href="#TM4nRJ5xrgqhKZ3iwLPg_pad-20" x="95375" y="-41804"/><use xlink:href="#TM4nRJ5xrgqhKZ3iwLPg_pad-20" x="95375" y="-40534"/><use xlink:href="#TM4nRJ5xrgqhKZ3iwLPg_pad-20" x="95375" y="-39264"/><use xlink:href="#TM4nRJ5xrgqhKZ3iwLPg_pad-20" x="95375" y="-37994"/><use xlink:href="#TM4nRJ5xrgqhKZ3iwLPg_pad-20" x="95375" y="-36724"/><use xlink:href="#TM4nRJ5xrgqhKZ3iwLPg_pad-20" x="95375" y="-35454"/><use xlink:href="#TM4nRJ5xrgqhKZ3iwLPg_pad-20" x="95375" y="-34184"/><use xlink:href="#TM4nRJ5xrgqhKZ3iwLPg_pad-20" x="95375" y="-32914"/><use xlink:href="#TM4nRJ5xrgqhKZ3iwLPg_pad-20" x="95375" y="-31644"/><use xlink:href="#TM4nRJ5xrgqhKZ3iwLPg_pad-16" x="85945" y="-40554"/><use xlink:href="#TM4nRJ5xrgqhKZ3iwLPg_pad-16" x="83945" y="-40554"/><use xlink:href="#TM4nRJ5xrgqhKZ3iwLPg_pad-16" x="83945" y="-36554"/><use xlink:href="#TM4nRJ5xrgqhKZ3iwLPg_pad-16" x="84945" y="-38554"/><use xlink:href="#TM4nRJ5xrgqhKZ3iwLPg_pad-16" x="84945" y="-37554"/><use xlink:href="#TM4nRJ5xrgqhKZ3iwLPg_pad-16" x="86945" y="-36554"/><use xlink:href="#TM4nRJ5xrgqhKZ3iwLPg_pad-16" x="83945" y="-37554"/><use xlink:href="#TM4nRJ5xrgqhKZ3iwLPg_pad-16" x="86945" y="-38554"/><use xlink:href="#TM4nRJ5xrgqhKZ3iwLPg_pad-16" x="84945" y="-39554"/><use xlink:href="#TM4nRJ5xrgqhKZ3iwLPg_pad-21" x="85945" y="-38564"/><use xlink:href="#TM4nRJ5xrgqhKZ3iwLPg_pad-16" x="86945" y="-40554"/><use xlink:href="#TM4nRJ5xrgqhKZ3iwLPg_pad-16" x="87945" y="-39554"/><use xlink:href="#TM4nRJ5xrgqhKZ3iwLPg_pad-16" x="85945" y="-39554"/><use xlink:href="#TM4nRJ5xrgqhKZ3iwLPg_pad-16" x="87945" y="-37554"/><use xlink:href="#TM4nRJ5xrgqhKZ3iwLPg_pad-16" x="83945" y="-39554"/><use xlink:href="#TM4nRJ5xrgqhKZ3iwLPg_pad-16" x="86945" y="-37554"/><use xlink:href="#TM4nRJ5xrgqhKZ3iwLPg_pad-16" x="84945" y="-40554"/><use xlink:href="#TM4nRJ5xrgqhKZ3iwLPg_pad-16" x="87945" y="-36554"/><use xlink:href="#TM4nRJ5xrgqhKZ3iwLPg_pad-16" x="87945" y="-38554"/><use xlink:href="#TM4nRJ5xrgqhKZ3iwLPg_pad-16" x="86945" y="-39554"/><use xlink:href="#TM4nRJ5xrgqhKZ3iwLPg_pad-16" x="84945" y="-36554"/><use xlink:href="#TM4nRJ5xrgqhKZ3iwLPg_pad-16" x="85945" y="-37554"/><use xlink:href="#TM4nRJ5xrgqhKZ3iwLPg_pad-16" x="85945" y="-38554"/><use xlink:href="#TM4nRJ5xrgqhKZ3iwLPg_pad-16" x="83945" y="-38554"/><use xlink:href="#TM4nRJ5xrgqhKZ3iwLPg_pad-16" x="87945" y="-40554"/><use xlink:href="#TM4nRJ5xrgqhKZ3iwLPg_pad-16" x="85945" y="-36554"/><use xlink:href="#TM4nRJ5xrgqhKZ3iwLPg_pad-16" x="110350" y="-99600"/><use xlink:href="#TM4nRJ5xrgqhKZ3iwLPg_pad-17" x="108100" y="-99600"/><use xlink:href="#TM4nRJ5xrgqhKZ3iwLPg_pad-16" x="109690.99" y="-98009.01"/><use xlink:href="#TM4nRJ5xrgqhKZ3iwLPg_pad-16" x="108100" y="-97350"/><use xlink:href="#TM4nRJ5xrgqhKZ3iwLPg_pad-16" x="109690.99" y="-101190.99"/><use xlink:href="#TM4nRJ5xrgqhKZ3iwLPg_pad-16" x="108100" y="-101850"/><use xlink:href="#TM4nRJ5xrgqhKZ3iwLPg_pad-16" x="106509.01" y="-101190.99"/><use xlink:href="#TM4nRJ5xrgqhKZ3iwLPg_pad-16" x="106509.01" y="-98009.01"/><use xlink:href="#TM4nRJ5xrgqhKZ3iwLPg_pad-16" x="105850" y="-99600"/><use xlink:href="#TM4nRJ5xrgqhKZ3iwLPg_pad-19" x="65450" y="-81550"/><use xlink:href="#TM4nRJ5xrgqhKZ3iwLPg_pad-19" x="63550" y="-81550"/><use xlink:href="#TM4nRJ5xrgqhKZ3iwLPg_pad-12" x="56980" y="-110650"/><use xlink:href="#TM4nRJ5xrgqhKZ3iwLPg_pad-13" x="62060" y="-110650"/><use xlink:href="#TM4nRJ5xrgqhKZ3iwLPg_pad-13" x="67140" y="-110650"/><use xlink:href="#TM4nRJ5xrgqhKZ3iwLPg_pad-13" x="72220" y="-110650"/><use xlink:href="#TM4nRJ5xrgqhKZ3iwLPg_pad-16" x="110350" y="-45650"/><use xlink:href="#TM4nRJ5xrgqhKZ3iwLPg_pad-16" x="109690.99" y="-47240.99"/><use xlink:href="#TM4nRJ5xrgqhKZ3iwLPg_pad-16" x="106509.01" y="-47240.99"/><use xlink:href="#TM4nRJ5xrgqhKZ3iwLPg_pad-16" x="106509.01" y="-44059.01"/><use xlink:href="#TM4nRJ5xrgqhKZ3iwLPg_pad-16" x="109690.99" y="-44059.01"/><use xlink:href="#TM4nRJ5xrgqhKZ3iwLPg_pad-16" x="108100" y="-47900"/><use xlink:href="#TM4nRJ5xrgqhKZ3iwLPg_pad-16" x="105850" y="-45650"/><use xlink:href="#TM4nRJ5xrgqhKZ3iwLPg_pad-17" x="108100" y="-45650"/><use xlink:href="#TM4nRJ5xrgqhKZ3iwLPg_pad-16" x="108100" y="-43400"/><use xlink:href="#TM4nRJ5xrgqhKZ3iwLPg_pad-22" x="107630" y="-68103.5"/><use xlink:href="#TM4nRJ5xrgqhKZ3iwLPg_pad-22" x="105730" y="-68103.5"/><use xlink:href="#TM4nRJ5xrgqhKZ3iwLPg_pad-22" x="106680" y="-70072.5"/><use xlink:href="#TM4nRJ5xrgqhKZ3iwLPg_pad-12" x="100570" y="-110650"/><use xlink:href="#TM4nRJ5xrgqhKZ3iwLPg_pad-13" x="105650" y="-110650"/><use xlink:href="#TM4nRJ5xrgqhKZ3iwLPg_pad-12" x="109982" y="-34290"/><use xlink:href="#TM4nRJ5xrgqhKZ3iwLPg_pad-13" x="104902" y="-34290"/><use xlink:href="#TM4nRJ5xrgqhKZ3iwLPg_pad-22" x="102296" y="-68103.5"/><use xlink:href="#TM4nRJ5xrgqhKZ3iwLPg_pad-22" x="100396" y="-68103.5"/><use xlink:href="#TM4nRJ5xrgqhKZ3iwLPg_pad-22" x="101346" y="-70072.5"/><use xlink:href="#TM4nRJ5xrgqhKZ3iwLPg_pad-16" x="56150" y="-97350"/><use xlink:href="#TM4nRJ5xrgqhKZ3iwLPg_pad-16" x="56150" y="-101850"/><use xlink:href="#TM4nRJ5xrgqhKZ3iwLPg_pad-16" x="57740.99" y="-101190.99"/><use xlink:href="#TM4nRJ5xrgqhKZ3iwLPg_pad-17" x="56150" y="-99600"/><use xlink:href="#TM4nRJ5xrgqhKZ3iwLPg_pad-16" x="54559.01" y="-98009.01"/><use xlink:href="#TM4nRJ5xrgqhKZ3iwLPg_pad-16" x="54559.01" y="-101190.99"/><use xlink:href="#TM4nRJ5xrgqhKZ3iwLPg_pad-16" x="53900" y="-99600"/><use xlink:href="#TM4nRJ5xrgqhKZ3iwLPg_pad-16" x="58400" y="-99600"/><use xlink:href="#TM4nRJ5xrgqhKZ3iwLPg_pad-16" x="57740.99" y="-98009.01"/></g></svg>