<svg version="1.1" xmlns="http://www.w3.org/2000/svg" xmlns:xlink="http://www.w3.org/1999/xlink" stroke-linecap="round" stroke-linejoin="round" stroke-width="0" fill-rule="evenodd" width="64.30711mm" height="101.46667mm" viewBox="48942.89 -131416.67 64307.11 101466.67" id="q_DRNeM4dXOg50HnfeWe"><g transform="translate(0,-161366.67000000004) scale(1,-1)" fill="currentColor" stroke="currentColor"><path d="M 50800 -115200 50800 -30000 113200 -30000 M 113200 -115200 113200 -30000 M 50800 -115200 113200 -115200" fill="none" stroke-width="100"/><path d="M 83795 -36404 84095 -36704 M 84095 -36404 83795 -36704 M 83795 -37404 84095 -37704 M 84095 -37404 83795 -37704 M 83795 -38404 84095 -38704 M 84095 -38404 83795 -38704 M 83795 -39404 84095 -39704 M 84095 -39404 83795 -39704 M 83795 -40404 84095 -40704 M 84095 -40404 83795 -40704 M 84795 -36404 85095 -36704 M 85095 -36404 84795 -36704 M 84795 -37404 85095 -37704 M 85095 -37404 84795 -37704 M 84795 -38404 85095 -38704 M 85095 -38404 84795 -38704 M 84795 -39404 85095 -39704 M 85095 -39404 84795 -39704 M 84795 -40404 85095 -40704 M 85095 -40404 84795 -40704 M 85795 -36404 86095 -36704 M 86095 -36404 85795 -36704 M 85795 -37404 86095 -37704 M 86095 -37404 85795 -37704 M 85795 -38404 86095 -38704 M 86095 -38404 85795 -38704 M 85795 -39404 86095 -39704 M 86095 -39404 85795 -39704 M 85795 -40404 86095 -40704 M 86095 -40404 85795 -40704 M 86795 -36404 87095 -36704 M 87095 -36404 86795 -36704 M 86795 -37404 87095 -37704 M 87095 -37404 86795 -37704 M 86795 -38404 87095 -38704 M 87095 -38404 86795 -38704 M 86795 -39404 87095 -39704 M 87095 -39404 86795 -39704 M 86795 -40404 87095 -40704 M 87095 -40404 86795 -40704 M 87795 -36404 88095 -36704 M 88095 -36404 87795 -36704 M 87795 -37404 88095 -37704 M 88095 -37404 87795 -37704 M 87795 -38404 88095 -38704 M 88095 -38404 87795 -38704 M 87795 -39404 88095 -39704 M 88095 -39404 87795 -39704 M 87795 -40404 88095 -40704 M 88095 -40404 87795 -40704" fill="none" stroke-width="30"/><path d="M 54150 -45650 A 250 250 0 0 1 53650 -45650 250 250 0 0 1 54150 -45650 M 54150 -99600 A 250 250 0 0 1 53650 -99600 250 250 0 0 1 54150 -99600 M 54809.01 -44059.01 A 250 250 0 0 1 54309.01 -44059.01 250 250 0 0 1 54809.01 -44059.01 M 54809.01 -47240.99 A 250 250 0 0 1 54309.01 -47240.99 250 250 0 0 1 54809.01 -47240.99 M 54809.01 -98009.01 A 250 250 0 0 1 54309.01 -98009.01 250 250 0 0 1 54809.01 -98009.01 M 54809.01 -101190.99 A 250 250 0 0 1 54309.01 -101190.99 250 250 0 0 1 54809.01 -101190.99 M 56400 -43400 A 250 250 0 0 1 55900 -43400 250 250 0 0 1 56400 -43400 M 56400 -47900 A 250 250 0 0 1 55900 -47900 250 250 0 0 1 56400 -47900 M 56400 -97350 A 250 250 0 0 1 55900 -97350 250 250 0 0 1 56400 -97350 M 56400 -101850 A 250 250 0 0 1 55900 -101850 250 250 0 0 1 56400 -101850 M 57990.99 -44059.01 A 250 250 0 0 1 57490.99 -44059.01 250 250 0 0 1 57990.99 -44059.01 M 57990.99 -47240.99 A 250 250 0 0 1 57490.99 -47240.99 250 250 0 0 1 57990.99 -47240.99 M 57990.99 -98009.01 A 250 250 0 0 1 57490.99 -98009.01 250 250 0 0 1 57990.99 -98009.01 M 57990.99 -101190.99 A 250 250 0 0 1 57490.99 -101190.99 250 250 0 0 1 57990.99 -101190.99 M 58650 -45650 A 250 250 0 0 1 58150 -45650 250 250 0 0 1 58650 -45650 M 58650 -99600 A 250 250 0 0 1 58150 -99600 250 250 0 0 1 58650 -99600 M 106100 -45650 A 250 250 0 0 1 105600 -45650 250 250 0 0 1 106100 -45650 M 106100 -99600 A 250 250 0 0 1 105600 -99600 250 250 0 0 1 106100 -99600 M 106759.01 -44059.01 A 250 250 0 0 1 106259.01 -44059.01 250 250 0 0 1 106759.01 -44059.01 M 106759.01 -47240.99 A 250 250 0 0 1 106259.01 -47240.99 250 250 0 0 1 106759.01 -47240.99 M 106759.01 -98009.01 A 250 250 0 0 1 106259.01 -98009.01 250 250 0 0 1 106759.01 -98009.01 M 106759.01 -101190.99 A 250 250 0 0 1 106259.01 -101190.99 250 250 0 0 1 106759.01 -101190.99 M 108350 -43400 A 250 250 0 0 1 107850 -43400 250 250 0 0 1 108350 -43400 M 108350 -47900 A 250 250 0 0 1 107850 -47900 250 250 0 0 1 108350 -47900 M 108350 -97350 A 250 250 0 0 1 107850 -97350 250 250 0 0 1 108350 -97350 M 108350 -101850 A 250 250 0 0 1 107850 -101850 250 250 0 0 1 108350 -101850 M 109940.99 -44059.01 A 250 250 0 0 1 109440.99 -44059.01 250 250 0 0 1 109940.99 -44059.01 M 109940.99 -47240.99 A 250 250 0 0 1 109440.99 -47240.99 250 250 0 0 1 109940.99 -47240.99 M 109940.99 -98009.01 A 250 250 0 0 1 109440.99 -98009.01 250 250 0 0 1 109940.99 -98009.01 M 109940.99 -101190.99 A 250 250 0 0 1 109440.99 -101190.99 250 250 0 0 1 109940.99 -101190.99 M 110600 -45650 A 250 250 0 0 1 110100 -45650 250 250 0 0 1 110600 -45650 M 110600 -99600 A 250 250 0 0 1 110100 -99600 250 250 0 0 1 110600 -99600" fill="none" stroke-width="50"/><path d="M 54074 -33530 54074 -35050 M 53314 -34290 54834 -34290 M 56980 -109890 56980 -111410 M 56220 -110650 57740 -110650 M 59154 -33530 59154 -35050 M 58394 -34290 59914 -34290 M 62060 -109890 62060 -111410 M 61300 -110650 62820 -110650 M 65024 -33530 65024 -35050 M 64264 -34290 65784 -34290 M 67140 -109890 67140 -111410 M 66380 -110650 67900 -110650 M 70104 -33530 70104 -35050 M 69344 -34290 70864 -34290 M 72220 -109890 72220 -111410 M 71460 -110650 72980 -110650 M 78660 -109890 78660 -111410 M 77900 -110650 79420 -110650 M 83740 -109890 83740 -111410 M 82980 -110650 84500 -110650 M 89710 -109890 89710 -111410 M 88950 -110650 90470 -110650 M 94790 -109890 94790 -111410 M 94030 -110650 95550 -110650 M 100570 -109890 100570 -111410 M 99810 -110650 101330 -110650 M 104902 -33530 104902 -35050 M 104142 -34290 105662 -34290 M 105650 -109890 105650 -111410 M 104890 -110650 106410 -110650 M 109982 -33530 109982 -35050 M 109222 -34290 110742 -34290" fill="none" stroke-width="152"/><path d="M 57387.45 -46887.45 57387.45 -44412.55 54912.55 -44412.55 54912.55 -46887.45 57387.45 -46887.45 M 57387.45 -100837.45 57387.45 -98362.55 54912.55 -98362.55 54912.55 -100837.45 57387.45 -100837.45 M 109337.45 -46887.45 109337.45 -44412.55 106862.55 -44412.55 106862.55 -46887.45 109337.45 -46887.45 M 109337.45 -100837.45 109337.45 -98362.55 106862.55 -98362.55 106862.55 -100837.45 109337.45 -100837.45" fill="none" stroke-width="350"/><path d="M 53326.19 -118354.76 53326.19 -116354.76 53802.38 -116354.76 54088.1 -116450 54278.57 -116640.48 54373.81 -116830.95 54469.05 -117211.9 54469.05 -117497.62 54373.81 -117878.57 54278.57 -118069.05 54088.1 -118259.52 53802.38 -118354.76 53326.19 -118354.76 M 55326.19 -118354.76 55326.19 -117021.43 M 55326.19 -117402.38 55421.43 -117211.9 55516.67 -117116.67 55707.14 -117021.43 55897.62 -117021.43 M 56564.28 -118354.76 56564.28 -117021.43 M 56564.28 -116354.76 56469.05 -116450 56564.28 -116545.24 56659.52 -116450 56564.28 -116354.76 56564.28 -116545.24 M 57802.38 -118354.76 57611.9 -118259.52 57516.67 -118069.05 57516.67 -116354.76 M 58850 -118354.76 58659.52 -118259.52 58564.28 -118069.05 58564.28 -116354.76 M 61135.71 -118354.76 61135.71 -116354.76 61802.38 -117783.33 62469.05 -116354.76 62469.05 -118354.76 M 64278.57 -118354.76 64278.57 -117307.14 64183.33 -117116.67 63992.86 -117021.43 63611.9 -117021.43 63421.43 -117116.67 M 64278.57 -118259.52 64088.09 -118354.76 63611.9 -118354.76 63421.43 -118259.52 63326.19 -118069.05 63326.19 -117878.57 63421.43 -117688.09 63611.9 -117592.86 64088.09 -117592.86 64278.57 -117497.62 M 65230.95 -117021.43 65230.95 -119021.43 M 65230.95 -117116.67 65421.43 -117021.43 65802.38 -117021.43 65992.86 -117116.67 66088.09 -117211.9 66183.33 -117402.38 66183.33 -117973.81 66088.09 -118164.28 65992.86 -118259.52 65802.38 -118354.76 65421.43 -118354.76 65230.95 -118259.52 M 67040.48 -118164.28 67135.71 -118259.52 67040.48 -118354.76 66945.24 -118259.52 67040.48 -118164.28 67040.48 -118354.76 M 67040.48 -117116.67 67135.71 -117211.9 67040.48 -117307.14 66945.24 -117211.9 67040.48 -117116.67 67040.48 -117307.14" fill="none" stroke-width="200"/><path d="M 50450 -121500 50750 -121800 M 50750 -121500 50450 -121800" fill="none" stroke-width="30"/><path d="M 53707.14 -120554.76 53897.62 -120554.76 54088.1 -120650 54183.33 -120745.24 54278.57 -120935.71 54373.81 -121316.67 54373.81 -121792.86 54278.57 -122173.81 54183.33 -122364.28 54088.1 -122459.52 53897.62 -122554.76 53707.14 -122554.76 53516.67 -122459.52 53421.43 -122364.28 53326.19 -122173.81 53230.95 -121792.86 53230.95 -121316.67 53326.19 -120935.71 53421.43 -120745.24 53516.67 -120650 53707.14 -120554.76 M 55230.95 -122364.28 55326.19 -122459.52 55230.95 -122554.76 55135.71 -122459.52 55230.95 -122364.28 55230.95 -122554.76 M 55992.86 -120554.76 57230.95 -120554.76 56564.28 -121316.67 56850 -121316.67 57040.48 -121411.9 57135.71 -121507.14 57230.95 -121697.62 57230.95 -122173.81 57135.71 -122364.28 57040.48 -122459.52 56850 -122554.76 56278.57 -122554.76 56088.09 -122459.52 55992.86 -122364.28 M 58469.05 -120554.76 58659.52 -120554.76 58850 -120650 58945.24 -120745.24 59040.48 -120935.71 59135.71 -121316.67 59135.71 -121792.86 59040.48 -122173.81 58945.24 -122364.28 58850 -122459.52 58659.52 -122554.76 58469.05 -122554.76 58278.57 -122459.52 58183.33 -122364.28 58088.09 -122173.81 57992.86 -121792.86 57992.86 -121316.67 58088.09 -120935.71 58183.33 -120745.24 58278.57 -120650 58469.05 -120554.76 M 60373.81 -120554.76 60564.28 -120554.76 60754.76 -120650 60850 -120745.24 60945.24 -120935.71 61040.48 -121316.67 61040.48 -121792.86 60945.24 -122173.81 60850 -122364.28 60754.76 -122459.52 60564.28 -122554.76 60373.81 -122554.76 60183.33 -122459.52 60088.09 -122364.28 59992.86 -122173.81 59897.62 -121792.86 59897.62 -121316.67 59992.86 -120935.71 60088.09 -120745.24 60183.33 -120650 60373.81 -120554.76 M 61897.62 -122554.76 61897.62 -121221.43 M 61897.62 -121411.9 61992.86 -121316.67 62183.33 -121221.43 62469.05 -121221.43 62659.52 -121316.67 62754.76 -121507.14 62754.76 -122554.76 M 62754.76 -121507.14 62850 -121316.67 63040.48 -121221.43 63326.19 -121221.43 63516.67 -121316.67 63611.9 -121507.14 63611.9 -122554.76 M 64564.28 -122554.76 64564.28 -121221.43 M 64564.28 -121411.9 64659.52 -121316.67 64850 -121221.43 65135.71 -121221.43 65326.19 -121316.67 65421.43 -121507.14 65421.43 -122554.76 M 65421.43 -121507.14 65516.67 -121316.67 65707.14 -121221.43 65992.86 -121221.43 66183.33 -121316.67 66278.57 -121507.14 66278.57 -122554.76 M 70183.33 -120459.52 68469.05 -123030.95 M 72754.76 -120554.76 72945.24 -120554.76 73135.71 -120650 73230.95 -120745.24 73326.19 -120935.71 73421.43 -121316.67 73421.43 -121792.86 73326.19 -122173.81 73230.95 -122364.28 73135.71 -122459.52 72945.24 -122554.76 72754.76 -122554.76 72564.28 -122459.52 72469.05 -122364.28 72373.81 -122173.81 72278.57 -121792.86 72278.57 -121316.67 72373.81 -120935.71 72469.05 -120745.24 72564.28 -120650 72754.76 -120554.76 M 74278.57 -122364.28 74373.81 -122459.52 74278.57 -122554.76 74183.33 -122459.52 74278.57 -122364.28 74278.57 -122554.76 M 75611.9 -120554.76 75802.38 -120554.76 75992.86 -120650 76088.09 -120745.24 76183.33 -120935.71 76278.57 -121316.67 76278.57 -121792.86 76183.33 -122173.81 76088.09 -122364.28 75992.86 -122459.52 75802.38 -122554.76 75611.9 -122554.76 75421.43 -122459.52 75326.19 -122364.28 75230.95 -122173.81 75135.71 -121792.86 75135.71 -121316.67 75230.95 -120935.71 75326.19 -120745.24 75421.43 -120650 75611.9 -120554.76 M 78183.33 -122554.76 77040.48 -122554.76 M 77611.9 -122554.76 77611.9 -120554.76 77421.43 -120840.48 77230.95 -121030.95 77040.48 -121126.19 M 80088.09 -122554.76 78945.24 -122554.76 M 79516.67 -122554.76 79516.67 -120554.76 79326.19 -120840.48 79135.71 -121030.95 78945.24 -121126.19 M 81230.95 -121411.9 81040.48 -121316.67 80945.24 -121221.43 80850 -121030.95 80850 -120935.71 80945.24 -120745.24 81040.48 -120650 81230.95 -120554.76 81611.9 -120554.76 81802.38 -120650 81897.62 -120745.24 81992.86 -120935.71 81992.86 -121030.95 81897.62 -121221.43 81802.38 -121316.67 81611.9 -121411.9 81230.95 -121411.9 81040.48 -121507.14 80945.24 -121602.38 80850 -121792.86 80850 -122173.81 80945.24 -122364.28 81040.48 -122459.52 81230.95 -122554.76 81611.9 -122554.76 81802.38 -122459.52 81897.62 -122364.28 81992.86 -122173.81 81992.86 -121792.86 81897.62 -121602.38 81802.38 -121507.14 81611.9 -121411.9 M 82754.76 -120554.76 82754.76 -120935.71 M 83516.67 -120554.76 83516.67 -120935.71 M 86469.05 -123316.67 86373.81 -123221.43 86183.33 -122935.71 86088.1 -122745.24 85992.86 -122459.52 85897.62 -121983.33 85897.62 -121602.38 85992.86 -121126.19 86088.1 -120840.48 86183.33 -120650 86373.81 -120364.28 86469.05 -120269.05 M 87135.71 -120745.24 87230.95 -120650 87421.43 -120554.76 87897.62 -120554.76 88088.1 -120650 88183.33 -120745.24 88278.57 -120935.71 88278.57 -121126.19 88183.33 -121411.9 87040.48 -122554.76 88278.57 -122554.76 M 90088.1 -120554.76 89135.71 -120554.76 89040.48 -121507.14 89135.71 -121411.9 89326.19 -121316.67 89802.38 -121316.67 89992.86 -121411.9 90088.1 -121507.14 90183.33 -121697.62 90183.33 -122173.81 90088.1 -122364.28 89992.86 -122459.52 89802.38 -122554.76 89326.19 -122554.76 89135.71 -122459.52 89040.48 -122364.28 M 92564.29 -122554.76 92564.29 -120554.76 M 93421.43 -122554.76 93421.43 -121507.14 93326.19 -121316.67 93135.71 -121221.43 92850 -121221.43 92659.52 -121316.67 92564.29 -121411.9 M 94659.52 -122554.76 94469.05 -122459.52 94373.81 -122364.28 94278.57 -122173.81 94278.57 -121602.38 94373.81 -121411.9 94469.05 -121316.67 94659.52 -121221.43 94945.24 -121221.43 95135.71 -121316.67 95230.95 -121411.9 95326.19 -121602.38 95326.19 -122173.81 95230.95 -122364.28 95135.71 -122459.52 94945.24 -122554.76 94659.52 -122554.76 M 96469.05 -122554.76 96278.57 -122459.52 96183.33 -122269.05 96183.33 -120554.76 M 97992.86 -122459.52 97802.38 -122554.76 97421.43 -122554.76 97230.95 -122459.52 97135.71 -122269.05 97135.71 -121507.14 97230.95 -121316.67 97421.43 -121221.43 97802.38 -121221.43 97992.86 -121316.67 98088.1 -121507.14 98088.1 -121697.62 97135.71 -121888.09 M 98850 -122459.52 99040.48 -122554.76 99421.43 -122554.76 99611.9 -122459.52 99707.14 -122269.05 99707.14 -122173.81 99611.9 -121983.33 99421.43 -121888.09 99135.71 -121888.09 98945.24 -121792.86 98850 -121602.38 98850 -121507.14 98945.24 -121316.67 99135.71 -121221.43 99421.43 -121221.43 99611.9 -121316.67 M 100373.81 -123316.67 100469.05 -123221.43 100659.52 -122935.71 100754.76 -122745.24 100850 -122459.52 100945.24 -121983.33 100945.24 -121602.38 100850 -121126.19 100754.76 -120840.48 100659.52 -120650 100469.05 -120364.28 100373.81 -120269.05" fill="none" stroke-width="200"/><path d="M 50750 -124290 A 250 250 0 0 1 50250 -124290 250 250 0 0 1 50750 -124290" fill="none" stroke-width="50"/><path d="M 53707.14 -123194.76 53897.62 -123194.76 54088.1 -123290 54183.33 -123385.24 54278.57 -123575.71 54373.81 -123956.67 54373.81 -124432.86 54278.57 -124813.81 54183.33 -125004.28 54088.1 -125099.52 53897.62 -125194.76 53707.14 -125194.76 53516.67 -125099.52 53421.43 -125004.28 53326.19 -124813.81 53230.95 -124432.86 53230.95 -123956.67 53326.19 -123575.71 53421.43 -123385.24 53516.67 -123290 53707.14 -123194.76 M 55230.95 -125004.28 55326.19 -125099.52 55230.95 -125194.76 55135.71 -125099.52 55230.95 -125004.28 55230.95 -125194.76 M 57135.71 -123194.76 56183.33 -123194.76 56088.09 -124147.14 56183.33 -124051.9 56373.81 -123956.67 56850 -123956.67 57040.48 -124051.9 57135.71 -124147.14 57230.95 -124337.62 57230.95 -124813.81 57135.71 -125004.28 57040.48 -125099.52 56850 -125194.76 56373.81 -125194.76 56183.33 -125099.52 56088.09 -125004.28 M 58469.05 -123194.76 58659.52 -123194.76 58850 -123290 58945.24 -123385.24 59040.48 -123575.71 59135.71 -123956.67 59135.71 -124432.86 59040.48 -124813.81 58945.24 -125004.28 58850 -125099.52 58659.52 -125194.76 58469.05 -125194.76 58278.57 -125099.52 58183.33 -125004.28 58088.09 -124813.81 57992.86 -124432.86 57992.86 -123956.67 58088.09 -123575.71 58183.33 -123385.24 58278.57 -123290 58469.05 -123194.76 M 60373.81 -123194.76 60564.28 -123194.76 60754.76 -123290 60850 -123385.24 60945.24 -123575.71 61040.48 -123956.67 61040.48 -124432.86 60945.24 -124813.81 60850 -125004.28 60754.76 -125099.52 60564.28 -125194.76 60373.81 -125194.76 60183.33 -125099.52 60088.09 -125004.28 59992.86 -124813.81 59897.62 -124432.86 59897.62 -123956.67 59992.86 -123575.71 60088.09 -123385.24 60183.33 -123290 60373.81 -123194.76 M 61897.62 -125194.76 61897.62 -123861.43 M 61897.62 -124051.9 61992.86 -123956.67 62183.33 -123861.43 62469.05 -123861.43 62659.52 -123956.67 62754.76 -124147.14 62754.76 -125194.76 M 62754.76 -124147.14 62850 -123956.67 63040.48 -123861.43 63326.19 -123861.43 63516.67 -123956.67 63611.9 -124147.14 63611.9 -125194.76 M 64564.28 -125194.76 64564.28 -123861.43 M 64564.28 -124051.9 64659.52 -123956.67 64850 -123861.43 65135.71 -123861.43 65326.19 -123956.67 65421.43 -124147.14 65421.43 -125194.76 M 65421.43 -124147.14 65516.67 -123956.67 65707.14 -123861.43 65992.86 -123861.43 66183.33 -123956.67 66278.57 -124147.14 66278.57 -125194.76 M 70183.33 -123099.52 68469.05 -125670.95 M 72754.76 -123194.76 72945.24 -123194.76 73135.71 -123290 73230.95 -123385.24 73326.19 -123575.71 73421.43 -123956.67 73421.43 -124432.86 73326.19 -124813.81 73230.95 -125004.28 73135.71 -125099.52 72945.24 -125194.76 72754.76 -125194.76 72564.28 -125099.52 72469.05 -125004.28 72373.81 -124813.81 72278.57 -124432.86 72278.57 -123956.67 72373.81 -123575.71 72469.05 -123385.24 72564.28 -123290 72754.76 -123194.76 M 74278.57 -125004.28 74373.81 -125099.52 74278.57 -125194.76 74183.33 -125099.52 74278.57 -125004.28 74278.57 -125194.76 M 75611.9 -123194.76 75802.38 -123194.76 75992.86 -123290 76088.09 -123385.24 76183.33 -123575.71 76278.57 -123956.67 76278.57 -124432.86 76183.33 -124813.81 76088.09 -125004.28 75992.86 -125099.52 75802.38 -125194.76 75611.9 -125194.76 75421.43 -125099.52 75326.19 -125004.28 75230.95 -124813.81 75135.71 -124432.86 75135.71 -123956.67 75230.95 -123575.71 75326.19 -123385.24 75421.43 -123290 75611.9 -123194.76 M 78183.33 -125194.76 77040.48 -125194.76 M 77611.9 -125194.76 77611.9 -123194.76 77421.43 -123480.48 77230.95 -123670.95 77040.48 -123766.19 M 79135.71 -125194.76 79516.67 -125194.76 79707.14 -125099.52 79802.38 -125004.28 79992.86 -124718.57 80088.09 -124337.62 80088.09 -123575.71 79992.86 -123385.24 79897.62 -123290 79707.14 -123194.76 79326.19 -123194.76 79135.71 -123290 79040.48 -123385.24 78945.24 -123575.71 78945.24 -124051.9 79040.48 -124242.38 79135.71 -124337.62 79326.19 -124432.86 79707.14 -124432.86 79897.62 -124337.62 79992.86 -124242.38 80088.09 -124051.9 M 80754.76 -123194.76 82088.09 -123194.76 81230.95 -125194.76 M 82754.76 -123194.76 82754.76 -123575.71 M 83516.67 -123194.76 83516.67 -123575.71 M 86469.05 -125956.67 86373.81 -125861.43 86183.33 -125575.71 86088.1 -125385.24 85992.86 -125099.52 85897.62 -124623.33 85897.62 -124242.38 85992.86 -123766.19 86088.1 -123480.48 86183.33 -123290 86373.81 -123004.28 86469.05 -122909.05 M 87040.48 -123194.76 88278.57 -123194.76 87611.9 -123956.67 87897.62 -123956.67 88088.1 -124051.9 88183.33 -124147.14 88278.57 -124337.62 88278.57 -124813.81 88183.33 -125004.28 88088.1 -125099.52 87897.62 -125194.76 87326.19 -125194.76 87135.71 -125099.52 87040.48 -125004.28 M 89040.48 -123385.24 89135.71 -123290 89326.19 -123194.76 89802.38 -123194.76 89992.86 -123290 90088.1 -123385.24 90183.33 -123575.71 90183.33 -123766.19 90088.1 -124051.9 88945.24 -125194.76 90183.33 -125194.76 M 92564.29 -125194.76 92564.29 -123194.76 M 93421.43 -125194.76 93421.43 -124147.14 93326.19 -123956.67 93135.71 -123861.43 92850 -123861.43 92659.52 -123956.67 92564.29 -124051.9 M 94659.52 -125194.76 94469.05 -125099.52 94373.81 -125004.28 94278.57 -124813.81 94278.57 -124242.38 94373.81 -124051.9 94469.05 -123956.67 94659.52 -123861.43 94945.24 -123861.43 95135.71 -123956.67 95230.95 -124051.9 95326.19 -124242.38 95326.19 -124813.81 95230.95 -125004.28 95135.71 -125099.52 94945.24 -125194.76 94659.52 -125194.76 M 96469.05 -125194.76 96278.57 -125099.52 96183.33 -124909.05 96183.33 -123194.76 M 97992.86 -125099.52 97802.38 -125194.76 97421.43 -125194.76 97230.95 -125099.52 97135.71 -124909.05 97135.71 -124147.14 97230.95 -123956.67 97421.43 -123861.43 97802.38 -123861.43 97992.86 -123956.67 98088.1 -124147.14 98088.1 -124337.62 97135.71 -124528.09 M 98850 -125099.52 99040.48 -125194.76 99421.43 -125194.76 99611.9 -125099.52 99707.14 -124909.05 99707.14 -124813.81 99611.9 -124623.33 99421.43 -124528.09 99135.71 -124528.09 98945.24 -124432.86 98850 -124242.38 98850 -124147.14 98945.24 -123956.67 99135.71 -123861.43 99421.43 -123861.43 99611.9 -123956.67 M 100373.81 -125956.67 100469.05 -125861.43 100659.52 -125575.71 100754.76 -125385.24 100850 -125099.52 100945.24 -124623.33 100945.24 -124242.38 100850 -123766.19 100754.76 -123480.48 100659.52 -123290 100469.05 -123004.28 100373.81 -122909.05" fill="none" stroke-width="200"/><path d="M 49990 -126170 49990 -127690 M 49230 -126930 50750 -126930" fill="none" stroke-width="152"/><path d="M 54373.81 -127834.76 53230.95 -127834.76 M 53802.38 -127834.76 53802.38 -125834.76 53611.9 -126120.48 53421.43 -126310.95 53230.95 -126406.19 M 55230.95 -127644.28 55326.19 -127739.52 55230.95 -127834.76 55135.71 -127739.52 55230.95 -127644.28 55230.95 -127834.76 M 57135.71 -125834.76 56183.33 -125834.76 56088.09 -126787.14 56183.33 -126691.9 56373.81 -126596.67 56850 -126596.67 57040.48 -126691.9 57135.71 -126787.14 57230.95 -126977.62 57230.95 -127453.81 57135.71 -127644.28 57040.48 -127739.52 56850 -127834.76 56373.81 -127834.76 56183.33 -127739.52 56088.09 -127644.28 M 57992.86 -126025.24 58088.09 -125930 58278.57 -125834.76 58754.76 -125834.76 58945.24 -125930 59040.48 -126025.24 59135.71 -126215.71 59135.71 -126406.19 59040.48 -126691.9 57897.62 -127834.76 59135.71 -127834.76 M 60373.81 -125834.76 60564.28 -125834.76 60754.76 -125930 60850 -126025.24 60945.24 -126215.71 61040.48 -126596.67 61040.48 -127072.86 60945.24 -127453.81 60850 -127644.28 60754.76 -127739.52 60564.28 -127834.76 60373.81 -127834.76 60183.33 -127739.52 60088.09 -127644.28 59992.86 -127453.81 59897.62 -127072.86 59897.62 -126596.67 59992.86 -126215.71 60088.09 -126025.24 60183.33 -125930 60373.81 -125834.76 M 61897.62 -127834.76 61897.62 -126501.43 M 61897.62 -126691.9 61992.86 -126596.67 62183.33 -126501.43 62469.05 -126501.43 62659.52 -126596.67 62754.76 -126787.14 62754.76 -127834.76 M 62754.76 -126787.14 62850 -126596.67 63040.48 -126501.43 63326.19 -126501.43 63516.67 -126596.67 63611.9 -126787.14 63611.9 -127834.76 M 64564.28 -127834.76 64564.28 -126501.43 M 64564.28 -126691.9 64659.52 -126596.67 64850 -126501.43 65135.71 -126501.43 65326.19 -126596.67 65421.43 -126787.14 65421.43 -127834.76 M 65421.43 -126787.14 65516.67 -126596.67 65707.14 -126501.43 65992.86 -126501.43 66183.33 -126596.67 66278.57 -126787.14 66278.57 -127834.76 M 70183.33 -125739.52 68469.05 -128310.95 M 72754.76 -125834.76 72945.24 -125834.76 73135.71 -125930 73230.95 -126025.24 73326.19 -126215.71 73421.43 -126596.67 73421.43 -127072.86 73326.19 -127453.81 73230.95 -127644.28 73135.71 -127739.52 72945.24 -127834.76 72754.76 -127834.76 72564.28 -127739.52 72469.05 -127644.28 72373.81 -127453.81 72278.57 -127072.86 72278.57 -126596.67 72373.81 -126215.71 72469.05 -126025.24 72564.28 -125930 72754.76 -125834.76 M 74278.57 -127644.28 74373.81 -127739.52 74278.57 -127834.76 74183.33 -127739.52 74278.57 -127644.28 74278.57 -127834.76 M 75611.9 -125834.76 75802.38 -125834.76 75992.86 -125930 76088.09 -126025.24 76183.33 -126215.71 76278.57 -126596.67 76278.57 -127072.86 76183.33 -127453.81 76088.09 -127644.28 75992.86 -127739.52 75802.38 -127834.76 75611.9 -127834.76 75421.43 -127739.52 75326.19 -127644.28 75230.95 -127453.81 75135.71 -127072.86 75135.71 -126596.67 75230.95 -126215.71 75326.19 -126025.24 75421.43 -125930 75611.9 -125834.76 M 78088.09 -125834.76 77135.71 -125834.76 77040.48 -126787.14 77135.71 -126691.9 77326.19 -126596.67 77802.38 -126596.67 77992.86 -126691.9 78088.09 -126787.14 78183.33 -126977.62 78183.33 -127453.81 78088.09 -127644.28 77992.86 -127739.52 77802.38 -127834.76 77326.19 -127834.76 77135.71 -127739.52 77040.48 -127644.28 M 79135.71 -127834.76 79516.67 -127834.76 79707.14 -127739.52 79802.38 -127644.28 79992.86 -127358.57 80088.09 -126977.62 80088.09 -126215.71 79992.86 -126025.24 79897.62 -125930 79707.14 -125834.76 79326.19 -125834.76 79135.71 -125930 79040.48 -126025.24 78945.24 -126215.71 78945.24 -126691.9 79040.48 -126882.38 79135.71 -126977.62 79326.19 -127072.86 79707.14 -127072.86 79897.62 -126977.62 79992.86 -126882.38 80088.09 -126691.9 M 81230.95 -126691.9 81040.48 -126596.67 80945.24 -126501.43 80850 -126310.95 80850 -126215.71 80945.24 -126025.24 81040.48 -125930 81230.95 -125834.76 81611.9 -125834.76 81802.38 -125930 81897.62 -126025.24 81992.86 -126215.71 81992.86 -126310.95 81897.62 -126501.43 81802.38 -126596.67 81611.9 -126691.9 81230.95 -126691.9 81040.48 -126787.14 80945.24 -126882.38 80850 -127072.86 80850 -127453.81 80945.24 -127644.28 81040.48 -127739.52 81230.95 -127834.76 81611.9 -127834.76 81802.38 -127739.52 81897.62 -127644.28 81992.86 -127453.81 81992.86 -127072.86 81897.62 -126882.38 81802.38 -126787.14 81611.9 -126691.9 M 82754.76 -125834.76 82754.76 -126215.71 M 83516.67 -125834.76 83516.67 -126215.71 M 86469.05 -128596.67 86373.81 -128501.43 86183.33 -128215.71 86088.1 -128025.24 85992.86 -127739.52 85897.62 -127263.33 85897.62 -126882.38 85992.86 -126406.19 86088.1 -126120.48 86183.33 -125930 86373.81 -125644.28 86469.05 -125549.05 M 88278.57 -127834.76 87135.71 -127834.76 M 87707.14 -127834.76 87707.14 -125834.76 87516.67 -126120.48 87326.19 -126310.95 87135.71 -126406.19 M 89992.86 -125834.76 89611.9 -125834.76 89421.43 -125930 89326.19 -126025.24 89135.71 -126310.95 89040.48 -126691.9 89040.48 -127453.81 89135.71 -127644.28 89230.95 -127739.52 89421.43 -127834.76 89802.38 -127834.76 89992.86 -127739.52 90088.1 -127644.28 90183.33 -127453.81 90183.33 -126977.62 90088.1 -126787.14 89992.86 -126691.9 89802.38 -126596.67 89421.43 -126596.67 89230.95 -126691.9 89135.71 -126787.14 89040.48 -126977.62 M 92564.29 -127834.76 92564.29 -125834.76 M 93421.43 -127834.76 93421.43 -126787.14 93326.19 -126596.67 93135.71 -126501.43 92850 -126501.43 92659.52 -126596.67 92564.29 -126691.9 M 94659.52 -127834.76 94469.05 -127739.52 94373.81 -127644.28 94278.57 -127453.81 94278.57 -126882.38 94373.81 -126691.9 94469.05 -126596.67 94659.52 -126501.43 94945.24 -126501.43 95135.71 -126596.67 95230.95 -126691.9 95326.19 -126882.38 95326.19 -127453.81 95230.95 -127644.28 95135.71 -127739.52 94945.24 -127834.76 94659.52 -127834.76 M 96469.05 -127834.76 96278.57 -127739.52 96183.33 -127549.05 96183.33 -125834.76 M 97992.86 -127739.52 97802.38 -127834.76 97421.43 -127834.76 97230.95 -127739.52 97135.71 -127549.05 97135.71 -126787.14 97230.95 -126596.67 97421.43 -126501.43 97802.38 -126501.43 97992.86 -126596.67 98088.1 -126787.14 98088.1 -126977.62 97135.71 -127168.09 M 98850 -127739.52 99040.48 -127834.76 99421.43 -127834.76 99611.9 -127739.52 99707.14 -127549.05 99707.14 -127453.81 99611.9 -127263.33 99421.43 -127168.09 99135.71 -127168.09 98945.24 -127072.86 98850 -126882.38 98850 -126787.14 98945.24 -126596.67 99135.71 -126501.43 99421.43 -126501.43 99611.9 -126596.67 M 100373.81 -128596.67 100469.05 -128501.43 100659.52 -128215.71 100754.76 -128025.24 100850 -127739.52 100945.24 -127263.33 100945.24 -126882.38 100850 -126406.19 100754.76 -126120.48 100659.52 -125930 100469.05 -125644.28 100373.81 -125549.05 M 50457.11 -130357.11 50457.11 -128942.89 49042.89 -128942.89 49042.89 -130357.11 50457.11 -130357.11 M 53135.71 -128554.76 54373.81 -128554.76 53707.14 -129316.67 53992.86 -129316.67 54183.33 -129411.9 54278.57 -129507.14 54373.81 -129697.62 54373.81 -130173.81 54278.57 -130364.28 54183.33 -130459.52 53992.86 -130554.76 53421.43 -130554.76 53230.95 -130459.52 53135.71 -130364.28 M 55230.95 -130364.28 55326.19 -130459.52 55230.95 -130554.76 55135.71 -130459.52 55230.95 -130364.28 55230.95 -130554.76 M 57135.71 -128554.76 56183.33 -128554.76 56088.09 -129507.14 56183.33 -129411.9 56373.81 -129316.67 56850 -129316.67 57040.48 -129411.9 57135.71 -129507.14 57230.95 -129697.62 57230.95 -130173.81 57135.71 -130364.28 57040.48 -130459.52 56850 -130554.76 56373.81 -130554.76 56183.33 -130459.52 56088.09 -130364.28 M 58469.05 -128554.76 58659.52 -128554.76 58850 -128650 58945.24 -128745.24 59040.48 -128935.71 59135.71 -129316.67 59135.71 -129792.86 59040.48 -130173.81 58945.24 -130364.28 58850 -130459.52 58659.52 -130554.76 58469.05 -130554.76 58278.57 -130459.52 58183.33 -130364.28 58088.09 -130173.81 57992.86 -129792.86 57992.86 -129316.67 58088.09 -128935.71 58183.33 -128745.24 58278.57 -128650 58469.05 -128554.76 M 60373.81 -128554.76 60564.28 -128554.76 60754.76 -128650 60850 -128745.24 60945.24 -128935.71 61040.48 -129316.67 61040.48 -129792.86 60945.24 -130173.81 60850 -130364.28 60754.76 -130459.52 60564.28 -130554.76 60373.81 -130554.76 60183.33 -130459.52 60088.09 -130364.28 59992.86 -130173.81 59897.62 -129792.86 59897.62 -129316.67 59992.86 -128935.71 60088.09 -128745.24 60183.33 -128650 60373.81 -128554.76 M 61897.62 -130554.76 61897.62 -129221.43 M 61897.62 -129411.9 61992.86 -129316.67 62183.33 -129221.43 62469.05 -129221.43 62659.52 -129316.67 62754.76 -129507.14 62754.76 -130554.76 M 62754.76 -129507.14 62850 -129316.67 63040.48 -129221.43 63326.19 -129221.43 63516.67 -129316.67 63611.9 -129507.14 63611.9 -130554.76 M 64564.28 -130554.76 64564.28 -129221.43 M 64564.28 -129411.9 64659.52 -129316.67 64850 -129221.43 65135.71 -129221.43 65326.19 -129316.67 65421.43 -129507.14 65421.43 -130554.76 M 65421.43 -129507.14 65516.67 -129316.67 65707.14 -129221.43 65992.86 -129221.43 66183.33 -129316.67 66278.57 -129507.14 66278.57 -130554.76 M 70183.33 -128459.52 68469.05 -131030.95 M 72754.76 -128554.76 72945.24 -128554.76 73135.71 -128650 73230.95 -128745.24 73326.19 -128935.71 73421.43 -129316.67 73421.43 -129792.86 73326.19 -130173.81 73230.95 -130364.28 73135.71 -130459.52 72945.24 -130554.76 72754.76 -130554.76 72564.28 -130459.52 72469.05 -130364.28 72373.81 -130173.81 72278.57 -129792.86 72278.57 -129316.67 72373.81 -128935.71 72469.05 -128745.24 72564.28 -128650 72754.76 -128554.76 M 74278.57 -130364.28 74373.81 -130459.52 74278.57 -130554.76 74183.33 -130459.52 74278.57 -130364.28 74278.57 -130554.76 M 76278.57 -130554.76 75135.71 -130554.76 M 75707.14 -130554.76 75707.14 -128554.76 75516.67 -128840.48 75326.19 -129030.95 75135.71 -129126.19 M 76945.24 -128554.76 78183.33 -128554.76 77516.67 -129316.67 77802.38 -129316.67 77992.86 -129411.9 78088.09 -129507.14 78183.33 -129697.62 78183.33 -130173.81 78088.09 -130364.28 77992.86 -130459.52 77802.38 -130554.76 77230.95 -130554.76 77040.48 -130459.52 76945.24 -130364.28 M 78850 -128554.76 80183.33 -128554.76 79326.19 -130554.76 M 81230.95 -129411.9 81040.48 -129316.67 80945.24 -129221.43 80850 -129030.95 80850 -128935.71 80945.24 -128745.24 81040.48 -128650 81230.95 -128554.76 81611.9 -128554.76 81802.38 -128650 81897.62 -128745.24 81992.86 -128935.71 81992.86 -129030.95 81897.62 -129221.43 81802.38 -129316.67 81611.9 -129411.9 81230.95 -129411.9 81040.48 -129507.14 80945.24 -129602.38 80850 -129792.86 80850 -130173.81 80945.24 -130364.28 81040.48 -130459.52 81230.95 -130554.76 81611.9 -130554.76 81802.38 -130459.52 81897.62 -130364.28 81992.86 -130173.81 81992.86 -129792.86 81897.62 -129602.38 81802.38 -129507.14 81611.9 -129411.9 M 82754.76 -128554.76 82754.76 -128935.71 M 83516.67 -128554.76 83516.67 -128935.71 M 86469.05 -131316.67 86373.81 -131221.43 86183.33 -130935.71 86088.1 -130745.24 85992.86 -130459.52 85897.62 -129983.33 85897.62 -129602.38 85992.86 -129126.19 86088.1 -128840.48 86183.33 -128650 86373.81 -128364.28 86469.05 -128269.05 M 88088.1 -129221.43 88088.1 -130554.76 M 87611.9 -128459.52 87135.71 -129888.09 88373.81 -129888.09 M 90659.52 -130554.76 90659.52 -128554.76 M 91516.67 -130554.76 91516.67 -129507.14 91421.43 -129316.67 91230.95 -129221.43 90945.24 -129221.43 90754.76 -129316.67 90659.52 -129411.9 M 92754.76 -130554.76 92564.29 -130459.52 92469.05 -130364.28 92373.81 -130173.81 92373.81 -129602.38 92469.05 -129411.9 92564.29 -129316.67 92754.76 -129221.43 93040.48 -129221.43 93230.95 -129316.67 93326.19 -129411.9 93421.43 -129602.38 93421.43 -130173.81 93326.19 -130364.28 93230.95 -130459.52 93040.48 -130554.76 92754.76 -130554.76 M 94564.29 -130554.76 94373.81 -130459.52 94278.57 -130269.05 94278.57 -128554.76 M 96088.1 -130459.52 95897.62 -130554.76 95516.67 -130554.76 95326.19 -130459.52 95230.95 -130269.05 95230.95 -129507.14 95326.19 -129316.67 95516.67 -129221.43 95897.62 -129221.43 96088.1 -129316.67 96183.33 -129507.14 96183.33 -129697.62 95230.95 -129888.09 M 96945.24 -130459.52 97135.71 -130554.76 97516.67 -130554.76 97707.14 -130459.52 97802.38 -130269.05 97802.38 -130173.81 97707.14 -129983.33 97516.67 -129888.09 97230.95 -129888.09 97040.48 -129792.86 96945.24 -129602.38 96945.24 -129507.14 97040.48 -129316.67 97230.95 -129221.43 97516.67 -129221.43 97707.14 -129316.67 M 98469.05 -131316.67 98564.29 -131221.43 98754.76 -130935.71 98850 -130745.24 98945.24 -130459.52 99040.48 -129983.33 99040.48 -129602.38 98945.24 -129126.19 98850 -128840.48 98754.76 -128650 98564.29 -128364.28 98469.05 -128269.05" fill="none" stroke-width="200"/></g></svg>